<svg width="25" height="26" viewBox="0 0 25 26" fill="none" xmlns="http://www.w3.org/2000/svg">
<path d="M12.4998 25.374C9.61378 25.3762 6.81596 24.3797 4.58114 22.5537C2.34633 20.7276 0.812203 18.1846 0.239154 15.356C-0.333895 12.5275 0.0894353 9.58789 1.4373 7.03601C2.78516 4.48413 4.97451 2.47725 7.63375 1.35599C10.6885 0.065584 14.1308 0.0415252 17.2033 1.28911C20.2758 2.5367 22.7268 4.95373 24.0173 8.00849C25.3077 11.0633 25.3317 14.5055 24.0841 17.578C22.8366 20.6505 20.4195 23.1016 17.3648 24.392C15.8257 25.0433 14.171 25.3773 12.4998 25.374ZM10.8068 9.27399C10.7018 9.27444 10.6013 9.3161 10.5268 9.38999L10.2888 9.62799C10.2155 9.70277 10.1744 9.80329 10.1744 9.908C10.1744 10.0127 10.2155 10.1132 10.2888 10.188L12.9938 12.888L10.2848 15.597C10.2115 15.6718 10.1704 15.7723 10.1704 15.877C10.1704 15.9817 10.2115 16.0822 10.2848 16.157L10.5218 16.395C10.5965 16.4683 10.6971 16.5093 10.8018 16.5093C10.9065 16.5093 11.007 16.4683 11.0818 16.395L14.3068 13.174C14.3809 13.0991 14.4226 12.9979 14.4226 12.8925C14.4226 12.7871 14.3809 12.6859 14.3068 12.611L11.0858 9.38699C11.011 9.31444 10.9109 9.2739 10.8068 9.27399Z" fill="#947761"/>
</svg>
