<svg width="56" height="42" viewBox="0 0 56 42" fill="none" xmlns="http://www.w3.org/2000/svg">
<path opacity="0.38" d="M29.463 36.145C39.3412 36.145 47.349 28.1372 47.349 18.259C47.349 8.38088 39.3412 0.373047 29.463 0.373047C19.5849 0.373047 11.577 8.38088 11.577 18.259C11.577 28.1372 19.5849 36.145 29.463 36.145Z" fill="white"/>
<path d="M10.211 12.8801L13.711 12.5391C14.053 12.5391 19.645 14.6731 19.645 14.6731L22.42 16.3801C22.42 16.3801 22.249 14.6731 22.591 14.5021L23.872 13.8621L25.75 14.3321L26.988 15.6981L27.628 17.9601L26.817 20.5601L27.97 22.9501C27.97 22.9501 29.208 22.3101 29.763 22.0501C30.318 21.7901 37.191 17.1841 37.575 17.1841C37.959 17.1841 40.734 16.4581 41.46 16.4581C42.186 16.4581 45.515 16.9701 45.515 16.9701L48.034 18.8481L49.656 22.1781L49.998 27.1721L50.51 28.1111L52.772 29.0931L55.034 32.8071L55.119 36.3071C55.119 36.3071 53.753 37.1611 53.412 37.0751C53.071 36.9891 50.765 35.8751 50.765 35.8751L49.612 35.5341L47.605 37.3391L44.83 38.9181C44.83 38.9181 41.714 39.6441 41.33 39.6441C40.946 39.6441 37.83 39.3441 37.83 39.3441C37.83 39.3441 36.037 37.7651 35.781 37.5081C35.525 37.2511 35.141 35.8861 34.927 35.8011C34.713 35.7161 33.727 35.2891 33.727 35.2891L33.087 35.5891L33.428 37.8091L31.806 40.0291L30.739 40.8831L28.05 41.2241L26.85 41.0111L25.057 40.4991L23.435 40.4141C23.1205 40.4069 22.8067 40.3785 22.496 40.3291C22.196 40.2441 21.557 39.3901 21.215 39.3901H19.218C18.876 39.3901 17.084 39.5181 17.084 39.5181L12.26 38.1091L8.20502 36.1031L4.36301 32.9871L2.01501 29.2731L1.58801 24.1511L2.869 19.7511L5.00301 15.9091L8.71701 13.9031L10.211 12.8801Z" fill="white"/>
<path d="M21.694 15.228C21.907 13.264 23.615 12.709 25.194 13.606C26.2838 14.236 27.0879 15.263 27.4379 16.4722C27.7879 17.6815 27.6568 18.9792 27.072 20.094C26.859 20.478 28.054 22.228 28.054 22.228C30.2511 21.1527 32.3383 19.8659 34.286 18.386C35.5738 17.3385 37.0691 16.5763 38.6733 16.1494C40.2775 15.7226 41.9539 15.641 43.592 15.91C45.4139 16.223 47.0641 17.1766 48.245 18.599C49.1622 19.7776 49.8252 21.1334 50.1924 22.5811C50.5595 24.0287 50.6227 25.5367 50.378 27.01L51.402 27.48C52.7268 28.2474 53.8191 29.3591 54.5632 30.6971C55.3072 32.0352 55.6751 33.5497 55.628 35.08C55.685 35.6159 55.5658 36.1558 55.2885 36.6179C55.0111 37.08 54.5907 37.4392 54.091 37.641C53.4702 37.8143 52.8132 37.8102 52.1946 37.6292C51.576 37.4482 51.0205 37.0976 50.591 36.617C49.691 35.763 49.823 35.849 48.798 36.83C46.1039 39.1566 42.621 40.3632 39.065 40.202C38.2857 40.1347 37.5317 39.8925 36.8591 39.4934C36.1865 39.0943 35.6125 38.5486 35.18 37.897C34.8106 37.3435 34.523 36.7396 34.326 36.104C34.241 35.891 33.942 35.933 33.771 35.933C33.9045 36.7291 33.8422 37.5457 33.5894 38.3123C33.3366 39.079 32.9009 39.7725 32.32 40.333C31.5129 41.0048 30.5377 41.4436 29.4996 41.6022C28.4616 41.7608 27.3999 41.6331 26.429 41.233C25.6812 40.8927 24.8557 40.76 24.039 40.849C23.4263 40.9827 22.7901 40.963 22.1868 40.7917C21.5835 40.6204 21.0319 40.3027 20.581 39.867C18.5815 40.4202 16.4513 40.2539 14.562 39.397C12.178 38.24 3.07797 36.828 1.28897 27.608C0.840452 25.668 0.870052 23.6482 1.37523 21.7223C1.8804 19.7963 2.84602 18.022 4.18896 16.552C5.06041 15.3808 6.16041 14.3986 7.42238 13.6649C8.68435 12.9311 10.0821 12.461 11.531 12.283C14.2646 11.9104 17.0458 12.4186 19.471 13.734C20.241 14.1873 20.9833 14.6862 21.694 15.228ZM7.69397 14.928C5.76213 16.29 4.25314 18.1688 3.33997 20.349C2.62243 21.9125 2.26167 23.6162 2.28381 25.3364C2.30595 27.0566 2.71044 28.7504 3.46797 30.295C4.5508 32.7419 6.453 34.7346 8.84697 35.93C10.8933 36.9123 13.0042 37.7539 15.165 38.449C16.7034 39.0315 18.374 39.1723 19.9882 38.8555C21.6024 38.5386 23.0959 37.7768 24.3 36.656C26.0554 35.0659 27.2902 32.9831 27.843 30.68C28.3936 28.8878 28.4462 26.9796 27.995 25.1598C27.5439 23.3401 26.606 21.6774 25.282 20.35C23.703 18.728 22.082 17.106 20.373 15.612C17.641 13.307 11.75 12.197 7.69498 14.929L7.69397 14.928ZM37.958 26.711C38.043 26.668 38.171 26.668 38.214 26.754C38.2347 26.7856 38.2458 26.8226 38.2458 26.8605C38.2458 26.8983 38.2347 26.9353 38.214 26.967C36.8979 28.4054 35.9336 30.1296 35.397 32.004C34.714 34.651 35.141 37.041 37.019 38.322C38.1851 39.0619 39.587 39.3361 40.946 39.09C44.746 38.535 48.075 36.998 50.337 33.711C50.721 33.156 50.892 32.558 51.148 32.985C51.319 33.285 51.063 33.839 50.892 34.223C50.465 35.123 50.508 35.205 51.447 35.93C53.368 37.381 54.478 36.314 54.606 35.204C54.7053 34.0433 54.5111 32.8762 54.0412 31.8102C53.5713 30.7443 52.8408 29.8136 51.917 29.104C50.935 28.336 50.252 28.504 49.317 29.404C48.2241 30.5461 46.9375 31.4856 45.517 32.179C45.4975 32.1883 45.4764 32.1934 45.4548 32.1941C45.4333 32.1949 45.4119 32.1911 45.3919 32.1831C45.3718 32.1751 45.3537 32.1631 45.3386 32.1477C45.3235 32.1324 45.3117 32.1141 45.304 32.094C45.2977 32.0337 45.3129 31.9731 45.347 31.923C45.5518 31.7751 45.7381 31.6032 45.902 31.411C47.481 29.789 49.232 28.211 49.317 25.734C49.3165 24.7892 49.2308 23.8464 49.061 22.917C48.7911 21.3253 47.998 19.8691 46.8073 18.7789C45.6166 17.6887 44.0962 17.0268 42.487 16.898C39.6224 16.8415 36.8233 17.7581 34.547 19.498C32.6627 20.9483 30.6477 22.2204 28.528 23.298C28.7819 23.8386 28.9544 24.4138 29.04 25.005C29.7141 28.3399 29.0881 31.8065 27.29 34.695C27.5301 34.6522 27.7759 34.6522 28.016 34.695C28.3109 34.72 28.5948 34.8193 28.8411 34.9834C29.0875 35.1476 29.2883 35.3714 29.425 35.634C29.681 36.36 28.998 35.762 28.358 35.591C27.9321 35.4651 27.4786 35.4667 27.0537 35.5957C26.6287 35.7248 26.2509 35.9755 25.967 36.317C25.0997 37.2625 24.0919 38.0686 22.979 38.707C22.5675 38.9141 22.1389 39.0854 21.698 39.219C21.741 39.603 22.424 39.819 23.064 39.902C23.4781 39.9589 23.8995 39.93 24.302 39.817C24.387 39.476 23.662 39.433 24.046 39.049C24.43 38.665 25.924 39.817 26.394 40.073C27.1766 40.514 28.0668 40.7277 28.9643 40.6901C29.8618 40.6524 30.731 40.3649 31.474 39.86C33.224 38.366 33.31 36.36 31.944 34.481C31.3355 33.7367 30.5797 33.1262 29.724 32.688C29.468 32.56 28.785 32.176 29.212 31.834C29.383 31.706 29.852 31.877 30.112 32.005C31.3204 32.4712 32.3612 33.2891 33.1 34.353C33.2309 34.5642 33.4251 34.7286 33.655 34.823C34.125 34.994 33.996 34.439 33.996 34.183C34.0523 32.7192 34.4386 31.2871 35.126 29.9936C35.8135 28.7001 36.7843 27.5786 37.966 26.713L37.958 26.711ZM23.871 17.448C23.7931 17.0815 23.7361 16.7109 23.7 16.338C23.7 16.038 23.743 15.655 24.041 15.698C24.254 15.698 24.341 16.039 24.383 16.253C24.767 17.918 25.664 19.369 25.92 19.326C26.0323 19.315 26.1395 19.2734 26.2298 19.2057C26.32 19.138 26.39 19.0467 26.432 18.942C27.158 17.448 25.832 14.631 24.255 14.289C23.9548 14.23 23.6437 14.2686 23.3671 14.3992C23.0905 14.5299 22.863 14.7457 22.718 15.015C22.6233 15.4906 22.6843 15.984 22.892 16.4222C23.0996 16.8604 23.4429 17.2201 23.871 17.448Z" fill="#9E765D"/>
<path d="M9.571 21.8447C10.2167 21.8491 10.8462 22.0465 11.3788 22.4117C11.9113 22.7769 12.3223 23.293 12.559 23.8937C12.8342 24.5162 12.9162 25.207 12.7944 25.8766C12.6726 26.5463 12.3527 27.1639 11.876 27.6497C11.4598 28.0283 11.0015 28.3578 10.51 28.6317C10.4741 28.6536 10.434 28.6676 10.3923 28.6729C10.3506 28.6783 10.3083 28.6748 10.268 28.6627C10.2278 28.6507 10.1905 28.6303 10.1586 28.6029C10.1267 28.5755 10.101 28.5417 10.083 28.5037C10.04 28.4607 10.04 28.4187 10.04 28.3327C10.0391 27.9089 9.92105 27.4937 9.699 27.1327C9.54986 26.9585 9.35449 26.83 9.13543 26.762C8.91638 26.6941 8.68256 26.6895 8.461 26.7487L7.43701 26.8767C6.97475 26.9287 6.50699 26.8561 6.08223 26.6664C5.65746 26.4768 5.29111 26.1771 5.02113 25.7983C4.75115 25.4195 4.58736 24.9754 4.54672 24.512C4.50608 24.0486 4.59008 23.5827 4.79001 23.1627C4.76561 23.9145 5.03889 24.6456 5.55044 25.197C6.062 25.7484 6.7705 26.0757 7.522 26.1077C7.80851 26.1027 8.09413 26.0743 8.376 26.0227C8.62954 25.9391 8.89879 25.9143 9.16334 25.9501C9.4279 25.986 9.68081 26.0816 9.90294 26.2297C10.1251 26.3778 10.3105 26.5745 10.4454 26.805C10.5802 27.0354 10.6607 27.2935 10.681 27.5597C12.815 26.1987 12.175 23.2957 9.571 21.8447Z" fill="#9E765D"/>
<path d="M19.474 27.8204C19.133 27.8634 18.748 27.8634 18.574 27.5204C18.4 27.1774 18.745 26.8374 19.214 26.7094C19.4271 26.659 19.6281 26.5672 19.8057 26.4391C19.9832 26.3111 20.1338 26.1492 20.2488 25.9629C20.3637 25.7766 20.4409 25.5695 20.4757 25.3534C20.5106 25.1373 20.5026 24.9164 20.452 24.7034C20.409 24.3624 20.367 23.8924 20.708 23.7644C21.178 23.5934 21.391 24.1484 21.476 24.4904C21.6155 24.8398 21.6722 25.2167 21.6418 25.5917C21.6115 25.9666 21.4948 26.3295 21.301 26.6519C21.1071 26.9744 20.8414 27.2476 20.5244 27.4503C20.2075 27.653 19.848 27.7796 19.474 27.8204Z" fill="#9E765D"/>
<path d="M16.358 33.1141C16.4354 33.7218 16.2805 34.3364 15.9244 34.835C15.5682 35.3335 15.037 35.6792 14.437 35.8031C14.095 35.9311 13.626 35.9741 13.498 35.5901C13.37 35.2061 13.669 35.0351 14.01 34.8641C14.404 34.7145 14.7403 34.4437 14.9705 34.0908C15.2007 33.7378 15.3129 33.3209 15.291 32.9001C15.291 32.6001 15.206 32.1321 15.718 32.1321C16.06 32.0891 16.273 32.6871 16.358 33.1141Z" fill="#9E765D"/>
<path d="M24.4689 31.7913C24.5438 32.1334 24.5501 32.4869 24.4874 32.8315C24.4247 33.176 24.2943 33.5047 24.1038 33.7985C23.9132 34.0923 23.6663 34.3453 23.3772 34.5431C23.0882 34.7408 22.7628 34.8792 22.4199 34.9503C22.3349 34.9503 22.2489 34.9933 22.1639 34.9933C21.8639 35.0363 21.3959 35.0363 21.3099 34.7803C21.2239 34.5243 21.5229 34.3533 21.7369 34.3103C22.3669 34.1732 22.9208 33.801 23.2857 33.2696C23.6507 32.7381 23.7992 32.0875 23.7009 31.4503C23.7009 31.2373 23.7859 30.9803 24.0009 31.0233C24.2979 31.1083 24.3829 31.4923 24.4689 31.7913Z" fill="#9E765D"/>
<path d="M30.231 12.8382C30.274 12.8812 30.274 12.9232 30.274 13.0092C30.2707 13.0583 30.2578 13.1062 30.2358 13.1501C30.2138 13.1941 30.1833 13.2332 30.146 13.2652L29.933 13.4782C28.8021 13.3931 27.6848 13.1783 26.603 12.8382C26.432 12.7952 26.219 12.7102 26.048 12.6672C25.8688 12.5872 25.7194 12.4529 25.621 12.2832V12.0702C26.5176 11.0456 27.0726 10.4052 27.286 10.1492C27.8319 9.49719 28.3175 8.79699 28.737 8.05722C28.5073 7.91604 28.2369 7.85584 27.969 7.88622C27.725 7.89342 27.482 7.92187 27.243 7.97122C26.987 8.01422 26.773 8.01422 26.517 8.05622C26.3294 8.04882 26.1432 8.0203 25.962 7.97122C25.749 7.84322 25.621 7.71522 25.621 7.54422C25.621 7.50122 25.664 7.41622 25.664 7.37322C25.9467 7.16579 26.298 7.07422 26.646 7.11722H27.073C27.259 7.12416 27.4452 7.10973 27.628 7.07422C27.9425 7.08136 28.2562 7.10975 28.567 7.15922C28.8704 7.19421 29.1623 7.29671 29.421 7.45922C29.508 7.51468 29.5805 7.59003 29.6327 7.67905C29.6849 7.76807 29.7151 7.86821 29.721 7.97122C29.721 8.05622 29.721 8.09922 29.678 8.14222C29.3738 8.87203 28.9559 9.54908 28.44 10.1482C27.928 10.7482 27.416 11.3862 26.903 11.9412C27.8829 12.2341 28.8811 12.4623 29.891 12.6242C30.06 12.5822 30.146 12.7102 30.231 12.8382Z" fill="white"/>
<path d="M36.08 10.0199V10.1049C36.0795 10.1379 36.0715 10.1704 36.0568 10.2C36.0421 10.2296 36.021 10.2555 35.995 10.2759L35.824 10.4469C35.028 10.3914 34.2406 10.2482 33.476 10.0199L33.092 9.89187C32.9649 9.84464 32.8586 9.75395 32.792 9.63587V9.46487C33.2018 9.03162 33.5867 8.57556 33.945 8.09887C34.3243 7.64315 34.6668 7.15795 34.969 6.64787C34.7972 6.5606 34.6067 6.51666 34.414 6.51987C34.243 6.51987 34.073 6.56287 33.902 6.56287C33.7338 6.59833 33.5618 6.61277 33.39 6.60587C33.2605 6.61269 33.1308 6.59817 33.006 6.56287C32.835 6.47787 32.75 6.39187 32.75 6.26287C32.75 6.21987 32.75 6.17787 32.793 6.17787C32.9934 6.04217 33.2353 5.98161 33.476 6.00687H33.776C33.9055 6.01369 34.0352 5.99917 34.16 5.96387C34.373 5.96387 34.587 6.00687 34.843 6.00687C35.0717 6.01888 35.2928 6.09248 35.483 6.21987C35.5485 6.26021 35.6025 6.31673 35.6398 6.38398C35.6771 6.45124 35.6965 6.52696 35.696 6.60387C35.6988 6.62706 35.6964 6.65058 35.689 6.67273C35.6815 6.69487 35.6693 6.71507 35.653 6.73187C35.4355 7.2391 35.1481 7.71337 34.799 8.14087C34.415 8.56787 34.073 8.99487 33.689 9.42187C34.3844 9.64374 35.0987 9.80107 35.823 9.89187C35.8479 9.87927 35.8754 9.87267 35.9033 9.87258C35.9311 9.87249 35.9587 9.87892 35.9836 9.89135C36.0086 9.90378 36.0303 9.92188 36.0471 9.94419C36.0638 9.96651 36.0751 9.99242 36.08 10.0199Z" fill="white"/>
</svg>
