<svg width="52" height="53" viewBox="0 0 52 53" fill="none" xmlns="http://www.w3.org/2000/svg">
<path d="M26.146 51.5539C19.4769 51.5539 13.0809 48.9046 8.36509 44.1888C3.6493 39.473 1 33.077 1 26.4079C1 19.7387 3.6493 13.3428 8.36509 8.62697C13.0809 3.91118 19.4769 1.26188 26.146 1.26188C30.3054 1.24678 34.4011 2.28394 38.052 4.27688C41.6491 6.25307 44.7319 9.04639 47.052 12.4319C49.5833 16.218 51.0388 20.6205 51.2631 25.1694C51.4874 29.7182 50.4721 34.2425 48.3256 38.2594C46.1791 42.2762 42.982 45.6346 39.0757 47.9761C35.1693 50.3176 30.7004 51.5542 26.146 51.5539Z" stroke="white"/>
<path d="M28.025 36.9288H24.34C24.224 36.9288 24.1128 36.8828 24.0307 36.8009C23.9485 36.7189 23.9023 36.6078 23.902 36.4918V27.5178H21.083C20.9669 27.5178 20.8554 27.4717 20.7733 27.3895C20.6912 27.3074 20.645 27.196 20.645 27.0798V23.5238C20.6453 23.4078 20.6915 23.2967 20.7737 23.2147C20.8558 23.1328 20.967 23.0868 21.083 23.0868H23.903V20.6308C23.8474 19.9524 23.9328 19.2699 24.154 18.6262C24.3753 17.9825 24.7274 17.3916 25.1883 16.8907C25.6493 16.3899 26.2089 15.9899 26.8321 15.7161C27.4552 15.4423 28.1284 15.3006 28.809 15.2998H31.895C31.953 15.3002 32.0103 15.312 32.0637 15.3347C32.1171 15.3573 32.1655 15.3904 32.206 15.4318C32.2473 15.473 32.2798 15.5222 32.3015 15.5763C32.3231 15.6305 32.3335 15.6885 32.332 15.7468V19.0678C32.3318 19.1838 32.2855 19.2949 32.2034 19.3769C32.1213 19.4588 32.01 19.5048 31.894 19.5048H30.008C28.708 19.5048 28.466 20.0128 28.466 21.0128V23.0858H31.766C31.882 23.0858 31.9933 23.1318 32.0754 23.2137C32.1575 23.2957 32.2038 23.4068 32.204 23.5228V27.0858C32.204 27.202 32.1579 27.3134 32.0757 27.3955C31.9936 27.4777 31.8822 27.5238 31.766 27.5238H28.466V36.4858C28.4664 36.5439 28.4552 36.6014 28.4332 36.6551C28.4111 36.7088 28.3785 36.7576 28.3373 36.7985C28.2962 36.8395 28.2473 36.8719 28.1935 36.8937C28.1397 36.9156 28.0821 36.9265 28.024 36.9258L28.025 36.9288Z" fill="white"/>
</svg>
