<svg width="119" height="146" viewBox="0 0 119 146" fill="none" xmlns="http://www.w3.org/2000/svg">
<path d="M36.009 145.735L35.121 145.549V144.413C35.121 143.793 35.221 143.298 35.328 143.298C35.435 143.298 35.535 143.525 35.535 143.814C35.5812 144.208 35.7637 144.574 36.051 144.847C36.443 145.26 36.751 145.363 37.6 145.363C39.4 145.363 40.285 144.619 40.285 143.07C40.285 142.161 39.685 141.727 38.096 141.459C36.382 141.149 35.803 140.819 35.411 139.869C35.2928 139.626 35.2263 139.361 35.2157 139.091C35.205 138.821 35.2504 138.551 35.349 138.299C35.803 136.543 37.807 135.573 39.872 136.068C40.0793 136.012 40.299 136.021 40.5009 136.095C40.7028 136.169 40.8768 136.303 40.9991 136.48C41.1214 136.656 41.1859 136.867 41.1837 137.081C41.1815 137.296 41.1128 137.505 40.987 137.679L40.842 138.65L40.594 137.845C40.486 137.439 40.2721 137.068 39.974 136.771C39.169 136.171 37 136.606 36.69 137.411C36.6054 137.756 36.5638 138.11 36.566 138.464C36.566 139.352 37 139.641 39.086 140.075C40.386 140.364 40.78 140.55 41.213 141.046C42.513 142.616 41.313 145.115 38.941 145.755C37.9816 146.028 36.9645 146.021 36.009 145.735Z" fill="white"/>
<path d="M72.836 145.631C71.122 145.011 70.977 144.64 70.853 140.757C70.8481 139.555 70.7582 138.354 70.584 137.163C70.4951 137.074 70.3886 137.004 70.2712 136.958C70.1538 136.912 70.028 136.89 69.902 136.895C69.592 136.895 69.402 136.771 69.402 136.585C69.402 136.337 69.774 136.275 71.571 136.275C73.368 136.275 73.74 136.337 73.74 136.585C73.74 136.771 73.554 136.895 73.224 136.895C72.419 136.895 72.253 137.639 72.336 140.819C72.419 144.537 72.708 144.95 75.186 144.95C77.417 144.95 77.85 144.103 77.871 139.869C77.871 137.246 77.771 136.895 76.9 136.895C76.611 136.895 76.425 136.771 76.425 136.585C76.425 136.337 76.755 136.275 78.181 136.275C79.565 136.275 79.937 136.337 79.937 136.564C79.937 136.75 79.689 136.894 79.276 136.936L78.594 136.998L78.47 140.298C78.346 143.998 78.16 144.598 76.983 145.338C75.6922 145.975 74.2034 146.08 72.836 145.631Z" fill="white"/>
<path d="M30.742 145.611C29.8746 144.823 29.072 143.966 28.342 143.049C27.206 141.706 25.781 140.055 25.12 139.35L23.943 138.049L24.005 141.437L24.067 144.845L24.667 144.945C25.867 145.152 25.287 145.461 23.614 145.523C22.189 145.564 21.9 145.523 21.9 145.255C21.9 145.069 22.086 144.945 22.4 144.945C23.288 144.945 23.371 144.615 23.309 140.794L23.247 137.2L22.586 136.993C21.409 136.663 21.739 136.27 23.226 136.27H24.548L25.333 137.26C27.1136 139.505 29.0095 141.656 31.013 143.705C31.2279 141.818 31.235 139.913 31.034 138.025C30.91 137.096 30.827 136.992 30.334 136.93C29.983 136.889 29.756 136.743 29.756 136.557C29.756 136.309 30.066 136.269 31.47 136.31C32.461 136.351 33.143 136.455 33.122 136.578C33.101 136.701 32.853 136.805 32.606 136.846C31.697 136.97 31.615 137.346 31.615 141.679C31.615 145.934 31.615 145.954 30.748 145.603L30.742 145.611Z" fill="white"/>
<path d="M14.674 145.259C14.674 145.052 14.8809 144.949 15.3559 144.949C16.6559 144.949 16.6369 145.073 16.6989 139.331C16.7399 136.46 16.6989 133.651 16.5989 133.073L16.4339 132.04L15.5459 131.978C14.9679 131.937 14.6789 131.813 14.6789 131.606C14.6789 131.379 15.1949 131.317 17.5709 131.317C20.0079 131.317 20.4629 131.358 20.4629 131.627C20.4629 131.854 20.2359 131.937 19.6369 131.937C19.0379 131.937 18.77 132.037 18.604 132.329C18.3286 136.4 18.3286 140.485 18.604 144.556C18.769 144.845 19.0379 144.948 19.6369 144.948C20.2359 144.948 20.4629 145.031 20.4629 145.258C20.4629 145.526 20.0089 145.568 17.5709 145.568C15.1329 145.568 14.674 145.528 14.674 145.259Z" fill="white"/>
<path d="M45.4481 145.259C45.4481 145.073 45.634 144.949 45.923 144.949C46.832 144.949 46.8941 144.681 46.8941 140.674V136.894H45.4481C44.4571 136.894 43.9611 136.977 43.9201 137.162C43.8192 137.446 43.7364 137.735 43.6721 138.029L43.5271 138.649L43.382 138.029C43.2915 137.642 43.2293 137.249 43.1961 136.852L43.175 136.274H52.056V137.41C52.056 138.71 51.767 138.897 51.498 137.782L51.3121 136.997L49.8251 136.935L48.3381 136.873V140.673C48.3381 144.68 48.4001 144.948 49.3091 144.948C49.5981 144.948 49.7841 145.072 49.7841 145.258C49.7841 145.506 49.4121 145.568 47.6151 145.568C45.8181 145.568 45.4481 145.507 45.4481 145.259Z" fill="white"/>
<path d="M53.5029 145.259C53.5029 145.073 53.6889 144.949 53.9779 144.949C54.8869 144.949 54.9489 144.66 54.9489 140.921C54.9489 137.182 54.8869 136.894 53.9779 136.894C53.6889 136.894 53.5029 136.77 53.5029 136.584C53.5029 136.336 53.8749 136.274 55.6719 136.274C57.4279 136.274 57.8409 136.336 57.8409 136.563C57.8409 136.728 57.5929 136.893 57.2829 136.935C56.5189 137.018 56.4359 137.435 56.4359 140.921C56.4359 144.407 56.5189 144.821 57.2829 144.907C57.5929 144.948 57.8409 145.114 57.8409 145.279C57.8409 145.506 57.4279 145.568 55.6719 145.568C53.8749 145.569 53.5029 145.507 53.5029 145.259Z" fill="white"/>
<path d="M61.558 145.259C61.558 145.073 61.744 144.949 62.033 144.949C62.942 144.949 63.004 144.681 63.004 140.674V136.894H61.558C60.567 136.894 60.071 136.977 60.03 137.162C59.9292 137.446 59.8464 137.735 59.782 138.029L59.637 138.649L59.492 138.029C59.4015 137.642 59.3393 137.249 59.306 136.852L59.285 136.274H68.166V137.41C68.166 138.71 67.877 138.897 67.608 137.782L67.422 136.997L65.935 136.935L64.448 136.873V140.673C64.448 144.68 64.51 144.948 65.419 144.948C65.708 144.948 65.894 145.072 65.894 145.258C65.894 145.506 65.522 145.568 63.725 145.568C61.928 145.568 61.558 145.507 61.558 145.259Z" fill="white"/>
<path d="M83.245 145.259C83.245 145.073 83.431 144.949 83.72 144.949C84.629 144.949 84.691 144.681 84.691 140.674V136.894H83.245C82.254 136.894 81.758 136.977 81.717 137.162C81.6162 137.446 81.5334 137.735 81.469 138.029L81.324 138.649L81.179 138.029C81.0885 137.642 81.0263 137.249 80.993 136.852L80.972 136.274H89.853V137.41C89.853 138.71 89.564 138.897 89.295 137.782L89.109 136.997L87.622 136.935L86.135 136.873V140.673C86.135 144.68 86.197 144.948 87.106 144.948C87.395 144.948 87.581 145.072 87.581 145.258C87.581 145.506 87.209 145.568 85.412 145.568C83.615 145.568 83.243 145.506 83.243 145.258L83.245 145.259Z" fill="white"/>
<path d="M91.031 145.425C90.742 145.156 90.886 144.95 91.361 144.95C92.27 144.95 92.332 144.661 92.332 140.902C92.332 137.226 92.291 137.019 91.423 136.875C91.3217 136.857 91.225 136.819 91.1391 136.762C91.0531 136.705 90.9796 136.631 90.923 136.545C90.861 136.338 91.708 136.276 94.703 136.276H98.586L98.441 136.916C98.3735 137.292 98.3321 137.671 98.317 138.052C98.317 138.857 97.966 138.61 97.817 137.722L97.693 136.896H94.037L93.892 137.536C93.8108 138.118 93.7694 138.705 93.768 139.292V140.407H95.203C96.69 140.407 96.876 140.283 96.876 139.354C96.876 139.147 96.976 138.961 97.083 138.961C97.2868 139.523 97.3577 140.124 97.29 140.717C97.29 141.75 97.207 142.473 97.083 142.473C96.959 142.473 96.876 142.287 96.876 142.081C96.876 141.152 96.69 141.028 95.203 141.028H93.778V142.04C93.778 142.577 93.84 143.465 93.902 144.002L94.047 144.952H98.095L98.302 144.188C98.4057 143.851 98.4817 143.505 98.529 143.155C98.5248 143.09 98.5461 143.025 98.5884 142.975C98.6307 142.925 98.6908 142.893 98.756 142.886C98.921 142.886 98.963 143.155 98.856 143.671C98.7877 144.116 98.7463 144.564 98.732 145.013V145.571H94.952C93.6423 145.615 92.331 145.567 91.028 145.426L91.031 145.425Z" fill="white"/>
<path d="M72.091 128.303C71.802 128.241 71.224 128.096 70.81 127.993L70.025 127.786V126.134C70.025 124.895 70.087 124.482 70.293 124.544C70.4976 124.803 70.6071 125.124 70.603 125.453C70.6383 125.904 70.8032 126.334 71.078 126.692C72.007 127.683 75.229 127.911 76.386 127.043C76.8243 126.747 77.1872 126.351 77.4459 125.89C77.7046 125.428 77.8518 124.912 77.876 124.383C77.876 122.442 77.36 121.983 74.468 121.388C71.928 120.888 70.998 120.376 70.42 119.178C70.005 118.224 69.9801 117.146 70.3508 116.174C70.7215 115.202 71.4582 114.414 72.403 113.978C73.1626 113.574 74.0239 113.4 74.881 113.478C76.0319 113.444 77.1757 113.67 78.227 114.139C78.413 114.263 78.454 114.697 78.351 115.688C78.206 117.278 77.835 117.464 77.669 116.039C77.524 114.82 76.843 114.325 75.108 114.221C74.4437 114.117 73.7635 114.203 73.146 114.469C72.7871 114.671 72.4754 114.947 72.2321 115.279C71.9887 115.612 71.8193 115.992 71.7352 116.395C71.651 116.798 71.6542 117.214 71.7444 117.616C71.8345 118.018 72.0097 118.396 72.258 118.724C72.758 119.282 73.084 119.406 75.108 119.777C76.1159 119.931 77.101 120.208 78.041 120.603C78.511 120.915 78.8865 121.349 79.1268 121.859C79.3671 122.369 79.463 122.935 79.404 123.495C79.383 126.118 77.091 128.121 73.91 128.328C73.3043 128.367 72.6966 128.359 72.092 128.307L72.091 128.303Z" fill="white"/>
<path d="M0.422974 127.705C0.422974 127.498 0.629974 127.395 1.02297 127.395C2.34497 127.395 2.28297 127.746 2.28297 120.889C2.28297 114.032 2.34497 114.383 1.02297 114.383C0.630974 114.383 0.422974 114.283 0.422974 114.073C0.422974 113.804 1.10497 113.763 5.29697 113.763H10.151L10.006 115.271C9.97801 115.806 9.90204 116.339 9.77897 116.861C9.59297 117.068 9.30397 116.303 9.30397 115.601C9.30397 114.899 9.24197 114.837 8.66397 114.713C7.80642 114.622 6.94431 114.58 6.08197 114.589H4.14097V120.372H6.06097C6.77401 120.401 7.48805 120.346 8.18797 120.207C8.3895 119.942 8.51779 119.628 8.55997 119.298C8.84897 117.77 9.09697 118.534 9.09697 120.888C9.1836 121.685 9.11327 122.492 8.88997 123.263C8.76597 123.263 8.68297 123.036 8.68297 122.763C8.67411 122.409 8.60408 122.059 8.47597 121.73C8.28997 121.193 8.24897 121.193 6.20397 121.193H4.14097V124.043C4.14097 125.985 4.22397 126.976 4.38897 127.143C4.70403 127.337 5.07341 127.424 5.44197 127.391C5.97897 127.391 6.20597 127.474 6.16497 127.66C6.12397 127.846 5.27697 127.928 3.25297 127.97C0.836974 128.011 0.422974 127.97 0.422974 127.702V127.705Z" fill="white"/>
<path d="M11.576 127.708C11.576 127.543 11.7621 127.398 11.9891 127.398C12.5671 127.398 13.1661 126.386 15.1081 122.09C15.6262 120.771 16.2684 119.505 17.0261 118.308C17.5826 119.129 18.0335 120.017 18.368 120.952C20.702 126.425 21.0121 127.004 21.6931 127.252C22.0231 127.376 22.3131 127.603 22.3131 127.752C22.3131 127.959 21.755 128.02 20.041 128.02C18.161 128.02 17.7691 127.958 17.7691 127.71C17.7691 127.524 17.955 127.4 18.244 127.4C19.215 127.4 19.3391 127.111 18.8841 126.016L18.4711 125.025L16.3851 124.963L14.299 124.901L13.9691 125.748C13.4531 127.07 13.5971 127.4 14.6921 127.4C14.7843 127.393 14.8757 127.421 14.9483 127.478C15.0209 127.536 15.0693 127.618 15.084 127.71C15.084 127.958 14.754 128.02 13.328 128.02C11.902 128.02 11.576 127.953 11.576 127.708ZM17.2971 122.338C16.8431 121.243 16.388 120.438 16.306 120.52C16.182 120.665 14.674 124.072 14.674 124.238C15.2499 124.303 15.83 124.324 16.409 124.3H18.1441L17.2971 122.338Z" fill="white"/>
<path d="M23.968 127.705C23.968 127.519 24.154 127.395 24.443 127.395C25.352 127.395 25.414 127.106 25.414 123.367C25.414 119.628 25.352 119.34 24.443 119.34C24.154 119.34 23.968 119.216 23.968 119.03C23.968 118.782 24.278 118.72 25.476 118.72H26.963L28.595 122.231C29.101 123.439 29.6876 124.612 30.351 125.742C31.056 124.615 31.6838 123.442 32.23 122.231L33.986 118.72H35.37C36.444 118.72 36.77 118.782 36.77 119.009C36.77 119.195 36.522 119.339 36.212 119.381C35.712 119.443 35.612 119.567 35.489 120.269C35.303 122.295 35.303 124.335 35.489 126.362C35.613 127.188 35.696 127.291 36.212 127.353C36.522 127.394 36.77 127.539 36.77 127.725C36.77 127.952 36.357 128.014 34.601 128.014C32.801 128.014 32.432 127.952 32.432 127.704C32.432 127.518 32.618 127.394 32.907 127.394C33.795 127.394 33.878 127.084 33.878 123.635C33.9272 122.545 33.8786 121.453 33.733 120.372C32.9905 121.604 32.3227 122.88 31.733 124.193C31.186 125.479 30.5162 126.71 29.733 127.869C29.65 127.786 28.824 126.051 27.895 124.048C27.358 122.771 26.7154 121.542 25.974 120.372C25.8339 122.658 25.8962 124.953 26.16 127.229C26.3419 127.353 26.5606 127.411 26.78 127.394C27.09 127.394 27.28 127.518 27.28 127.704C27.28 127.952 26.95 128.014 25.628 128.014C24.306 128.014 23.968 127.953 23.968 127.705Z" fill="white"/>
<path d="M39.252 127.705C39.252 127.519 39.4379 127.395 39.7269 127.395C40.6359 127.395 40.698 127.106 40.698 123.367C40.698 119.628 40.6359 119.34 39.7269 119.34C39.4379 119.34 39.252 119.216 39.252 119.03C39.252 118.782 39.6239 118.72 41.4209 118.72C43.1769 118.72 43.59 118.782 43.59 119.009C43.59 119.174 43.342 119.339 43.032 119.381C42.268 119.464 42.185 119.881 42.185 123.367C42.185 126.853 42.268 127.267 43.032 127.353C43.342 127.394 43.59 127.56 43.59 127.725C43.59 127.952 43.1769 128.014 41.4209 128.014C39.6239 128.015 39.252 127.953 39.252 127.705Z" fill="white"/>
<path d="M45.552 127.809C45.428 127.602 45.635 127.478 46.378 127.355C46.77 127.293 46.791 127.128 46.791 123.369V119.445L46.191 119.345C44.869 119.118 45.613 118.829 47.678 118.767C49.413 118.726 49.785 118.767 49.785 119.015C49.785 119.201 49.558 119.345 49.227 119.387L48.649 119.449L48.587 123.435L48.546 127.401H52.666L52.873 126.637C52.9767 126.299 53.0526 125.954 53.1 125.604C53.0955 125.541 53.1142 125.48 53.1523 125.43C53.1905 125.381 53.2456 125.347 53.307 125.336C53.555 125.336 53.555 125.728 53.39 127.071L53.245 128.021H49.465C48.1614 128.099 46.8531 128.03 45.565 127.815L45.552 127.809Z" fill="white"/>
<path d="M57.014 127.705C57.014 127.519 57.2 127.395 57.489 127.395C58.253 127.395 58.46 127.003 58.46 125.536C58.46 124.236 58.419 124.09 57.2 122.169C55.919 120.124 55.2 119.401 54.639 119.629C54.453 119.691 54.329 119.629 54.329 119.464C54.329 119.175 56.807 118.658 57.055 118.906C57.117 118.968 57.755 120.083 58.48 121.385L59.761 123.739L60.195 122.995C60.443 122.582 61.062 121.467 61.579 120.495C62.302 119.07 62.57 118.719 62.963 118.719C63.211 118.719 63.417 118.76 63.417 118.802C63.035 119.428 62.6218 120.036 62.179 120.621C61.518 121.571 60.713 122.831 60.403 123.409C60.1743 123.774 60.0233 124.183 59.9593 124.609C59.8953 125.035 59.9197 125.47 60.031 125.887C60.217 127.209 60.258 127.287 60.795 127.353C61.105 127.394 61.353 127.539 61.353 127.725C61.353 127.952 60.94 128.014 59.184 128.014C57.384 128.014 57.015 127.952 57.015 127.704L57.014 127.705Z" fill="white"/>
<path d="M81.076 127.809C80.952 127.602 81.159 127.478 81.902 127.355C82.294 127.293 82.315 127.128 82.315 123.369V119.445L81.715 119.345C80.393 119.118 81.137 118.829 83.202 118.767C84.937 118.726 85.309 118.767 85.309 119.015C85.309 119.201 85.082 119.345 84.751 119.387L84.173 119.449L84.111 123.435L84.07 127.401H88.19L88.397 126.637C88.5007 126.299 88.5766 125.954 88.624 125.604C88.6195 125.541 88.6381 125.48 88.6763 125.43C88.7145 125.381 88.7695 125.347 88.831 125.336C89.079 125.336 89.079 125.728 88.914 127.071L88.769 128.021H84.989C83.6854 128.099 82.377 128.03 81.089 127.815L81.076 127.809Z" fill="white"/>
<path d="M90.6181 127.871C90.3291 127.603 90.4731 127.396 90.9481 127.396C91.8571 127.396 91.9191 127.107 91.9191 123.348C91.9191 119.672 91.8781 119.465 91.0101 119.321C90.9086 119.302 90.812 119.264 90.726 119.207C90.64 119.15 90.5666 119.076 90.5101 118.99C90.4481 118.784 91.2951 118.722 94.2901 118.722H98.1731L98.0281 119.362C97.9606 119.737 97.9191 120.117 97.9041 120.498C97.9041 121.303 97.5531 121.056 97.4041 120.168L97.2801 119.342H93.6241L93.4791 119.982C93.3978 120.563 93.3564 121.15 93.3551 121.738V122.853H94.7901C96.2771 122.853 96.4631 122.729 96.4631 121.8C96.4631 121.594 96.5631 121.408 96.6701 121.408C96.8739 121.969 96.9447 122.57 96.8771 123.164C96.8771 124.197 96.7941 124.92 96.6701 124.92C96.5461 124.92 96.4631 124.734 96.4631 124.528C96.4631 123.599 96.2771 123.475 94.7901 123.475H93.3651V124.487C93.3651 125.024 93.4271 125.912 93.4891 126.449L93.6341 127.399H97.6821L97.8891 126.635C97.9928 126.297 98.0687 125.952 98.1161 125.602C98.1121 125.536 98.1335 125.472 98.1758 125.422C98.2181 125.372 98.278 125.341 98.3431 125.334C98.5081 125.334 98.5501 125.602 98.4431 126.119C98.3748 126.563 98.3334 127.012 98.3191 127.462V128.02H94.5391C93.2293 128.064 91.918 128.015 90.6151 127.875L90.6181 127.871Z" fill="white"/>
<path d="M100.326 127.871C100.037 127.603 100.181 127.396 100.656 127.396C101.565 127.396 101.627 127.107 101.627 123.348C101.627 119.672 101.586 119.465 100.718 119.321C100.617 119.302 100.52 119.264 100.434 119.207C100.348 119.15 100.274 119.076 100.218 118.99C100.156 118.784 101.003 118.722 103.998 118.722H107.881L107.736 119.362C107.668 119.737 107.627 120.117 107.612 120.498C107.612 121.303 107.261 121.056 107.112 120.168L106.988 119.342H103.332L103.187 119.982C103.106 120.563 103.064 121.15 103.063 121.738V122.853H104.498C105.985 122.853 106.171 122.729 106.171 121.8C106.171 121.594 106.271 121.408 106.378 121.408C106.582 121.969 106.653 122.57 106.585 123.164C106.585 124.197 106.502 124.92 106.378 124.92C106.254 124.92 106.171 124.734 106.171 124.528C106.171 123.599 105.985 123.475 104.498 123.475H103.073V124.487C103.073 125.024 103.135 125.912 103.197 126.449L103.342 127.399H107.39L107.597 126.635C107.701 126.297 107.777 125.952 107.824 125.602C107.82 125.536 107.841 125.472 107.884 125.422C107.926 125.372 107.986 125.341 108.051 125.334C108.216 125.334 108.258 125.602 108.151 126.119C108.083 126.563 108.041 127.012 108.027 127.462V128.02H104.247C102.937 128.064 101.626 128.015 100.323 127.875L100.326 127.871Z" fill="white"/>
<path d="M110.198 127.807C110.074 127.6 110.281 127.477 111.024 127.353C111.416 127.291 111.437 127.126 111.437 123.367V119.443L110.837 119.343C110.486 119.281 110.259 119.157 110.321 119.033C111.415 118.817 112.533 118.748 113.646 118.826C116.599 118.826 116.93 118.867 117.467 119.26C119.347 120.644 117.942 123.453 115.34 123.535C114.72 123.556 114.349 123.473 114.287 123.329C114.225 123.143 114.432 123.061 114.948 123.061C115.19 123.069 115.43 123.025 115.653 122.933C115.877 122.841 116.078 122.702 116.244 122.526C116.41 122.351 116.537 122.142 116.616 121.914C116.695 121.685 116.725 121.443 116.704 121.202C116.704 119.902 116.043 119.343 114.432 119.343H113.193L113.234 123.308L113.296 127.294L113.896 127.394C114.247 127.456 114.516 127.601 114.516 127.704C114.535 127.993 110.384 128.097 110.198 127.807Z" fill="white"/>
<path d="M88.429 108.373C87.381 108.269 86.3438 108.076 85.3289 107.795L83.9449 107.382L84.007 105.358C84.048 104.243 84.131 102.942 84.193 102.446C84.293 101.682 84.3579 101.558 84.7509 101.62C85.1439 101.682 85.2259 101.847 85.3289 103.293C85.4739 105.093 85.7209 105.482 87.0639 106.185C89.4765 107.284 92.2049 107.474 94.7469 106.722C95.5827 106.404 96.3411 105.912 96.9716 105.278C97.602 104.644 98.09 103.883 98.403 103.046C98.6939 102.254 98.7968 101.405 98.7036 100.566C98.6104 99.7272 98.3236 98.9216 97.8659 98.2127C97.1839 97.2417 95.7389 96.6847 92.0829 96.0237C90.6084 95.7791 89.1524 95.434 87.7249 94.9907C86.4564 94.4377 85.418 93.4633 84.7856 92.2324C84.1533 91.0016 83.9658 89.5899 84.2549 88.2367C84.5109 86.7327 85.2227 85.3438 86.2941 84.2577C87.3654 83.1717 88.7446 82.441 90.2449 82.1647C93.274 81.6848 96.3746 81.9613 99.2709 82.9697L100.118 83.3417L99.9319 84.6637C99.8489 85.3867 99.7249 86.5227 99.6429 87.1837C99.5429 88.2367 99.4779 88.3607 99.0649 88.3607C98.6109 88.3607 98.5649 88.2607 98.4869 86.8117C98.3629 84.9937 98.1979 84.7467 96.5039 83.9197C94.5861 83.0767 92.4257 82.9664 90.4319 83.6097C87.0859 84.8487 86.012 89.7437 88.632 91.7097C89.561 92.4097 90.222 92.5977 93.899 93.1967C97.741 93.8367 98.9989 94.2917 100.116 95.4277C100.83 96.1635 101.343 97.07 101.607 98.0607C101.871 99.0514 101.877 100.093 101.624 101.087C101.294 102.747 100.422 104.25 99.1459 105.362C96.4629 107.857 92.997 108.827 88.429 108.373Z" fill="white"/>
<path d="M64.512 107.835C64.326 107.36 64.657 107.195 65.896 107.112C66.4188 107.112 66.9347 106.992 67.404 106.761C67.776 106.389 67.755 86.8512 67.383 86.4612C66.8985 86.2297 66.3707 86.1029 65.834 86.0891C64.781 86.0061 64.553 85.9241 64.553 85.6141C64.553 85.2631 65.028 85.2421 72.753 85.2011L80.973 85.1602L80.849 85.7802C80.787 86.1312 80.684 87.2461 80.601 88.2581C80.477 89.9311 80.415 90.1172 80.043 90.1172C79.671 90.1172 79.609 89.9101 79.423 88.5681L79.216 87.0191L78.287 86.7711C76.9667 86.5855 75.6341 86.5025 74.301 86.5231L71.265 86.5021L71.058 87.0392C70.8714 88.5807 70.8022 90.1342 70.851 91.6862V95.8171L74.151 95.7552C75.329 95.8179 76.5101 95.7207 77.662 95.4662C77.8862 95.0528 78.0134 94.5939 78.034 94.1241C78.158 93.1741 78.241 93.0091 78.634 92.9471L79.088 92.8852V96.6031C79.109 100.114 79.067 100.341 78.716 100.341C78.241 100.341 78.076 99.9491 78.076 98.8131C78.076 97.2021 77.952 97.1402 74.152 97.0782L70.827 97.0161L70.889 101.766C70.93 105.236 71.013 106.578 71.219 106.785C71.7207 107.003 72.2619 107.116 72.809 107.115C74.009 107.198 74.151 107.239 74.151 107.652C74.151 108.065 74.11 108.086 69.38 108.086C65.848 108.086 64.568 108.024 64.506 107.838L64.512 107.835Z" fill="white"/>
<path d="M103.899 107.628C103.899 107.194 103.999 107.153 105.014 107.153C105.573 107.211 106.136 107.073 106.604 106.761L107.104 106.369V86.8692L106.604 86.4772C106.136 86.1659 105.573 86.0273 105.014 86.0852C104.002 86.0852 103.899 86.0442 103.899 85.6312V85.1572H113.399V85.6322C113.399 86.0452 113.299 86.0862 112.284 86.0862C111.724 86.0283 111.162 86.1669 110.694 86.4782L110.194 86.8702V106.37L110.694 106.762C111.162 107.074 111.724 107.212 112.284 107.154C113.296 107.154 113.399 107.195 113.399 107.629V108.083H103.899V107.628Z" fill="white"/>
<path d="M51.856 108.559H51.821C50.6348 108.606 49.4489 108.459 48.31 108.124H48.3C47.6447 107.974 47.0021 107.773 46.378 107.524C46.118 107.285 45.598 103.032 45.346 99.0988C44.703 88.8398 44.033 84.4298 42.785 82.2458C42.585 81.9318 41.54 80.5798 40.347 79.1458C35.433 73.3198 31.376 70.2118 21.491 64.6908C18.922 63.2408 18.095 62.7608 18.133 62.6108C18.148 62.5538 18.276 62.5428 18.494 62.5428C21.414 62.5628 25.106 64.1898 32.6 68.7598C33.0657 69.081 33.5641 69.3518 34.087 69.5678C34.257 69.5678 34.402 68.2678 34.606 64.9168C34.666 63.9328 34.764 62.7168 34.806 62.2018L34.811 62.1318C35.1642 57.3555 35.2677 52.564 35.121 47.7768C34.687 40.3858 33.008 33.5588 30.845 30.3858C30.34 29.6468 30.108 29.2788 30.16 29.1858C30.1673 29.1742 30.1777 29.165 30.1901 29.1591C30.2025 29.1533 30.2164 29.1511 30.23 29.1528C30.2915 29.1574 30.352 29.1706 30.41 29.1918C31.5716 29.6643 32.5548 30.4908 33.22 31.5538C34.2204 33.0173 34.9998 34.6202 35.533 36.3108C36.833 40.3038 37.31 44.1848 37.597 52.9158C37.8342 57.8174 37.7242 62.7297 37.268 67.6158C37.1473 68.5645 37.2174 69.5276 37.474 70.4488C37.85 71.7208 38.095 72.0158 40.757 74.3728C41.5397 75.0415 42.2588 75.7814 42.905 76.5828C43.216 77.0378 43.586 77.4078 43.731 77.4078C43.876 77.4078 44.113 76.9078 44.311 76.2308C45.418 72.2208 45.796 71.4388 48.358 67.8648C51.158 63.9758 52.327 61.4998 54.305 55.2468C56.639 47.9198 56.578 46.5918 53.705 42.3368C50.7279 38.1428 47.3812 34.2238 43.705 30.6268C42.542 29.5275 41.4536 28.3519 40.447 27.1078C40.447 27.1078 40.447 27.1078 40.454 27.1078C40.4647 27.1097 40.4749 27.1138 40.484 27.1198C43.7913 29.3946 46.9004 31.945 49.778 34.7438C50.806 35.7318 52.778 37.5438 54.178 38.7498C55.4357 39.836 56.6156 41.0092 57.709 42.2608C58.816 43.6608 59.209 44.1108 59.602 44.1108C59.7419 44.1019 59.8783 44.063 60.002 43.9968C61.425 43.3368 64.493 36.3538 65.474 31.5428C66.0454 28.1305 65.9755 24.6415 65.268 21.2548C64.5302 17.9569 63.465 14.741 62.088 11.6548C61.465 10.2828 61.145 9.55482 61.145 9.48282C61.145 9.47182 61.145 9.46582 61.157 9.46582C61.3589 9.60605 61.5366 9.77832 61.683 9.97582C63.6259 12.1607 65.0267 14.7726 65.772 17.5998C66.5705 20.6681 67.2047 23.7769 67.672 26.9128C67.953 28.5748 68.247 30.0698 68.314 30.1778C68.3199 30.1867 68.3281 30.1938 68.3379 30.1982C68.3476 30.2026 68.3584 30.2042 68.369 30.2028C68.665 30.1043 68.9351 29.9402 69.159 29.7228C71.383 27.9678 74.259 26.8148 78.495 25.9858C86.258 24.5108 89.095 23.6858 93.675 21.5448C98.161 19.4588 100.009 18.4928 100.999 17.7248L102.073 16.8788L101.554 17.8688C100.174 20.5488 97.805 22.6348 94.098 24.4348C91.0539 25.9045 87.8244 26.9541 84.498 27.5548C77.253 29.1378 74.125 30.4858 70.552 33.5658C65.398 38.0008 58.833 49.9788 57.542 57.2948C57.371 58.3288 57.165 59.3518 57.107 59.5878C57.055 59.7758 57.055 59.8978 57.107 59.9678C57.1343 59.9965 57.168 60.0185 57.2053 60.0318C57.2426 60.0452 57.2826 60.0497 57.322 60.0448C57.9959 59.924 58.6472 59.7 59.253 59.3808C61.337 58.4718 63.798 57.8668 69.002 56.9808C75.1149 55.9392 81.2914 55.3127 87.489 55.1058C90.1162 55.0847 92.739 54.8843 95.339 54.5058C102.447 53.2578 107.061 50.9288 109.858 47.1778C110.087 46.8778 110.221 46.7258 110.269 46.7258C110.272 46.7259 110.275 46.7268 110.278 46.7284C110.28 46.7299 110.282 46.7322 110.284 46.7348C110.216 47.0883 110.086 47.4269 109.9 47.7348C109 49.6628 105.977 52.3798 102.876 54.0558C97.669 56.8438 88.464 58.3918 76.957 58.4118C73.8 58.4118 73.12 58.4698 72.413 58.8058C71.9935 58.9827 71.6091 59.2334 71.278 59.5458C71.161 59.6898 71.1 59.7858 71.111 59.8838C71.126 60.0148 71.27 60.1488 71.588 60.3948C72.6596 61.2088 73.8802 61.805 75.181 62.1498C75.5064 62.1568 75.8281 62.2201 76.132 62.3368C76.345 62.4288 76.448 62.4918 76.441 62.5248C76.434 62.5578 76.397 62.5558 76.321 62.5558C74.2207 62.236 72.1522 61.7341 70.139 61.0558C69.376 60.7709 68.5844 60.5697 67.778 60.4558H67.743C65.3561 61.0675 63.0222 61.8701 60.764 62.8558C55.788 65.0608 52.444 68.0348 50.541 71.9428C49.746 73.2451 49.278 74.7204 49.177 76.2428C49.1176 76.6288 49.1864 77.0236 49.3728 77.3667C49.5592 77.7099 49.8529 77.9825 50.209 78.1428C50.517 78.3247 50.8664 78.4249 51.224 78.4338C51.7817 78.3911 52.3236 78.2276 52.812 77.9548C53.98 77.4138 54.712 76.5258 56.221 73.8268C56.681 73.0098 56.996 72.5778 57.131 72.5778C57.14 72.5777 57.1489 72.58 57.1568 72.5844C57.1647 72.5887 57.1713 72.5951 57.176 72.6028C57.1713 73.3174 57.0142 74.0228 56.715 74.6718C55.6982 77.5131 54.3102 80.2075 52.587 82.6848C51.9999 83.4406 51.4609 84.2325 50.973 85.0558C50.804 85.8697 50.7348 86.7012 50.767 87.5318C50.767 90.2378 51.53 93.0178 53.908 98.9748C54.491 100.39 55.243 102.382 55.578 103.354C56.0434 104.9 56.7472 106.363 57.664 107.692C57.88 107.918 57.979 108.034 57.964 108.119C57.952 108.185 57.871 108.233 57.707 108.31C56.3842 108.467 55.053 108.542 53.721 108.536C52.946 108.552 52.371 108.559 51.856 108.559ZM47.421 78.8878C47.0855 78.9641 46.7669 79.1014 46.481 79.2928C45.7562 79.7542 45.2203 80.4596 44.9701 81.2816C44.72 82.1036 44.7721 82.9879 45.117 83.7748C45.5511 84.5003 46.1626 85.1036 46.894 85.5278C47.3093 85.6315 47.7373 85.6753 48.165 85.6578C48.6296 85.6876 49.0958 85.6296 49.539 85.4868C49.585 85.4618 49.607 85.4318 49.605 85.3988C49.598 85.2988 49.36 85.1568 48.878 84.9698C48.3654 84.7851 47.9025 84.4842 47.5258 84.0907C47.149 83.6971 46.8685 83.2216 46.7063 82.7014C46.5441 82.1813 46.5047 81.6307 46.591 81.0927C46.6774 80.5547 46.8872 80.0441 47.204 79.6008C47.461 79.2278 47.559 79.0138 47.515 78.9278C47.5043 78.9133 47.49 78.902 47.4734 78.8949C47.4569 78.8879 47.4388 78.8854 47.421 78.8878Z" fill="white"/>
<path d="M31.073 82.845C31.114 82.638 31.218 82.0809 31.3 81.6259C31.424 80.7999 31.383 80.717 30.453 79.826L29.462 78.8969L30.784 78.732L32.084 78.546L32.621 77.472C32.7799 77.0777 32.9956 76.7089 33.261 76.377C33.5266 76.7088 33.7422 77.0777 33.901 77.472C34.0711 77.9112 34.3564 78.2963 34.727 78.5869C34.872 78.6079 35.471 78.687 36.027 78.752L37.039 78.8969L36.068 79.868L35.097 80.839L35.345 81.934C35.4594 82.323 35.5014 82.7297 35.469 83.1339C35.0609 83.0581 34.6737 82.8962 34.333 82.659L33.304 82.08L32.271 82.638C31.073 83.299 30.928 83.32 31.073 82.845Z" fill="white"/>
<path d="M75.934 79.0232C75.996 78.5482 76.099 78.0112 76.141 77.8462C76.183 77.6812 75.811 77.1022 75.274 76.5652L74.303 75.5942L75.439 75.4492C76.864 75.2632 76.885 75.2422 77.504 74.0032L78.041 72.9912L78.578 74.0442C79.136 75.1592 79.26 75.2442 80.85 75.4692L81.862 75.6142L80.871 76.4812L79.88 77.3282L80.087 78.6092C80.1741 79.0305 80.2157 79.46 80.211 79.8902C80.17 79.8902 79.653 79.6422 79.075 79.3532L78.001 78.8162L77.072 79.2912C76.556 79.5602 76.06 79.8072 75.957 79.8492C75.854 79.8912 75.852 79.5192 75.934 79.0232Z" fill="white"/>
<path d="M10.233 74.1491C10.316 73.7361 10.398 73.1581 10.46 72.8681C10.543 72.4551 10.36 72.1451 9.61297 71.4221L8.67297 70.4931L9.97297 70.2861L11.273 70.0791L11.873 68.9641L12.473 67.8281L13.01 68.9641L13.547 70.0791L14.847 70.2651L16.147 70.4511L15.218 71.4011L14.309 72.3511L14.495 73.4661C14.5709 73.8678 14.6045 74.2764 14.595 74.6852C14.1865 74.5893 13.7959 74.429 13.438 74.2101L12.385 73.6731L11.249 74.2932L10.113 74.8931L10.237 74.1491H10.233Z" fill="white"/>
<path d="M60.939 71.8375C60.939 71.7375 61.039 71.1765 61.166 70.5775L61.393 69.5245L60.505 68.6155C60.03 68.1155 59.658 67.6865 59.72 67.6445C60.1177 67.5195 60.5256 67.4295 60.939 67.3755C62.054 67.1895 62.075 67.1685 62.633 66.0535L63.17 64.9385L63.748 66.0955L64.306 67.2525L65.525 67.3975C65.9415 67.4033 66.3515 67.5021 66.725 67.6865C66.499 68.0428 66.2205 68.3631 65.899 68.6365C65.114 69.4215 65.073 69.5035 65.199 70.3925C65.261 70.9085 65.364 71.4875 65.406 71.6735C65.489 71.9415 65.261 71.8805 64.353 71.4055L63.217 70.7655L62.081 71.3855C61.461 71.7365 60.945 71.9225 60.945 71.8395L60.939 71.8375Z" fill="white"/>
<path d="M94.522 67.0233L94.79 65.7423L93.84 64.7713L92.89 63.8003L94.171 63.6553L95.452 63.5103L96.01 62.2913L96.588 61.0723L97.166 62.3113L97.766 63.5303L99.129 63.6753L100.492 63.8203L99.48 64.7293C98.468 65.6583 98.468 65.6583 98.613 66.6703C98.6673 67.1227 98.7501 67.5713 98.861 68.0133C98.944 68.1993 98.551 68.0753 97.787 67.6623L96.61 67.0223L95.433 67.6623L94.233 68.3233L94.522 67.0233Z" fill="white"/>
<path d="M41.173 65.2068L41.38 63.9678L40.513 63.0798C40.013 62.5798 39.708 62.1298 39.813 62.0678C40.2261 61.9534 40.6473 61.8705 41.073 61.8198C42.168 61.6748 42.168 61.6748 42.684 60.4978L43.221 59.3408L43.799 60.5178C44.399 61.6538 44.419 61.6748 45.493 61.8178C45.9187 61.8685 46.3399 61.9514 46.753 62.0658C46.853 62.1278 46.505 62.5658 45.968 63.0368L45.018 63.8838L45.245 64.9788C45.3719 65.3654 45.4211 65.7732 45.39 66.1788C44.9813 66.1172 44.5884 65.9769 44.233 65.7658L43.2 65.2288L42.085 65.8488L40.99 66.4488L41.173 65.2068Z" fill="white"/>
<path d="M27.314 61.7776L27.5 60.6205L26.509 59.6086L25.538 58.6176H26.138C27.873 58.6176 28.203 58.4316 28.802 57.2176L29.38 56.0605L29.917 57.1756C30.517 58.3756 30.846 58.5596 32.334 58.6006L33.139 58.6216L32.148 59.6335L31.157 60.6456L31.384 61.7195C31.4985 62.1008 31.5476 62.4988 31.529 62.8965C31.1276 62.8203 30.7429 62.6734 30.393 62.4626L29.34 61.9256L28.307 62.4416C27.9524 62.6349 27.5868 62.8072 27.212 62.9576C27.1927 62.5614 27.227 62.1645 27.314 61.7776Z" fill="white"/>
<path d="M15.211 56.4489L15.438 55.2099L14.509 54.2389L13.58 53.2889L14.757 53.1439C15.831 52.9989 15.996 52.9169 16.409 52.2349C16.6661 51.846 16.8807 51.4306 17.049 50.9959C17.194 50.5419 17.256 50.5829 17.854 51.7189L18.494 52.9379L19.754 53.1239L20.993 53.2889L20.064 54.1769L19.135 55.0649L19.342 56.3249C19.4286 56.7396 19.4772 57.1613 19.487 57.5849C19.446 57.5849 18.929 57.3369 18.33 57.0479L17.215 56.4899L16.079 57.0899L14.964 57.7099L15.212 56.4499L15.211 56.4489Z" fill="white"/>
<path d="M72.608 50.3767L72.856 49.1377L71.968 48.2707C71.468 47.7707 71.101 47.3417 71.163 47.2997C71.5475 47.1879 71.9415 47.1119 72.34 47.0727C73.414 46.9487 73.435 46.9277 74.054 45.7727L74.674 44.5957L75.294 45.7727C75.914 46.9297 75.934 46.9497 77.008 47.0727C77.4065 47.1119 77.8005 47.1879 78.185 47.2997C78.247 47.3407 77.875 47.7747 77.379 48.2707L76.491 49.1377L76.739 50.3767C76.884 51.0377 76.946 51.5957 76.863 51.5957C76.5031 51.4567 76.1572 51.2839 75.83 51.0797C75.6842 50.9173 75.5059 50.7875 75.3067 50.6985C75.1074 50.6096 74.8917 50.5637 74.6735 50.5637C74.4553 50.5637 74.2395 50.6096 74.0403 50.6985C73.841 50.7875 73.6627 50.9173 73.517 51.0797C73.1897 51.2839 72.8438 51.4567 72.484 51.5957C72.401 51.5937 72.463 51.0377 72.608 50.3767Z" fill="white"/>
<path d="M95.926 48.9518C96.009 48.5388 96.112 47.9398 96.174 47.6518C96.257 47.1978 96.133 46.9698 95.327 46.3298C94.811 45.8958 94.439 45.5038 94.48 45.4628C94.8966 45.3106 95.3251 45.1932 95.761 45.1118C96.897 44.8848 96.961 44.8638 97.517 43.7698L98.075 42.6338L98.653 43.7908C99.211 44.9268 99.253 44.9678 100.264 45.0908C100.676 45.142 101.084 45.2249 101.483 45.3388C101.583 45.4008 101.276 45.8548 100.801 46.3298C99.872 47.2798 99.851 47.3418 100.326 49.3038L100.45 49.8038L99.25 49.1638L98.05 48.5028L96.914 49.1228L95.799 49.7228L95.926 48.9518Z" fill="white"/>
<path d="M1.35295 48.1468C1.43595 47.7128 1.53895 47.1138 1.60095 46.8248C1.68395 46.3908 1.53895 46.1637 0.733946 45.5027C-0.361054 44.6147 -0.319054 44.5528 1.47795 44.2838C2.36595 44.1598 2.44895 44.0768 2.90295 43.1268C3.03909 42.7447 3.24985 42.3936 3.52295 42.0938C3.79272 42.3881 4.00323 42.7317 4.14295 43.1058C4.55595 43.9938 4.70095 44.1388 5.36195 44.2418C5.77495 44.3248 6.37395 44.4278 6.70395 44.4898L7.28195 44.6138L6.31095 45.4808L5.31995 46.3278L5.56795 47.4228C5.69195 48.0228 5.79495 48.5998 5.79495 48.7038C5.79495 48.8078 5.27895 48.6628 4.65895 48.3528L3.52095 47.7948L2.36395 48.3528L1.20695 48.9308L1.35295 48.1468Z" fill="white"/>
<path d="M46.273 48.3117C46.273 48.1877 46.373 47.6297 46.5 47.0307L46.727 45.9777L45.839 45.0687C44.889 44.0977 44.889 44.0777 46.5 43.8497C47.388 43.7497 47.471 43.6637 47.925 42.7137C48.0612 42.3316 48.2719 41.9805 48.545 41.6807C48.8148 41.975 49.0253 42.3186 49.1651 42.6927C49.5991 43.6217 49.723 43.7257 50.487 43.8497C52.201 44.1177 52.201 44.1177 51.231 45.0887L50.364 45.9557L50.591 47.1557C50.715 47.8167 50.8181 48.3947 50.8181 48.4557C50.4166 48.3116 50.0349 48.1174 49.682 47.8777L48.546 47.2167L47.41 47.8567C46.791 48.2087 46.273 48.4147 46.273 48.3117Z" fill="white"/>
<path d="M20.168 38.9343L20.436 37.6534L19.527 36.8483C19.1692 36.5826 18.8557 36.262 18.598 35.8983C18.9855 35.7143 19.4081 35.6157 19.837 35.6093L21.076 35.4644L21.676 34.2874L22.276 33.1104L22.834 34.2673C23.454 35.5063 23.784 35.6924 25.519 35.6924H26.119L25.128 36.7043C24.137 37.6953 24.137 37.7373 24.281 38.6873C24.3215 39.1293 24.4114 39.5654 24.549 39.9874C24.632 40.2144 24.301 40.1113 23.496 39.6573L22.319 38.9964L21.1 39.5963L19.9 40.2164L20.168 38.9343Z" fill="white"/>
<path d="M77.875 37.8868C77.875 37.8458 77.975 37.3288 78.082 36.7098L78.289 35.6148L77.339 34.6438L76.368 33.6528L77.649 33.5078L78.93 33.3628L79.508 32.2268L80.086 31.0908L80.686 32.2058L81.286 33.3208L82.586 33.5068L83.886 33.6928L82.936 34.6638L81.996 35.6348L82.182 36.7918C82.268 37.1779 82.3017 37.5738 82.282 37.9688C82.241 37.9688 81.724 37.7208 81.146 37.4318L80.093 36.8948L79.122 37.4318C78.172 37.9478 77.883 38.0518 77.883 37.8858L77.875 37.8868Z" fill="white"/>
<path d="M57.014 33.3378C57.014 33.2968 57.114 32.7798 57.221 32.1608L57.428 31.0658L56.457 30.0748L55.486 29.0838H56.086C57.821 29.0838 58.151 28.8978 58.709 27.6838L59.246 26.5068L59.804 27.6638C60.424 28.9028 60.754 29.0888 62.489 29.0888H63.089L62.098 30.1008L61.086 31.1338L61.313 32.2288C61.4038 32.608 61.4524 32.996 61.458 33.3858C61.0655 33.2916 60.6896 33.1385 60.343 32.9318L59.29 32.3948L58.257 32.9108C57.262 33.4208 57.014 33.5018 57.014 33.3378Z" fill="white"/>
<path d="M101.627 31.1885C101.668 30.7917 101.737 30.3984 101.834 30.0115C102.02 29.2065 101.999 29.1645 101.09 28.2355C100.181 27.3065 100.161 27.2855 100.636 27.1615C101.007 27.066 101.389 27.0173 101.772 27.0165C102.472 27.0165 102.991 26.4795 103.528 25.1785L103.817 24.4785L104.437 25.6975C104.974 26.7095 105.181 26.9165 105.676 26.9785C106.006 26.9995 106.564 27.0785 106.936 27.1235L107.597 27.2475L106.647 28.1145C105.738 28.9615 105.718 28.9815 105.841 29.9525C105.893 30.4001 105.983 30.8424 106.11 31.2745C106.193 31.5015 105.924 31.4395 105.057 31.0055L103.9 30.4475L102.764 31.0055C101.751 31.4985 101.627 31.5195 101.627 31.1885Z" fill="white"/>
<path d="M15.418 25.0149C15.48 24.5809 15.563 24.0439 15.604 23.8149C15.666 23.5259 15.397 23.0919 14.757 22.4519L13.807 21.4809L15.107 21.3159L16.429 21.1299L16.935 20.0559C17.0849 19.6574 17.3013 19.2871 17.575 18.9609C17.8622 19.2887 18.0863 19.6667 18.236 20.0759L18.773 21.1709L20.073 21.3159L21.357 21.4629L20.407 22.4339L19.436 23.4049L19.622 24.5409C19.6992 24.9364 19.7407 25.338 19.746 25.7409C19.3478 25.6414 18.9703 25.4721 18.631 25.2409L17.578 24.6829L16.566 25.2199C16.209 25.4339 15.8363 25.6204 15.451 25.7779C15.389 25.7779 15.389 25.4269 15.43 25.0139L15.418 25.0149Z" fill="white"/>
<path d="M31.0521 22.2262C31.5271 20.3262 31.5061 20.1402 30.5151 19.2312L29.5861 18.3642L30.5361 18.2402C32.0641 18.0332 32.1061 17.9922 32.7251 16.7532L33.3031 15.5762L33.8191 16.7532C34.3771 17.9922 34.4391 18.0132 36.0501 18.2402L37.0831 18.3852L36.0711 19.2732L35.0801 20.1612L35.3071 21.2142C35.4311 21.8142 35.5341 22.3712 35.5341 22.4742C35.5341 22.5772 35.0181 22.4332 34.3981 22.1232L33.2621 21.5652L32.1051 22.1232L30.9481 22.7012L31.0521 22.2262Z" fill="white"/>
<path d="M74.281 21.5037L74.529 20.3037L73.579 19.3327L72.65 18.3827L73.662 18.2377C75.062 18.0307 75.252 17.8867 75.81 16.6887L76.31 15.6357L76.888 16.7717C77.488 17.9487 77.508 17.9717 79.201 18.2377L80.007 18.3617L79.107 19.2907L78.219 20.1997L78.422 21.4377C78.5326 21.8408 78.5665 22.2611 78.522 22.6767C78.1861 22.5428 77.8672 22.3696 77.572 22.1607C77.2376 21.8434 76.7941 21.6665 76.333 21.6665C75.8719 21.6665 75.4285 21.8434 75.094 22.1607C74.7961 22.3652 74.4777 22.5382 74.144 22.6767C74.1101 22.2805 74.1567 21.8815 74.281 21.5037Z" fill="white"/>
<path d="M50.674 19.9744L50.881 18.7354L49.993 17.8264C49.022 16.8354 49.022 16.8554 50.778 16.5874C51.604 16.4634 51.7071 16.3604 52.2241 15.3274L52.761 14.1914L53.339 15.3274C53.876 16.4014 53.959 16.4634 54.888 16.6084C56.499 16.8354 56.54 16.9384 55.508 17.8474L54.579 18.6734L54.827 19.9334L55.095 21.2144L53.9181 20.6144L52.718 20.0144L51.603 20.6144L50.467 21.2344L50.674 19.9744Z" fill="white"/>
<path d="M87.871 13.0348C88.346 11.3828 88.305 11.1138 87.293 10.1018L86.302 9.11083L87.562 8.96583L88.822 8.82083L89.462 7.68483L90.102 6.54883L90.68 7.64383C91.258 8.73883 91.28 8.73883 92.518 8.94383L93.778 9.15083L92.869 10.0798L91.94 11.0088L92.147 12.1238C92.2587 12.5134 92.2927 12.9211 92.247 13.3238C91.8457 13.2588 91.4645 13.1036 91.132 12.8698L90.12 12.3118L89.067 12.8488C87.807 13.4888 87.725 13.4888 87.867 13.0348H87.871Z" fill="white"/>
<path d="M41.3181 10.4532C41.365 10.0559 41.4409 9.66254 41.5451 9.27624C41.7521 8.36724 41.7521 8.34724 40.7811 7.37624L39.8101 6.38524L41.0911 6.24024L42.3721 6.09524L42.9501 4.95924L43.5281 3.82324L44.1281 4.93824L44.7281 6.05324L46.0701 6.23924L47.3921 6.40424L46.4011 7.33324L45.4411 8.26224L45.6271 9.48124C45.7267 9.87946 45.7547 10.2922 45.7101 10.7002C45.3344 10.5359 44.9688 10.3495 44.6151 10.1422L43.6031 9.60524L42.6121 10.1052C41.2901 10.7872 41.3311 10.7662 41.3311 10.4562L41.3181 10.4532Z" fill="white"/>
<path d="M64.718 6.67342C64.8478 6.24942 64.9375 5.81418 64.986 5.37342C65.11 4.40242 65.086 4.38242 64.18 3.53542L63.251 2.66842L64.201 2.54442C64.738 2.46142 65.316 2.39942 65.482 2.37942C65.648 2.35942 66.06 1.82142 66.391 1.22242L66.991 0.107422L67.507 1.11942C68.107 2.31942 68.251 2.41942 69.201 2.46142C70.667 2.48242 70.75 2.66842 69.717 3.68042C69.077 4.30042 68.829 4.71342 68.891 5.00242C68.932 5.25042 69.036 5.78742 69.098 6.22142L69.222 6.98542L68.065 6.42742C66.908 5.84942 66.908 5.84942 66.247 6.24142C65.8722 6.44913 65.4859 6.63543 65.09 6.79942C64.702 6.96242 64.636 6.94142 64.718 6.67342Z" fill="white"/>
<path d="M62.653 79.8492C62.3148 79.729 62.0093 79.5315 61.7607 79.2725C61.5122 79.0136 61.3274 78.7002 61.2211 78.3574C61.1148 78.0145 61.0899 77.6516 61.1484 77.2975C61.2069 76.9433 61.3471 76.6077 61.558 76.3172C61.8832 75.9212 62.3323 75.6463 62.8329 75.5369C63.3335 75.4275 63.8564 75.49 64.3171 75.7144C64.7778 75.9387 65.1495 76.3118 65.3721 76.7733C65.5947 77.2349 65.6552 77.758 65.544 78.2582C65.4735 78.5614 65.34 78.8464 65.1521 79.0946C64.9642 79.3428 64.7261 79.5486 64.4534 79.6987C64.1807 79.8488 63.8795 79.9397 63.5692 79.9657C63.259 79.9916 62.9468 79.9519 62.653 79.8492Z" fill="white"/>
<path d="M89.814 78.734C89.3076 78.4354 88.9288 77.961 88.7498 77.4011C88.5707 76.8412 88.6039 76.235 88.843 75.698C89.0252 75.3139 89.3209 74.995 89.6903 74.7845C90.0596 74.574 90.4847 74.482 90.908 74.521C91.1859 74.4811 91.4694 74.5113 91.7327 74.6088C91.9961 74.7062 92.2309 74.8678 92.416 75.079C92.6686 75.3066 92.8657 75.5892 92.992 75.905C93.1183 76.2207 93.1705 76.5612 93.1446 76.9003C93.1188 77.2394 93.0154 77.568 92.8427 77.861C92.6699 78.1539 92.4322 78.4033 92.148 78.59C91.8215 78.8521 91.4218 79.0067 91.0039 79.0325C90.5859 79.0583 90.1702 78.954 89.814 78.734Z" fill="white"/>
<path d="M20.653 77.1855C20.2458 76.7685 20.0178 76.2088 20.0178 75.626C20.0178 75.0432 20.2458 74.4834 20.653 74.0665C20.8158 73.8236 21.0433 73.631 21.3098 73.5105C21.5762 73.39 21.8711 73.3464 22.161 73.3845C22.6565 73.3306 23.155 73.4548 23.5674 73.7347C23.9798 74.0146 24.2792 74.4321 24.412 74.9125C24.5326 75.256 24.5657 75.6241 24.5084 75.9836C24.4511 76.3431 24.3052 76.6827 24.0838 76.9716C23.8624 77.2606 23.5725 77.4899 23.2403 77.6388C22.9081 77.7877 22.5441 77.8515 22.181 77.8245C21.8924 77.8652 21.5982 77.8273 21.3292 77.7149C21.0603 77.6024 20.8267 77.4195 20.653 77.1855Z" fill="white"/>
<path d="M78.37 68.5312C78.0408 68.3666 77.7539 68.1285 77.5315 67.8354C77.3091 67.5422 77.157 67.2017 77.0871 66.8404C77.0172 66.4791 77.0314 66.1066 77.1285 65.7516C77.2255 65.3966 77.4029 65.0687 77.647 64.7932C78.0788 64.4075 78.6375 64.1943 79.2165 64.1943C79.7955 64.1943 80.3542 64.4075 80.786 64.7932C81.0124 64.9904 81.186 65.2411 81.2907 65.5225C81.3955 65.8038 81.4283 66.107 81.386 66.4042C81.4162 66.6685 81.3933 66.9361 81.3188 67.1914C81.2443 67.4468 81.1196 67.6847 80.952 67.8912C80.6436 68.256 80.2281 68.5142 79.7646 68.6291C79.301 68.744 78.813 68.7097 78.37 68.5312Z" fill="white"/>
<path d="M8.58097 65.66C8.17551 65.4902 7.83682 65.1923 7.61668 64.8118C7.39655 64.4313 7.30708 63.9891 7.36196 63.553C7.29667 63.2434 7.32461 62.9215 7.44226 62.6278C7.55992 62.3341 7.762 62.0818 8.02296 61.903C8.33546 61.5951 8.73255 61.3872 9.16363 61.3059C9.5947 61.2245 10.0402 61.2734 10.4435 61.4462C10.8467 61.619 11.1893 61.9079 11.4277 62.2762C11.6661 62.6445 11.7894 63.0754 11.782 63.514C11.8052 64.0663 11.6144 64.6062 11.2495 65.0214C10.8846 65.4366 10.3736 65.6951 9.82296 65.743C9.40889 65.8069 8.98581 65.7786 8.58396 65.66H8.58097Z" fill="white"/>
<path d="M108.917 61.0131C108.417 60.5791 108.339 60.3731 108.339 59.3811C108.339 58.0591 108.731 57.4811 109.805 57.1921C110.241 57.0497 110.709 57.0429 111.149 57.1725C111.588 57.3021 111.978 57.5619 112.267 57.9178C112.555 58.2736 112.729 58.7087 112.765 59.1655C112.801 59.6223 112.698 60.0793 112.469 60.4761C112.056 61.2611 111.581 61.5091 110.424 61.5091C110.152 61.5321 109.879 61.5001 109.62 61.4148C109.361 61.3296 109.122 61.193 108.917 61.0131Z" fill="white"/>
<path d="M46.151 55.5396C45.7303 55.281 45.4068 54.8908 45.2306 54.4295C45.0545 53.9682 45.0356 53.4616 45.1768 52.9885C45.318 52.5153 45.6115 52.102 46.0117 51.8127C46.4119 51.5234 46.8964 51.3744 47.39 51.3886C47.8659 51.3925 48.3278 51.5499 48.7071 51.8374C49.0864 52.125 49.3627 52.5273 49.4949 52.9845C49.6272 53.4417 49.6083 53.9294 49.4411 54.375C49.2739 54.8206 48.9673 55.2003 48.567 55.4576C48.2294 55.7352 47.8097 55.8937 47.3729 55.9086C46.9361 55.9234 46.5066 55.7937 46.151 55.5396Z" fill="white"/>
<path d="M84.075 53.1024C83.7578 52.9303 83.466 52.7149 83.208 52.4624C82.9872 52.2845 82.8173 52.0512 82.7158 51.7863C82.6143 51.5215 82.5847 51.2344 82.63 50.9544C82.5839 50.4573 82.7137 49.9597 82.9967 49.5483C83.2798 49.137 83.6982 48.838 84.179 48.7034C84.7025 48.5596 85.2605 48.6124 85.7476 48.8519C86.2348 49.0914 86.6173 49.5011 86.823 50.0034C87.0611 50.3888 87.1486 50.8486 87.0685 51.2945C86.9884 51.7404 86.7464 52.141 86.389 52.4194C86.1033 52.7346 85.7363 52.9649 85.3283 53.0852C84.9203 53.2055 84.487 53.2111 84.076 53.1014L84.075 53.1024Z" fill="white"/>
<path d="M63.273 52.1118C62.591 51.4298 62.55 51.3068 62.653 50.4388C62.6715 49.9656 62.8416 49.5109 63.1381 49.1417C63.4346 48.7725 63.8418 48.5082 64.2998 48.3879C64.7578 48.2676 65.2424 48.2976 65.682 48.4735C66.1217 48.6494 66.4933 48.9618 66.7419 49.3648C66.9542 49.7067 67.0718 50.0988 67.0827 50.501C67.0937 50.9033 66.9977 51.3012 66.8044 51.6542C66.6112 52.0071 66.3276 52.3024 65.9828 52.5098C65.638 52.7173 65.2443 52.8294 64.842 52.8348C64.5408 52.8555 64.2392 52.8002 63.9651 52.6738C63.6909 52.5475 63.4529 52.3542 63.273 52.1118Z" fill="white"/>
<path d="M26.0959 49.7364C25.6527 49.465 25.3282 49.0365 25.1869 48.5364C25.0471 48.062 25.0663 47.5547 25.2418 47.0923C25.4173 46.6298 25.7394 46.2375 26.1588 45.9753C26.5783 45.713 27.072 45.5954 27.5647 45.6402C28.0573 45.685 28.5217 45.8898 28.887 46.2234C29.2498 46.5239 29.5032 46.9358 29.6077 47.3952C29.7122 47.8545 29.662 48.3355 29.4649 48.7634C29.3324 49.0714 29.1331 49.3462 28.8816 49.568C28.6301 49.7898 28.3326 49.9531 28.0104 50.0462C27.6882 50.1392 27.3495 50.1597 27.0184 50.1061C26.6874 50.0526 26.3723 49.9263 26.0959 49.7364Z" fill="white"/>
<path d="M10.915 47.8785C10.5288 47.6047 10.242 47.2129 10.0977 46.762C9.95345 46.3111 9.9595 45.8256 10.115 45.3785C10.232 45.0129 10.4404 44.6833 10.7204 44.4208C11.0005 44.1584 11.3429 43.9718 11.7153 43.8788C12.0877 43.7857 12.4776 43.7893 12.8482 43.8892C13.2188 43.9891 13.5578 44.1819 13.833 44.4495C14.0742 44.6408 14.2605 44.8926 14.3729 45.1792C14.4853 45.4659 14.5198 45.7772 14.473 46.0815C14.5132 46.3786 14.4794 46.6811 14.3748 46.9621C14.2701 47.2432 14.0978 47.494 13.873 47.6925C13.4773 48.0586 12.9675 48.277 12.4296 48.3109C11.8916 48.3448 11.3584 48.192 10.92 47.8785H10.915Z" fill="white"/>
<path d="M111.21 39.4511C110.777 39.1165 110.479 38.6364 110.372 38.0994C110.265 37.5624 110.355 37.0048 110.627 36.5295C110.899 36.0542 111.334 35.6934 111.851 35.5135C112.368 35.3337 112.933 35.347 113.441 35.5511C113.791 35.6764 114.104 35.8884 114.35 36.1674C114.596 36.4463 114.767 36.783 114.847 37.1461C114.928 37.5091 114.915 37.8867 114.81 38.2434C114.705 38.6002 114.511 38.9245 114.247 39.1861C114.063 39.4305 113.816 39.6195 113.531 39.7324C113.247 39.8453 112.937 39.8777 112.636 39.8261C112.133 39.8569 111.633 39.7254 111.21 39.4511Z" fill="white"/>
<path d="M89.317 39.2231C88.9246 38.96 88.624 38.5811 88.4571 38.1392C88.2901 37.6972 88.2652 37.2142 88.3857 36.7574C88.5062 36.3007 88.7661 35.8928 89.1293 35.5907C89.4925 35.2886 89.9409 35.1073 90.412 35.0721C90.7628 35.0582 91.112 35.1269 91.4314 35.2725C91.7509 35.4181 92.0318 35.6366 92.2515 35.9104C92.4712 36.1843 92.6236 36.5058 92.6965 36.8493C92.7694 37.1927 92.7607 37.5484 92.6711 37.8879C92.5816 38.2274 92.4137 38.5412 92.1809 38.804C91.9481 39.0668 91.6569 39.2713 91.3307 39.4011C91.0045 39.531 90.6524 39.5825 90.3026 39.5516C89.9529 39.5206 89.6153 39.4081 89.317 39.2231Z" fill="white"/>
<path d="M39.748 36.1256C39.3553 35.9244 39.0249 35.6201 38.792 35.2454C38.5591 34.8707 38.4326 34.4397 38.426 33.9986C38.4106 33.7063 38.4662 33.4146 38.5881 33.1485C38.71 32.8824 38.8946 32.6498 39.126 32.4706C39.3103 32.2477 39.5399 32.0666 39.7995 31.9392C40.0592 31.8118 40.3429 31.741 40.6319 31.7316C40.921 31.7221 41.2087 31.7742 41.4761 31.8843C41.7435 31.9945 41.9845 32.1602 42.183 32.3706C42.4441 32.5506 42.6474 32.8025 42.7684 33.0956C42.8895 33.3888 42.923 33.7107 42.865 34.0226C42.9084 34.3112 42.8824 34.606 42.789 34.8826C42.6956 35.1591 42.5375 35.4094 42.328 35.6126C41.9761 35.9087 41.555 36.111 41.1039 36.2007C40.6528 36.2904 40.1864 36.2646 39.748 36.1256Z" fill="white"/>
<path d="M9.882 35.362C9.138 34.97 8.891 34.474 8.891 33.338C8.86837 33.0659 8.90101 32.792 8.98693 32.5329C9.07286 32.2737 9.2103 32.0346 9.391 31.83C9.825 31.33 10.031 31.252 11.023 31.252C12.345 31.252 12.923 31.644 13.212 32.718C13.3538 33.1578 13.358 33.6304 13.2241 34.0726C13.0902 34.5149 12.8246 34.9058 12.4627 35.1932C12.1008 35.4805 11.6598 35.6506 11.1987 35.6808C10.7376 35.7109 10.2782 35.5997 9.882 35.362Z" fill="white"/>
<path d="M42.226 21.3588C41.8108 21.1931 41.4589 20.8997 41.2213 20.521C40.9837 20.1422 40.8726 19.6978 40.904 19.2518C40.8852 18.7343 41.0481 18.2264 41.3645 17.8165C41.681 17.4065 42.131 17.1202 42.6365 17.0074C43.1419 16.8945 43.6709 16.9622 44.1317 17.1986C44.5925 17.4351 44.9559 17.8254 45.159 18.3018C45.306 18.5352 45.3891 18.803 45.3999 19.0785C45.4108 19.3541 45.3491 19.6276 45.221 19.8718C45.1386 20.177 44.9923 20.4611 44.7919 20.7056C44.5914 20.95 44.3414 21.149 44.0583 21.2896C43.7752 21.4302 43.4654 21.509 43.1496 21.5209C42.8337 21.5329 42.5189 21.4776 42.226 21.3588Z" fill="white"/>
<path d="M25.022 14.9117C24.7279 14.6733 24.5007 14.3625 24.3627 14.0099C24.2247 13.6574 24.1806 13.275 24.2347 12.9002C24.2889 12.5255 24.4394 12.1712 24.6715 11.8721C24.9036 11.5729 25.2094 11.3392 25.559 11.1937C25.9882 10.9918 26.4703 10.9312 26.9361 11.0208C27.4018 11.1103 27.8272 11.3452 28.1509 11.6919C28.4746 12.0385 28.68 12.4789 28.7375 12.9497C28.7951 13.4204 28.7018 13.8973 28.471 14.3117C28.3017 14.5983 28.0722 14.8447 27.7984 15.0339C27.5246 15.2232 27.2129 15.3507 26.885 15.4077C26.5571 15.4648 26.2207 15.45 25.899 15.3643C25.5774 15.2787 25.2782 15.1243 25.022 14.9117Z" fill="white"/>
<path d="M77.709 9.6267C77.2597 9.44999 76.8759 9.13903 76.6098 8.7362C76.3437 8.33337 76.2083 7.85828 76.222 7.3757C76.2503 6.90502 76.426 6.45518 76.7242 6.08987C77.0223 5.72457 77.4278 5.46232 77.8833 5.34026C78.3388 5.2182 78.8211 5.24252 79.262 5.40976C79.7028 5.57701 80.0799 5.87872 80.3398 6.27215C80.5997 6.66559 80.7293 7.13082 80.7101 7.60196C80.691 8.0731 80.5241 8.52628 80.2331 8.89731C79.9421 9.26835 79.5418 9.53844 79.0888 9.66935C78.6358 9.80025 78.1531 9.78533 77.709 9.6267Z" fill="white"/>
<path d="M54.185 6.56948C53.834 6.34718 53.5357 6.05086 53.3112 5.70125C53.0866 5.35164 52.9412 4.95718 52.885 4.54548C52.9006 3.95089 53.1383 3.38369 53.5512 2.95559C53.9641 2.52749 54.5224 2.26951 55.116 2.23248C55.4306 2.21124 55.7461 2.25863 56.0406 2.37136C56.335 2.48409 56.6015 2.65947 56.8215 2.88536C57.0415 3.11125 57.2097 3.38225 57.3146 3.6796C57.4195 3.97696 57.4586 4.29356 57.429 4.60748C57.389 4.97195 57.2656 5.3223 57.0684 5.63136C56.8711 5.94043 56.6053 6.1999 56.2916 6.38965C55.9778 6.5794 55.6246 6.69432 55.2593 6.72551C54.894 6.7567 54.5264 6.70331 54.185 6.56948Z" fill="white"/>
</svg>
