<svg width="143" height="146" viewBox="0 0 143 146" fill="none" xmlns="http://www.w3.org/2000/svg">
<path d="M68.494 51.9337C68.5786 51.4593 68.7127 50.9951 68.894 50.5487C69.094 50.1397 69.522 49.8487 69.749 49.4437C69.831 49.196 69.8625 48.9345 69.8417 48.6744C69.8209 48.4144 69.7483 48.1612 69.628 47.9297C69.552 47.6647 69.386 47.4297 69.287 47.1727C69.1503 46.9466 69.1086 46.6757 69.171 46.419C69.2334 46.1623 69.3948 45.9408 69.62 45.8027C69.8004 45.694 70.0099 45.6437 70.22 45.6587C70.5126 45.6446 70.8049 45.6927 71.0775 45.7997C71.3502 45.9067 71.5971 46.0703 71.802 46.2797C72.112 46.5527 72.377 46.8857 72.672 47.1727C73.111 47.6037 73.24 47.6037 73.717 47.2337C73.9714 46.965 74.3213 46.8072 74.6911 46.7945C75.0608 46.7818 75.4208 46.9151 75.693 47.1657C75.8904 47.3575 76.0318 47.5995 76.102 47.8657C76.216 48.1757 76.322 48.4937 76.402 48.8117C76.4574 49.0714 76.5835 49.3107 76.7666 49.5031C76.9496 49.6955 77.1824 49.8335 77.439 49.9017C77.757 50.0017 78.075 50.1017 78.385 50.2117C79.248 50.5527 79.664 51.3017 79.142 52.1187C79.0522 52.2969 78.9763 52.4818 78.915 52.6717L79.672 52.8007C79.9632 52.8279 80.2355 52.9564 80.4416 53.1638C80.6478 53.3712 80.7746 53.6444 80.8 53.9357C80.816 54.2003 80.7448 54.4628 80.5972 54.683C80.4496 54.9032 80.2338 55.0689 79.983 55.1547C78.783 55.6167 78.113 55.3967 77.553 54.5947C77.371 54.3597 77.182 54.1407 76.985 53.9207C76.6843 54.0218 76.4359 54.2378 76.2941 54.5215C76.1522 54.8052 76.1285 55.1335 76.228 55.4347C76.276 55.5884 76.3561 55.7302 76.463 55.8507C76.577 56.0017 76.735 56.1307 76.849 56.2817C77.326 56.8817 77.227 57.4547 76.516 57.7427C76.1046 57.8931 75.6655 57.9524 75.229 57.9167C74.086 57.8717 73.882 57.9927 73.579 59.0827C73.488 59.4007 73.42 59.7257 73.307 60.0367C73.065 60.6647 72.868 60.7937 72.194 60.7937C72.0597 60.7608 71.9179 60.7811 71.7981 60.8502C71.6783 60.9193 71.5898 61.0319 71.551 61.1647C71.2114 61.9036 70.9155 62.662 70.665 63.4357C70.3915 64.344 69.7969 65.1217 68.992 65.6237C68.765 65.7377 68.553 65.8587 68.349 65.9867C68.1458 66.1335 67.9868 66.3333 67.8892 66.5643C67.7917 66.7953 67.7595 67.0486 67.796 67.2967C67.857 67.9027 67.94 68.5077 67.985 69.1137C68.03 69.7197 68.068 70.2337 67.463 70.4767C67.1975 70.5688 66.9076 70.5613 66.6473 70.4555C66.3869 70.3497 66.1739 70.1529 66.048 69.9017C65.7274 69.4888 65.4721 69.0291 65.291 68.5387C64.716 67.1537 64.103 66.8207 62.717 67.3387C62.3784 67.4587 62.0185 67.5073 61.6602 67.4813C61.3018 67.4553 60.9528 67.3553 60.635 67.1877C60.4095 67.0531 60.1594 66.9651 59.8994 66.9287C59.6394 66.8923 59.3747 66.9082 59.121 66.9757C58.6223 67.1037 58.1819 67.3974 57.872 67.8087C57.5012 68.4389 57.269 69.1408 57.1907 69.8678C57.1124 70.5947 57.1899 71.33 57.418 72.0247C57.4796 72.421 57.6959 72.7767 58.0195 73.0137C58.3431 73.2507 58.7476 73.3496 59.144 73.2887C59.2499 73.2716 59.3538 73.2438 59.454 73.2057L61.654 72.7587C61.8398 72.701 62.0318 72.666 62.226 72.6547C62.3377 72.648 62.4477 72.6843 62.5336 72.756C62.6195 72.8278 62.6747 72.9296 62.688 73.0407C62.6971 73.1486 62.6646 73.256 62.597 73.3407C62.506 73.5147 62.355 73.6507 62.264 73.8177C62.1895 73.9187 62.1358 74.0335 62.1061 74.1555C62.0763 74.2775 62.0712 74.4041 62.0909 74.5281C62.1107 74.6521 62.1549 74.7709 62.221 74.8776C62.2871 74.9843 62.3738 75.0768 62.476 75.1497C62.6327 75.2687 62.8243 75.3327 63.021 75.3317C63.468 75.3767 63.914 75.3847 64.346 75.4607C64.5337 75.4712 64.7174 75.5189 64.8866 75.6009C65.0558 75.6829 65.2071 75.7975 65.3316 75.9383C65.4562 76.0791 65.5517 76.2432 65.6125 76.421C65.6734 76.5989 65.6983 76.7871 65.686 76.9747C65.6787 77.0757 65.6636 77.176 65.641 77.2747C65.596 77.7367 65.573 78.2057 65.55 78.6747C65.5366 78.7535 65.5389 78.8342 65.5568 78.9122C65.5746 78.9901 65.6078 79.0637 65.6543 79.1288C65.7007 79.1939 65.7596 79.2491 65.8276 79.2913C65.8955 79.3335 65.9711 79.3618 66.05 79.3747H66.107C66.463 79.4277 66.819 79.4507 67.174 79.5107C67.931 79.6397 68.688 79.7907 69.536 79.9497C69.665 79.7497 69.824 79.4877 69.99 79.2497C70.1032 79.062 70.2524 78.8985 70.429 78.7686C70.6056 78.6387 70.8061 78.5449 71.019 78.4927C71.2936 78.3912 71.533 78.2124 71.708 77.9777C71.799 77.8389 71.9166 77.7196 72.054 77.6265C72.1913 77.5334 72.3458 77.4685 72.5084 77.4354C72.671 77.4023 72.8385 77.4017 73.0013 77.4337C73.1641 77.4657 73.319 77.5296 73.457 77.6217C73.569 77.6923 73.67 77.7789 73.757 77.8787C73.9018 78.0467 74.0843 78.1781 74.2895 78.2622C74.4947 78.3463 74.7169 78.3807 74.938 78.3627H77.595C78.7082 78.3308 79.8077 78.614 80.767 79.1797C81.6275 79.7503 82.6656 79.9897 83.689 79.8537C84.1272 79.8091 84.5689 79.8094 85.007 79.8547C85.4527 79.8811 85.8772 80.0544 86.214 80.3474C86.5509 80.6405 86.7812 81.0369 86.869 81.4747C86.93 81.7167 86.983 81.9587 87.043 82.2317C87.5947 82.5103 88.2343 82.5592 88.822 82.3677C89.647 82.1257 90.465 81.8607 91.274 81.6107C92.0759 81.3025 92.928 81.1459 93.787 81.1487C94.1445 81.1716 94.4893 81.2895 94.786 81.4902C95.0827 81.691 95.3204 81.9672 95.4747 82.2904C95.629 82.6137 95.6943 82.9723 95.6637 83.3292C95.6332 83.6861 95.508 84.0283 95.301 84.3207C95.2587 84.3952 95.2051 84.4627 95.142 84.5207C94.1122 85.4891 93.2884 86.6554 92.72 87.9497C92.2052 88.9759 91.42 89.842 90.449 90.4547C89.442 91.0907 88.42 91.6957 87.361 92.2337C86.4347 92.6691 85.5797 93.2422 84.825 93.9337C83.1339 95.522 80.9589 96.4973 78.648 96.7037C77.1037 96.8921 75.5822 97.2345 74.106 97.7257C73.3672 97.9586 72.6061 98.1134 71.835 98.1877C71.5747 98.2498 71.3009 98.2205 71.0597 98.1047C70.8184 97.9889 70.6243 97.7937 70.51 97.5517C70.3895 97.2836 70.3497 96.9863 70.3953 96.696C70.441 96.4056 70.5701 96.1349 70.767 95.9167C71.0645 95.6333 71.3891 95.3798 71.736 95.1597C72.092 94.9027 72.493 94.6827 72.826 94.4027C72.978 94.3012 73.0942 94.1544 73.1582 93.9832C73.2221 93.812 73.2304 93.6249 73.182 93.4487C73.091 93.0857 72.773 93.0397 72.47 92.9717C72.311 92.9717 72.145 92.9037 71.978 92.8887C70.6804 92.7408 69.4375 92.2826 68.3545 91.5528C67.2714 90.8229 66.3801 89.8429 65.756 88.6957C64.681 86.9957 65.219 85.3497 66.944 84.3207C67.277 84.1207 67.618 83.9347 67.928 83.7077C68.1249 83.5739 68.2771 83.3841 68.3648 83.1628C68.4525 82.9415 68.4718 82.699 68.42 82.4667C68.3691 82.2671 68.2585 82.0877 68.1031 81.9525C67.9477 81.8172 67.7548 81.7325 67.55 81.7097C67.119 81.5957 66.68 81.5427 66.25 81.4677C65.82 81.3927 65.538 81.3537 65.183 81.3087C64.7221 81.2748 64.2791 81.1159 63.9017 80.8492C63.5243 80.5824 63.2268 80.2179 63.041 79.7947C62.7873 79.1798 62.3858 78.6371 61.8721 78.2146C61.3583 77.7921 60.7483 77.5029 60.096 77.3727C59.6633 77.3204 59.2583 77.1327 58.9388 76.8364C58.6192 76.54 58.4016 76.1502 58.317 75.7227C58.234 75.3227 57.848 75.2687 57.56 75.2007C55.7786 74.7421 54.1577 73.8021 52.875 72.4837C52.5569 72.2788 52.2934 71.9996 52.1073 71.6702C51.9213 71.3407 51.8182 70.9709 51.807 70.5927C51.936 69.4347 51.239 68.5337 51.05 67.4817C50.8811 66.4114 50.6279 65.3561 50.293 64.3257C50.3082 64.5097 50.3082 64.6947 50.293 64.8787C50.3071 65.4047 50.2793 65.931 50.21 66.4527C50.1801 66.6897 50.061 66.9064 49.877 67.0587C49.544 67.2097 49.332 66.8767 49.177 66.6197C49.0021 66.3698 48.8671 66.0941 48.777 65.8027C48.565 65.0457 48.361 64.2027 48.217 63.3877C47.869 61.3137 47.558 59.2397 47.225 57.1657C46.9522 55.4937 47.2909 53.7793 48.179 52.3367C48.772 51.3713 49.4139 50.4368 50.102 49.5367C50.8966 48.5334 51.3383 47.2963 51.359 46.0167C51.428 44.9942 51.5928 43.9804 51.851 42.9887C51.987 42.3147 52.222 41.6567 52.335 40.9757C52.4108 40.4739 52.4108 39.9635 52.335 39.4617C52.3173 39.0762 52.1486 38.7131 51.8652 38.4511C51.5819 38.1891 51.2067 38.0492 50.821 38.0617C50.7006 38.0703 50.5814 38.0907 50.465 38.1227C49.7816 38.2671 49.0695 38.1766 48.444 37.8657C48.0803 37.7204 47.7775 37.4549 47.586 37.1132C47.3946 36.7716 47.3261 36.3747 47.392 35.9887C47.445 35.6027 47.649 35.4737 48.035 35.5947C48.27 35.6707 48.489 35.8067 48.716 35.8947C48.8914 35.9711 49.0802 36.0122 49.2715 36.0155C49.4628 36.0188 49.6528 35.9843 49.8308 35.914C50.0087 35.8436 50.171 35.7389 50.3083 35.6056C50.4456 35.4724 50.5553 35.3134 50.631 35.1377C50.684 35.0008 50.7222 34.8587 50.745 34.7137C50.777 34.4565 50.8313 34.2025 50.907 33.9547C50.9651 33.7243 51.0919 33.5169 51.2705 33.3602C51.449 33.2034 51.671 33.1045 51.907 33.0767C52.24 33.0317 52.566 32.9767 52.891 32.9477C53.1178 32.937 53.3402 32.8818 53.5455 32.7851C53.7509 32.6883 53.9352 32.5521 54.0878 32.384C54.2404 32.216 54.3584 32.0195 54.4349 31.8058C54.5115 31.5921 54.5452 31.3654 54.534 31.1387V31.0647C54.383 30.9887 54.216 30.8977 54.042 30.8297C53.7239 30.7725 53.4416 30.5913 53.2571 30.3259C53.0725 30.0606 53.0009 29.7328 53.058 29.4147V28.6547C53.0644 28.5408 53.0263 28.4289 52.9516 28.3427C52.8769 28.2564 52.7716 28.2026 52.658 28.1927H52.507C52.159 28.2757 51.637 28.3287 51.402 27.8927C51.2197 27.6312 51.0946 27.3343 51.0346 27.0212C50.9746 26.7082 50.9813 26.386 51.054 26.0757C51.1915 25.8473 51.4106 25.6797 51.667 25.6067C52.4101 25.3482 53.2246 25.3891 53.938 25.7207C54.263 25.8497 54.589 25.9927 54.967 26.1517C55.073 25.8187 55.141 25.5237 55.255 25.2517C55.6521 24.4229 56.294 23.736 57.094 23.2837C57.518 23.0117 57.949 22.7617 58.404 22.5267C58.8627 22.3212 59.31 22.0912 59.744 21.8377C59.5751 21.8308 59.4063 21.8514 59.244 21.8987C55.4095 22.7543 51.7986 24.4089 48.647 26.7547C40.8251 32.091 35.2375 40.1161 32.947 49.3037C31.9097 53.2787 31.5539 57.4008 31.895 61.4947C32.978 74.1547 38.707 84.1497 49.307 91.2647C50.9566 92.2923 52.6622 93.2271 54.416 94.0647C54.8386 94.2685 55.246 94.5024 55.635 94.7647C55.7784 94.8193 55.9019 94.9162 55.989 95.0425C56.0761 95.1689 56.1228 95.3187 56.1228 95.4722C56.1228 95.6257 56.0761 95.7755 55.989 95.9019C55.9019 96.0282 55.7784 96.1251 55.635 96.1797C55.4004 96.3385 55.1459 96.4656 54.878 96.5577C52.9815 97.3464 50.9641 97.8047 48.913 97.9127C47.1341 97.9147 45.3592 97.7449 43.613 97.4057C40.343 96.8457 37.081 96.2627 33.773 95.7477C32.388 95.5277 30.973 95.4477 29.564 95.3237C28.958 95.2707 28.951 95.2787 28.807 94.5057H29.607C32.6544 94.722 35.6877 95.1056 38.693 95.6547C41.357 96.1167 43.993 96.6237 46.701 97.0017C48.2957 97.2432 49.9228 97.1609 51.485 96.7597C52.416 96.5097 53.34 96.2147 54.263 95.9267C54.536 95.8357 54.793 95.6847 55.239 95.4877C54.732 95.1997 54.391 94.9877 54.039 94.8137C48.3507 92.2878 43.3596 88.4202 39.4937 83.5426C35.6277 78.6649 33.0022 72.9225 31.842 66.8077C29.276 53.7277 32.554 42.1157 41.364 32.1317C45.0622 27.916 49.6816 24.6085 54.864 22.4657C57.4237 21.4821 60.1005 20.8357 62.827 20.5427C63.781 20.4067 64.75 20.3077 65.711 20.2247C66.1519 20.1868 66.5951 20.1868 67.036 20.2247C67.1201 20.2547 67.196 20.3038 67.2578 20.3682C67.3196 20.4326 67.3655 20.5105 67.392 20.5957C67.3826 20.6862 67.35 20.7727 67.2975 20.847C67.245 20.9212 67.1742 20.9807 67.092 21.0197C66.7497 21.1341 66.4007 21.2276 66.047 21.2997C64.147 21.7837 62.262 22.2387 60.355 22.8137C59.54 23.0825 58.7535 23.4312 58.007 23.8547C57.5322 24.124 57.088 24.4438 56.682 24.8087C56.398 25.0368 56.184 25.3404 56.0646 25.6846C55.9452 26.0288 55.9252 26.3997 56.007 26.7547C56.128 27.3827 55.871 27.5797 55.25 27.3447C54.766 27.1447 54.304 26.8907 53.819 26.6787C53.5096 26.5318 53.1736 26.4493 52.8313 26.4363C52.4891 26.4232 52.1477 26.4798 51.828 26.6027L52.055 27.4427C52.1557 27.4746 52.2597 27.495 52.365 27.5037C53.432 27.3897 53.879 27.7917 53.955 28.8587V29.2747C53.955 29.9747 53.955 29.9557 54.583 30.2357C54.9564 30.4364 55.3176 30.6588 55.665 30.9017C56.465 30.1447 57.365 29.3277 58.216 28.4797C59.208 27.4877 60.199 26.4587 61.668 26.3377C62.1596 26.3662 62.6472 26.2339 63.0569 25.9608C63.4666 25.6876 63.7763 25.2885 63.939 24.8237C64.0702 24.5602 64.2814 24.345 64.5425 24.209C64.8035 24.073 65.1009 24.0232 65.392 24.0667C66.55 24.1197 67.708 24.1667 68.866 24.2407C69.1793 24.2524 69.486 24.3348 69.763 24.4816C70.0401 24.6285 70.2804 24.836 70.466 25.0887C70.6508 25.3099 70.8617 25.508 71.094 25.6787C72.222 24.6567 72.222 24.6497 73.743 24.6497H78.232C78.5081 24.6409 78.7843 24.6587 79.057 24.7027C79.4343 24.7285 79.7971 24.8576 80.1058 25.076C80.4145 25.2944 80.6571 25.5935 80.807 25.9407C81.3627 25.9052 81.9196 25.9873 82.4413 26.1817C82.9631 26.3761 83.438 26.6783 83.835 27.0687C84.713 27.8787 84.728 28.4687 83.888 29.3397L83.131 30.0967C83.8735 31.1187 84.7869 32.0047 85.831 32.7157C86.0958 32.9285 86.3485 33.1558 86.588 33.3967C86.8957 33.7006 87.2274 33.9792 87.58 34.2297C87.7593 34.2903 87.9537 34.2903 88.133 34.2297C88.852 34.0937 89.109 34.3127 89.026 35.0297C88.9951 35.1496 88.9883 35.2744 89.0058 35.397C89.0234 35.5196 89.065 35.6374 89.1283 35.7439C89.1916 35.8503 89.2753 35.9431 89.3746 36.0171C89.4739 36.091 89.5869 36.1446 89.707 36.1747C90.0107 36.2305 90.3242 36.1651 90.5802 35.9926C90.8363 35.82 91.0146 35.5541 91.077 35.2517C91.0712 35.0807 91.0216 34.914 90.933 34.7677C90.8418 34.5224 90.6886 34.3049 90.4882 34.1365C90.2879 33.968 90.0473 33.8544 89.79 33.8067C89.306 33.7457 89.162 33.3907 89.283 32.9367C89.3286 32.7202 89.4571 32.5301 89.6409 32.407C89.8248 32.2838 90.0494 32.2374 90.267 32.2777C91.3878 32.5443 92.4269 33.0793 93.295 33.8367C93.601 34.0662 93.8041 34.4072 93.8602 34.7856C93.9164 35.1639 93.8211 35.5491 93.595 35.8577C93.4977 35.9917 93.3771 36.1072 93.239 36.1987C92.883 36.5237 92.482 36.8117 92.013 37.2057C92.505 37.3947 92.868 37.5157 93.213 37.6677C93.5545 37.7928 93.8421 38.0323 94.0269 38.3455C94.2118 38.6587 94.2825 39.0263 94.227 39.3857C94.2271 39.5681 94.1559 39.7433 94.0287 39.8741C93.9016 40.0048 93.7283 40.0807 93.546 40.0857C92.8796 40.1687 92.2055 40.0101 91.646 39.6387C91.4359 39.466 91.1772 39.3631 90.9059 39.3441C90.6346 39.3251 90.3642 39.391 90.132 39.5327C90.238 40.0777 90.291 40.6227 90.957 40.8117C91.0727 40.8524 91.1735 40.9268 91.2464 41.0254C91.3193 41.124 91.361 41.2422 91.366 41.3647C91.4357 41.7717 91.536 42.1728 91.666 42.5647C91.84 43.0867 92.166 43.2237 92.695 42.9957C92.9923 42.8521 93.2805 42.6905 93.558 42.5117C93.7712 42.3816 93.9938 42.2676 94.224 42.1707C94.2981 42.1306 94.3808 42.1092 94.4651 42.1085C94.5493 42.1078 94.6324 42.1278 94.7071 42.1666C94.7819 42.2055 94.8459 42.2622 94.8936 42.3316C94.9414 42.401 94.9714 42.481 94.981 42.5647C95.072 43.1927 95.458 43.3827 95.981 43.4957C96.3307 43.5769 96.6726 43.6883 97.003 43.8287C97.3224 43.9618 97.5787 44.2121 97.7195 44.5282C97.8603 44.8443 97.8747 45.2022 97.76 45.5287C97.6884 45.7388 97.5632 45.9266 97.397 46.0737L97.223 46.2477C96.466 47.0047 96.466 47.3477 97.223 48.1027C97.6432 48.5559 98.1609 48.9078 98.737 49.1317C98.8149 48.9994 98.8735 48.8566 98.911 48.7077C98.9804 47.9042 98.8718 47.0954 98.593 46.3387C98.0146 44.6146 97.733 42.805 97.76 40.9867C97.76 40.4267 97.972 40.2867 98.56 40.3867C98.984 40.4547 99.385 40.7347 99.854 40.5457C99.8822 40.3652 99.8519 40.1805 99.7675 40.0186C99.6831 39.8566 99.5491 39.7259 99.385 39.6457C99.203 39.5397 98.961 39.1917 99.007 39.1007C99.1537 38.8869 99.3667 38.7274 99.613 38.6467C99.8932 38.5786 100.18 38.5404 100.468 38.5327C100.309 38.1847 100.203 37.9197 100.074 37.6697C99.8892 37.3958 99.7273 37.1072 99.59 36.8067C99.39 36.2697 99.666 35.9137 100.218 35.9667C100.716 35.9823 101.2 36.131 101.621 36.3972C102.041 36.6635 102.383 37.0376 102.61 37.4807C103.58 39.1439 103.964 41.0845 103.7 42.9917C103.594 43.5917 103.7 44.2107 103.6 44.8157C103.605 44.9473 103.58 45.0783 103.528 45.1993C103.477 45.3203 103.399 45.4283 103.3 45.5157C103 45.6977 102.823 45.3717 102.657 45.1527L102.286 44.6687C101.978 44.7528 101.705 44.932 101.505 45.1807C101.305 45.4295 101.189 45.735 101.173 46.0537C101.09 46.5727 101.09 47.1017 101.173 47.6207C101.467 49.2599 101.423 50.942 101.044 52.5637C100.726 53.9969 100.726 55.4824 101.044 56.9157C101.145 57.5158 101.185 58.1245 101.165 58.7327C101.165 59.2857 101.104 59.8377 101.127 60.3907C101.119 60.7386 101.182 61.0845 101.312 61.4072C101.442 61.73 101.637 62.0228 101.884 62.2677C102.16 62.5042 102.358 62.819 102.451 63.1705C102.544 63.5219 102.529 63.8934 102.406 64.2357C102.3 64.5052 102.29 64.803 102.378 65.0789C102.467 65.3548 102.647 65.5917 102.89 65.7497C103.053 65.9025 103.231 66.0395 103.42 66.1587C103.607 66.3134 103.828 66.4211 104.065 66.4727C104.302 66.5243 104.548 66.5184 104.782 66.4554C105.016 66.3925 105.232 66.2743 105.411 66.1108C105.591 65.9473 105.728 65.7432 105.812 65.5157C105.94 65.2711 106.051 65.0182 106.145 64.7587C106.6 63.4237 107.25 62.1637 108.075 61.0197C108.31 60.6477 108.462 60.2296 108.522 59.7937C108.741 57.8197 108.711 55.826 108.431 53.8597C108.113 50.47 107.469 47.1188 106.508 43.8527C105.663 40.8681 104.439 38.0039 102.867 35.3297C101.984 33.8543 100.918 32.4962 99.695 31.2877C99.5351 31.1806 99.4051 31.0347 99.317 30.8637C99.2759 30.7855 99.2545 30.6985 99.2545 30.6102C99.2545 30.5219 99.2759 30.4349 99.317 30.3567C99.3913 30.312 99.4763 30.2884 99.563 30.2884C99.6497 30.2884 99.7347 30.312 99.809 30.3567C100.179 30.6473 100.53 30.9609 100.861 31.2957C106.326 37.3531 109.727 44.9893 110.573 53.1037C110.694 54.481 110.694 55.8663 110.573 57.2437C110.52 57.8497 110.573 58.4627 110.535 59.0677C110.527 69.2091 106.691 78.9738 99.794 86.4087C95.9978 90.5001 91.4321 93.8028 86.358 96.1277L85.692 96.4527C85.647 96.4527 85.631 96.5357 85.571 96.6417C86.4067 96.9144 87.281 97.0495 88.16 97.0417C90.8464 97.0551 93.5256 96.7632 96.146 96.1717C99.931 95.4717 103.715 94.7187 107.599 94.3097C109.199 94.1427 110.799 94.0747 112.399 93.9917C112.989 93.9917 112.989 93.9917 113.08 94.6917C112.911 94.7524 112.736 94.7956 112.558 94.8207C107.226 95.0849 101.925 95.7872 96.708 96.9207C93.8503 97.5715 90.9268 97.8889 87.996 97.8667C86.7789 97.8223 85.5739 97.6082 84.416 97.2307C84.2257 97.1852 84.0442 97.1085 83.879 97.0037C83.8341 96.982 83.7941 96.9516 83.7613 96.9141C83.7284 96.8766 83.7035 96.833 83.6879 96.7856C83.6723 96.7383 83.6664 96.6884 83.6706 96.6387C83.6747 96.5891 83.6888 96.5408 83.712 96.4967C83.7464 96.4279 83.8022 96.3721 83.871 96.3377C84.0651 96.2303 84.2678 96.1393 84.477 96.0657C97.163 90.5327 105.46 81.2297 108.745 67.6657C109.343 65.0757 109.66 62.4287 109.691 59.7707C109.691 58.8017 109.744 57.8327 109.791 56.8637C109.943 52.3447 109.17 47.8424 107.52 43.6327C107.469 43.5068 107.389 43.3953 107.285 43.3077C107.573 44.4587 107.875 45.5787 108.148 46.7517C108.938 50.1772 109.401 53.6698 109.533 57.1827C109.556 58.1494 109.503 59.1163 109.374 60.0747C109.321 60.5411 109.155 60.9875 108.89 61.3747C108.019 62.622 107.317 63.9787 106.801 65.4097C105.87 67.6807 104.19 68.0667 102.335 66.4167C101.978 66.1731 101.71 65.8191 101.573 65.4089C101.437 64.9986 101.438 64.5549 101.578 64.1457C101.66 63.9233 101.671 63.6812 101.61 63.4523C101.549 63.2234 101.419 63.0189 101.237 62.8667C100.922 62.5536 100.676 62.1772 100.517 61.7622C100.358 61.3473 100.289 60.9034 100.314 60.4597C100.314 59.8167 100.367 59.1807 100.314 58.5447C100.261 57.9087 100.125 57.3447 100.114 56.7447C100.114 55.4807 100.038 54.2087 100.114 52.9597C100.114 52.1117 100.462 51.2717 100.477 50.4237C100.477 49.3787 100.341 48.3347 100.277 47.2827C100.239 46.8158 100.254 46.3462 100.322 45.8827C100.393 45.3216 100.66 44.8036 101.076 44.4196C101.491 44.0356 102.028 43.8101 102.593 43.7827C103.393 41.6107 102.305 37.5987 100.678 37.0687C100.784 37.3107 100.852 37.5077 100.943 37.6817C101.496 38.7187 101.443 38.9307 100.443 39.5737C100.511 39.7937 100.587 40.0277 100.655 40.2627C100.7 40.3779 100.722 40.501 100.72 40.6248C100.717 40.7485 100.69 40.8706 100.64 40.9839C100.59 41.0972 100.518 41.1995 100.429 41.2849C100.339 41.3703 100.234 41.4372 100.118 41.4817C100.024 41.5243 99.9213 41.5451 99.818 41.5427C99.47 41.5427 99.118 41.4667 98.743 41.4287C98.7047 41.5419 98.6769 41.6584 98.66 41.7767C98.67 43.2433 98.8996 44.7001 99.341 46.0987C99.5513 46.8677 99.6982 47.6527 99.78 48.4457C99.789 48.6389 99.7712 48.8324 99.727 49.0207C99.5 50.0957 98.811 50.4057 97.918 49.7777C97.2767 49.3478 96.6918 48.8392 96.177 48.2637C96.0363 48.1326 95.9231 47.975 95.8438 47.7998C95.7645 47.6247 95.7207 47.4356 95.7151 47.2434C95.7094 47.0513 95.7419 46.8599 95.8107 46.6804C95.8796 46.5009 95.9833 46.3368 96.116 46.1977C96.1636 46.144 96.2169 46.0957 96.275 46.0537C96.426 45.8867 96.6 45.7537 96.744 45.5767C97.077 45.1907 97.044 44.8877 96.6 44.6377C96.4047 44.5332 96.1957 44.4568 95.979 44.4107C95.2119 44.2888 94.5209 43.8767 94.049 43.2597C93.749 43.4187 93.443 43.6007 93.126 43.7517C92.8419 43.9009 92.5233 43.9718 92.2028 43.9572C91.8822 43.9426 91.5714 43.843 91.302 43.6687C91.1596 43.5958 91.0378 43.4883 90.9478 43.356C90.8578 43.2237 90.8025 43.0709 90.787 42.9117C90.7114 42.2859 90.4259 41.7042 89.977 41.2617C89.6096 40.7863 89.3512 40.236 89.22 39.6497C89.159 39.4907 89.326 39.1657 89.492 39.0287C89.7555 38.7805 90.0861 38.6152 90.4427 38.5533C90.7994 38.4915 91.1663 38.5357 91.498 38.6807C91.798 38.8097 92.081 39.0057 92.384 39.1277C92.6872 39.2415 92.9984 39.3328 93.315 39.4007C93.3867 39.2496 93.3967 39.0766 93.3429 38.9183C93.2891 38.76 93.1758 38.6289 93.027 38.5527H92.944C92.6567 38.4413 92.369 38.3414 92.081 38.2527C91.165 37.9427 91.15 37.9197 91.181 36.9807C89.228 37.3287 88.6 36.9807 88.153 35.4667C87.2861 35.2918 86.5239 34.78 86.034 34.0437C85.9283 33.8853 85.7924 33.7494 85.634 33.6437C84.4517 32.9084 83.4236 31.9503 82.607 30.8227C82.176 30.2927 82.198 30.1337 82.652 29.6037C82.887 29.3317 83.174 29.1037 83.409 28.8467C83.825 28.4157 83.833 28.2107 83.409 27.8177C83.1118 27.5187 82.7578 27.2823 82.3677 27.1224C81.9777 26.9625 81.5595 26.8823 81.138 26.8867C80.8925 26.935 80.6377 26.8955 80.4184 26.775C80.199 26.6545 80.029 26.4608 79.938 26.2277C79.7931 26.001 79.5734 25.8322 79.317 25.7507C78.978 25.6366 78.6227 25.5778 78.265 25.5767H73.542C73.2287 25.5305 72.9087 25.5777 72.622 25.7124C72.3353 25.847 72.0946 26.0631 71.93 26.3337C71.8513 26.4959 71.7121 26.6208 71.5423 26.6815C71.3726 26.7423 71.1858 26.7341 71.022 26.6587C70.9845 26.6461 70.9504 26.6252 70.922 26.5977C70.5617 26.4568 70.2458 26.222 70.007 25.9177C69.7978 25.6268 69.5154 25.3965 69.1883 25.2502C68.8612 25.1039 68.5013 25.0468 68.145 25.0847C67.388 25.0847 66.631 25.0847 65.874 25.0167C65.5734 24.947 65.2575 24.9932 64.9895 25.1461C64.7215 25.299 64.521 25.5474 64.428 25.8417C64.3162 26.23 64.0769 26.5693 63.7488 26.8051C63.4206 27.041 63.0227 27.1595 62.619 27.1417C61.8988 27.1923 61.1973 27.3936 60.5599 27.7326C59.9226 28.0717 59.3635 28.5408 58.919 29.1097C58.291 29.7607 57.579 30.3357 56.936 30.9717C56.527 31.3717 56.179 31.8197 55.785 32.2437L55.861 32.4257H56.542C56.9469 32.3839 57.3539 32.4834 57.6938 32.7074C58.0337 32.9314 58.2857 33.2661 58.407 33.6547C58.6131 34.2806 58.76 34.9244 58.846 35.5777C58.8511 36.0856 59.0042 36.581 59.2866 37.0032C59.5691 37.4254 59.9685 37.7561 60.436 37.9547C60.5385 37.9734 60.6435 37.9734 60.746 37.9547C60.814 37.7807 60.882 37.5987 60.958 37.4247C61.0437 37.162 61.1553 36.9084 61.291 36.6677C61.4045 36.4218 61.611 36.2311 61.8651 36.1373C62.1191 36.0436 62.4 36.0545 62.646 36.1677C62.8198 36.2476 62.9687 36.373 63.077 36.5307C63.3446 36.8786 63.5497 37.2705 63.683 37.6887C63.7541 37.8462 63.7861 38.0186 63.7764 38.1912C63.7666 38.3637 63.7154 38.5314 63.6271 38.68C63.5388 38.8285 63.416 38.9536 63.269 39.0446C63.1221 39.1356 62.9554 39.1898 62.783 39.2027C62.541 39.2557 62.291 39.2637 62.026 39.3027C62.079 39.7797 62.351 40.0597 62.783 39.9917C63.2342 39.956 63.6863 40.0477 64.0878 40.2566C64.4894 40.4654 64.8242 40.7828 65.054 41.1727C65.1767 41.3606 65.355 41.5054 65.5641 41.5868C65.7732 41.6682 66.0026 41.6822 66.22 41.6267C66.6012 41.5642 66.9744 41.4603 67.333 41.3167C67.5881 41.1767 67.8235 41.0035 68.033 40.8017C67.9773 40.6678 67.8726 40.5603 67.7402 40.5012C67.6078 40.4421 67.4579 40.4358 67.321 40.4837L67.2 40.5447C66.6655 40.7917 66.056 40.8214 65.5 40.6277C65.2874 40.5648 65.1043 40.4281 64.9835 40.2423C64.8627 40.0564 64.8121 39.8335 64.841 39.6137C64.894 39.1977 65.219 38.9547 65.757 38.9857C66.0542 39.0111 66.3499 39.0515 66.643 39.1067C66.4552 38.728 66.1421 38.4259 65.757 38.2517C65.045 37.8207 65 37.3737 65.598 36.8057C65.833 36.5787 66.09 36.3817 66.355 36.1317C66.09 35.9577 65.878 35.8317 65.689 35.6847C65.5286 35.5877 65.4028 35.4427 65.3294 35.2702C65.256 35.0977 65.2387 34.9065 65.28 34.7237C65.4307 34.3321 65.7073 34.0017 66.0662 33.7845C66.4252 33.5673 66.8462 33.4755 67.263 33.5237C67.634 33.6447 67.8 33.9237 67.8 34.4467V35.3327L67.936 35.4007C68.0271 35.2964 68.106 35.182 68.171 35.0597C68.2766 34.7168 68.4083 34.3825 68.565 34.0597C68.777 33.699 69.1051 33.421 69.4957 33.2711C69.8863 33.1212 70.3162 33.1084 70.715 33.2347C70.9861 33.3405 71.2045 33.5489 71.3229 33.8148C71.4412 34.0807 71.4499 34.3825 71.347 34.6547C71.279 34.8897 71.18 35.1087 71.059 35.4117H72.187C72.248 35.2757 72.301 35.2117 72.287 35.1767C71.946 34.1247 72.635 33.6027 73.347 33.0767C73.7251 32.7472 74.1889 32.5317 74.6846 32.4554C75.1802 32.3791 75.6874 32.4451 76.147 32.6457C76.6687 32.9497 77.147 33.3228 77.569 33.7547C77.8668 34.0816 78.1424 34.428 78.394 34.7917C78.7627 35.3541 79.3129 35.7734 79.953 35.9797C81.467 36.3577 82.33 39.1287 81.202 40.5217C80.927 40.8583 80.6742 41.2124 80.445 41.5817C80.2492 41.8006 80.1276 42.0759 80.0976 42.3681C80.0676 42.6603 80.1307 42.9545 80.278 43.2087C80.384 43.3977 80.452 43.6177 80.55 43.8147C80.705 44.1711 80.7123 44.5744 80.5704 44.9362C80.4285 45.2979 80.149 45.5887 79.793 45.7447C79.6025 45.8297 79.3955 45.871 79.187 45.8657C78.6504 45.891 78.1189 45.7512 77.6642 45.4651C77.2095 45.179 76.8534 44.7604 76.644 44.2657C76.4775 43.7966 76.3707 43.3084 76.326 42.8127C76.3158 42.4479 76.2179 42.091 76.0405 41.7721C75.8632 41.4532 75.6115 41.1817 75.307 40.9807C74.3768 40.4306 73.6776 39.5619 73.339 38.5357C73.248 38.3087 73.112 38.0967 72.968 37.8237C72.5375 37.9419 72.0836 37.9462 71.6509 37.8361C71.2183 37.726 70.8216 37.5053 70.5 37.1957L70.144 36.9757C69.296 36.4987 68.804 36.6757 68.259 37.7327C68.524 37.7327 68.759 37.8007 69.016 37.8157C69.273 37.8307 69.463 37.8157 69.682 37.8157C70.439 37.8607 70.613 38.0887 70.295 38.7997C70.0006 39.2533 69.8261 39.7742 69.788 40.3137L70.588 40.2227C70.8972 40.1431 71.221 40.1394 71.532 40.2118C71.8429 40.2843 72.1318 40.4307 72.374 40.6387C72.957 41.1157 73.517 41.6227 74.047 42.1527C74.1984 42.2734 74.324 42.4233 74.4163 42.5934C74.5087 42.7636 74.5659 42.9506 74.5845 43.1433C74.6032 43.336 74.5829 43.5305 74.5249 43.7153C74.4669 43.9 74.3724 44.0712 74.247 44.2187C74.1781 44.4469 74.1781 44.6904 74.247 44.9187C74.376 45.8577 74.065 46.2127 73.104 46.1377C72.8311 46.1051 72.5627 46.0417 72.304 45.9487C71.744 45.8127 71.191 45.6487 70.631 45.5327C69.874 45.3817 69.731 45.0787 70.162 44.4577C70.336 44.2077 70.533 43.9957 70.389 43.6477C70.2665 43.1036 69.9655 42.6161 69.534 42.2627C69.427 42.2096 69.3034 42.2008 69.1899 42.2383C69.0765 42.2757 68.9824 42.3563 68.928 42.4627C68.8994 42.5255 68.884 42.5936 68.883 42.6627C68.883 43.0191 68.9213 43.3744 68.997 43.7227C69.08 44.2147 69.197 44.6987 69.262 45.1907C69.262 45.4907 69.262 45.8337 68.952 45.9477C68.642 46.0617 68.452 45.8267 68.271 45.6147C68.0365 45.3177 67.7101 45.1068 67.343 45.0151C66.9759 44.9234 66.5887 44.9559 66.242 45.1077C65.8516 45.2264 65.5025 45.4526 65.2347 45.7605C64.967 46.0685 64.7913 46.4456 64.728 46.8487C64.6614 47.1932 64.7053 47.5499 64.8534 47.8679C65.0016 48.1859 65.2464 48.4491 65.553 48.6197C65.9326 48.8478 66.3299 49.0451 66.741 49.2097C67.2104 49.3505 67.617 49.6485 67.8927 50.0536C68.1684 50.4587 68.2963 50.9464 68.255 51.4347C68.2626 51.5874 68.2933 51.7381 68.346 51.8817L68.494 51.9337ZM70.007 46.6357C70.143 46.9357 70.264 47.2357 70.37 47.5357C70.62 48.4057 71.059 49.3357 70.256 50.1017C69.9427 50.3855 69.7001 50.7387 69.5476 51.133C69.3951 51.5274 69.3371 51.9519 69.378 52.3727C69.3856 52.4809 69.3856 52.5895 69.378 52.6977C69.3714 52.7741 69.3496 52.8483 69.3139 52.9162C69.2781 52.984 69.2292 53.044 69.1699 53.0926C69.1107 53.1413 69.0423 53.1776 68.9688 53.1994C68.8953 53.2212 68.8182 53.2281 68.742 53.2197C68.6845 53.2128 68.6282 53.1977 68.575 53.1747C68.3994 53.1402 68.2322 53.0715 68.0831 52.9724C67.9341 52.8734 67.806 52.7459 67.7061 52.5973C67.6063 52.4487 67.5367 52.282 67.5014 52.1065C67.466 51.931 67.4655 51.7503 67.5 51.5747C67.5326 51.2273 67.4442 50.8793 67.2498 50.5896C67.0554 50.2999 66.7668 50.0862 66.433 49.9847C65.9686 49.805 65.5244 49.5768 65.108 49.3037C64.6856 49.0541 64.3464 48.6852 64.1329 48.2435C63.9194 47.8017 63.8411 47.3067 63.908 46.8207C63.969 46.4159 64.1094 46.0271 64.3209 45.6766C64.5325 45.3261 64.8112 45.0208 65.141 44.7783C65.4708 44.5357 65.8452 44.3606 66.2428 44.263C66.6404 44.1655 67.0534 44.1473 67.458 44.2097H67.693C67.86 44.2547 68.034 44.2777 68.246 44.3157C68.155 43.7477 68.046 43.2637 68.011 42.8017C67.9885 42.4952 68.0675 42.1898 68.2357 41.9326C68.404 41.6755 68.6522 41.4808 68.942 41.3787C69.2036 41.2753 69.4933 41.2671 69.7603 41.3556C70.0274 41.4441 70.2548 41.6236 70.403 41.8627C70.7402 42.2201 70.9853 42.6543 71.1172 43.1277C71.2491 43.601 71.2638 44.0994 71.16 44.5797C71.917 44.6627 72.515 45.2387 73.431 45.1927C73.317 44.7987 73.204 44.4357 73.131 44.1327C73.01 43.6027 73.691 43.6637 73.797 43.2327C73.7809 43.1411 73.753 43.0521 73.714 42.9677C73.1462 42.1413 72.3928 41.4594 71.514 40.9767C71.3102 40.9087 71.0898 40.9087 70.886 40.9767C70.523 40.9767 70.174 41.1057 69.811 41.1057C69.054 41.1057 68.744 40.6897 68.918 39.9777C69.018 39.5837 69.16 39.2207 69.296 38.7667C68.857 38.6907 68.471 38.6527 68.096 38.5667C67.233 38.3777 67.029 37.8097 67.543 37.1057C67.71 36.8707 67.899 36.6517 68.088 36.4167L68.027 36.2577C67.7519 36.2342 67.475 36.2731 67.217 36.3717C66.8357 36.6985 66.4813 37.0553 66.157 37.4387C66.8581 37.8834 67.3908 38.5492 67.671 39.3307C67.671 39.4667 67.883 39.5727 68.019 39.6487C68.2888 39.7448 68.5099 39.9433 68.6345 40.2011C68.7592 40.459 68.7773 40.7556 68.685 41.0267C68.6121 41.2503 68.4655 41.4424 68.269 41.5717C67.5549 42.1283 66.6587 42.3983 65.756 42.3287C65.4241 42.3224 65.0997 42.2289 64.8153 42.0576C64.5309 41.8863 64.2967 41.6432 64.136 41.3527C63.9745 41.1081 63.7455 40.9156 63.4768 40.7986C63.208 40.6816 62.9111 40.6452 62.622 40.6937C62.4604 40.708 62.2975 40.6899 62.143 40.6404C61.9884 40.591 61.8453 40.5112 61.722 40.4057C61.4055 40.106 61.1487 39.749 60.965 39.3537C60.8406 39.0779 60.6198 38.8571 60.344 38.7327C59.6561 38.4978 59.0583 38.0545 58.6338 37.4644C58.2093 36.8743 57.979 36.1666 57.975 35.4397C57.9546 35.1855 57.9192 34.9327 57.869 34.6827C57.7987 34.3584 57.7052 34.0395 57.589 33.7287C57.4974 33.4637 57.3065 33.2446 57.0566 33.1175C56.8066 32.9905 56.5171 32.9654 56.249 33.0477C56.0311 33.0835 55.8195 33.1508 55.621 33.2477C55.4779 33.3507 55.3079 33.4098 55.1317 33.4178C54.9555 33.4258 54.7809 33.3823 54.629 33.2927C53.9799 33.4891 53.3202 33.6483 52.653 33.7697C51.767 33.8907 51.722 33.8457 51.601 34.7237C51.5483 35.1794 51.3588 35.6085 51.0575 35.9544C50.7562 36.3004 50.3572 36.5469 49.913 36.6617C49.435 36.7582 48.9474 36.7988 48.46 36.7827C48.7459 36.9841 49.0703 37.1244 49.4129 37.1948C49.7554 37.2651 50.1089 37.2641 50.451 37.1917C52.078 37.1917 52.934 37.8197 53.168 39.4627C53.221 39.8164 53.221 40.176 53.168 40.5297C52.986 41.4837 52.729 42.4147 52.54 43.3607C52.3201 44.244 52.1862 45.1466 52.14 46.0557C52.1329 47.3673 51.7003 48.6411 50.907 49.6857C50.317 50.4857 49.741 51.3057 49.174 52.1227C48.63 52.9201 48.2541 53.82 48.0693 54.7675C47.8845 55.715 47.8946 56.6902 48.099 57.6337C48.44 59.5937 48.712 61.5697 49.03 63.5337C49.091 63.9427 49.204 64.3437 49.295 64.7447C49.4073 64.4042 49.4745 64.0506 49.495 63.6927C49.548 63.2307 49.495 62.6477 50.123 62.5727C50.751 62.4977 50.933 63.0197 51.077 63.4587C51.312 64.1397 51.463 64.8437 51.637 65.5407C51.902 66.5777 52.121 67.6407 52.437 68.6667C52.646 69.1425 52.7343 69.6626 52.694 70.1807C52.693 70.5363 52.7974 70.8843 52.994 71.1807C53.1524 71.4411 53.3579 71.6696 53.6 71.8547C54.7712 73.0413 56.2453 73.8842 57.862 74.2917C58.2092 74.3285 58.5359 74.474 58.7956 74.7075C59.0552 74.9409 59.2346 75.2503 59.308 75.5917C59.3946 75.8489 59.5759 76.0634 59.815 76.1917C60.1193 76.3849 60.455 76.5233 60.807 76.6007C61.4326 76.7303 62.0173 77.0102 62.5106 77.4163C63.0038 77.8225 63.3908 78.3425 63.638 78.9317C63.8099 79.376 64.1119 79.7581 64.5043 80.0282C64.8968 80.2983 65.3616 80.4438 65.838 80.4457C66.6084 80.5065 67.3699 80.651 68.109 80.8767C68.4151 80.9601 68.694 81.1226 68.9175 81.3479C69.141 81.5731 69.3013 81.8532 69.3823 82.1599C69.4634 82.4667 69.4623 82.7894 69.3792 83.0957C69.2962 83.4019 69.134 83.6809 68.909 83.9047C68.6174 84.1948 68.2921 84.449 67.94 84.6617C67.668 84.8507 67.365 84.9947 67.092 85.1767C66.7846 85.3695 66.5377 85.645 66.3798 85.9717C66.2218 86.2984 66.1592 86.663 66.199 87.0237C66.2508 87.6923 66.5162 88.3265 66.956 88.8327C67.9196 90.0634 69.1626 91.0469 70.582 91.7017C70.8914 91.8166 71.2145 91.8906 71.543 91.9217C72.088 91.9897 72.633 92.0887 73.17 92.2097C73.5084 92.3006 73.798 92.5198 73.9774 92.8208C74.1569 93.1217 74.2119 93.4808 74.131 93.8217C74.0944 94.0677 74.0085 94.3039 73.8784 94.5159C73.7484 94.728 73.5768 94.9116 73.374 95.0557C73.018 95.3207 72.617 95.5327 72.269 95.8127C72.0051 95.9609 71.7684 96.153 71.569 96.3807C71.5028 96.4796 71.4585 96.5915 71.4388 96.7089C71.4191 96.8263 71.4247 96.9466 71.455 97.0617C71.5 97.1907 71.818 97.3117 72 97.2967C72.5439 97.2647 73.0815 97.1639 73.6 96.9967C75.4366 96.3888 77.3277 95.9604 79.247 95.7177C80.8017 95.56 82.2745 94.9435 83.478 93.9467C84.8669 92.7213 86.4244 91.7015 88.103 90.9187C90.0879 90.07 91.678 88.5017 92.554 86.5287C92.9357 85.6606 93.5014 84.8857 94.212 84.2577C94.3549 84.1275 94.4867 83.9857 94.606 83.8337C94.8026 83.5927 94.8954 83.2835 94.8641 82.9741C94.8328 82.6647 94.6799 82.3804 94.439 82.1837C94.2494 82.0338 94.0206 81.9418 93.78 81.9187C93.4492 81.8882 93.1156 81.9191 92.796 82.0097C91.948 82.2517 91.108 82.5317 90.268 82.7667C89.5187 83.0531 88.7232 83.1992 87.921 83.1977C86.581 83.1367 86.407 83.0087 86.097 81.6837C86.0757 81.3885 85.9407 81.113 85.7204 80.9153C85.5002 80.7176 85.2118 80.6131 84.916 80.6237C84.5313 80.5782 84.1427 80.5782 83.758 80.6237C82.5649 80.789 81.3535 80.4968 80.367 79.8057C79.6521 79.3752 78.8325 79.1499 77.998 79.1547H75.132C74.7831 79.1811 74.4327 79.1265 74.1083 78.9952C73.784 78.8639 73.4943 78.6594 73.262 78.3977C73.1374 78.279 73.0037 78.1703 72.862 78.0727C72.627 78.2727 72.423 78.4817 72.188 78.6627C71.9735 78.8786 71.7154 79.0463 71.431 79.1547C71.2424 79.1885 71.0648 79.2675 70.9133 79.3849C70.7618 79.5022 70.6409 79.6545 70.561 79.8287C70.463 80.0285 70.3465 80.2186 70.213 80.3967C69.888 80.8277 69.66 80.8507 69.131 80.6967C68.472 80.5077 67.799 80.3717 67.131 80.2277C66.831 80.1667 66.525 80.1517 66.223 80.0987C65.065 79.9167 64.709 79.5087 64.709 78.3277C64.709 77.8887 64.8 77.4497 64.83 77.0107C64.8601 76.8467 64.8268 76.6774 64.737 76.5369C64.6472 76.3964 64.5075 76.2952 64.346 76.2537C64.3058 76.2501 64.2653 76.2501 64.225 76.2537C63.8728 76.1923 63.5155 76.1645 63.158 76.1707C62.9267 76.1882 62.6941 76.1598 62.4738 76.0869C62.2535 76.0141 62.0499 75.8983 61.8746 75.7462C61.6993 75.5942 61.5559 75.409 61.4526 75.2012C61.3494 74.9934 61.2883 74.7672 61.273 74.5357V73.7027C60.63 73.8237 60.073 73.9377 59.502 74.0277C58.9319 74.1885 58.3215 74.1202 57.801 73.8374C57.2806 73.5546 56.8912 73.0795 56.716 72.5137C56.2864 71.4219 56.2071 70.2235 56.489 69.0847C56.6165 68.2675 56.9646 67.5005 57.496 66.8667C57.8523 66.4183 58.3447 66.0978 58.8989 65.9535C59.4532 65.8092 60.0393 65.8489 60.569 66.0667C61.3242 66.4153 62.1861 66.4534 62.969 66.1727C63.2498 66.0716 63.5478 66.0268 63.846 66.041C64.1441 66.0551 64.4365 66.1279 64.7065 66.2551C64.9765 66.3823 65.2187 66.5616 65.4194 66.7825C65.6201 67.0034 65.7752 67.2617 65.876 67.5427C66.043 67.9207 66.176 68.2997 66.36 68.6857C66.4071 68.8526 66.5056 69.0003 66.6415 69.1081C66.7774 69.2158 66.9438 69.2779 67.117 69.2857C67.041 68.5287 66.988 67.8777 66.897 67.1967C66.8446 66.9359 66.8457 66.6673 66.9004 66.407C66.9551 66.1467 67.0621 65.9003 67.215 65.6827C67.5012 65.3126 67.8493 64.9949 68.244 64.7437C69.0089 64.2972 69.5768 63.5782 69.834 62.7307C70.061 61.9737 70.447 61.2167 70.75 60.4147C70.8163 60.1982 70.9492 60.0082 71.1299 59.8717C71.3105 59.7352 71.5297 59.6593 71.756 59.6547H72.362C72.453 59.3667 72.551 59.1177 72.619 58.8547C72.99 57.2877 73.512 56.7277 75.219 56.8787C75.5427 56.8781 75.8652 56.8398 76.18 56.7647C75.93 56.4397 75.78 56.2497 75.635 56.0527C75.3279 55.6193 75.1927 55.0874 75.2557 54.56C75.3188 54.0326 75.5754 53.5475 75.976 53.1987C76.0659 53.0894 76.1766 52.9992 76.3016 52.9331C76.4267 52.867 76.5637 52.8265 76.7045 52.8138C76.8454 52.8012 76.9874 52.8167 77.1223 52.8594C77.2571 52.9021 77.3821 52.9712 77.49 53.0627C77.5366 53.099 77.5798 53.1395 77.619 53.1837C77.819 53.4037 78.019 53.6377 78.209 53.8727C78.3594 54.0749 78.5774 54.2164 78.8233 54.2715C79.0692 54.3265 79.3267 54.2915 79.549 54.1727C79.701 54.0712 79.8111 53.9181 79.859 53.7417C79.859 53.6507 79.677 53.4997 79.549 53.4167C79.4488 53.3725 79.3405 53.3493 79.231 53.3487C77.997 53.1487 77.8 52.7887 78.315 51.6077C78.497 51.1687 78.451 51.0247 78.005 50.8507C77.68 50.7067 77.331 50.6007 76.991 50.4797C76.6436 50.3698 76.3307 50.1715 76.0831 49.9041C75.8356 49.6367 75.6618 49.3095 75.579 48.9547C75.4951 48.6048 75.381 48.2629 75.238 47.9327C74.981 47.3877 74.67 47.3327 74.209 47.7327C74.0776 47.8956 73.9098 48.0254 73.7191 48.1116C73.5284 48.1979 73.3202 48.2382 73.1111 48.2294C72.902 48.2205 72.6978 48.1627 72.5151 48.0607C72.3324 47.9586 72.1762 47.8151 72.059 47.6417C71.759 47.3537 71.506 47.0207 71.204 46.7417C71.0425 46.6092 70.8425 46.5325 70.6338 46.5229C70.4251 46.5134 70.219 46.5715 70.046 46.6887L70.007 46.6357ZM71.127 36.4357C71.2507 36.6995 71.474 36.9035 71.7479 37.0029C72.0218 37.1022 72.3239 37.0889 72.588 36.9657H72.641C73.186 36.7537 73.277 36.7657 73.587 37.2537C73.8047 37.605 73.9946 37.9728 74.155 38.3537C74.4205 39.1454 74.9566 39.8181 75.669 40.2537C76.068 40.4908 76.4033 40.8215 76.646 41.2171C76.8887 41.6128 77.0314 42.0615 77.062 42.5247C77.0738 42.8564 77.1194 43.1862 77.198 43.5087C77.2561 43.9262 77.4624 44.3089 77.7793 44.5868C78.0962 44.8648 78.5025 45.0195 78.924 45.0227C79.681 45.0227 79.893 44.7047 79.681 44.0307C79.613 43.8487 79.53 43.6747 79.446 43.5007C79.2571 43.1431 79.1755 42.7385 79.211 42.3357C79.2465 41.9328 79.3975 41.5488 79.646 41.2297C79.911 40.8437 80.214 40.4727 80.479 40.0947C80.8115 39.6106 80.9385 39.0143 80.832 38.4368C80.7255 37.8592 80.3943 37.3474 79.911 37.0137L79.57 36.8137C78.8078 36.4893 78.1465 35.9665 77.655 35.2997C77.405 34.9667 77.155 34.6337 76.898 34.3237C76.731 34.0467 76.5011 33.813 76.2269 33.6414C75.9528 33.4697 75.6421 33.3651 75.32 33.3359C74.9979 33.3067 74.6734 33.3537 74.3729 33.4732C74.0723 33.5927 73.8041 33.7813 73.59 34.0237C73.3967 34.1284 73.2475 34.2992 73.1696 34.5048C73.0918 34.7104 73.0905 34.9372 73.166 35.1437C73.34 35.7187 73.166 36.0367 72.56 36.2337C72.0953 36.3377 71.6253 36.4162 71.152 36.4687L71.127 36.4357ZM70.484 34.1647C69.364 33.9907 68.97 34.5057 69.023 35.8907L70.393 36.0577C69.909 35.3007 70.493 34.7787 70.514 34.1277L70.484 34.1647ZM91.784 36.2007C92.064 35.9807 92.359 35.7847 92.617 35.5417C92.6873 35.4946 92.7475 35.4339 92.794 35.3633C92.8406 35.2926 92.8726 35.2134 92.8881 35.1303C92.9037 35.0471 92.9025 34.9617 92.8846 34.879C92.8667 34.7963 92.8325 34.718 92.784 34.6487C92.7343 34.5852 92.6784 34.5269 92.617 34.4747C92.217 34.1647 91.799 33.8687 91.376 33.5967L91.255 33.7107C91.686 34.4677 92.231 35.2247 91.815 36.1707L91.784 36.2007ZM62.119 36.9577C61.566 37.4417 61.544 37.4947 61.65 38.2297C62.35 38.3807 62.695 38.3587 62.687 38.1297C62.6322 37.804 62.5312 37.4878 62.387 37.1907C62.387 37.0767 62.258 37.0237 62.175 36.9637L62.119 36.9577ZM66.888 34.5207C66.426 34.4677 66.426 34.4677 66.131 34.8917C66.745 35.2817 66.745 35.2817 66.889 34.5247L66.888 34.5207Z" fill="white"/>
<path d="M55.5729 129.899C54.7549 130.035 54.7249 130.035 54.4909 129.49C54.0219 128.4 53.5519 127.302 53.1279 126.197C53.0702 125.959 52.9275 125.751 52.7266 125.611C52.5258 125.472 52.2808 125.411 52.0379 125.44H40.6839C40.4385 125.405 40.1889 125.463 39.9844 125.603C39.7799 125.744 39.6352 125.955 39.5789 126.197C39.1549 127.31 38.6789 128.397 38.2089 129.49C37.9669 130.058 37.9439 130.05 37.1799 129.921C37.2367 129.689 37.3075 129.462 37.3919 129.24C40.1473 122.68 42.9226 116.135 45.7179 109.605C45.7648 109.444 45.8393 109.293 45.9379 109.158C46.0271 109.048 46.1537 108.975 46.2933 108.953C46.433 108.93 46.576 108.96 46.6949 109.037L46.8189 109.157C46.9528 109.401 47.0717 109.654 47.1749 109.914L55.2889 129.014C55.3529 129.233 55.4519 129.543 55.5729 129.899ZM40.3129 124.517H52.2729C52.1899 123.805 46.8149 111.089 46.2929 110.4C44.3099 115.055 42.3269 119.7 40.3129 124.479V124.517Z" fill="white"/>
<path d="M72.672 125L73.278 125.386C73.2503 125.504 73.2097 125.619 73.157 125.727C72.3655 126.833 71.3586 127.767 70.1969 128.473C69.0352 129.179 67.7427 129.643 66.397 129.837C63.6605 130.132 60.9172 129.345 58.7531 127.645C56.589 125.944 55.1757 123.465 54.815 120.736C54.4543 118.007 55.1748 115.246 56.8226 113.041C58.4704 110.837 60.9149 109.364 63.634 108.937C65.4427 108.674 67.2891 108.916 68.9685 109.638C70.6479 110.359 72.0949 111.531 73.149 113.024C73.187 113.092 73.225 113.168 73.255 113.236C73.268 113.265 73.2707 113.298 73.2625 113.328C73.2542 113.358 73.2357 113.385 73.21 113.403L72.756 113.721C72.6627 113.693 72.5772 113.644 72.506 113.577C71.991 113.047 71.514 112.449 70.992 111.977C70.0601 111.18 68.9802 110.573 67.8139 110.193C66.6476 109.813 65.4179 109.666 64.1948 109.76C62.9718 109.855 61.7794 110.19 60.6858 110.746C59.5921 111.302 58.6187 112.067 57.821 112.999C57.0204 113.93 56.4133 115.011 56.035 116.178C55.6064 117.37 55.4168 118.635 55.477 119.9C55.5372 121.165 55.846 122.406 56.3858 123.552C56.9256 124.697 57.6858 125.725 58.623 126.577C59.5602 127.429 60.6561 128.088 61.848 128.516C62.2012 128.646 62.5627 128.752 62.93 128.834C64.5754 129.238 66.3014 129.168 67.9086 128.632C69.5159 128.096 70.9387 127.116 72.013 125.806C72.127 125.677 72.225 125.549 72.338 125.428L72.672 125Z" fill="white"/>
<path d="M108.286 113.36C108.244 113.425 108.196 113.486 108.142 113.542C108.013 113.618 107.892 113.686 107.764 113.742C107.665 113.69 107.574 113.627 107.491 113.553C107.023 113.013 106.517 112.507 105.977 112.039C104.098 110.427 101.657 109.628 99.1885 109.815C96.7205 110.003 94.4278 111.162 92.8139 113.039C92.0079 113.97 91.3978 115.054 91.0199 116.226C90.5919 117.423 90.4038 118.693 90.4666 119.963C90.5294 121.233 90.8417 122.478 91.3858 123.627C91.9299 124.777 92.695 125.807 93.6376 126.661C94.5801 127.514 95.6815 128.174 96.8789 128.602C97.2097 128.724 97.5485 128.825 97.8929 128.902C99.3248 129.259 100.823 129.251 102.251 128.88C103.68 128.508 104.992 127.784 106.068 126.775C106.628 126.291 107.113 125.708 107.688 125.11L108.294 125.42C108.266 125.544 108.226 125.666 108.173 125.783C107.385 126.891 106.381 127.827 105.22 128.535C104.059 129.243 102.767 129.708 101.421 129.901C100.04 130.094 98.6351 130.012 97.2865 129.659C95.9379 129.306 94.6726 128.689 93.5639 127.844C92.4552 126.999 91.5251 125.942 90.8274 124.735C90.1297 123.529 89.6782 122.195 89.4991 120.813C89.3199 119.43 89.4167 118.026 89.7837 116.681C90.1508 115.336 90.7809 114.078 91.6376 112.978C92.4942 111.878 93.5605 110.959 94.7746 110.274C95.9887 109.589 97.3266 109.151 98.7109 108.987C100.468 108.756 102.255 108.996 103.889 109.682C105.523 110.368 106.946 111.476 108.011 112.893C108.094 113.004 108.169 113.12 108.238 113.241L108.286 113.36Z" fill="white"/>
<path d="M75.3669 127.037L75.9569 126.53C76.2979 126.81 76.6079 127.075 76.9329 127.33C77.9082 128.136 79.0654 128.692 80.3041 128.949C81.5428 129.206 82.8255 129.157 84.0409 128.806C84.5688 128.686 85.0664 128.459 85.5026 128.139C85.9389 127.819 86.3046 127.412 86.5769 126.944C86.9919 126.14 87.1422 125.225 87.0062 124.331C86.8702 123.436 86.4551 122.608 85.8199 121.963C85.1966 121.329 84.4386 120.842 83.6019 120.54C82.8019 120.24 81.9669 120.025 81.1799 119.692C80.2008 119.322 79.254 118.871 78.3489 118.345C77.2534 117.668 76.4289 116.629 76.0179 115.408C75.6911 114.589 75.6311 113.688 75.8466 112.833C76.0621 111.978 76.542 111.213 77.2179 110.647C77.8958 110.032 78.6886 109.556 79.5508 109.248C80.4129 108.94 81.3275 108.805 82.2419 108.852C83.1563 108.898 84.0525 109.125 84.879 109.519C85.7055 109.913 86.446 110.466 87.0579 111.147L87.1489 111.238C87.2629 111.389 87.3689 111.548 87.4669 111.707C86.9219 112.222 86.9139 112.229 86.4219 111.707C85.3235 110.51 83.7953 109.797 82.1722 109.725C80.5491 109.653 78.9636 110.227 77.7629 111.321C77.2386 111.781 76.8728 112.394 76.7178 113.074C76.5629 113.753 76.6266 114.465 76.8999 115.106C77.3015 116.273 78.1399 117.239 79.2389 117.801C80.1013 118.239 80.9912 118.621 81.9029 118.944C82.8789 119.33 83.8939 119.625 84.8399 120.057C85.5188 120.376 86.1238 120.833 86.6164 121.398C87.109 121.964 87.4783 122.626 87.7009 123.342C88.1203 124.471 88.0885 125.719 87.6122 126.825C87.1358 127.932 86.2515 128.813 85.1429 129.284C83.9727 129.799 82.6937 130.017 81.4189 129.92C79.271 129.772 77.2456 128.865 75.7039 127.362C75.583 127.264 75.4715 127.156 75.3709 127.037H75.3669Z" fill="white"/>
<path d="M68.706 144.509C68.789 144.221 68.888 143.941 68.963 143.654C69.6443 141.13 70.328 138.592 71.014 136.039C71.0541 135.796 71.1281 135.56 71.234 135.339C71.2847 135.262 71.3506 135.198 71.4275 135.148C71.5044 135.098 71.5907 135.065 71.681 135.051C71.854 135.093 72.0067 135.195 72.112 135.339C72.2096 135.538 72.2808 135.749 72.324 135.967C73.1113 138.934 73.9086 141.899 74.716 144.861C74.799 145.161 74.83 145.482 74.89 145.822C74.383 145.822 74.383 145.534 74.315 145.285C73.921 143.847 73.558 142.401 73.142 140.963C72.688 139.283 72.226 137.61 71.628 135.899C71.5385 136.101 71.46 136.308 71.393 136.52L69.077 145.084C68.994 145.384 69.009 145.758 68.502 145.917C68.3649 145.633 68.2509 145.34 68.161 145.039C67.4343 142.372 66.7126 139.703 65.996 137.031L65.633 135.767C65.5354 135.96 65.4519 136.161 65.383 136.367C64.626 139.251 63.831 142.135 63.036 145.019C62.953 145.319 62.991 145.776 62.408 145.897C62.4095 145.673 62.4299 145.45 62.469 145.231L65.05 135.618C65.0732 135.509 65.1116 135.405 65.164 135.308C65.2123 135.195 65.3033 135.107 65.4169 135.061C65.5305 135.016 65.6575 135.017 65.77 135.066C65.8748 135.118 65.9598 135.203 66.012 135.308C66.1092 135.537 66.1852 135.776 66.239 136.02C66.9503 138.699 67.672 141.368 68.404 144.028C68.449 144.187 68.504 144.338 68.555 144.497L68.706 144.509Z" fill="white"/>
<path d="M47.6039 144.387C47.8839 143.38 48.1639 142.366 48.4369 141.359C48.9369 139.512 49.4209 137.673 49.9509 135.833C50.0419 135.508 50.0269 135.076 50.5259 135.038C51.0249 135 51.0629 135.515 51.1539 135.863C52.0019 138.929 52.8269 142.002 53.6539 145.063C53.7149 145.313 53.7369 145.57 53.7829 145.873C53.2229 145.835 53.2379 145.464 53.1699 145.199C52.8069 143.927 52.4699 142.641 52.1249 141.361C51.6859 139.734 51.2469 138.099 50.7999 136.471C50.7469 136.271 50.6639 136.077 50.5279 135.714C50.3769 136.214 50.2859 136.524 50.2029 136.834C49.4459 139.559 48.7419 142.284 48.0029 145.009C47.9119 145.327 47.9419 145.766 47.4029 145.948C47.2604 145.667 47.1439 145.373 47.0549 145.07C46.2983 142.33 45.5539 139.582 44.8219 136.827C44.7459 136.527 44.6549 136.244 44.5119 135.767C44.3759 136.13 44.2849 136.335 44.2239 136.524L41.9039 145.098C41.8209 145.398 41.8359 145.772 41.4039 145.898C41.1539 145.598 41.3279 145.308 41.4039 145.035C42.0039 142.764 42.6229 140.493 43.2359 138.222C43.4479 137.422 43.6519 136.622 43.8869 135.815C43.9869 135.497 43.9629 135.058 44.4699 135.058C44.9769 135.058 44.9699 135.489 45.0599 135.815C45.6199 137.844 46.1649 139.872 46.7179 141.871C46.9449 142.711 47.1869 143.551 47.4179 144.399L47.6039 144.387Z" fill="white"/>
<path d="M35.3169 108.977V128.983C35.3401 129.204 35.3248 129.426 35.2719 129.642C35.2461 129.747 35.1799 129.837 35.0877 129.893C34.9956 129.949 34.8849 129.967 34.7799 129.942C34.7068 129.925 34.6399 129.888 34.5869 129.835C34.5338 129.782 34.4968 129.715 34.4799 129.642C34.4421 129.452 34.4421 129.257 34.4799 129.067V109.499C34.5299 108.924 34.5369 108.924 35.3169 108.977Z" fill="white"/>
<path d="M75.829 135.198C75.9387 135.13 76.0591 135.081 76.185 135.054C77.51 135.054 78.842 134.993 80.159 135.092C80.7065 135.117 81.2326 135.311 81.664 135.649C82.0954 135.987 82.4108 136.451 82.566 136.977C82.7546 137.5 82.7834 138.067 82.6486 138.606C82.5138 139.145 82.2215 139.632 81.809 140.005C81.688 140.119 81.582 140.247 81.431 140.414C81.658 140.581 81.855 140.714 82.037 140.868C82.4596 141.164 82.7883 141.576 82.9841 142.053C83.18 142.531 83.2348 143.055 83.142 143.563C83.0921 144.113 82.8604 144.631 82.4834 145.036C82.1065 145.44 81.6057 145.707 81.06 145.796C79.8256 145.926 78.5835 145.969 77.343 145.925C77.243 145.925 77.154 145.781 76.881 145.569C77.191 145.516 77.509 145.469 77.835 145.448H80.435C81.0373 145.448 81.615 145.208 82.0409 144.783C82.4668 144.357 82.706 143.779 82.706 143.177C82.724 142.627 82.5372 142.091 82.1819 141.671C81.8266 141.251 81.328 140.979 80.783 140.906C79.466 140.8 78.134 140.853 76.801 140.853C76.324 140.853 76.309 141.194 76.309 141.542V145.032C76.309 145.312 76.409 145.632 76.097 145.902C75.772 145.682 75.862 145.357 75.862 145.084V136.08C75.8204 135.788 75.8094 135.492 75.829 135.198ZM76.291 140.262C77.631 140.262 78.88 140.323 80.076 140.262C80.5787 140.226 81.0543 140.02 81.4243 139.678C81.7944 139.336 82.037 138.878 82.112 138.38C82.2351 137.775 82.1141 137.146 81.7752 136.63C81.4363 136.113 80.9071 135.752 80.303 135.625C80.1505 135.596 79.9961 135.578 79.841 135.572C78.819 135.534 77.797 135.572 76.813 135.572C76.6428 135.587 76.4749 135.623 76.313 135.678L76.291 140.262Z" fill="white"/>
<path d="M98.4159 145.848C97.8159 145.924 97.7349 145.583 97.6059 145.341C96.9249 144.041 96.2359 142.752 95.5999 141.428C95.5122 141.172 95.336 140.955 95.103 140.816C94.87 140.677 94.5953 140.626 94.3279 140.671C93.795 140.701 93.2609 140.701 92.7279 140.671C92.6069 140.202 92.8569 140.179 93.0759 140.171H95.0669C95.508 140.18 95.9483 140.132 96.3769 140.027C96.8972 139.912 97.3573 139.611 97.6705 139.18C97.9837 138.749 98.1283 138.218 98.0769 137.688C98.037 137.142 97.8013 136.629 97.4133 136.244C97.0252 135.858 96.5109 135.625 95.9649 135.588C94.7539 135.512 93.5429 135.588 92.2259 135.588C92.2259 135.944 92.1499 136.262 92.1499 136.58V145.043C92.1499 145.343 92.2859 145.709 91.8169 145.951C91.7288 145.789 91.6699 145.612 91.6429 145.429V135.474C91.6532 135.37 91.6812 135.269 91.7259 135.174C91.9227 135.121 92.1233 135.083 92.3259 135.06H95.5809C96.2214 135.039 96.8514 135.226 97.3766 135.593C97.9019 135.96 98.2942 136.488 98.4949 137.096C98.708 137.721 98.6765 138.403 98.407 139.005C98.1374 139.608 97.6497 140.086 97.0419 140.343C96.6939 140.502 96.2849 140.616 95.8419 140.797C96.6529 142.411 97.5609 144.074 98.4159 145.848Z" fill="white"/>
<path d="M54.634 134.996C56.834 134.996 58.918 134.958 61.015 134.996C61.121 134.996 61.215 135.132 61.356 135.223C61.091 135.564 60.766 135.473 60.486 135.473H55.186C55.0801 136.985 55.0574 138.501 55.118 140.015C55.504 140.015 55.799 140.106 56.087 140.106H59.314C59.586 140.106 59.92 140.015 60.162 140.492C59.914 140.554 59.6603 140.589 59.405 140.598H55.171C55.02 142.198 55.126 143.698 55.095 145.314L61.264 145.359L61.317 145.526C61.2341 145.637 61.1326 145.731 61.017 145.806C60.8857 145.851 60.746 145.867 60.608 145.851H55.308C55.0801 145.836 54.8543 145.798 54.634 145.737V134.996Z" fill="white"/>
<path d="M84.556 135.509V140.051C84.897 140.051 85.192 140.134 85.479 140.134H88.757C89.03 140.134 89.37 140.043 89.605 140.52C89.356 140.576 89.1028 140.612 88.848 140.626H84.526C84.473 142.226 84.473 143.726 84.526 145.342L90.65 145.387L90.703 145.554C90.6201 145.665 90.5186 145.759 90.403 145.834C90.2716 145.879 90.132 145.895 89.994 145.879H84.694C84.4661 145.864 84.2403 145.826 84.02 145.765V135.165C86.112 134.939 88.219 134.884 90.32 134.998C90.4712 135.059 90.6156 135.135 90.751 135.225C90.479 135.573 90.151 135.482 89.873 135.482H84.573L84.556 135.509Z" fill="white"/>
<path d="M25.212 104.443L26.453 103.406L28.958 101.234C29.223 100.999 29.465 100.901 29.658 101.302C28.0584 102.957 26.3241 104.476 24.473 105.844C23.958 105.632 24.117 105.231 24.223 104.86C24.662 103.24 25.116 101.613 25.563 99.9926C25.639 99.7046 25.707 99.4096 25.813 98.9786C25.6181 99.0839 25.431 99.2029 25.253 99.3346C24.208 100.235 23.171 101.152 22.119 102.045C21.899 102.234 21.627 102.666 21.309 102.245C20.991 101.824 21.468 101.708 21.672 101.533C23.035 100.322 24.412 99.1326 25.805 97.9526C25.994 97.7856 26.327 97.5966 26.494 97.6646C26.894 97.8156 26.751 98.2176 26.668 98.5346L25.275 103.561C25.207 103.818 25.154 104.083 25.093 104.318L25.212 104.443Z" fill="white"/>
<path d="M117.786 94.6248C117.907 94.0038 118.339 94.0798 118.709 94.0718L124.098 93.9508H124.749C124.575 93.7838 124.393 93.6328 124.212 93.4818L120.586 91.1508C120.268 90.9508 120.041 90.7268 120.586 90.3408L126.293 94.0048C126.225 94.6788 125.786 94.6558 125.37 94.6638L120.238 94.7088C119.947 94.6996 119.659 94.7621 119.398 94.8908C119.61 95.0418 119.814 95.2008 120.026 95.3448L123.099 97.3128C123.281 97.4338 123.47 97.5548 123.644 97.6838C123.818 97.8128 123.924 98.0018 123.744 98.1678C123.632 98.2358 123.5 98.2645 123.37 98.2495C123.24 98.2345 123.119 98.1765 123.025 98.0848L118.143 94.9438C118.01 94.854 117.89 94.7467 117.786 94.6248Z" fill="white"/>
<path d="M25.174 20.8983C25.1495 19.9861 25.488 19.1016 26.1152 18.4388C26.7423 17.776 27.6069 17.3892 28.519 17.3633H28.674C29.5818 17.3975 30.4415 17.7808 31.0737 18.4332C31.706 19.0856 32.0621 19.9568 32.0679 20.8653C32.0737 21.7737 31.7287 22.6494 31.1049 23.3098C30.481 23.9702 29.6263 24.3644 28.719 24.4103C28.2666 24.4257 27.8156 24.3515 27.392 24.1918C26.9684 24.0321 26.5807 23.7901 26.2511 23.4797C25.9216 23.1694 25.6567 22.7969 25.4718 22.3837C25.287 21.9705 25.1857 21.5248 25.174 21.0723V20.8983ZM28.633 23.6913C29.19 23.6944 29.7354 23.5323 30.2002 23.2255C30.6651 22.9187 31.0285 22.4809 31.2445 21.9675C31.4605 21.4541 31.5195 20.8882 31.4138 20.3413C31.3082 19.7944 31.0428 19.2911 30.6511 18.8951C30.2594 18.4991 29.7591 18.2281 29.2134 18.1165C28.6677 18.0048 28.1012 18.0575 27.5854 18.2679C27.0697 18.4782 26.6279 18.8368 26.316 19.2983C26.004 19.7597 25.8359 20.3033 25.833 20.8603C25.8369 21.6024 26.1329 22.3132 26.6569 22.8387C27.181 23.3642 27.8908 23.6622 28.633 23.6683V23.6913Z" fill="white"/>
<path d="M56.685 1.7323C57.2 1.4673 57.442 1.7933 57.677 2.0503C58.877 3.2693 60.061 4.5033 61.257 5.7293C61.4586 5.96573 61.7201 6.1436 62.014 6.2443C61.961 5.9113 61.908 5.5783 61.847 5.2443C61.636 4.0493 61.416 2.8623 61.196 1.6623C61.1419 1.50427 61.1212 1.33676 61.135 1.1703C61.1471 1.09962 61.1783 1.03358 61.2251 0.979302C61.272 0.925026 61.3328 0.884574 61.401 0.862305C61.507 0.862305 61.651 1.0063 61.757 1.1123C61.863 1.2183 61.757 1.2713 61.81 1.3543C62.1733 3.33764 62.5317 5.32097 62.885 7.3043C62.8926 7.38245 62.8926 7.46116 62.885 7.5393C62.507 7.8953 62.234 7.6683 61.969 7.3953C61.333 6.7213 60.75 6.0483 60.069 5.4043L57.563 3.0503C57.616 3.3833 57.669 3.7393 57.73 4.0953C57.942 5.2953 58.161 6.4873 58.381 7.6833C58.4199 7.84175 58.4404 8.00416 58.442 8.1673C58.442 8.2733 58.306 8.4553 58.23 8.4473C58.0831 8.43166 57.9464 8.36474 57.844 8.2583C57.791 8.2133 57.799 8.09931 57.783 8.0233C57.42 6.04031 57.026 4.0573 56.708 2.0733C56.6853 1.96115 56.6775 1.84649 56.685 1.7323Z" fill="white"/>
<path d="M14.75 54.7941C14.901 55.3691 14.55 55.5511 14.235 55.6871L9.69295 58.0641L8.79995 58.5641C9.04885 58.6323 9.30165 58.6854 9.55695 58.7231L13.433 59.1321C13.5704 59.1474 13.7069 59.1701 13.842 59.2001C13.978 59.2001 14.402 59.2001 14.349 59.5781C14.296 59.9561 13.986 59.8431 13.749 59.8201L7.98095 59.2301C7.81986 59.2068 7.6623 59.1635 7.51195 59.1011C7.26995 58.6171 7.59495 58.4351 7.92095 58.2611L11.707 56.2731C12.2746 56.007 12.8084 55.674 13.297 55.2811L10.723 54.9631C10.011 54.8871 9.29995 54.8271 8.58095 54.7631C8.44237 54.7642 8.30542 54.7331 8.18095 54.6721C8.05826 54.5872 7.95582 54.4762 7.88095 54.3471C8.00195 54.2561 8.12295 54.0821 8.23695 54.0901C8.87307 54.1017 9.50775 54.1548 10.137 54.2491C11.401 54.3701 12.665 54.4991 13.922 54.6351C14.198 54.6661 14.463 54.7411 14.75 54.7941Z" fill="white"/>
<path d="M128.876 66.8006C129.057 66.8083 129.236 66.8311 129.413 66.8686L133.728 67.0426H133.978C134.228 67.0426 134.515 67.0426 134.493 67.4206C134.471 67.7986 134.213 67.7206 133.993 67.7206H133.743L128.687 67.5086C128.339 67.4935 127.993 67.4554 127.65 67.3946C127.393 66.8726 127.726 66.6946 128.036 66.5016L132.358 63.8676C132.68 63.6901 132.965 63.4525 133.198 63.1676L127.898 62.9326C127.747 62.5766 127.769 62.3326 128.163 62.3116C128.522 62.3105 128.881 62.3282 129.238 62.3646L133.969 62.5536C134.105 62.5384 134.242 62.5384 134.378 62.5536C134.514 62.6066 134.703 62.6976 134.741 62.8106C134.748 62.8897 134.739 62.9695 134.714 63.0449C134.69 63.1204 134.65 63.1901 134.597 63.2496C134.433 63.3978 134.25 63.5226 134.052 63.6206L129.73 66.2546C129.481 66.4066 129.262 66.5656 128.876 66.8006Z" fill="white"/>
<path d="M15.6439 80.1892L14.7279 80.4622L10.7949 81.8552C10.4319 81.9842 10.1289 81.9992 10.1669 81.3782L16.4949 79.1602C16.9949 79.5312 16.7949 79.8342 16.5629 80.1362L14.2889 83.1202C13.7836 83.7531 13.3352 84.4293 12.9489 85.1412C13.2059 85.0652 13.4639 85.0052 13.7059 84.9142C14.9059 84.5052 16.1059 84.0812 17.3059 83.6572C17.4829 83.5814 17.6687 83.528 17.8589 83.4982C18.0049 83.5236 18.1352 83.605 18.2219 83.7252C18.2004 83.8434 18.151 83.9548 18.0779 84.0502C18.0194 84.1103 17.9415 84.1479 17.8579 84.1562L12.3019 86.0712C12.2273 86.1067 12.1483 86.1323 12.0669 86.1472C11.9929 86.1689 11.914 86.1675 11.8407 86.1431C11.7675 86.1187 11.7035 86.0725 11.6574 86.0106C11.6112 85.9488 11.5851 85.8743 11.5825 85.7972C11.5799 85.72 11.601 85.6439 11.6429 85.5792C11.7407 85.3787 11.8655 85.1926 12.0139 85.0262C13.0589 83.6332 14.1139 82.2482 15.1629 80.8552C15.3402 80.6459 15.5011 80.4233 15.6439 80.1892Z" fill="white"/>
<path d="M76.594 3.56546C76.6039 4.02372 76.5235 4.47945 76.3573 4.90663C76.1911 5.33381 75.9424 5.72406 75.6254 6.05511C75.3084 6.38616 74.9292 6.65152 74.5096 6.83603C74.09 7.02054 73.6382 7.12059 73.18 7.13046H73.112C72.1742 7.1305 71.2743 6.76031 70.608 6.1004C69.9417 5.44048 69.5629 4.5442 69.554 3.60646C69.5609 2.68552 69.9278 1.80381 70.5762 1.14979C71.2246 0.495772 72.1031 0.121318 73.024 0.10646C73.935 0.0756664 74.8211 0.407305 75.488 1.02869C76.1549 1.65008 76.5483 2.51053 76.582 3.42146C76.5888 3.46913 76.5915 3.51732 76.59 3.56546H76.594ZM73.094 6.43446C73.8367 6.42851 74.5469 6.12851 75.0689 5.60014C75.591 5.07177 75.8824 4.35807 75.8794 3.6153C75.8765 2.87253 75.5793 2.16119 75.053 1.63702C74.5268 1.11285 73.8142 0.81855 73.0715 0.81855C72.3287 0.81855 71.6162 1.11285 71.0899 1.63702C70.5636 2.16119 70.2665 2.87253 70.2635 3.6153C70.2605 4.35807 70.5519 5.07177 71.074 5.60014C71.5961 6.12851 72.3062 6.42851 73.049 6.43446H73.094Z" fill="white"/>
<path d="M7.37101 63.8019C7.37312 62.8952 7.73422 62.0263 8.37533 61.3852C9.01643 60.7441 9.88535 60.383 10.792 60.3809H10.936C11.8563 60.4026 12.7315 60.7839 13.374 61.4432C14.0165 62.1025 14.3751 62.9873 14.373 63.9079C14.3521 64.8434 13.9657 65.7336 13.2966 66.3877C12.6275 67.0419 11.7288 67.4081 10.793 67.4079C10.3332 67.4007 9.8793 67.303 9.45726 67.1203C9.03523 66.9376 8.65333 66.6736 8.3334 66.3433C8.01346 66.0129 7.76176 65.6228 7.59268 65.1951C7.4236 64.7675 7.34046 64.3107 7.34801 63.8509L7.37101 63.8019ZM10.906 61.0689C10.5469 61.0526 10.188 61.1076 9.85026 61.2307C9.51246 61.3538 9.20236 61.5425 8.93781 61.7859C8.67326 62.0294 8.45951 62.3227 8.30885 62.6492C8.1582 62.9756 8.07362 63.3286 8.06001 63.6879C8.05211 63.7506 8.05211 63.8141 8.06001 63.8769C8.05084 64.2433 8.1145 64.6079 8.24728 64.9496C8.38007 65.2912 8.57934 65.6031 8.83355 65.8672C9.08777 66.1312 9.39186 66.3422 9.72821 66.4879C10.0646 66.6336 10.4265 66.7111 10.793 66.7159H10.937C11.6772 66.7178 12.3883 66.4283 12.9166 65.9099C13.4449 65.3915 13.7479 64.6859 13.76 63.9459C13.7824 63.2115 13.513 62.4982 13.0107 61.962C12.5085 61.4258 11.8142 61.1104 11.08 61.0849L10.906 61.0689Z" fill="white"/>
<path d="M49.548 6.26242C49.529 5.34583 49.8746 4.45917 50.5089 3.79727C51.1433 3.13537 52.0144 2.75237 52.931 2.73242H53.075C54.0064 2.73242 54.8997 3.10244 55.5583 3.76106C56.217 4.41969 56.587 5.31298 56.587 6.24442C56.587 7.17586 56.217 8.06915 55.5583 8.72778C54.8997 9.38641 54.0064 9.75642 53.075 9.75642C52.6202 9.76637 52.168 9.68634 51.7443 9.52094C51.3206 9.35554 50.9337 9.10803 50.6059 8.79263C50.2782 8.47723 50.016 8.10017 49.8344 7.68311C49.6529 7.26605 49.5555 6.81722 49.548 6.36242V6.26242ZM53.015 9.09342C53.6658 9.09557 54.2972 8.87223 54.8019 8.4614C55.3067 8.05057 55.6535 7.4776 55.7835 6.83992C55.9135 6.20224 55.8186 5.53922 55.515 4.9636C55.2114 4.38798 54.7177 3.9353 54.118 3.68253C53.5183 3.42975 52.8496 3.3925 52.2255 3.57709C51.6015 3.76169 51.0606 4.15674 50.6949 4.69507C50.3292 5.2334 50.1613 5.88177 50.2196 6.52994C50.278 7.17812 50.559 7.78607 51.015 8.25042C51.276 8.51625 51.5872 8.72764 51.9305 8.87235C52.2738 9.01705 52.6424 9.0922 53.015 9.09342Z" fill="white"/>
<path d="M130.98 61.6295C130.053 61.6268 129.166 61.2569 128.512 60.6008C127.857 59.9447 127.49 59.056 127.49 58.1295C127.506 57.199 127.884 56.3113 128.542 55.6538C129.201 54.9962 130.089 54.6204 131.02 54.6055C131.954 54.6147 132.846 54.9933 133.502 55.6585C134.158 56.3236 134.524 57.2214 134.52 58.1555C134.528 59.0624 134.178 59.9359 133.546 60.5863C132.914 61.2368 132.051 61.6116 131.144 61.6295C131.09 61.6368 131.034 61.6368 130.98 61.6295ZM131.025 60.9405C131.742 60.9648 132.44 60.7035 132.965 60.214C133.49 59.7245 133.799 59.0468 133.825 58.3295V58.1055C133.829 57.3669 133.539 56.6571 133.02 56.1321C132.5 55.607 131.794 55.3097 131.055 55.3055C130.302 55.2996 129.578 55.593 129.041 56.1211C128.505 56.6491 128.2 57.3687 128.194 58.1215C128.185 58.4826 128.247 58.8419 128.378 59.1787C128.508 59.5156 128.704 59.8233 128.953 60.0843C129.203 60.3453 129.502 60.5543 129.833 60.6993C130.164 60.8444 130.52 60.9226 130.881 60.9295L131.025 60.9405Z" fill="white"/>
<path d="M18.5219 84.4824C18.9689 84.8384 18.8629 85.1034 18.6579 85.3684C18.1959 85.9584 17.7499 86.5564 17.2729 87.1324C16.9249 87.5564 16.5919 87.9654 16.9999 88.5254C16.9999 88.5704 17.0609 88.6394 17.0449 88.6764C17.0289 88.7134 16.9619 88.9944 16.8859 89.0094C16.8125 89.0239 16.7367 89.0211 16.6645 89.0013C16.5924 88.9815 16.5257 88.9453 16.4699 88.8954C16.3551 88.7416 16.2657 88.5705 16.2049 88.3884C16.0689 88.1164 15.9249 87.8514 15.7659 87.5884C15.6185 87.3509 15.3915 87.1734 15.1254 87.0875C14.8594 87.0017 14.5715 87.013 14.3129 87.1194C14.0428 87.2366 13.8243 87.4476 13.6976 87.7134C13.571 87.9792 13.5448 88.2818 13.6239 88.5654C13.8179 89.2774 14.1469 89.9456 14.5929 90.5334C14.8929 90.4194 15.1759 90.3214 15.4479 90.2004L19.3609 88.3834C19.5542 88.2734 19.76 88.1871 19.9739 88.1264C20.0468 88.1155 20.1212 88.1192 20.1926 88.1374C20.2641 88.1556 20.3312 88.1879 20.3899 88.2324C20.5409 88.4144 20.4509 88.5954 20.2459 88.7014L19.9459 88.8524L14.6459 91.2974C14.526 91.3505 14.4019 91.3936 14.2749 91.4264C13.6158 90.5356 13.1421 89.5216 12.8819 88.4444C12.8419 88.0842 12.9062 87.72 13.0672 87.3952C13.2281 87.0704 13.479 86.7987 13.7899 86.6124C14.0972 86.4179 14.4571 86.3231 14.8203 86.341C15.1835 86.3589 15.5323 86.4886 15.8189 86.7124C15.9779 86.8264 16.1189 86.9474 16.3559 87.1284L18.5219 84.4824Z" fill="white"/>
<path d="M106.455 10.5439C106.979 10.9014 107.484 11.2856 107.969 11.6949C108.601 12.253 109.012 13.0196 109.127 13.8552C109.242 14.6907 109.053 15.5397 108.594 16.2476C108.136 16.9555 107.438 17.4752 106.629 17.7122C105.819 17.9492 104.952 17.8877 104.184 17.5389C103.531 17.1588 102.901 16.739 102.299 16.2819C103.684 14.3209 105.039 12.4669 106.455 10.5439ZM103.309 16.0019C104.429 17.1529 105.58 17.5159 106.715 16.9859C107.227 16.7909 107.67 16.4501 107.99 16.0057C108.31 15.5614 108.492 15.033 108.515 14.4859C108.531 13.8607 108.344 13.2471 107.982 12.7368C107.621 12.2264 107.104 11.8466 106.509 11.6539L103.309 16.0019Z" fill="white"/>
<path d="M20.284 89.4253C20.678 88.9943 20.89 89.1683 21.041 89.4703C21.435 90.1363 21.798 90.8023 22.214 91.4763L23.047 92.9373L17.067 96.4113C16.938 96.2973 16.832 96.2443 16.779 96.1543C16.158 95.1093 15.553 94.0543 14.94 93.0133L14.895 92.9373C14.789 92.7253 14.706 92.4833 15.001 92.4003C15.0864 92.3921 15.1725 92.405 15.2516 92.438C15.3308 92.471 15.4007 92.5229 15.455 92.5893C15.811 93.1193 16.114 93.6713 16.439 94.2243L17.196 95.4433C17.953 95.1543 18.6762 94.7838 19.353 94.3383C19.111 93.8843 18.899 93.4833 18.679 93.0893C18.459 92.6953 18.285 92.4153 18.096 92.0823C17.907 91.7493 17.823 91.6283 18.157 91.4543C18.491 91.2803 18.557 91.5373 18.672 91.7193C18.997 92.2643 19.308 92.8193 19.633 93.3623C19.733 93.5293 19.845 93.6803 20.019 93.9373L22.146 92.6963L20.284 89.4253Z" fill="white"/>
<path d="M125.286 29.9297L126.376 31.8147C126.676 32.3447 126.982 32.8667 127.276 33.4047C127.397 33.6167 127.564 33.8587 127.223 34.0327C126.882 34.2067 126.784 33.9187 126.663 33.7147L125.463 31.6257C125.334 31.3907 125.183 31.1717 124.994 30.8687L122.882 32.0687L124.328 34.7027C124.048 35.0967 123.813 35.0657 123.571 34.7027C123.271 34.2027 122.996 33.6957 122.693 33.1887C122.557 32.9617 122.405 32.7347 122.209 32.4317L120.09 33.6507C120.514 34.4077 120.847 35.0737 121.263 35.7397L121.747 36.6027C121.861 36.8147 121.921 37.0647 121.633 37.1477C121.546 37.1567 121.459 37.143 121.379 37.108C121.3 37.0729 121.231 37.0176 121.179 36.9477C120.748 36.2357 120.346 35.5167 119.938 34.7907C119.696 34.3597 119.461 33.9277 119.181 33.3977C121.192 32.2537 123.186 31.1407 125.286 29.9297Z" fill="white"/>
<path d="M121.101 30.4899L119.322 28.0299L117.293 29.4529L118.852 31.7239C119.001 31.9228 119.135 32.1327 119.252 32.3519C119.274 32.4213 119.28 32.4949 119.27 32.567C119.259 32.6391 119.232 32.7078 119.191 32.7679C119.108 32.8289 118.891 32.7679 118.767 32.7679C118.643 32.7679 118.616 32.6089 118.555 32.5179C117.904 31.5949 117.255 30.6629 116.617 29.7319C116.528 29.5897 116.457 29.4373 116.405 29.2779L122.12 25.2959L124.648 28.8689C124.348 29.3229 124.111 29.2849 123.891 28.9599C123.429 28.3089 122.975 27.6499 122.513 26.9919C122.339 26.7499 122.15 26.5149 121.93 26.2349L119.924 27.6349L120.916 29.1489C121.105 29.4209 121.302 29.6859 121.476 29.9669C121.65 30.2479 121.478 30.3379 121.101 30.4899Z" fill="white"/>
<path d="M120.859 89.9162C120.859 89.4012 121.139 89.2502 121.459 89.3332C122.413 89.5682 122.799 89.0452 123.102 88.2732C123.313 87.7344 123.566 87.2131 123.859 86.7142C124.012 86.5274 124.086 86.288 124.065 86.0474C124.043 85.8068 123.929 85.5841 123.745 85.4272C123.624 85.3132 123.523 85.1801 123.445 85.0332C123.278 84.7762 123.339 84.5642 123.657 84.3672C123.824 84.5262 124.005 84.6852 124.164 84.8672L128.07 89.4092L128.327 89.7272C128.577 90.1132 128.463 90.3782 128.009 90.3932C127.429 90.431 126.848 90.431 126.268 90.3932C124.618 90.3022 122.96 90.1932 121.31 90.0832C121.154 90.0436 121.003 89.9876 120.859 89.9162ZM124.697 86.5252L123.297 89.4252C124.629 89.5726 125.972 89.603 127.309 89.5162L124.697 86.5252Z" fill="white"/>
<path d="M22.448 33.8806C22.448 34.3496 22.213 34.5016 21.903 34.4176C20.957 34.1676 20.488 34.6296 20.139 35.4396C19.8471 36.0642 19.5186 36.6709 19.155 37.2566C19.0592 37.3775 19.0136 37.5307 19.0278 37.6844C19.0419 37.838 19.1147 37.9803 19.231 38.0816C19.3923 38.2736 19.5437 38.4703 19.685 38.6716C19.852 38.9216 19.791 39.1336 19.458 39.3306C19.307 39.1716 19.117 39.0206 18.974 38.8386L15.189 34.0246C15.0911 33.9272 15.0094 33.8148 14.947 33.6916C14.788 33.3736 14.947 33.1546 15.272 33.1236C15.4103 33.1085 15.5498 33.1085 15.688 33.1236L21.948 33.7666L22.448 33.8806ZM16.143 33.8806L16.067 34.0926C16.767 34.9786 17.467 35.8636 18.179 36.7496C18.2468 36.8305 18.3288 36.8983 18.421 36.9496C19.0879 36.1744 19.5648 35.2544 19.814 34.2626L16.143 33.8806Z" fill="white"/>
<path d="M40.464 15.6523L40.214 13.3813C40.063 11.9283 39.914 10.4743 39.775 9.00629C39.7523 8.8153 39.7523 8.62229 39.775 8.43129C39.7728 8.3494 39.8031 8.26999 39.8594 8.21041C39.9156 8.15082 39.9931 8.11591 40.075 8.11329C40.1359 8.1128 40.1959 8.12832 40.249 8.15829C40.3751 8.21428 40.4923 8.2884 40.597 8.37829L45.676 12.3903C45.776 12.4903 45.876 12.5903 45.964 12.7003C45.744 13.0713 45.449 13.1243 45.207 12.8513C44.507 12.0943 43.837 12.3293 43.107 12.8063C42.6004 13.1213 42.0747 13.4045 41.533 13.6543C41.3522 13.7198 41.2031 13.8517 41.116 14.0231C41.0289 14.1945 41.0103 14.3927 41.064 14.5773C41.0791 14.799 41.0791 15.0215 41.064 15.2433C41.07 15.5993 40.843 15.6603 40.464 15.6523ZM43.605 11.7393C42.6896 10.7784 41.636 9.95935 40.479 9.30929L40.891 13.2333L43.605 11.7393Z" fill="white"/>
<path d="M14.728 54.107C14.539 54.001 14.35 53.895 14.168 53.774L9.27803 50.292C9.17203 50.209 9.05103 50.133 8.95303 50.042C8.59003 49.701 8.66503 49.383 9.15303 49.285L15.853 48.085H16.126C16.1739 48.1892 16.1798 48.3079 16.1426 48.4164C16.1053 48.525 16.0278 48.615 15.926 48.668C15.8521 48.6907 15.773 48.6907 15.699 48.668C14.662 48.668 14.442 49.342 14.314 50.182C14.2181 50.7279 14.0943 51.2686 13.943 51.802C13.8838 51.9125 13.8472 52.0338 13.8353 52.1586C13.8234 52.2834 13.8365 52.4094 13.8737 52.5292C13.9109 52.6489 13.9716 52.7601 14.0521 52.8562C14.1327 52.9523 14.2316 53.0314 14.343 53.089H14.443C14.5966 53.1568 14.7296 53.2637 14.829 53.399C14.8905 53.5773 14.9262 53.7635 14.935 53.952L14.728 54.107ZM13.214 52.252C13.5307 51.2324 13.7536 50.1861 13.88 49.126C12.54 49.315 11.208 49.565 9.89803 49.883L13.214 52.252Z" fill="white"/>
<path d="M14.963 72.4541C15.304 72.8171 15.183 73.0901 14.872 73.2111C13.986 73.6351 14.024 74.3011 14.266 75.0881C14.4405 75.6984 14.582 76.3176 14.69 76.9431C14.6898 77.0471 14.7109 77.1501 14.7523 77.2456C14.7936 77.3411 14.8541 77.427 14.9301 77.498C15.0061 77.5691 15.096 77.6237 15.194 77.6584C15.2921 77.6932 15.3962 77.7074 15.5 77.7001C15.6937 77.7092 15.8838 77.7553 16.06 77.8361C16.247 78.0166 16.4167 78.2141 16.567 78.4261C16.3152 78.4488 16.0618 78.4488 15.81 78.4261L9.61001 77.3131C9.44529 77.294 9.28593 77.2427 9.14101 77.1621C9.1017 77.1477 9.06561 77.1257 9.03482 77.0974C9.00403 77.069 8.97914 77.0348 8.96158 76.9968C8.94402 76.9588 8.93414 76.9178 8.9325 76.8759C8.93085 76.8341 8.93749 76.7924 8.95201 76.7531C8.97101 76.6988 9.00584 76.6514 9.05201 76.6171C9.13887 76.5092 9.24376 76.4172 9.36201 76.3451L14.662 72.5601L14.963 72.4541ZM14.063 77.4801C13.9262 76.4526 13.6983 75.4393 13.382 74.4521C12.2094 75.0341 11.1575 75.8328 10.282 76.8061L14.063 77.4801Z" fill="white"/>
<path d="M97.084 10.5898L94.866 9.54476L94.192 9.27976C94.018 9.61276 93.851 9.92276 93.692 10.2408C93.5651 10.5463 93.4212 10.8444 93.261 11.1338C93.229 11.2104 93.1683 11.2716 93.0919 11.3041C93.0155 11.3366 92.9294 11.3379 92.852 11.3078C92.7761 11.2775 92.7153 11.2184 92.6827 11.1435C92.6501 11.0686 92.6484 10.9839 92.678 10.9078C92.703 10.7433 92.7623 10.5859 92.852 10.4458L95.123 5.47276C95.237 5.22276 95.282 4.77276 95.713 4.95076C96.144 5.12876 95.857 5.47276 95.713 5.70776C95.313 6.64676 94.88 7.56976 94.419 8.59176L97.273 9.95476C97.424 9.69776 97.553 9.50076 97.659 9.28076C98.03 8.52376 98.416 7.68076 98.772 6.87376C98.863 6.66176 98.992 6.46476 99.272 6.60076C99.552 6.73676 99.472 6.95676 99.378 7.16076C98.772 8.49276 98.167 9.83276 97.554 11.1608C97.38 11.5388 97.236 11.9178 97.032 12.2888C96.828 12.6598 96.881 13.1588 96.381 12.9478C95.881 12.7368 96.305 12.3348 96.381 12.0478C96.614 11.5808 96.805 11.1348 97.084 10.5898Z" fill="white"/>
<path d="M37.913 15.3959C38.0628 16.1061 37.9632 16.8463 37.6309 17.4917C37.2987 18.137 36.7541 18.6482 36.089 18.9389C35.3648 19.2666 34.5509 19.3395 33.78 19.1458C33.009 18.9521 32.3263 18.5031 31.843 17.8719C31.3654 17.2365 31.1128 16.4601 31.1251 15.6652C31.1374 14.8704 31.4139 14.1022 31.911 13.4819C32.3571 12.9392 32.9686 12.5574 33.6521 12.3949C34.3355 12.2324 35.0534 12.298 35.696 12.5819C35.696 12.8699 35.651 13.0659 35.302 13.0359C35.0258 12.9985 34.7477 12.9758 34.469 12.9679C33.7983 12.9659 33.1517 13.2177 32.6589 13.6726C32.166 14.1276 31.8635 14.7521 31.812 15.4209C31.7314 16.1315 31.9198 16.8466 32.3401 17.4252C32.7605 18.0038 33.3823 18.404 34.083 18.5469C34.7689 18.6895 35.4834 18.5632 36.0789 18.1942C36.6744 17.8252 37.1055 17.2416 37.283 16.5639C37.3222 16.3076 37.3803 16.0546 37.457 15.8069C37.519 15.6759 37.694 15.5999 37.913 15.3959Z" fill="white"/>
<path d="M92.3529 9.38595C91.912 9.76537 91.3767 10.0185 90.8037 10.1185C90.2307 10.2185 89.6413 10.1616 89.0979 9.95395C88.3911 9.69871 87.7869 9.21979 87.377 8.5899C86.9671 7.96002 86.774 7.21358 86.8269 6.46395C86.8762 5.68389 87.1809 4.94174 87.694 4.35215C88.2071 3.76256 88.9001 3.35834 89.6659 3.20195C90.3735 3.0635 91.1068 3.15357 91.7598 3.45915C92.4129 3.76473 92.9519 4.26999 93.2989 4.90195C93.3985 5.06904 93.4727 5.25002 93.5189 5.43895C93.4983 5.58259 93.4575 5.72262 93.3979 5.85495C93.2374 5.81164 93.0843 5.74421 92.9439 5.65495C92.8529 5.57195 92.8299 5.40495 92.7619 5.29195C92.5085 4.78875 92.104 4.37744 91.6052 4.11563C91.1063 3.85382 90.538 3.75463 89.9799 3.83195C89.4509 3.87224 88.9463 4.07137 88.5324 4.40326C88.1184 4.73515 87.8143 5.18432 87.6599 5.69195C87.4608 6.19693 87.4143 6.74931 87.5265 7.28046C87.6386 7.8116 87.9043 8.2981 88.2906 8.67949C88.6769 9.06089 89.1667 9.32037 89.6993 9.4257C90.2318 9.53103 90.7835 9.47757 91.2859 9.27195C91.4679 9.21095 91.6269 9.09795 91.8079 9.02995C91.9889 8.96195 92.0499 8.94695 92.3529 9.38595Z" fill="white"/>
<path d="M126.839 76.1559C126.823 76.6322 126.98 77.0982 127.28 77.4682C127.581 77.8381 128.005 78.087 128.474 78.1689C129.496 78.4259 130.518 78.6529 131.502 78.9259C131.747 78.9727 131.986 79.0465 132.214 79.1459C132.27 79.1938 132.315 79.253 132.346 79.3195C132.378 79.386 132.395 79.4584 132.396 79.5319C132.396 79.5929 132.196 79.6679 132.096 79.7319C131.996 79.7959 132.043 79.7319 132.013 79.7319C130.567 79.3609 129.091 79.0809 127.683 78.6039C127.119 78.3858 126.654 77.9694 126.375 77.4329C126.097 76.8965 126.023 76.2767 126.169 75.6899C126.269 75.0773 126.588 74.5216 127.066 74.1252C127.543 73.7288 128.148 73.5185 128.769 73.5329C129.071 73.5401 129.372 73.5735 129.669 73.6329C130.744 73.8829 131.819 74.1479 132.894 74.3899C133.057 74.4212 133.215 74.4747 133.363 74.5489C133.411 74.5856 133.451 74.6323 133.48 74.6858C133.509 74.7393 133.526 74.7983 133.53 74.8589C133.508 74.9179 133.472 74.9705 133.424 75.0116C133.377 75.0527 133.32 75.081 133.258 75.0939C133.038 75.0872 132.819 75.0536 132.607 74.9939C131.479 74.7289 130.336 74.4339 129.216 74.2369C128.706 74.1293 128.174 74.2282 127.738 74.512C127.301 74.7959 126.994 75.2414 126.885 75.7509C126.851 75.8832 126.836 76.0195 126.839 76.1559Z" fill="white"/>
<path d="M128.194 34.9248C128.603 35.8938 129.049 36.7568 129.337 37.6728C129.477 38.1416 129.428 38.6466 129.2 39.0796C128.972 39.5126 128.584 39.839 128.118 39.9888C127.718 40.1126 127.287 40.096 126.898 39.9418C126.508 39.7876 126.183 39.505 125.976 39.1408C125.722 38.7453 125.516 38.321 125.363 37.8768C125.337 37.7939 125.333 37.7056 125.352 37.6208C125.37 37.5359 125.411 37.4573 125.469 37.3928C125.719 37.2188 125.863 37.4378 125.969 37.6428C126.075 37.8478 126.169 38.1048 126.294 38.3168C126.436 38.5915 126.615 38.8461 126.824 39.0738C126.996 39.2594 127.228 39.3774 127.48 39.4066C127.731 39.4357 127.984 39.3741 128.194 39.2328C128.406 39.1025 128.571 38.9088 128.666 38.6791C128.761 38.4495 128.782 38.1956 128.724 37.9538C128.482 37.2538 128.156 36.5918 127.838 35.8538C127.49 35.9898 127.232 36.0738 126.99 36.1868L123.054 37.9508C122.983 37.9936 122.907 38.0272 122.827 38.0508C122.527 38.1188 122.146 38.5878 121.919 38.0508C121.692 37.5138 122.267 37.5738 122.525 37.4448C123.343 37.0448 124.183 36.6878 125.008 36.3018L127.355 35.2418C127.581 35.1518 127.839 35.0688 128.194 34.9248Z" fill="white"/>
<path d="M130.495 47.2404C131.033 47.3042 131.546 47.5046 131.984 47.8227C132.423 48.1408 132.772 48.5658 133 49.0574C133.29 49.5816 133.432 50.1745 133.412 50.7731C133.392 51.3718 133.21 51.9539 132.886 52.4574C132.789 52.6242 132.666 52.775 132.523 52.9044C132.44 52.9724 132.213 53.0104 132.175 52.9574C132.126 52.901 132.09 52.8346 132.069 52.7627C132.048 52.6909 132.043 52.6154 132.054 52.5414C132.132 52.365 132.233 52.1996 132.354 52.0494C132.542 51.7392 132.666 51.3948 132.72 51.0362C132.775 50.6775 132.757 50.3118 132.669 49.9599C132.581 49.608 132.425 49.2771 132.208 48.9861C131.992 48.6951 131.72 48.4498 131.408 48.2644C130.773 47.8862 130.017 47.7648 129.295 47.9253C128.573 48.0857 127.94 48.5157 127.525 49.1274C127.126 49.7305 126.982 50.4668 127.124 51.1758C127.266 51.8848 127.682 52.509 128.282 52.9124C128.447 53.0103 128.604 53.1217 128.751 53.2454C128.781 53.3013 128.796 53.3636 128.796 53.4269C128.796 53.4902 128.781 53.5525 128.751 53.6084C128.711 53.6559 128.659 53.692 128.601 53.7133C128.542 53.7345 128.479 53.7401 128.418 53.7294C128.231 53.6735 128.057 53.5837 127.903 53.4644C127.303 53.061 126.848 52.4755 126.605 51.7941C126.363 51.1127 126.345 50.3714 126.556 49.6794C127.013 48.1944 128.383 47.2254 130.495 47.2404Z" fill="white"/>
<path d="M118.377 104.064C118.325 104.675 118.057 105.248 117.622 105.681C117.187 106.114 116.612 106.378 116 106.426C115.788 106.426 115.523 106.426 115.516 106.108C115.509 105.79 115.716 105.752 115.963 105.737C116.341 105.735 116.708 105.608 117.005 105.375C117.303 105.142 117.514 104.816 117.606 104.45C117.704 104.226 117.71 103.974 117.624 103.746C117.538 103.518 117.365 103.333 117.144 103.231C117.001 103.17 116.846 103.141 116.69 103.148C116.254 103.184 115.827 103.292 115.426 103.466C115.04 103.61 114.669 103.844 114.298 103.981C113.928 104.102 113.529 104.106 113.156 103.992C112.784 103.878 112.455 103.652 112.216 103.345C111.991 103.041 111.869 102.673 111.869 102.295C111.869 101.916 111.991 101.548 112.216 101.245C112.472 100.87 112.809 100.558 113.202 100.331C113.595 100.104 114.034 99.9688 114.487 99.9346C114.631 99.9346 114.787 100.086 114.941 100.17C114.827 100.299 114.741 100.47 114.6 100.556C114.445 100.615 114.282 100.649 114.116 100.656C113.819 100.725 113.54 100.858 113.299 101.045C113.057 101.231 112.858 101.468 112.716 101.738C112.594 101.909 112.529 102.114 112.529 102.324C112.529 102.534 112.594 102.739 112.716 102.911C112.839 103.098 113.017 103.243 113.226 103.325C113.435 103.406 113.665 103.42 113.882 103.365C114.248 103.242 114.607 103.098 114.957 102.934C115.405 102.723 115.874 102.561 116.357 102.45C116.795 102.363 117.25 102.453 117.622 102.7C117.995 102.946 118.256 103.329 118.348 103.767C118.354 103.86 118.369 103.966 118.377 104.064Z" fill="white"/>
<path d="M24.56 30.4369C24.4917 31.0575 24.225 31.6396 23.7995 32.0965C23.3739 32.5534 22.8122 32.8608 22.198 32.9729C22.125 32.9759 22.0525 32.9588 21.9885 32.9236C21.9246 32.8883 21.8714 32.8362 21.835 32.7729C21.8284 32.6979 21.841 32.6224 21.8714 32.5535C21.9018 32.4847 21.9491 32.4246 22.009 32.3789C22.1812 32.2954 22.361 32.2284 22.546 32.1789C22.8176 32.0719 23.0644 31.9102 23.2708 31.7037C23.4773 31.4973 23.639 31.2505 23.746 30.9789C23.8533 30.7821 23.8965 30.5567 23.8694 30.3342C23.8423 30.1116 23.7464 29.9032 23.595 29.7379C23.4338 29.5621 23.2199 29.4434 22.9854 29.3997C22.7509 29.3561 22.5086 29.3898 22.295 29.4959C21.924 29.6699 21.606 29.9579 21.243 30.1469C20.7994 30.4132 20.3203 30.6152 19.82 30.7469C19.5535 30.8152 19.2738 30.8132 19.0083 30.741C18.7428 30.6689 18.5006 30.5291 18.3053 30.3353C18.11 30.1415 17.9683 29.9004 17.8941 29.6355C17.8199 29.3705 17.8157 29.0909 17.882 28.8239C17.9386 28.3915 18.1085 27.9819 18.3743 27.6363C18.6402 27.2907 18.9926 27.0215 19.396 26.8559C19.5476 26.7878 19.7083 26.742 19.873 26.7199C20.1 26.7199 20.365 26.6589 20.388 26.9619C20.388 27.0829 20.206 27.2619 20.063 27.3479C19.892 27.4289 19.7148 27.4957 19.533 27.5479C19.2762 27.6681 19.0557 27.8538 18.8936 28.0865C18.7315 28.3191 18.6337 28.5904 18.61 28.8729C18.496 29.7889 19.102 30.3409 19.972 30.0539C20.3531 29.9003 20.716 29.7047 21.054 29.4709C21.4381 29.2009 21.8462 28.9666 22.273 28.7709C22.7143 28.633 23.1922 28.674 23.6036 28.885C24.0151 29.0959 24.3273 29.46 24.473 29.8989C24.5247 30.0738 24.5539 30.2546 24.56 30.4369Z" fill="white"/>
<path d="M27.565 26.5156C27.618 27.7796 26.051 28.9306 24.938 28.9376C24.832 28.9376 24.638 28.7936 24.638 28.7376C24.6421 28.6628 24.6621 28.5897 24.6966 28.5232C24.731 28.4566 24.7792 28.3982 24.838 28.3516C25.0143 28.2722 25.2002 28.216 25.391 28.1846C25.6669 28.1016 25.9232 27.9635 26.1444 27.7788C26.3656 27.594 26.5471 27.3664 26.678 27.1096C26.8008 26.9081 26.8588 26.6736 26.8439 26.438C26.8291 26.2025 26.7422 25.9771 26.595 25.7926C26.4392 25.6136 26.2311 25.4883 26 25.4344C25.7689 25.3806 25.5268 25.4009 25.308 25.4926C24.9304 25.6657 24.5631 25.8603 24.208 26.0756C23.7321 26.4074 23.1679 26.5891 22.588 26.5976C22.1636 26.5976 21.7566 26.4291 21.4566 26.129C21.1565 25.8289 20.988 25.422 20.988 24.9976C20.9804 24.9121 20.9804 24.8261 20.988 24.7406C21.0682 24.2053 21.3207 23.7108 21.7072 23.3319C22.0937 22.953 22.5932 22.7103 23.13 22.6406C23.312 22.6406 23.599 22.7696 23.645 22.9056C23.728 23.1626 23.494 23.2766 23.251 23.3146C22.8779 23.3365 22.5238 23.4861 22.2481 23.7384C21.9724 23.9906 21.7919 24.33 21.737 24.6996C21.586 25.5176 21.994 26.0166 22.827 25.9256C23.2427 25.8436 23.6434 25.6982 24.015 25.4946C24.4242 25.2661 24.8462 25.0615 25.279 24.8816C25.7176 24.7537 26.1889 24.8025 26.592 25.0176C26.9951 25.2327 27.298 25.597 27.436 26.0326C27.4979 26.188 27.5412 26.3501 27.565 26.5156Z" fill="white"/>
<path d="M113.274 24.6078C112.883 24.6367 112.492 24.5608 112.14 24.3878C111.788 24.2148 111.489 23.951 111.274 23.6238C110.871 23.1232 110.662 22.4947 110.684 21.8528C110.684 21.7238 110.835 21.6028 110.919 21.4748C111.04 21.5658 111.219 21.6338 111.267 21.7548C111.334 21.9645 111.382 22.1796 111.411 22.3978C111.471 22.6691 111.585 22.9257 111.746 23.152C111.908 23.3783 112.113 23.5697 112.35 23.7148C112.521 23.8587 112.734 23.9437 112.958 23.9574C113.181 23.9711 113.403 23.9127 113.591 23.7908C113.779 23.6692 113.925 23.4932 114.01 23.2863C114.096 23.0794 114.116 22.8514 114.068 22.6328C113.977 22.2885 113.859 21.9518 113.716 21.6258C113.55 21.2484 113.406 20.8618 113.285 20.4678C113.186 20.104 113.201 19.719 113.326 19.3635C113.451 19.008 113.68 18.6988 113.985 18.4768C114.29 18.2817 114.648 18.1857 115.01 18.202C115.372 18.2183 115.72 18.346 116.006 18.5678C116.367 18.7752 116.666 19.074 116.875 19.434C117.083 19.794 117.193 20.2027 117.194 20.6188C117.186 20.7174 117.154 20.8126 117.102 20.8967C117.05 20.9808 116.979 21.0514 116.894 21.1028C116.629 21.1638 116.531 20.9288 116.523 20.6788C116.529 20.3596 116.448 20.0448 116.288 19.7686C116.127 19.4924 115.895 19.2652 115.615 19.1118C115.43 18.9887 115.215 18.9193 114.993 18.9114C114.771 18.9034 114.551 18.9572 114.358 19.0668C114.165 19.2071 114.021 19.405 113.948 19.6322C113.874 19.8593 113.875 20.1039 113.949 20.3308C114.055 20.7548 114.305 21.1408 114.426 21.5568C114.6 22.0437 114.702 22.554 114.726 23.0708C114.721 23.4625 114.569 23.8382 114.3 24.123C114.031 24.4078 113.665 24.5809 113.274 24.6078Z" fill="white"/>
<path d="M132.781 73.0678C132.44 72.6738 132.637 72.4928 132.864 72.3108C133.124 72.097 133.315 71.8114 133.413 71.4896C133.512 71.1679 133.513 70.8243 133.417 70.5018C133.394 70.2428 133.271 70.0029 133.075 69.8321C132.879 69.6614 132.625 69.5731 132.365 69.5858C132.123 69.6018 131.895 69.709 131.729 69.8858C131.427 70.1692 131.171 70.4986 130.972 70.8618C130.745 71.2028 130.594 71.6188 130.344 71.9288C130.104 72.2372 129.773 72.4624 129.398 72.5724C129.023 72.6824 128.623 72.6717 128.255 72.5418C127.902 72.4056 127.602 72.1605 127.398 71.842C127.194 71.5235 127.096 71.1483 127.12 70.7708C127.127 70.3551 127.219 69.9452 127.391 69.5667C127.563 69.1882 127.811 68.8492 128.12 68.5708C128.287 68.4038 128.483 68.1468 128.748 68.4038C129.013 68.6608 128.748 68.8508 128.597 69.0168C128.355 69.2268 128.162 69.4872 128.031 69.7796C127.901 70.072 127.835 70.3895 127.84 70.7098C127.8 70.9746 127.854 71.2451 127.992 71.4745C128.13 71.704 128.344 71.8781 128.597 71.9668C128.853 72.0356 129.125 72.0188 129.371 71.919C129.617 71.8192 129.824 71.6418 129.96 71.4138C130.217 71.0278 130.414 70.5888 130.649 70.1798C130.798 69.8807 131.01 69.6182 131.272 69.4108C131.534 69.2033 131.838 69.0562 132.163 68.9798C132.392 68.9231 132.631 68.9207 132.861 68.9728C133.091 69.0249 133.306 69.13 133.488 69.2798C133.703 69.5024 133.872 69.7652 133.985 70.0531C134.098 70.3411 134.154 70.6485 134.148 70.9579C134.142 71.2673 134.076 71.5725 133.952 71.8561C133.828 72.1397 133.65 72.3962 133.427 72.6108C133.244 72.802 133.025 72.9562 132.784 73.0648L132.781 73.0678Z" fill="white"/>
<path d="M96.5769 30.7371C96.2519 29.9801 95.8769 29.3061 95.6079 28.5651C95.5497 28.282 95.3814 28.0337 95.14 27.8746C94.8987 27.7156 94.604 27.6589 94.3209 27.7171C93.6929 27.7701 93.0489 27.7171 92.4129 27.7171C92.2129 27.7171 91.9969 27.6721 91.7009 27.6411C92.0009 27.0511 92.5339 26.8311 92.9269 26.4901C93.3199 26.1491 93.7899 25.8011 94.2519 25.4381L93.0709 22.2591C93.2798 22.3108 93.4847 22.3777 93.6839 22.4591C94.2924 22.7838 94.8835 23.1399 95.4549 23.5261C95.6742 23.7282 95.9646 23.8352 96.2625 23.8237C96.5605 23.8123 96.8418 23.6834 97.0449 23.4651C97.5264 23.0843 98.0321 22.7352 98.5589 22.4201C98.7674 22.308 98.9821 22.2079 99.2019 22.1201C99.0349 22.8771 98.9019 23.4301 98.7709 24.0121C98.4079 25.5941 98.1809 25.1851 99.6039 26.1621C100.141 26.5331 100.686 26.9191 101.383 27.3621C101.17 27.4577 100.946 27.5288 100.717 27.5741C100.028 27.5741 99.3319 27.5741 98.6429 27.6271C97.9539 27.6801 97.7499 27.7331 97.5429 28.4901C97.3359 29.2471 97.0659 30.0041 96.8309 30.7611L96.5769 30.7371ZM98.6769 22.9031L98.5099 22.8121L97.4959 23.5011C95.9819 24.5151 96.4959 24.4551 94.9909 23.6011C94.577 23.3057 94.1235 23.0701 93.6439 22.9011C93.9439 23.6581 94.1889 24.3541 94.4619 25.0201C94.5466 25.1594 94.573 25.3264 94.5356 25.4851C94.4982 25.6437 94.3999 25.7813 94.2619 25.8681C94.0561 26.0072 93.8591 26.1588 93.6719 26.3221C93.2266 26.6316 92.8063 26.9757 92.4149 27.3511H94.4969C94.7826 27.304 95.0756 27.3657 95.3181 27.524C95.5606 27.6822 95.735 27.9256 95.8069 28.2061C96.0189 28.8121 96.3219 29.3871 96.6549 30.1361C96.8819 29.4361 97.0489 28.9361 97.2079 28.4361C97.5789 27.2021 97.5079 27.3541 98.6609 27.3081C99.2139 27.3081 99.7739 27.2321 100.326 27.1941C99.806 26.674 99.2267 26.2168 98.5999 25.8321C98.4286 25.7496 98.2947 25.6057 98.2246 25.4289C98.1546 25.2522 98.1536 25.0555 98.2219 24.8781C98.3929 24.2441 98.5219 23.5701 98.6809 22.9041L98.6769 22.9031Z" fill="white"/>
<path d="M88.266 23.7825C87.774 23.1315 87.229 22.5105 86.798 21.8145C86.6701 21.5745 86.4571 21.391 86.2009 21.3C85.9446 21.2089 85.6636 21.217 85.413 21.3225C84.573 21.5425 83.713 21.7005 82.862 21.8905L82.756 21.7315L84.822 19.1425L83.028 16.3565L83.128 16.2205C83.378 16.2885 83.643 16.3415 83.885 16.4205C84.513 16.6205 85.157 16.7915 85.77 17.0485C85.9772 17.1571 86.2181 17.1822 86.4433 17.1188C86.6685 17.0554 86.8608 16.9083 86.981 16.7075C87.381 16.2155 87.829 15.7615 88.268 15.2995C88.412 15.1405 88.578 14.9995 88.821 14.7695C88.8828 14.9671 88.926 15.1699 88.95 15.3755C88.9615 16.0123 88.9388 16.6492 88.882 17.2835C88.882 18.0405 88.882 18.0935 89.582 18.3735C90.282 18.6535 90.77 18.8205 91.353 19.0545C91.603 19.1545 91.845 19.2815 92.261 19.4705C91.784 19.6445 91.504 19.7585 91.186 19.8485C90.603 20.0155 90.013 20.1585 89.43 20.3255C88.847 20.4925 88.756 20.5675 88.673 21.2415C88.59 21.9155 88.567 22.6725 88.506 23.3915C88.4959 23.498 88.4703 23.6024 88.43 23.7015L88.266 23.7825ZM91.218 19.5205V19.3845C90.529 19.1195 89.848 18.8395 89.152 18.6275C88.9629 18.5839 88.7978 18.4692 88.6908 18.3073C88.5838 18.1454 88.543 17.9486 88.577 17.7575V16.4325C88.5847 16.1265 88.5696 15.8203 88.532 15.5165C87.957 16.1445 87.48 16.6065 87.071 17.1165C86.9368 17.3248 86.7285 17.4743 86.4882 17.5347C86.2479 17.595 85.9936 17.5617 85.777 17.4415C85.149 17.1915 84.498 17.0105 83.854 16.8055L83.748 16.9415L85.186 19.2125L83.557 21.2975C83.693 21.3655 83.746 21.4115 83.792 21.4035L84.844 21.2145C86.644 20.8365 86.138 20.6015 87.334 22.1145C87.5525 22.4994 87.8488 22.8345 88.204 23.0985C88.272 22.4095 88.34 21.8045 88.386 21.1985C88.462 20.3435 88.454 20.3435 89.317 20.1085L91.218 19.5205Z" fill="white"/>
<path d="M74.7159 19.3843L71.9069 21.0492L71.7559 20.9433C71.9759 19.8833 72.5129 18.9143 72.8079 17.7563L70.2269 15.4862C70.4497 15.4413 70.6747 15.4079 70.9009 15.3862C71.6579 15.3862 72.4149 15.3863 73.1719 15.4393C73.3631 15.4663 73.5574 15.4192 73.7151 15.3077C73.8727 15.1961 73.9818 15.0286 74.0199 14.8393C74.2199 14.2643 74.4819 13.7113 74.7199 13.1593C74.8259 12.9093 74.9549 12.6752 75.1439 12.2812C75.2649 12.5082 75.3709 12.7352 75.4689 12.9702C75.6809 13.6592 75.8849 14.3483 76.0589 15.0443C76.0889 15.2372 76.1923 15.4112 76.3476 15.5297C76.5028 15.6482 76.6979 15.7022 76.8919 15.6803C77.7619 15.7253 78.6329 15.8242 79.6089 15.9072C79.2609 16.5432 78.6859 16.7243 78.2459 17.0583C77.8059 17.3923 77.3379 17.6863 76.8609 18.0123L77.5609 21.2593L77.4019 21.3593C76.4639 20.8453 75.7149 20.0123 74.7159 19.3843ZM78.9549 16.1943C78.1219 16.1033 77.4409 15.9823 76.8279 15.9673C75.8279 15.9673 75.9199 15.6672 75.7279 15.0282C75.5359 14.3892 75.3719 13.8552 75.1979 13.2642C74.8033 13.8229 74.4898 14.4346 74.2669 15.0812C74.2162 15.3107 74.0778 15.5112 73.8812 15.64C73.6847 15.7687 73.4455 15.8155 73.2149 15.7703C72.5719 15.7253 71.9209 15.7703 71.2699 15.7703C71.6753 16.3319 72.1655 16.8272 72.7229 17.2383C72.8953 17.3502 73.0192 17.5231 73.0698 17.7223C73.1204 17.9216 73.094 18.1326 72.9959 18.3132C72.7309 18.9722 72.5039 19.6382 72.2389 20.5012L74.7899 18.9872C75.6529 19.4792 76.2509 20.2132 77.1589 20.6672C77.0759 20.2672 77.0149 19.9673 76.9469 19.6753C76.8789 19.3833 76.7879 19.0323 76.7119 18.7143C76.5229 17.8513 76.5229 17.8513 77.2419 17.3673L78.9549 16.1943Z" fill="white"/>
<path d="M130.866 96.1311C131.222 95.3741 131.237 95.3741 131.918 95.4311L135.408 95.8311C137.384 96.0431 139.359 96.2311 141.335 96.4371C141.497 96.4256 141.66 96.4488 141.812 96.5051C141.957 96.6014 142.057 96.7509 142.092 96.9211C142.092 97.0571 141.892 97.2091 141.736 97.2841C141.602 97.3216 141.461 97.3216 141.327 97.2841L133.001 96.3981L130.866 96.1311Z" fill="white"/>
<path d="M78.213 3.59184L80.295 3.93284C80.4856 3.94818 80.6736 3.98646 80.855 4.04684C80.976 4.10784 81.037 4.27384 81.127 4.39484C80.998 4.47784 80.862 4.63684 80.749 4.62984C80.166 4.58484 79.591 4.49384 79.016 4.41784L78.161 4.31184C77.8829 4.95413 77.724 5.64166 77.692 6.34084C77.674 6.59592 77.626 6.84798 77.549 7.09184C77.549 7.20584 77.322 7.29184 77.193 7.31884C77.064 7.34584 76.993 7.14484 76.973 7.03884C76.9428 6.84837 76.9428 6.65431 76.973 6.46384C77.23 4.70784 77.495 2.96384 77.73 1.21084C77.844 0.453843 77.919 0.400843 78.63 0.498843C79.644 0.627843 80.651 0.798843 81.658 0.952843C81.7685 0.941628 81.8798 0.965414 81.976 1.02084C82.044 1.08884 82.233 1.27784 82.211 1.38384C82.1758 1.45005 82.1249 1.50668 82.0629 1.54884C82.0009 1.591 81.9295 1.61743 81.855 1.62584C81.4123 1.60472 80.972 1.54888 80.538 1.45884C80.099 1.39784 79.562 1.29184 79.07 1.22384C78.578 1.15584 78.411 1.22384 78.313 1.73884C78.2184 2.16927 78.1678 2.60819 78.162 3.04884C78.2093 3.22367 78.2272 3.40514 78.215 3.58584L78.213 3.59184Z" fill="white"/>
<path d="M10.875 96.698C7.62836 97.4904 4.30748 97.9395 0.96701 98.0381C0.92201 97.3641 0.96701 97.326 1.63301 97.281C3.08601 97.13 4.54001 96.993 5.98501 96.797C7.43001 96.601 8.71001 96.358 10.065 96.131C10.716 95.992 10.739 96.017 10.875 96.698Z" fill="white"/>
<path d="M20.8289 100.778L20.2689 101.096C19.3909 99.8624 18.5429 98.6514 17.7109 97.4784C18.0109 97.0094 18.2479 97.0844 18.4679 97.3954L19.3379 98.5534L20.1379 98.0234L23.7859 95.4234C23.9582 95.2857 24.1462 95.1688 24.3459 95.0754C24.4252 95.054 24.5096 95.0642 24.5816 95.1037C24.6535 95.1432 24.7074 95.209 24.7319 95.2874C24.7438 95.3322 24.7459 95.379 24.7381 95.4247C24.7304 95.4704 24.7129 95.514 24.6869 95.5524C24.5093 95.7231 24.3169 95.8777 24.1119 96.0144L19.7699 99.1124L20.8289 100.778Z" fill="white"/>
<path d="M44.032 6.7434C43.457 6.9854 43.04 7.1974 42.601 7.3494C42.472 7.3944 42.283 7.2664 42.124 7.2134C42.192 7.0624 42.224 6.8194 42.344 6.7664C43.487 6.2134 44.615 5.6914 45.811 5.1844C45.932 5.1314 46.136 5.2604 46.295 5.3134C46.227 5.4644 46.204 5.6914 46.083 5.7604C45.659 6.0104 45.205 6.1994 44.705 6.4414C44.841 6.7744 44.947 7.0544 45.068 7.3274C45.727 8.7884 46.393 10.2414 47.059 11.7024C47.218 12.0504 47.259 12.3304 46.659 12.4144L44.032 6.7434Z" fill="white"/>
<path d="M121.177 100.5C121.548 100.069 121.843 99.7426 122.146 99.3486C122.449 98.9546 122.6 99.0836 122.846 99.4776C122.702 99.6896 122.546 99.9396 122.362 100.178C121.787 100.935 121.204 101.692 120.621 102.396C120.529 102.53 120.42 102.652 120.296 102.759C120.157 102.818 120.008 102.849 119.857 102.85C119.857 102.676 119.751 102.479 119.857 102.35C120.013 102.083 120.19 101.83 120.387 101.593C120.493 101.442 120.587 101.275 120.72 101.063C120.52 100.881 120.357 100.707 120.167 100.563L116.587 97.7546C116.418 97.6611 116.268 97.535 116.148 97.3836C116.081 97.2311 116.047 97.0662 116.048 96.8996C116.216 96.8694 116.387 96.8694 116.555 96.8996C116.745 97.0127 116.924 97.1419 117.092 97.2856L120.476 99.9576C120.69 100.163 120.925 100.344 121.177 100.5Z" fill="white"/>
<path d="M8.78596 72.6583C8.83096 73.0823 8.86896 73.4153 8.89996 73.7253C8.92269 73.9443 8.92269 74.1652 8.89996 74.3843C8.89996 74.4753 8.71796 74.5843 8.61196 74.6043C8.50596 74.6243 8.39996 74.5283 8.35496 74.4533C8.28639 74.3328 8.24732 74.1978 8.24096 74.0593C8.07396 72.9693 7.90796 71.8793 7.75696 70.7893C7.71896 70.5323 7.62096 70.1763 8.02996 70.1303C8.43896 70.0843 8.37796 70.4183 8.42396 70.6603C8.49996 71.0603 8.55996 71.4603 8.63596 71.8943C8.83768 71.9094 9.04025 71.9094 9.24196 71.8943L13.579 71.2583C13.904 71.2133 14.238 71.1673 14.563 71.1443C14.888 71.1213 14.963 71.3443 14.896 71.7193L8.78596 72.6583Z" fill="white"/>
<path d="M129.768 85.2998C129.968 84.8078 130.139 84.4068 130.321 84.0058C130.412 83.8058 130.488 83.5588 130.79 83.6648C131.092 83.7708 131.032 84.0058 130.949 84.2098C130.502 85.3448 130.041 86.4808 129.586 87.5938C129.495 87.8058 129.386 88.0098 129.094 87.8738C128.802 87.7378 128.912 87.5108 128.988 87.3138C129.139 86.8978 129.306 86.4958 129.503 86.0038C129.193 85.8528 128.935 85.7158 128.67 85.6038C127.239 85.0208 125.794 84.4528 124.37 83.8478C124.12 83.7418 123.613 83.7478 123.802 83.2478C123.991 82.7478 124.339 83.1568 124.559 83.2478C125.997 83.8078 127.428 84.3988 128.866 84.9738L129.768 85.2998Z" fill="white"/>
<path d="M114.342 25.8417C114.917 26.5307 115.455 27.1586 115.954 27.8096C116.128 28.0366 116.59 28.2867 116.166 28.6197C115.742 28.9527 115.644 28.4607 115.466 28.2567C114.766 27.4467 114.096 26.6137 113.316 25.6757C113.573 25.4757 113.785 25.3426 113.967 25.1916C115.375 24.0256 116.767 22.8446 118.176 21.6916C118.403 21.5096 118.668 21.0706 118.986 21.5176C119.304 21.9646 118.804 22.0397 118.6 22.2177C117.442 23.2017 116.269 24.1626 115.1 25.1396C114.834 25.3588 114.581 25.5932 114.342 25.8417Z" fill="white"/>
<path d="M99.272 13.7308L102.05 15.4308C101.989 15.8248 101.85 16.0438 101.535 15.8698C100.49 15.2698 99.453 14.6438 98.386 14.0078C98.4719 13.7797 98.5721 13.5573 98.686 13.3418C99.632 11.7418 100.571 10.1548 101.532 8.57278C101.668 8.34578 101.759 7.89178 102.16 8.10378C102.561 8.31578 102.236 8.68678 102.092 8.92878C101.335 10.1928 100.578 11.4418 99.821 12.7138C99.673 12.9748 99.499 13.3298 99.272 13.7308Z" fill="white"/>
<path d="M125.424 78.6836C125.742 78.7666 125.961 78.8046 126.181 78.8726C127.907 79.4626 129.625 80.0606 131.351 80.6666C131.608 80.7576 132.108 80.7806 131.964 81.1886C131.82 81.5966 131.404 81.3556 131.131 81.2646C129.685 80.7876 128.255 80.2806 126.816 79.7506L125.87 79.4626C125.643 80.0986 125.446 80.6626 125.242 81.2266C125.121 81.5953 124.984 81.9586 124.833 82.3166C124.786 82.372 124.726 82.4154 124.659 82.4431C124.592 82.4708 124.519 82.4819 124.447 82.4756C124.383 82.4388 124.332 82.3838 124.3 82.3178C124.267 82.2517 124.255 82.1775 124.265 82.1046C124.622 80.9996 125.023 79.8566 125.424 78.6836Z" fill="white"/>
<path d="M16.567 47.5586C16.234 47.4756 16.022 47.4376 15.81 47.3696L10.64 45.6366L10.405 45.5226C10.178 45.4396 9.87503 45.3866 10.005 45.0386C10.135 44.6906 10.421 44.8496 10.641 44.9246L15.183 46.4386L16.122 46.7266C16.387 45.9696 16.629 45.2126 16.879 44.4556C16.9468 44.2189 17.0407 43.9905 17.159 43.7746C17.2008 43.7293 17.2529 43.6947 17.3108 43.6736C17.3688 43.6525 17.4309 43.6457 17.492 43.6536C17.592 43.6536 17.651 43.8426 17.704 43.9536C17.757 44.0646 17.704 44.0596 17.704 44.1126C17.324 45.2796 16.976 46.3696 16.567 47.5586Z" fill="white"/>
<path d="M30.601 102.217C30.5288 102.328 30.4504 102.434 30.366 102.535L26.12 106.725C25.863 106.982 25.605 107.202 25.363 106.68C25.4121 106.564 25.4796 106.457 25.563 106.362L29.885 102.131C30.113 101.891 30.374 101.679 30.601 102.217Z" fill="white"/>
<path d="M35.869 10.703C36.069 10.403 36.269 10.309 36.505 10.567C36.605 10.696 36.705 10.84 36.793 10.976L39.624 15.366C39.783 15.616 39.924 15.881 40.063 16.123C39.843 16.423 39.647 16.517 39.412 16.259C39.2859 16.114 39.1743 15.9569 39.079 15.79C38.118 14.276 37.156 12.815 36.203 11.316C36.0757 11.1209 35.9634 10.9159 35.869 10.703Z" fill="white"/>
<path d="M97.7349 13.5482C97.3569 13.5032 97.1819 13.3482 97.3569 12.9952C97.5319 12.6422 97.7569 12.2382 97.9629 11.8222L100.045 7.87823C100.123 7.70168 100.224 7.53624 100.345 7.38623C100.391 7.34395 100.447 7.31357 100.508 7.29771C100.568 7.28186 100.632 7.281 100.693 7.29523C100.798 7.39648 100.869 7.52902 100.893 7.67323C100.868 7.77883 100.827 7.88001 100.772 7.97323L97.9859 13.2262C97.9201 13.3428 97.8387 13.4497 97.7439 13.5442L97.7349 13.5482Z" fill="white"/>
<path d="M7.98292 69.2069C7.92992 69.1539 7.70292 69.0399 7.67292 68.8889C7.61992 68.6009 7.89992 68.5639 8.11992 68.5409C10.0429 68.3669 11.9649 68.1929 13.8949 68.0339C14.1369 68.0339 14.5159 67.9049 14.5459 68.3139C14.5759 68.7229 14.2209 68.6139 14.0009 68.6769C13.8643 68.7069 13.7248 68.7219 13.5849 68.7219L7.98292 69.2069Z" fill="white"/>
<path d="M50.054 10.8165C49.993 10.8995 49.925 11.0435 49.827 11.0735C49.7648 11.0851 49.7006 11.0815 49.64 11.0631C49.5795 11.0446 49.5242 11.0119 49.479 10.9675C49.3791 10.8361 49.3045 10.6872 49.259 10.5285C48.593 8.82853 47.927 7.14453 47.276 5.44153C47.176 5.16853 46.852 4.77552 47.352 4.61652C47.852 4.45752 47.776 4.95753 47.874 5.21653C48.54 6.88153 49.191 8.54752 49.842 10.2165C49.91 10.3925 49.971 10.5815 50.054 10.8165Z" fill="white"/>
</svg>
