<svg width="52" height="53" viewBox="0 0 52 53" fill="none" xmlns="http://www.w3.org/2000/svg">
<path d="M26.023 51.5538C19.3538 51.5538 12.9578 48.9045 8.24205 44.1887C3.52626 39.4729 0.876953 33.077 0.876953 26.4078C0.876953 19.7387 3.52626 13.3427 8.24205 8.62691C12.9578 3.91113 19.3538 1.26182 26.023 1.26182C29.7618 1.25101 33.4544 2.08834 36.823 3.71082C40.1466 5.31903 43.0898 7.61626 45.457 10.4498C47.2553 12.5907 48.6631 15.0312 49.616 17.6598C51.0162 21.4638 51.4778 25.5496 50.9615 29.5701C50.4453 33.5906 48.9665 37.4272 46.6507 40.7541C44.3349 44.081 41.2505 46.8 37.6594 48.6801C34.0683 50.5602 30.0765 51.546 26.023 51.5538Z" stroke="white"/>
<path d="M31.246 37.8217H20.932C19.2491 37.8167 17.6366 37.1458 16.4467 35.9556C15.2569 34.7654 14.5865 33.1526 14.582 31.4697V21.1557C14.5868 19.4729 15.2573 17.8603 16.447 16.6701C17.6368 15.48 19.2492 14.809 20.932 14.8037H31.246C32.9289 14.809 34.5413 15.48 35.731 16.6701C36.9208 17.8603 37.5913 19.4729 37.596 21.1557V31.4697C37.5918 33.1527 36.9215 34.7656 35.7316 35.9559C34.5417 37.1461 32.929 37.817 31.246 37.8217ZM20.932 16.8467C19.7908 16.8525 18.698 17.3085 17.8911 18.1155C17.0843 18.9226 16.6286 20.0155 16.623 21.1567V31.4697C16.6288 32.6109 17.0846 33.7038 17.8914 34.511C18.6982 35.3181 19.7908 35.7744 20.932 35.7807H31.246C32.3874 35.7747 33.4803 35.3185 34.2873 34.5113C35.0943 33.7041 35.5503 32.6111 35.556 31.4697V21.1557C35.5503 20.0144 35.0943 18.9215 34.2873 18.1145C33.4802 17.3074 32.3873 16.8515 31.246 16.8457L20.932 16.8467ZM26.088 32.2467C24.9148 32.2467 23.7679 31.8988 22.7924 31.247C21.8169 30.5952 21.0566 29.6687 20.6076 28.5848C20.1586 27.5009 20.0411 26.3081 20.27 25.1574C20.4989 24.0067 21.0639 22.9498 21.8935 22.1202C22.7231 21.2905 23.7801 20.7256 24.9308 20.4967C26.0815 20.2678 27.2742 20.3853 28.3581 20.8343C29.442 21.2832 30.3685 22.0436 31.0203 23.0191C31.6721 23.9946 32.02 25.1415 32.02 26.3147C32.02 27.0937 31.8666 27.8651 31.5685 28.5848C31.2704 29.3045 30.8334 29.9584 30.2826 30.5093C29.7318 31.0601 29.0778 31.4971 28.3581 31.7952C27.6384 32.0933 26.867 32.2467 26.088 32.2467ZM26.088 22.4247C25.0566 22.4247 24.0674 22.8344 23.3381 23.5638C22.6088 24.2931 22.199 25.2823 22.199 26.3137C22.199 27.3451 22.6088 28.3343 23.3381 29.0636C24.0674 29.793 25.0566 30.2027 26.088 30.2027H26.112C26.6188 30.2039 27.1209 30.1047 27.5891 29.9107C28.0574 29.7168 28.4825 29.4319 28.84 29.0727C29.3814 28.5271 29.7495 27.8338 29.8981 27.0797C30.0467 26.3256 29.9692 25.5444 29.6752 24.8343C29.3813 24.1241 28.8841 23.5166 28.2461 23.0881C27.608 22.6596 26.8576 22.4291 26.089 22.4257L26.088 22.4247ZM32.269 21.6447C31.9345 21.6461 31.6091 21.5357 31.3446 21.331C31.08 21.1263 30.8915 20.839 30.809 20.5149C30.7264 20.1907 30.7546 19.8482 30.889 19.5419C31.0235 19.2356 31.2564 18.983 31.5509 18.8243C31.8453 18.6656 32.1844 18.6099 32.5141 18.666C32.8439 18.7221 33.1455 18.8868 33.3709 19.1339C33.5963 19.3811 33.7326 19.6965 33.7582 20.03C33.7838 20.3636 33.6971 20.6961 33.512 20.9747C33.3751 21.1797 33.1898 21.3478 32.9725 21.4642C32.7552 21.5805 32.5125 21.6415 32.266 21.6417L32.269 21.6447Z" fill="white"/>
</svg>
