<svg width="52" height="53" viewBox="0 0 52 53" fill="none" xmlns="http://www.w3.org/2000/svg">
<path d="M26.366 51.5538C19.6968 51.5538 13.3009 48.9045 8.58506 44.1887C3.86927 39.4729 1.21997 33.077 1.21997 26.4078C1.21997 19.7387 3.86927 13.3427 8.58506 8.62691C13.3009 3.91113 19.6968 1.26182 26.366 1.26182C30.1048 1.25101 33.7975 2.08834 37.166 3.71082C40.4896 5.31903 43.4328 7.61626 45.8 10.4498C47.5984 12.5907 49.0061 15.0312 49.959 17.6598C51.3592 21.4638 51.8208 25.5496 51.3045 29.5701C50.7883 33.5906 49.3095 37.4272 46.9937 40.7541C44.678 44.081 41.5935 46.8 38.0024 48.6801C34.4113 50.5602 30.4195 51.546 26.366 51.5538Z" stroke="white"/>
<path d="M28.719 37.7396H23.528V22.2656H28.718V24.4296L28.926 24.1856C29.8114 23.124 31.0025 22.3611 32.337 22.0006C32.6187 21.9513 32.9041 21.9265 33.19 21.9266H33.417C33.9367 21.9266 34.455 21.9792 34.964 22.0836C37.41 22.7276 38.875 24.6426 39.199 27.6206C39.233 27.9206 39.252 29.8566 39.252 32.9206V37.7366H34.062L34.043 33.0566L34.032 28.3766L33.915 27.9846C33.8341 27.4331 33.5569 26.9293 33.1344 26.5658C32.7119 26.2022 32.1724 26.0033 31.615 26.0056H31.493C30.9717 26.0068 30.4618 26.1583 30.0246 26.4422C29.5873 26.726 29.2413 27.13 29.028 27.6056C28.721 28.2276 28.721 28.2276 28.721 33.2316V37.7316L28.719 37.7396ZM20.728 37.7396H15.534V22.2706H20.726V37.7446L20.728 37.7396ZM18.243 20.2026H18.163C17.8966 20.2016 17.6309 20.1738 17.37 20.1196C16.7839 19.9949 16.2568 19.6762 15.8741 19.2151C15.4913 18.754 15.2751 18.1774 15.2604 17.5783C15.2458 16.9792 15.4334 16.3926 15.7932 15.9133C16.1529 15.434 16.6637 15.0899 17.243 14.9366C17.5601 14.8521 17.8868 14.8088 18.215 14.8076H18.36C18.714 14.8077 19.0645 14.8778 19.3914 15.0136C19.7183 15.1495 20.0152 15.3485 20.265 15.5994C20.5148 15.8502 20.7127 16.1479 20.8472 16.4754C20.9818 16.8028 21.0503 17.1536 21.049 17.5076C21.0568 17.8533 20.995 18.1971 20.8674 18.5185C20.7397 18.8399 20.5488 19.1324 20.306 19.3786C19.7513 19.9106 19.0116 20.2061 18.243 20.2026Z" fill="white"/>
</svg>
