<svg width="375" height="12" viewBox="0 0 375 12" fill="none" xmlns="http://www.w3.org/2000/svg">
<path d="M335.648 5.541C331.509 3.90034 326.9 3.90034 322.761 5.541C316.887 7.363 315.225 11.625 307.332 11.92C299.44 11.625 297.779 7.363 291.903 5.541C290.332 5.03672 288.72 4.6687 287.086 4.441V4.473C286.982 4.44311 286.877 4.41973 286.77 4.403C286.18 4.337 285.67 4.309 285.247 4.303C284.824 4.297 284.314 4.336 283.724 4.403C283.617 4.41973 283.512 4.44311 283.408 4.473V4.443C281.774 4.6707 280.162 5.03872 278.591 5.543C272.717 7.365 271.056 11.627 263.163 11.922C255.271 11.627 253.609 7.365 247.734 5.543C245.651 4.84586 243.484 4.43215 241.291 4.313C239.098 4.43215 236.931 4.84586 234.848 5.543C228.973 7.365 227.312 11.627 219.419 11.922C211.527 11.627 209.866 7.365 203.99 5.543C201.907 4.84586 199.74 4.43215 197.547 4.313C195.354 4.43215 193.187 4.84586 191.104 5.543C185.23 7.365 183.568 11.627 175.675 11.922C167.783 11.627 166.122 7.365 160.247 5.543C158.164 4.84579 155.996 4.43208 153.803 4.313C151.61 4.43208 149.442 4.84579 147.359 5.543C141.485 7.365 139.824 11.627 131.931 11.922C124.039 11.627 122.377 7.365 116.502 5.543C114.931 5.03872 113.319 4.67069 111.685 4.443V4.475C111.581 4.4451 111.476 4.42173 111.369 4.405C110.78 4.339 110.269 4.311 109.846 4.305C109.423 4.299 108.913 4.338 108.323 4.405C108.216 4.42173 108.111 4.4451 108.007 4.475V4.443C106.373 4.67069 104.761 5.03872 103.19 5.543C97.316 7.365 95.654 11.627 87.761 11.922C79.869 11.627 78.208 7.365 72.333 5.543C70.2533 4.84566 68.0892 4.43095 65.899 4.31C63.7056 4.42909 61.5381 4.84281 59.455 5.54C53.581 7.362 51.92 11.624 44.027 11.919C36.131 11.625 34.469 7.362 28.599 5.541C27.074 5.05372 25.5114 4.69316 23.927 4.463V4.476C23.927 4.476 23.895 4.466 23.827 4.45C23.2255 4.36887 22.6199 4.32146 22.013 4.308C21.4065 4.32153 20.8012 4.36893 20.2 4.45C20.134 4.466 20.1 4.476 20.1 4.476V4.462C18.5153 4.69242 16.9523 5.05331 15.427 5.541C9.55202 7.362 7.89102 11.625 -0.000976562 11.919V0H374.999V4.475C374.999 4.475 372.517 3.675 366.504 5.541C360.63 7.363 358.969 11.625 351.076 11.92C343.184 11.625 341.522 7.362 335.648 5.541Z" fill="white"/>
</svg>
