<svg width="53" height="53" viewBox="0 0 53 53" fill="none" xmlns="http://www.w3.org/2000/svg">
<path d="M26.5539 51.5288C20.3226 51.5261 14.3143 49.2087 9.69516 45.0262C5.07599 40.8437 2.17528 35.0944 1.55591 28.8938C0.936543 22.6933 2.64269 16.4838 6.34327 11.4702C10.0439 6.45666 15.475 2.99659 21.5827 1.76143C27.6905 0.52628 34.0393 1.60413 39.3972 4.78582C44.755 7.96751 48.7399 13.0262 50.5785 18.9801C52.4171 24.9341 51.9784 31.3588 49.3473 37.0075C46.7163 42.6562 42.0807 47.1261 36.3399 49.5498C33.2429 50.8562 29.9153 51.5281 26.5539 51.5258V51.5288Z" stroke="white"/>
<path fill-rule="evenodd" clip-rule="evenodd" d="M21.407 15.7999C14.451 16.0209 13.097 16.3599 12.107 18.1299C10.721 20.5959 10.776 32.5519 12.183 34.6679C12.5254 35.1915 12.9855 35.6278 13.5265 35.9419C14.0675 36.256 14.6745 36.4392 15.299 36.4769C19.809 37.1309 34.099 37.0919 37.662 36.4169C40.62 35.8559 41.337 33.8739 41.337 26.2819C41.337 18.5079 40.594 16.7069 37.172 16.2059C31.9291 15.7694 26.6656 15.6308 21.407 15.7909M27.113 24.0909L30.926 26.2909C31.009 26.3379 23.681 30.6479 23.297 30.7779C23.256 30.7919 23.235 29.2459 23.235 26.3459C23.235 22.5949 23.249 21.8969 23.322 21.9269C23.369 21.9449 25.077 22.9209 27.116 24.0959" fill="white"/>
</svg>
