<svg width="52" height="53" viewBox="0 0 52 53" fill="none" xmlns="http://www.w3.org/2000/svg">
<path d="M26.21 51.5327C19.9787 51.5298 13.9706 49.2122 9.35161 45.0296C4.73262 40.8469 1.83212 35.0975 1.21294 28.897C0.593762 22.6965 2.30006 16.4871 6.00074 11.4736C9.70142 6.46019 15.1326 3.00027 21.2403 1.76524C27.348 0.530217 33.6968 1.60817 39.0546 4.78992C44.4124 7.97167 48.3972 13.0303 50.2357 18.9843C52.0742 24.9382 51.6354 31.3628 49.0044 37.0115C46.3733 42.6601 41.7377 47.13 35.997 49.5537C32.8997 50.8602 29.5717 51.5322 26.21 51.5297V51.5327Z" stroke="white"/>
<path d="M19.509 41.587C19.402 41.587 19.381 41.3869 19.331 40.9L19.324 40.83C18.994 37.655 19.353 34.802 20.745 29.521C21.058 28.334 21.422 26.91 21.545 26.355L21.773 25.375L21.603 25.032C21.0717 23.7874 20.9748 22.4002 21.328 21.094C21.5518 19.845 22.2566 18.7337 23.291 17.999C23.6853 17.7795 24.1289 17.6642 24.58 17.664H24.621C25.0859 17.6415 25.5479 17.7479 25.9561 17.9715C26.3643 18.1951 26.7027 18.5271 26.934 18.931C27.366 19.851 27.217 21.059 26.319 23.918C25.9458 24.9956 25.6864 26.1093 25.545 27.2409C25.4307 27.9052 25.5498 28.5885 25.882 29.1749C26.0928 29.4736 26.3897 29.7007 26.733 29.826C27.1753 29.9879 27.6404 30.0787 28.111 30.0949C28.19 30.0949 28.258 30.1019 28.327 30.1019C28.9592 30.0953 29.5791 29.9262 30.127 29.611C30.7281 29.2655 31.2595 28.8111 31.694 28.271C32.143 27.7254 32.5235 27.1269 32.827 26.489C33.1599 25.7911 33.4193 25.0605 33.601 24.309C33.9977 22.6908 34.0488 21.0072 33.751 19.368C33.4757 17.7281 32.5963 16.2507 31.286 15.227C30.6626 14.7467 29.961 14.3776 29.212 14.136C28.4463 13.8871 27.6462 13.7606 26.841 13.761H26.816C25.8113 13.7638 24.8147 13.9418 23.871 14.287C22.8319 14.6658 21.8633 15.2153 21.005 15.913C19.5672 17.0596 18.5344 18.6367 18.058 20.413C17.8382 21.2214 17.7671 22.0631 17.848 22.897C17.9238 23.6916 18.1752 24.4594 18.584 25.145C18.9696 25.6305 19.1945 26.224 19.2274 26.8431C19.2604 27.4622 19.0999 28.0762 18.768 28.6L18.679 28.7339L18.243 28.6119C15.429 27.823 14.048 25.242 14.356 21.348C14.6292 18.6849 15.8184 16.1992 17.7204 14.3154C19.6225 12.4316 22.1195 11.2665 24.785 11.019C25.387 10.9518 25.9923 10.9185 26.598 10.919C32.398 10.919 36.966 14.041 37.955 18.687C39.272 24.862 36.177 31.5119 31.327 32.9159C30.5815 33.1457 29.8071 33.2686 29.027 33.281C27.6669 33.2572 26.3475 32.8129 25.25 32.009C24.925 31.7606 24.5707 31.553 24.195 31.391C24.185 31.391 24.18 31.391 24.178 31.398C24.1197 31.5994 24.073 31.8041 24.038 32.011C23.128 36.7889 21.867 39.652 19.947 41.28L19.907 41.314L19.898 41.322C19.703 41.481 19.584 41.587 19.509 41.587Z" fill="white"/>
</svg>
