<svg width="52" height="53" viewBox="0 0 52 53" fill="none" xmlns="http://www.w3.org/2000/svg">
<path d="M25.7731 51.5288C19.5417 51.5261 13.5334 49.2087 8.91427 45.0262C4.2951 40.8437 1.39439 35.0944 0.775025 28.8938C0.155659 22.6933 1.8618 16.4838 5.56239 11.4702C9.26297 6.45666 14.6941 2.99659 20.8018 1.76143C26.9096 0.52628 33.2584 1.60413 38.6163 4.78582C43.9742 7.96751 47.959 13.0262 49.7976 18.9801C51.6363 24.9341 51.1975 31.3588 48.5664 37.0075C45.9354 42.6562 41.2998 47.1261 35.5591 49.5498C32.462 50.8562 29.1344 51.5281 25.7731 51.5258V51.5288Z" stroke="white"/>
<path d="M22.5709 39.4987C20.4306 39.5015 18.37 38.6862 16.8109 37.2197C15.6038 36.0996 14.767 34.6379 14.4125 33.0297C14.058 31.4216 14.2026 29.7435 14.8269 28.2197C15.4246 26.6763 16.4752 25.3499 17.8408 24.4149C19.2064 23.4798 20.8229 22.9798 22.4779 22.9807H22.5689C22.8919 22.9805 23.2147 22.9972 23.5359 23.0307L23.8549 23.0667V25.2987C23.8549 26.3827 23.8459 27.5137 23.8319 27.5307C23.8209 27.5307 23.6919 27.5007 23.4549 27.4457C22.7348 27.2737 21.9806 27.3114 21.2812 27.5542C20.5818 27.7971 19.9665 28.2349 19.5079 28.8161C19.0493 29.3973 18.7665 30.0976 18.693 30.8343C18.6195 31.571 18.7582 32.3133 19.0929 32.9737C19.4187 33.6448 19.9352 34.2049 20.5779 34.5837C21.1866 34.9327 21.8763 35.1155 22.5779 35.1137H22.6779C23.4376 35.116 24.1803 34.8893 24.8091 34.4631C25.4379 34.0369 25.9237 33.4311 26.2029 32.7247C26.2229 32.6767 26.2419 32.6247 26.2589 32.5917C26.4809 32.0767 26.4809 32.0767 26.4959 24.3217V22.3897L26.5109 12.8467H30.9359V13.1837C30.9359 16.3427 33.8119 19.2327 37.2219 19.4947L37.6569 19.5287V23.9007L37.0629 23.8657C35.0818 23.7686 33.1638 23.1377 31.5119 22.0397L30.9429 21.6647L30.9259 27.0067V27.3067C30.9069 33.2507 30.9069 33.2507 30.0949 34.8767L30.0529 34.9607C29.3416 36.3289 28.2685 37.4758 26.9505 38.2763C25.6325 39.0768 24.12 39.5003 22.5779 39.5007L22.5709 39.4987Z" fill="white"/>
</svg>
