<svg width="31" height="30" viewBox="0 0 31 30" fill="none" xmlns="http://www.w3.org/2000/svg">
<path opacity="0.2" fill-rule="evenodd" clip-rule="evenodd" d="M14.0759 0.410992C10.5349 0.756807 7.24088 2.37963 4.80888 4.97643C2.37688 7.57323 0.973203 10.9665 0.859966 14.5225C0.746728 18.0785 1.93167 21.5541 4.19352 24.3004C6.45538 27.0466 9.63949 28.8758 13.1513 29.4462C16.6631 30.0166 20.2624 29.2893 23.2772 27.4001C26.2919 25.5108 28.516 22.5889 29.5341 19.1799C30.5521 15.7708 30.2946 12.1078 28.8095 8.87475C27.3244 5.64171 24.7133 3.05975 21.4639 1.61099C19.1326 0.625866 16.5991 0.214352 14.0759 0.410992ZM16.6449 4.91699C17.6958 5.17054 18.6304 5.77143 19.2972 6.62235C19.964 7.47327 20.3241 8.52438 20.3191 9.60545C20.314 10.6865 19.9442 11.7342 19.2695 12.5789C18.5948 13.4236 17.6546 14.0158 16.6014 14.2595C15.5481 14.5033 14.4435 14.3843 13.4662 13.922C12.489 13.4596 11.6965 12.6809 11.217 11.7119C10.7376 10.743 10.5992 9.64058 10.8244 8.58321C11.0496 7.52585 11.6252 6.57546 12.4579 5.88599C13.032 5.40932 13.7095 5.07346 14.4365 4.90521C15.1635 4.73697 15.9197 4.741 16.6449 4.91699ZM19.1529 16.873C22.4319 17.405 24.4349 21.596 22.2449 23.344C20.3511 24.8761 17.9917 25.7171 15.5558 25.7284C13.1198 25.7397 10.7528 24.9205 8.84487 23.406C8.42711 23.1219 8.11163 22.7111 7.94492 22.2342C7.77821 21.7573 7.76908 21.2395 7.91887 20.757C8.11459 19.7981 8.58912 18.9183 9.28293 18.228C9.97675 17.5378 10.859 17.0678 11.8189 16.877C12.2549 16.804 18.7189 16.802 19.1609 16.877" fill="black"/>
</svg>
