<svg width="28" height="29" viewBox="0 0 28 29" fill="none" xmlns="http://www.w3.org/2000/svg">
<path opacity="0.2" d="M8.47818 19.083H24.1692C25.0256 19.0814 25.8465 18.7405 26.4521 18.1349C27.0577 17.5293 27.3986 16.7084 27.4002 15.852V9.18096C27.4011 9.16898 27.399 9.15697 27.3942 9.14596C27.3942 9.13396 27.3882 9.11696 27.3882 9.10496C27.3882 9.09296 27.3822 9.08196 27.3822 9.06996C27.3774 9.05654 27.3734 9.04285 27.3702 9.02896C27.3642 9.01696 27.3642 9.00596 27.3582 8.99396C27.3522 8.98196 27.3522 8.97096 27.3462 8.95896C27.3391 8.94579 27.3331 8.93208 27.3282 8.91796C27.3235 8.90753 27.3174 8.89778 27.3102 8.88896L27.2922 8.85396C27.2862 8.84196 27.2802 8.83596 27.2742 8.82496C27.2682 8.81396 27.2562 8.80196 27.2512 8.78996C27.2454 8.77895 27.2376 8.76911 27.2282 8.76096C27.2222 8.74896 27.2102 8.74296 27.2052 8.73196C27.2002 8.72096 27.1872 8.71396 27.1822 8.70296C27.1772 8.69196 27.1642 8.68496 27.1592 8.67996L27.1352 8.64796C27.1232 8.64196 27.1172 8.62996 27.1062 8.62496C27.0952 8.61996 27.0832 8.60696 27.0712 8.60196C27.0592 8.59696 27.0532 8.58996 27.0422 8.58396C27.0293 8.57835 27.0174 8.57057 27.0072 8.56096L26.9722 8.54296L26.9352 8.52496L26.9002 8.50696C26.8882 8.50096 26.8772 8.50096 26.8652 8.49496C26.8524 8.48829 26.8385 8.48422 26.8242 8.48296C26.8144 8.48153 26.8047 8.47952 26.7952 8.47696C26.78 8.47208 26.7641 8.47004 26.7482 8.47096C26.7422 8.47096 26.7362 8.46496 26.7252 8.46496L6.83518 5.72196V2.94696C6.83632 2.91949 6.8343 2.89197 6.82918 2.86496C6.82933 2.85689 6.82725 2.84893 6.82318 2.84196C6.82318 2.82396 6.81718 2.80696 6.81718 2.78896C6.81718 2.77096 6.81118 2.75996 6.80518 2.74196C6.79918 2.72396 6.79918 2.72396 6.79918 2.71296L6.78118 2.65996C6.78118 2.65396 6.77518 2.64196 6.77518 2.63696C6.76991 2.62023 6.76216 2.60439 6.75218 2.58996C6.74618 2.58396 6.74618 2.57196 6.74018 2.56696C6.73459 2.55405 6.72681 2.54221 6.71718 2.53196C6.71118 2.51996 6.70518 2.51396 6.69918 2.50296C6.69318 2.49196 6.68718 2.48496 6.68118 2.47396C6.67518 2.46296 6.66318 2.45096 6.65818 2.43896L6.63518 2.42096L6.60018 2.38596L6.58218 2.36796C6.57136 2.35514 6.5593 2.34341 6.54618 2.33296C6.54018 2.32696 6.52818 2.32096 6.52318 2.31496C6.51818 2.30896 6.50018 2.29696 6.48818 2.28596C6.47302 2.2755 6.45733 2.26582 6.44118 2.25696C6.43518 2.25096 6.42918 2.25096 6.42318 2.24496L6.34718 2.20996L2.03518 0.39596C1.93899 0.352416 1.83506 0.32857 1.72951 0.325828C1.62396 0.323086 1.51893 0.341504 1.42061 0.379994C1.32229 0.418485 1.23267 0.47627 1.15704 0.549943C1.08141 0.623616 1.02129 0.711686 0.980228 0.80896C0.939169 0.906235 0.918 1.01074 0.917969 1.11633C0.917938 1.22191 0.939045 1.32644 0.980047 1.42374C1.02105 1.52103 1.08112 1.60914 1.15671 1.68286C1.2323 1.75657 1.32188 1.81441 1.42018 1.85296L5.24818 3.46796V20.78C5.24981 21.5639 5.53618 22.3206 6.05399 22.9093C6.5718 23.4979 7.28581 23.8784 8.06318 23.98C7.81084 24.4013 7.65926 24.8752 7.62025 25.3648C7.58125 25.8543 7.65587 26.3463 7.83832 26.8023C8.02076 27.2582 8.30608 27.6659 8.67202 27.9934C9.03796 28.321 9.47463 28.5595 9.94795 28.6905C10.4213 28.8215 10.9185 28.8413 11.4007 28.7485C11.883 28.6557 12.3373 28.4527 12.7282 28.1554C13.1191 27.8581 13.436 27.4745 13.6542 27.0345C13.8724 26.5945 13.986 26.1101 13.9862 25.619C13.9881 25.0528 13.8364 24.4967 13.5472 24.01H20.6522C20.3637 24.497 20.212 25.0529 20.2132 25.619C20.2132 26.2499 20.4003 26.8666 20.7508 27.3912C21.1013 27.9158 21.5995 28.3247 22.1824 28.5661C22.7653 28.8076 23.4067 28.8708 24.0255 28.7477C24.6443 28.6246 25.2127 28.3208 25.6589 27.8746C26.105 27.4285 26.4088 26.8601 26.5319 26.2413C26.655 25.6225 26.5918 24.9811 26.3504 24.3982C26.1089 23.8153 25.7 23.3171 25.1754 22.9666C24.6509 22.6161 24.0341 22.429 23.4032 22.429H8.47818C8.04074 22.4284 7.62136 22.2544 7.31204 21.9451C7.00272 21.6358 6.82871 21.2164 6.82818 20.779V18.638C7.32895 18.9301 7.89844 19.0837 8.47818 19.083Z" fill="black"/>
</svg>
