<svg width="26" height="27" viewBox="0 0 26 27" fill="none" xmlns="http://www.w3.org/2000/svg">
<path d="M25.2501 11.772L14.6831 1.20396C14.462 0.982032 14.1992 0.805941 13.9099 0.685788C13.6206 0.565635 13.3104 0.503784 12.9971 0.503784C12.6838 0.503784 12.3736 0.565635 12.0843 0.685788C11.795 0.805941 11.5322 0.982032 11.3111 1.20396L0.750107 11.764L0.740107 11.774C0.41368 12.1011 0.189569 12.5163 0.0951358 12.9687C0.000702437 13.4211 0.040032 13.8912 0.208323 14.3216C0.376614 14.7521 0.666586 15.1242 1.04284 15.3926C1.41909 15.6609 1.86534 15.814 2.32711 15.833H2.82111V23.61C2.82137 24.3501 3.11531 25.0599 3.63839 25.5836C4.16147 26.1072 4.87096 26.4019 5.61111 26.403H9.75011C9.85004 26.4027 9.94895 26.3828 10.0412 26.3443C10.1334 26.3058 10.2172 26.2495 10.2876 26.1787C10.3581 26.1078 10.4139 26.0238 10.4519 25.9313C10.4899 25.8389 10.5094 25.7399 10.5091 25.64V19.546C10.5096 19.2083 10.6441 18.8847 10.8829 18.646C11.1217 18.4074 11.4455 18.2732 11.7831 18.273H14.2231C14.5606 18.2735 14.8841 18.4078 15.1227 18.6464C15.3613 18.885 15.4956 19.2085 15.4961 19.546V25.638C15.4958 25.7381 15.5153 25.8372 15.5535 25.9298C15.5916 26.0224 15.6476 26.1065 15.7183 26.1774C15.789 26.2482 15.873 26.3045 15.9654 26.3428C16.0579 26.3812 16.157 26.401 16.2571 26.401H20.3901C21.1289 26.3983 21.8365 26.1032 22.3582 25.5802C22.88 25.0571 23.1733 24.3487 23.1741 23.61V15.844H23.5641C24.0353 15.8434 24.4957 15.7033 24.8873 15.4413C25.279 15.1793 25.5842 14.8072 25.7646 14.3719C25.9449 13.9366 25.9923 13.4577 25.9008 12.9955C25.8092 12.5333 25.5828 12.1086 25.2501 11.775V11.772Z" fill="#947761"/>
</svg>
