<svg width="29" height="29" viewBox="0 0 29 29" fill="none" xmlns="http://www.w3.org/2000/svg">
<path opacity="0.2" fill-rule="evenodd" clip-rule="evenodd" d="M12.6482 0.521963C9.10498 0.87137 5.82726 2.5554 3.47992 5.23249C1.13258 7.90957 -0.108639 11.3793 0.00802599 14.9378C0.124691 18.4963 1.5905 21.8773 4.10815 24.3949C6.6258 26.9124 10.0068 28.3782 13.5653 28.4948C17.1239 28.6113 20.5935 27.37 23.2705 25.0226C25.9476 22.6752 27.6315 19.3975 27.9808 15.8542C28.3302 12.3109 27.3187 8.76743 25.1516 5.94245C22.9845 3.11747 19.824 1.22253 16.3112 0.641963C15.0948 0.512598 13.8705 0.472491 12.6482 0.521963ZM15.5192 11.394C19.7032 14.084 19.8252 14.175 19.8252 14.464C19.8252 14.753 19.7022 14.841 15.5192 17.534C10.8872 20.515 11.0432 20.434 10.7352 20.073C10.5412 19.848 10.5412 19.81 10.5572 14.273C10.5752 8.57296 10.5572 8.87296 10.8942 8.73196C11.1772 8.61196 11.3252 8.69596 15.5232 11.397" fill="black"/>
</svg>
