<svg width="59" height="60" viewBox="0 0 59 60" fill="none" xmlns="http://www.w3.org/2000/svg">
<path d="M29.5 60C45.7924 60 59 46.5685 59 30C59 13.4315 45.7924 0 29.5 0C13.2076 0 0 13.4315 0 30C0 46.5685 13.2076 60 29.5 60Z" fill="#947761"/>
<path d="M30.3389 42.588C38.7856 42.588 45.6329 35.7406 45.6329 27.294C45.6329 18.8474 38.7856 12 30.3389 12C21.8923 12 15.0449 18.8474 15.0449 27.294C15.0449 35.7406 21.8923 42.588 30.3389 42.588Z" fill="#BFE2D8"/>
<path d="M13.877 22.695L16.87 22.403C17.162 22.403 21.944 24.228 21.944 24.228L24.317 25.688C24.317 25.688 24.171 24.228 24.463 24.082L25.563 23.534L27.169 23.934L28.228 25.102L28.776 27.037L28.082 29.264L29.068 31.308C29.068 31.308 30.127 30.76 30.601 30.541C31.075 30.322 36.952 26.38 37.281 26.38C37.61 26.38 39.981 25.759 40.603 25.759C41.225 25.759 44.071 26.197 44.071 26.197L46.225 27.803L47.612 30.65L47.904 34.921L48.342 35.721L50.277 36.561L52.204 39.741L52.277 42.734C52.277 42.734 51.109 43.464 50.817 43.391C50.525 43.318 48.554 42.369 48.554 42.369L47.568 42.077L45.852 43.61L43.479 44.961C43.479 44.961 40.814 45.582 40.486 45.582C40.158 45.582 37.493 45.326 37.493 45.326C37.493 45.326 35.96 43.975 35.741 43.756C35.522 43.537 35.193 42.369 35.011 42.296C34.829 42.223 33.989 41.858 33.989 41.858L33.441 42.114L33.733 44.014L32.346 45.914L31.433 46.644L29.133 46.936L28.111 46.753L26.578 46.315L25.191 46.242C24.923 46.2356 24.6557 46.2112 24.391 46.169C24.135 46.096 23.591 45.369 23.291 45.369H21.575C21.283 45.369 19.75 45.479 19.75 45.479L15.625 44.279L12.157 42.563L8.87202 39.898L6.86403 36.722L6.49902 32.342L7.59903 28.582L9.42403 25.297L12.6 23.581L13.878 22.705" fill="white"/>
<path d="M23.6961 24.703C23.8781 23.024 25.3391 22.549 26.6891 23.316C27.6211 23.8547 28.3088 24.7329 28.6081 25.7669C28.9074 26.801 28.7953 27.9108 28.2951 28.864C28.1131 29.193 29.1351 30.689 29.1351 30.689C31.0139 29.7696 32.7986 28.6694 34.4641 27.404C35.5652 26.5084 36.8438 25.8567 38.2154 25.4917C39.5871 25.1268 41.0205 25.057 42.4211 25.287C43.9792 25.5547 45.3904 26.3705 46.4001 27.587C47.1844 28.5946 47.7515 29.7537 48.0656 30.9914C48.3797 32.229 48.434 33.5183 48.2251 34.778L49.1011 35.178C50.2342 35.8343 51.1684 36.785 51.8047 37.9295C52.441 39.0739 52.7556 40.3692 52.7151 41.678C52.7638 42.1363 52.662 42.5979 52.4249 42.9931C52.1878 43.3882 51.8284 43.6954 51.4011 43.868C50.8702 44.0161 50.3084 44.0125 49.7794 43.8577C49.2504 43.7028 48.7754 43.403 48.4081 42.992C47.6411 42.262 47.7511 42.335 46.8751 43.175C44.5716 45.1646 41.5937 46.1966 38.5531 46.059C37.8868 46.0015 37.242 45.7944 36.6669 45.4531C36.0917 45.1119 35.6009 44.6452 35.2311 44.088C34.9153 43.6148 34.6695 43.0984 34.5011 42.555C34.4281 42.372 34.1721 42.409 34.0261 42.409C34.1399 43.0894 34.0864 43.7873 33.8702 44.4424C33.654 45.0974 33.2816 45.6901 32.7851 46.169C32.0947 46.743 31.2608 47.1178 30.3732 47.253C29.4856 47.3881 28.578 47.2785 27.7481 46.936C27.1087 46.6447 26.4026 46.5311 25.7041 46.607C25.1801 46.7213 24.6361 46.7045 24.1202 46.5579C23.6043 46.4114 23.1327 46.1397 22.7471 45.767C21.0375 46.2407 19.2159 46.0991 17.6001 45.367C15.5561 44.381 7.78109 43.177 6.24809 35.293C5.86489 33.634 5.89057 31.9067 6.32293 30.2599C6.75529 28.613 7.58138 27.0958 8.73008 25.839C9.47527 24.8376 10.4159 23.9979 11.4949 23.3705C12.574 22.7431 13.7692 22.3412 15.0081 22.189C17.3455 21.8708 19.7234 22.3055 21.7971 23.43C22.4548 23.8163 23.0889 24.2414 23.6961 24.703ZM11.7241 24.447C10.0721 25.6118 8.78182 27.2185 8.00108 29.083C6.95715 31.4878 6.86248 34.1986 7.73611 36.6704C8.60974 39.1421 10.3869 41.1914 12.7101 42.406C14.459 43.2459 16.2632 43.9655 18.1101 44.56C19.4255 45.0581 20.854 45.1784 22.2342 44.9075C23.6145 44.6367 24.8915 43.9853 25.9211 43.027C27.4223 41.6674 28.4783 39.8864 28.9511 37.917C29.4219 36.3845 29.4668 34.7528 29.081 33.1968C28.6952 31.6408 27.8933 30.219 26.7611 29.084C25.4101 27.697 24.0231 26.31 22.5611 25.032C20.2251 23.061 15.1881 22.112 11.7201 24.448L11.7241 24.447ZM37.6031 34.521C37.6761 34.485 37.7861 34.485 37.8221 34.557C37.84 34.5842 37.8496 34.616 37.8496 34.6485C37.8496 34.681 37.84 34.7129 37.8221 34.74C36.6967 35.97 35.8721 37.4443 35.4131 39.047C34.8291 41.31 35.1941 43.354 36.8001 44.447C37.7971 45.0801 38.996 45.3147 40.1581 45.104C41.7478 44.9567 43.2874 44.4698 44.6727 43.6762C46.058 42.8826 47.2568 41.8008 48.1881 40.504C48.5171 40.029 48.6631 39.518 48.8821 39.883C49.0281 40.139 48.8091 40.613 48.6631 40.942C48.2981 41.709 48.3341 41.782 49.1381 42.402C50.7811 43.643 51.7301 42.731 51.8381 41.781C51.9237 40.7878 51.7579 39.789 51.3559 38.8767C50.954 37.9645 50.3288 37.1681 49.5381 36.561C48.6981 35.904 48.1141 36.05 47.3111 36.817C46.3767 37.7936 45.2767 38.597 44.0621 39.19C44.0455 39.198 44.0274 39.2024 44.0089 39.203C43.9905 39.2036 43.9721 39.2004 43.955 39.1935C43.9379 39.1867 43.9224 39.1763 43.9095 39.1632C43.8966 39.15 43.8866 39.1343 43.8801 39.117C43.8745 39.0656 43.8872 39.0139 43.9161 38.971C44.0914 38.8445 44.2508 38.6975 44.3911 38.533C45.7421 37.146 47.2381 35.795 47.3111 33.678C47.3106 32.8701 47.2373 32.0638 47.0921 31.269C46.862 29.9077 46.1841 28.6622 45.1658 27.7298C44.1476 26.7975 42.8473 26.2316 41.4711 26.122C39.0213 26.0749 36.628 26.86 34.6821 28.349C33.0707 29.5891 31.3477 30.6767 29.5351 31.598C29.7523 32.0604 29.8999 32.5524 29.9731 33.058C30.5489 35.9102 30.0122 38.8747 28.4731 41.344C28.6785 41.3075 28.8887 41.3075 29.0941 41.344C29.3452 41.3658 29.5868 41.4505 29.7965 41.5903C30.0063 41.7301 30.1774 41.9206 30.2941 42.144C30.5131 42.765 29.9291 42.254 29.3811 42.108C29.017 42.0004 28.6293 42.0018 28.266 42.1122C27.9027 42.2226 27.5798 42.437 27.3371 42.729C26.5955 43.5376 25.7337 44.227 24.7821 44.773C24.4287 44.9505 24.0607 45.097 23.6821 45.211C23.7181 45.54 24.3031 45.722 24.8501 45.795C25.2043 45.8438 25.5649 45.8189 25.9091 45.722C25.9821 45.43 25.3611 45.393 25.6901 45.065C26.0191 44.737 27.2961 45.722 27.6981 45.941C28.3674 46.318 29.1287 46.5006 29.8961 46.4683C30.6636 46.436 31.4069 46.19 32.0421 45.758C32.3839 45.4917 32.6672 45.1577 32.8741 44.777C33.0811 44.3963 33.2073 43.9769 33.2448 43.5452C33.2824 43.1135 33.2304 42.6787 33.0923 42.2679C32.9542 41.8572 32.7329 41.4793 32.4421 41.158C31.9213 40.5214 31.2744 39.9995 30.5421 39.625C30.3231 39.515 29.7421 39.187 30.1041 38.895C30.2501 38.785 30.6521 38.932 30.8711 39.041C31.9044 39.4398 32.7944 40.1392 33.4261 41.049C33.5384 41.229 33.7046 41.3689 33.9011 41.449C34.3011 41.595 34.1931 41.12 34.1931 40.901C34.2412 39.6493 34.5715 38.4246 35.1594 37.3184C35.7473 36.2122 36.5775 35.2532 37.5881 34.513L37.6031 34.521ZM25.5581 26.6C25.4916 26.2867 25.4429 25.9698 25.4121 25.651C25.4121 25.395 25.4481 25.067 25.7041 25.103C25.8871 25.103 25.9601 25.395 25.9961 25.578C26.3251 27.002 27.0961 28.243 27.3101 28.206C27.4062 28.1966 27.4979 28.1609 27.5752 28.1029C27.6524 28.0449 27.7123 27.9667 27.7481 27.877C28.3691 26.599 27.2371 24.19 25.8861 23.898C25.6295 23.8475 25.3634 23.8806 25.1269 23.9924C24.8905 24.1041 24.696 24.2887 24.5721 24.519C24.4908 24.9259 24.5428 25.3482 24.7204 25.7232C24.898 26.0983 25.1918 26.4061 25.5581 26.601V26.6Z" fill="#9E765D"/>
<path d="M13.329 30.36C13.8811 30.3637 14.4195 30.5325 14.8748 30.8447C15.3301 31.157 15.6816 31.5983 15.884 32.112C16.1197 32.6443 16.19 33.2351 16.0859 33.8078C15.9817 34.3805 15.7079 34.9087 15.3 35.324C14.9441 35.6478 14.5522 35.9297 14.132 36.164C14.1014 36.1832 14.0671 36.1956 14.0313 36.2004C13.9955 36.2053 13.9591 36.2024 13.9245 36.1919C13.8899 36.1815 13.858 36.1638 13.8308 36.14C13.8036 36.1162 13.7819 36.0869 13.767 36.054C13.731 36.018 13.731 35.981 13.731 35.908C13.7295 35.5469 13.6285 35.1933 13.439 34.886C13.3116 34.7367 13.1445 34.6266 12.957 34.5684C12.7696 34.5102 12.5696 34.5062 12.38 34.557L11.504 34.667C11.1087 34.7113 10.7088 34.6491 10.3456 34.487C9.98248 34.3248 9.66927 34.0684 9.43846 33.7445C9.20766 33.4206 9.06765 33.0409 9.03293 32.6446C8.99821 32.2484 9.07005 31.8501 9.241 31.491C9.21986 32.134 9.4534 32.7593 9.89084 33.231C10.3283 33.7027 10.9343 33.9827 11.577 34.01C11.8219 34.0056 12.0661 33.9812 12.307 33.937C12.5238 33.8646 12.7542 33.8428 12.9807 33.873C13.2072 33.9033 13.4239 33.985 13.614 34.1117C13.8042 34.2385 13.9628 34.407 14.0779 34.6045C14.193 34.8019 14.2614 35.0231 14.278 35.251C16.103 34.083 15.555 31.601 13.329 30.36Z" fill="#9E765D"/>
<path d="M21.7969 35.47C21.5049 35.506 21.1759 35.506 21.0299 35.214C20.8839 34.922 21.1759 34.63 21.5779 34.52C21.7601 34.477 21.9321 34.3985 22.084 34.2889C22.2359 34.1793 22.3647 34.0409 22.4631 33.8815C22.5614 33.7222 22.6274 33.545 22.6572 33.3601C22.6871 33.1752 22.6801 32.9862 22.6369 32.804C22.6009 32.512 22.5639 32.11 22.8559 32.004C23.2559 31.858 23.4399 32.333 23.5129 32.625C23.6316 32.924 23.6795 33.2463 23.6531 33.5669C23.6266 33.8874 23.5263 34.1975 23.3602 34.473C23.1941 34.7484 22.9666 34.9817 22.6954 35.1547C22.4242 35.3276 22.1167 35.4355 21.7969 35.47Z" fill="#9E765D"/>
<path d="M19.1332 39.996C19.1997 40.5159 19.0674 41.0417 18.7627 41.4681C18.4581 41.8946 18.0036 42.1903 17.4902 42.296C17.1982 42.406 16.7962 42.442 16.6902 42.113C16.5842 41.784 16.8362 41.638 17.1282 41.492C17.466 41.3651 17.7547 41.134 17.9525 40.8321C18.1502 40.5303 18.2468 40.1734 18.2282 39.813C18.2282 39.557 18.1552 39.156 18.5932 39.156C18.8782 39.12 19.0612 39.631 19.1332 39.996Z" fill="#9E765D"/>
<path d="M26.0693 38.865C26.1331 39.1574 26.1384 39.4596 26.0848 39.7541C26.0311 40.0485 25.9196 40.3294 25.7566 40.5805C25.5937 40.8316 25.3826 41.0479 25.1355 41.2169C24.8885 41.3859 24.6104 41.5042 24.3173 41.565C24.2443 41.565 24.1713 41.602 24.0983 41.602C23.8423 41.639 23.4413 41.639 23.3683 41.419C23.2953 41.199 23.5503 41.054 23.7333 41.019C24.2719 40.9017 24.7456 40.5833 25.0576 40.1288C25.3696 39.6742 25.4965 39.1178 25.4123 38.573C25.4123 38.39 25.4853 38.173 25.6673 38.208C25.9233 38.281 25.9963 38.61 26.0693 38.865Z" fill="#9E765D"/>
<path d="M30.9962 22.659C31.0322 22.696 31.0322 22.732 31.0322 22.805C31.0296 22.8469 31.0186 22.8879 30.9998 22.9255C30.9811 22.9631 30.9551 22.9966 30.9232 23.024L30.7402 23.207C29.7734 23.1339 28.8181 22.95 27.8932 22.659C27.7472 22.623 27.5642 22.549 27.4192 22.513C27.2661 22.4443 27.1384 22.3292 27.0542 22.184V22.001C27.8209 21.125 28.2955 20.5773 28.4782 20.358C28.9451 19.8004 29.3605 19.2016 29.7192 18.569C29.5227 18.4483 29.2914 18.3969 29.0622 18.423C28.8535 18.4293 28.6457 18.4537 28.4412 18.496C28.2222 18.532 28.0412 18.532 27.8202 18.569C27.6596 18.5626 27.5003 18.5381 27.3452 18.496C27.1632 18.386 27.0532 18.277 27.0532 18.131C27.0532 18.094 27.0892 18.021 27.0892 17.985C27.3311 17.8075 27.6315 17.7292 27.9292 17.766H28.2942C28.4534 17.7722 28.6128 17.7601 28.7692 17.73C29.0372 17.7363 29.3045 17.7607 29.5692 17.803C29.8286 17.8328 30.078 17.9202 30.2992 18.059C30.3733 18.1066 30.4351 18.1712 30.4794 18.2473C30.5238 18.3234 30.5494 18.409 30.5542 18.497C30.5542 18.57 30.5542 18.607 30.5182 18.643C30.2581 19.2673 29.9007 19.8465 29.4592 20.359C29.0212 20.87 28.5832 21.418 28.1452 21.892C28.9832 22.1424 29.8367 22.3375 30.7002 22.476C30.8542 22.44 30.9232 22.549 30.9962 22.659Z" fill="white"/>
<path d="M35.9969 20.25V20.323C35.9964 20.3512 35.9895 20.379 35.9769 20.4042C35.9643 20.4295 35.9462 20.4516 35.9239 20.469L35.7779 20.615C35.0972 20.5676 34.4238 20.4452 33.7699 20.25L33.4419 20.14C33.3334 20.0995 33.2427 20.0219 33.1859 19.921V19.775C33.5363 19.4045 33.8655 19.0146 34.1719 18.607C34.4964 18.2172 34.7893 17.8022 35.0479 17.366C34.9009 17.2911 34.7378 17.2533 34.5729 17.256C34.4269 17.256 34.2809 17.293 34.1349 17.293C33.991 17.3234 33.8439 17.3358 33.6969 17.33C33.5859 17.3358 33.4748 17.3233 33.3679 17.293C33.2219 17.22 33.1489 17.147 33.1489 17.037C33.1489 17 33.1489 16.964 33.1849 16.964C33.3563 16.848 33.5631 16.7963 33.7689 16.818H34.0249C34.1355 16.824 34.2463 16.8119 34.3529 16.782C34.5349 16.782 34.7179 16.818 34.9369 16.818C35.1328 16.8284 35.3221 16.8916 35.4849 17.001C35.541 17.0355 35.5872 17.084 35.619 17.1416C35.6509 17.1992 35.6674 17.2641 35.6669 17.33C35.6694 17.3499 35.6674 17.3702 35.6609 17.3892C35.6545 17.4082 35.6439 17.4256 35.6299 17.44C35.4436 17.872 35.1979 18.2759 34.8999 18.64C34.5709 19.005 34.2789 19.37 33.9509 19.74C34.5457 19.9291 35.1566 20.063 35.7759 20.14C35.7973 20.1289 35.821 20.1231 35.845 20.1229C35.869 20.1227 35.8928 20.1282 35.9143 20.1389C35.9358 20.1497 35.9545 20.1653 35.9689 20.1846C35.9832 20.2039 35.9928 20.2263 35.9969 20.25Z" fill="white"/>
</svg>
