<svg width="276" height="209" viewBox="0 0 276 209" fill="none" xmlns="http://www.w3.org/2000/svg">
<path opacity="0.38" d="M143.37 180.726C193.127 180.726 233.463 140.39 233.463 90.633C233.463 40.8761 193.127 0.540039 143.37 0.540039C93.613 0.540039 53.277 40.8761 53.277 90.633C53.277 140.39 93.613 180.726 143.37 180.726Z" fill="white"/>
<path d="M46.396 63.5432L64.028 61.8232C65.748 61.8232 93.916 72.5742 93.916 72.5742L107.892 81.1742C107.892 81.1742 107.032 72.5742 108.752 71.7132L115.203 68.4882L124.662 70.8542L130.898 77.7352L134.123 89.1352L130.038 102.251L135.844 114.292C135.844 114.292 142.08 111.067 144.875 109.777C147.67 108.487 182.288 85.2652 184.223 85.2652C186.158 85.2652 200.134 81.6102 203.79 81.6102C207.446 81.6102 224.217 84.1902 224.217 84.1902L236.903 93.6512L245.074 110.422L246.794 135.579L249.374 140.309L260.774 145.254L272.174 163.961L272.604 181.593C272.604 181.593 265.723 185.893 264.004 185.463C262.285 185.033 250.662 179.438 250.662 179.438L244.862 177.723L234.756 186.754L220.78 194.71C220.78 194.71 205.08 198.365 203.148 198.365C201.216 198.365 185.517 196.86 185.517 196.86C185.517 196.86 176.486 188.904 175.196 187.614C173.906 186.324 171.971 179.443 170.896 179.014C169.821 178.585 164.875 176.434 164.875 176.434L161.65 177.939L163.37 189.12L155.199 200.301L149.824 204.601L136.278 206.321L130.257 205.246L121.226 202.666L113.055 202.236C111.47 202.2 109.89 202.056 108.324 201.806C106.819 201.376 103.594 197.076 101.873 197.076H91.762C90.042 197.076 81.011 197.721 81.011 197.721L56.711 190.621L36.29 180.513L16.938 164.813L5.11203 146.11L2.96204 120.31L9.41304 98.1632L20.162 78.8092L38.869 68.7032L46.396 63.5432Z" fill="white"/>
<path d="M104.237 75.3681C105.312 65.4771 113.913 62.6821 121.869 67.1971C133.05 73.6481 137.78 88.6971 131.33 99.8801C130.254 101.817 136.278 110.631 136.278 110.631C147.346 105.215 157.86 98.7337 167.671 91.2791C181.432 81.1731 196.914 75.5791 214.545 78.8081C223.721 80.3863 232.031 85.1906 237.978 92.3551C242.599 98.2907 245.939 105.119 247.79 112.41C249.64 119.701 249.96 127.296 248.729 134.717L253.889 137.082C266.36 142.887 276.466 161.164 275.176 175.355C274.961 181.376 273.026 186.321 267.435 188.255C260.769 190.62 254.319 187.395 249.803 183.095C245.287 178.795 245.933 179.225 240.772 184.17C227.202 195.89 209.66 201.968 191.748 201.157C187.822 200.818 184.024 199.598 180.636 197.587C177.247 195.576 174.356 192.826 172.178 189.543C170.318 186.755 168.87 183.713 167.878 180.512C167.448 179.437 165.943 179.652 165.078 179.652C165.748 183.66 165.432 187.77 164.159 191.629C162.885 195.487 160.691 198.978 157.767 201.799C150.667 208.465 138.415 210.399 128.094 206.314C124.327 204.599 120.168 203.931 116.053 204.379C112.967 205.052 109.763 204.953 106.725 204.091C103.687 203.228 100.908 201.628 98.637 199.434C88.566 202.222 77.8359 201.385 68.319 197.069C56.278 191.264 10.479 184.169 1.44802 137.724C-3.92198 109.771 6.61802 93.6451 16.078 82.0341C24.894 71.2831 34.785 63.3271 53.061 60.5341C64.461 58.8141 81.444 60.7491 93.054 67.8451C96.9278 70.1283 100.662 72.6405 104.237 75.3681ZM33.711 73.8631C23.9794 80.7241 16.3779 90.1884 11.778 101.171C8.16236 109.047 6.34442 117.628 6.45598 126.294C6.56754 134.959 8.60581 143.491 12.423 151.271C17.8776 163.595 27.458 173.632 39.515 179.654C49.822 184.601 60.4543 188.84 71.338 192.34C88.538 198.361 104.021 194.705 117.352 183.309C126.194 175.3 132.414 164.81 135.199 153.209C139.929 134.717 137.134 116.226 122.299 101.174C114.343 93.0031 106.173 84.8331 97.572 77.3071C83.811 65.6961 54.138 60.1071 33.711 73.8671V73.8631ZM186.159 133.208C186.589 132.993 187.234 132.993 187.449 133.423C187.554 133.583 187.61 133.769 187.61 133.961C187.61 134.152 187.554 134.339 187.449 134.498C182.934 139.873 176.049 148.474 173.258 159.87C169.818 173.201 171.968 185.242 181.429 191.693C187.304 195.42 194.365 196.802 201.211 195.563C220.348 192.763 237.119 185.027 248.511 168.471C250.446 165.671 251.311 162.665 252.596 164.816C253.456 166.321 252.166 169.116 251.306 171.052C249.156 175.567 249.371 175.997 254.106 179.652C263.782 186.963 269.372 181.587 270.017 175.997C270.521 170.147 269.545 164.264 267.178 158.89C264.81 153.517 261.128 148.825 256.471 145.249C251.526 141.379 248.085 142.239 243.355 146.754C237.851 152.506 231.372 157.238 224.218 160.73C224.12 160.777 224.013 160.804 223.904 160.807C223.795 160.811 223.687 160.792 223.586 160.752C223.485 160.711 223.393 160.65 223.317 160.572C223.241 160.495 223.181 160.402 223.143 160.3C223.111 159.997 223.187 159.692 223.358 159.44C224.391 158.695 225.331 157.829 226.158 156.86C234.114 148.689 242.93 140.734 243.358 128.26C243.355 123.501 242.924 118.751 242.068 114.069C240.709 106.052 236.714 98.7168 230.716 93.2255C224.719 87.7341 217.061 84.4001 208.955 83.7511C194.334 82.8911 181.217 88.4811 168.961 96.8671C156.275 105.898 147.244 112.133 138.643 116.004C139.922 118.728 140.792 121.626 141.223 124.604C144.619 141.403 141.465 158.864 132.407 173.413C133.616 173.198 134.853 173.198 136.062 173.413C137.548 173.539 138.979 174.038 140.22 174.865C141.462 175.692 142.474 176.82 143.162 178.143C144.452 181.798 141.012 178.788 137.786 177.928C135.641 177.294 133.358 177.302 131.218 177.952C129.078 178.601 127.175 179.864 125.745 181.583C121.377 186.346 116.3 190.408 110.694 193.624C108.622 194.668 106.464 195.531 104.243 196.204C104.458 198.139 107.898 199.214 111.124 199.644C113.21 199.93 115.333 199.784 117.36 199.214C117.79 197.494 114.135 197.279 116.07 195.344C118.005 193.409 125.531 199.214 127.896 200.504C134.996 205.234 147.678 204.374 153.483 199.429C162.299 191.903 162.729 181.797 155.848 172.337C152.783 168.588 148.977 165.513 144.667 163.306C143.377 162.661 139.937 160.726 142.087 159.006C142.947 158.361 145.312 159.221 146.602 159.866C152.689 162.214 157.932 166.334 161.653 171.692C162.314 172.756 163.294 173.583 164.453 174.057C166.818 174.917 166.173 172.122 166.173 170.832C166.818 153.2 177.139 139.224 186.173 133.204L186.159 133.208ZM115.203 86.5491C114.811 84.7034 114.524 82.8371 114.343 80.9591C114.343 79.4541 114.558 77.5191 116.063 77.7341C117.138 77.7341 117.568 79.4541 117.783 80.5341C119.718 88.9201 124.234 96.2341 125.524 96.0151C126.09 95.9603 126.63 95.7508 127.085 95.4095C127.541 95.0682 127.893 94.6082 128.104 94.0801C131.759 86.5541 125.094 72.3631 117.138 70.6431C115.627 70.3455 114.06 70.5399 112.666 71.1976C111.273 71.8553 110.128 72.9419 109.397 74.2981C108.107 78.1641 110.257 83.3241 115.203 86.5491Z" fill="#9E765D"/>
<path d="M43.171 108.695C46.4234 108.716 49.5948 109.711 52.2772 111.55C54.9595 113.39 57.03 115.99 58.222 119.016C59.6104 122.151 60.0247 125.632 59.4114 129.006C58.798 132.38 57.1852 135.492 54.782 137.938C52.6855 139.844 50.3766 141.504 47.901 142.883C47.721 142.996 47.5189 143.069 47.3082 143.098C47.0976 143.126 46.8832 143.109 46.6796 143.048C46.476 142.987 46.2878 142.883 46.1277 142.744C45.9675 142.604 45.8391 142.431 45.751 142.238C45.536 142.023 45.536 141.808 45.536 141.378C45.5276 139.251 44.9324 137.167 43.816 135.357C42.311 133.207 39.946 133.207 37.58 133.422L32.42 134.067C22.744 134.282 14.788 126.541 19.089 115.36C18.9657 119.147 20.3418 122.829 22.9184 125.607C25.4949 128.385 29.0637 130.033 32.849 130.195C34.2917 130.169 35.7298 130.025 37.149 129.765C42.739 128.475 47.9 131.055 48.76 137.506C59.512 130.627 56.287 116.006 43.171 108.695Z" fill="#9E765D"/>
<path d="M93.056 138.798C91.336 139.013 89.401 139.013 88.541 137.293C87.681 135.573 89.401 133.853 91.766 133.208C96.926 131.703 98.432 128.048 98.002 123.102C97.787 121.382 97.572 119.017 99.292 118.372C101.657 117.512 102.732 120.307 103.162 122.027C105.527 129.552 102.302 137.078 93.056 138.798Z" fill="#9E765D"/>
<path d="M77.3601 165.459C78.2201 172.34 74.1351 176.859 67.6841 179.005C65.9641 179.65 63.5991 179.865 62.9541 177.93C62.3091 175.995 63.8141 175.13 65.5341 174.275C67.5179 173.521 69.2114 172.158 70.3706 170.38C71.5299 168.603 72.0952 166.503 71.9851 164.384C71.9851 162.879 71.5551 160.514 74.1351 160.514C75.8551 160.299 76.9301 163.308 77.3601 165.459Z" fill="#9E765D"/>
<path d="M118.213 158.794C118.59 160.517 118.622 162.298 118.306 164.033C117.99 165.768 117.333 167.424 116.373 168.904C115.413 170.383 114.169 171.658 112.714 172.654C111.258 173.65 109.619 174.347 107.892 174.705C107.462 174.705 107.032 174.92 106.602 174.92C105.097 175.135 102.732 175.135 102.302 173.845C101.872 172.555 103.377 171.695 104.452 171.48C110.258 169.76 114.773 165.89 114.343 157.074C114.343 155.999 114.773 154.709 115.848 154.924C117.353 155.354 117.783 157.289 118.213 158.794Z" fill="#9E765D"/>
<path d="M147.24 63.3259C147.455 63.5409 147.455 63.7559 147.455 64.1859C147.439 64.433 147.374 64.6745 147.263 64.896C147.152 65.1175 146.998 65.3147 146.81 65.4758L145.735 66.5508C140.04 66.1213 134.412 65.0393 128.964 63.3259C128.104 63.1109 127.029 62.6809 126.164 62.4659C125.262 62.0625 124.51 61.3855 124.014 60.5308V59.4548C128.529 54.2942 131.325 51.0689 132.4 49.7789C135.153 46.4954 137.602 42.9689 139.718 39.2429C138.56 38.5317 137.198 38.2289 135.848 38.3829C134.62 38.4199 133.397 38.5638 132.193 38.8129C130.903 39.0279 129.828 39.0279 128.538 39.2429C127.591 39.2054 126.652 39.0611 125.738 38.8129C124.663 38.1679 124.018 37.5229 124.018 36.6629C124.018 36.4479 124.233 36.0179 124.233 35.8029C125.657 34.7583 127.426 34.2969 129.178 34.5129H131.328C132.267 34.5487 133.206 34.4765 134.128 34.2979C135.713 34.3344 137.293 34.4781 138.858 34.7279C140.386 34.9024 141.855 35.4167 143.158 36.2329C143.595 36.513 143.96 36.893 144.221 37.3415C144.483 37.7901 144.634 38.2944 144.663 38.8129C144.663 39.2429 144.663 39.4579 144.448 39.6729C142.916 43.3496 140.811 46.7605 138.212 49.7789C135.632 52.7889 133.052 56.0149 130.471 58.8099C135.407 60.2851 140.435 61.4343 145.522 62.2499C146.38 62.0349 146.81 62.6799 147.24 63.3259Z" fill="white"/>
<path d="M176.698 49.135V49.565C176.695 49.7313 176.655 49.8949 176.58 50.0436C176.506 50.1924 176.399 50.3227 176.268 50.425L175.408 51.285C171.399 51.0057 167.433 50.2847 163.582 49.135L161.647 48.49C161.009 48.2508 160.476 47.7939 160.142 47.2V46.34C162.205 44.1576 164.144 41.8603 165.948 39.459C167.86 37.163 169.586 34.7182 171.109 32.148C170.242 31.7076 169.281 31.4861 168.309 31.503C167.449 31.503 166.589 31.718 165.729 31.718C164.881 31.8961 164.015 31.9684 163.149 31.933C162.497 31.968 161.843 31.8954 161.214 31.718C160.354 31.288 159.924 30.858 159.924 30.213C159.924 29.998 159.924 29.783 160.139 29.783C161.148 29.0999 162.367 28.7953 163.579 28.923H165.084C165.739 28.9589 166.396 28.8863 167.027 28.708C168.102 28.708 169.177 28.923 170.467 28.923C171.619 28.9841 172.734 29.3555 173.692 29.998C174.022 30.2011 174.295 30.4858 174.483 30.8247C174.671 31.1636 174.769 31.5453 174.767 31.933C174.781 32.0497 174.77 32.1682 174.732 32.2798C174.695 32.3914 174.634 32.4933 174.552 32.578C173.457 35.1339 172.01 37.5237 170.252 39.678C168.317 41.828 166.597 43.978 164.661 46.129C168.164 47.2459 171.763 48.0375 175.412 48.494C175.537 48.4319 175.674 48.3996 175.813 48.3996C175.953 48.3997 176.09 48.432 176.215 48.4942C176.339 48.5563 176.448 48.6465 176.532 48.7577C176.616 48.8689 176.672 48.9981 176.698 49.135Z" fill="white"/>
</svg>
