<svg width="1920" height="31" viewBox="0 0 1920 31" fill="none" xmlns="http://www.w3.org/2000/svg">
<path d="M1861.81 30.02H320.913V0C340.113 0.742 344.15 11.477 358.439 16.066C363.494 17.8209 368.769 18.8642 374.112 19.166C379.455 18.8642 384.73 17.8209 389.785 16.066C404.074 11.477 408.115 0.742 427.312 0C446.512 0.742 450.55 11.477 464.838 16.066C469.893 17.821 475.168 18.8644 480.511 19.166C485.854 18.8643 491.129 17.821 496.184 16.066C510.473 11.477 514.515 0.742 533.711 0C552.911 0.742 556.949 11.477 571.237 16.066C576.292 17.8209 581.567 18.8642 586.91 19.166C592.253 18.8642 597.528 17.8209 602.583 16.066C616.873 11.477 620.913 0.742 640.11 0C659.31 0.742 663.347 11.477 677.637 16.066C681.453 17.3327 685.373 18.2577 689.353 18.83V18.749C689.61 18.8252 689.871 18.8847 690.135 18.927C691.36 19.0723 692.592 19.1551 693.826 19.175C695.06 19.1551 696.292 19.0723 697.517 18.927C697.781 18.8847 698.042 18.8252 698.298 18.749V18.83C702.278 18.2577 706.198 17.3327 710.014 16.066C724.3 11.477 728.346 0.742 747.543 0C766.743 0.742 770.781 11.477 785.069 16.066C790.124 17.821 795.399 18.8643 800.742 19.166C806.085 18.8643 811.36 17.821 816.415 16.066C830.7 11.477 834.745 0.742 853.942 0C873.142 0.742 877.18 11.477 891.468 16.066C896.523 17.8209 901.798 18.8642 907.141 19.166C912.484 18.8643 917.759 17.8209 922.814 16.066C937.1 11.477 941.144 0.742 960.341 0C979.541 0.742 983.579 11.477 997.868 16.066C1002.92 17.8209 1008.2 18.8642 1013.54 19.166C1018.88 18.8642 1024.16 17.8209 1029.21 16.066C1043.5 11.477 1047.54 0.742 1066.74 0C1085.94 0.742 1089.98 11.477 1104.27 16.066C1108.08 17.3327 1112 18.2577 1115.98 18.83V18.749C1116.24 18.8252 1116.5 18.8847 1116.76 18.927C1117.99 19.0723 1119.22 19.1551 1120.45 19.175C1121.69 19.1551 1122.92 19.0723 1124.15 18.927C1124.41 18.8844 1124.67 18.8246 1124.93 18.748V18.829C1128.91 18.2567 1132.83 17.3317 1136.65 16.065C1150.93 11.477 1154.97 0.742 1174.17 0C1193.37 0.742 1197.41 11.477 1211.7 16.066C1216.75 17.8209 1222.03 18.8642 1227.37 19.166C1232.71 18.8642 1237.99 17.8209 1243.04 16.066C1257.33 11.477 1261.38 0.742 1280.57 0C1299.77 0.742 1303.81 11.477 1318.1 16.066C1323.15 17.8209 1328.43 18.8642 1333.77 19.166C1339.11 18.8642 1344.39 17.8209 1349.44 16.066C1363.73 11.477 1367.77 0.742 1386.97 0C1406.17 0.742 1410.21 11.477 1424.5 16.066C1429.55 17.8209 1434.83 18.8642 1440.17 19.166C1445.51 18.8642 1450.79 17.8209 1455.84 16.066C1470.13 11.477 1474.17 0.742 1493.37 0C1512.57 0.742 1516.61 11.477 1530.9 16.066C1535.95 17.8209 1541.23 18.8642 1546.57 19.166C1551.91 18.8642 1557.19 17.8209 1562.24 16.066C1576.53 11.477 1580.57 0.742 1599.77 0C1618.97 0.742 1623.01 11.477 1637.3 16.066C1642.35 17.8209 1647.63 18.8642 1652.97 19.166C1658.31 18.8643 1663.59 17.8209 1668.64 16.066C1682.93 11.477 1686.97 0.742 1706.17 0C1725.37 0.742 1729.41 11.477 1743.69 16.066C1747.51 17.3327 1751.43 18.2577 1755.41 18.83V18.749C1755.67 18.8252 1755.93 18.8847 1756.19 18.927C1757.42 19.0724 1758.65 19.1551 1759.88 19.175C1761.12 19.1548 1762.35 19.0717 1763.58 18.926C1763.84 18.8836 1764.1 18.8242 1764.36 18.748V18.829C1768.34 18.2566 1772.26 17.3316 1776.07 16.065C1790.36 11.477 1794.4 0.742 1813.6 0C1832.8 0.742 1836.84 11.477 1851.13 16.066C1856.18 17.8209 1861.46 18.8642 1866.8 19.166C1872.14 18.8642 1877.42 17.8209 1882.47 16.066C1896.76 11.477 1900.8 0.742 1920 0V30.02H1861.81ZM262.723 30.02H0V0C19.2 0.742 23.238 11.477 37.526 16.066C41.2303 17.2926 45.0324 18.2012 48.891 18.782V18.749C48.891 18.749 48.971 18.776 49.137 18.816C50.5956 19.0196 52.0647 19.1388 53.537 19.173C55.0093 19.1388 56.4784 19.0196 57.937 18.816C58.102 18.776 58.183 18.749 58.183 18.749V18.782C62.0416 18.2012 65.8437 17.2925 69.548 16.066C83.843 11.477 87.884 0.742 107.081 0C126.281 0.742 130.319 11.477 144.607 16.066C149.662 17.8209 154.937 18.8642 160.28 19.166C165.623 18.8642 170.898 17.8209 175.953 16.066C190.243 11.477 194.284 0.742 213.48 0C232.68 0.742 236.718 11.477 251.006 16.066C254.822 17.3327 258.743 18.2577 262.723 18.83V18.749C262.979 18.8256 263.241 18.8854 263.505 18.928C264.73 19.0733 265.962 19.1561 267.196 19.176C268.43 19.1561 269.662 19.0733 270.887 18.928C271.151 18.8857 271.412 18.8262 271.669 18.75V18.831C275.649 18.2587 279.569 17.3337 283.385 16.067C297.675 11.477 301.716 0.742 320.912 0V30.02H262.723Z" fill="#947761"/>
</svg>
