<svg width="375" height="12" viewBox="0 0 375 12" fill="none" xmlns="http://www.w3.org/2000/svg">
<path d="M335.649 6.45905C333.566 7.15618 331.399 7.5699 329.206 7.68905C327.013 7.5699 324.846 7.15618 322.763 6.45905C316.888 4.63805 315.226 0.376055 307.334 0.0810547C299.442 0.376055 297.781 4.63805 291.905 6.45905C290.334 6.96333 288.722 7.33136 287.088 7.55905V7.52505C286.984 7.55495 286.879 7.57832 286.772 7.59505C286.182 7.66105 285.672 7.68905 285.249 7.69505C284.826 7.70105 284.316 7.66205 283.726 7.59505C283.619 7.57832 283.514 7.55495 283.41 7.52505V7.55705C281.776 7.32936 280.164 6.96133 278.593 6.45705C272.719 4.63805 271.058 0.376055 263.166 0.0810547C255.274 0.376055 253.612 4.63805 247.737 6.45905C245.654 7.15618 243.487 7.5699 241.294 7.68905C239.101 7.5699 236.934 7.15618 234.851 6.45905C228.976 4.63805 227.315 0.376055 219.422 0.0810547C211.53 0.376055 209.869 4.63805 203.993 6.45905C201.91 7.15618 199.743 7.5699 197.55 7.68905C195.357 7.5699 193.19 7.15618 191.107 6.45905C185.233 4.63805 183.571 0.376055 175.678 0.0810547C167.786 0.376055 166.125 4.63805 160.25 6.45905C158.167 7.15626 155.999 7.56997 153.806 7.68905C151.613 7.56996 149.445 7.15625 147.362 6.45905C141.489 4.63805 139.828 0.376055 131.936 0.0810547C124.044 0.376055 122.382 4.63805 116.507 6.45905C114.936 6.96333 113.324 7.33136 111.69 7.55905V7.52505C111.586 7.55495 111.481 7.57833 111.374 7.59505C110.785 7.66105 110.274 7.68905 109.851 7.69505C109.428 7.70105 108.918 7.66205 108.328 7.59505C108.221 7.57833 108.116 7.55495 108.012 7.52505V7.55705C106.378 7.32936 104.766 6.96133 103.195 6.45705C97.321 4.63805 95.659 0.376055 87.767 0.0810547C79.875 0.376055 78.214 4.63805 72.339 6.45905C70.2575 7.15615 68.0918 7.57019 65.9 7.69005C63.7066 7.57096 61.5391 7.15725 59.456 6.46005C53.577 4.63805 51.916 0.376055 44.024 0.0810547C36.132 0.376055 34.47 4.63805 28.6 6.45905C27.075 6.94634 25.5123 7.3069 23.928 7.53705V7.52505C23.928 7.52505 23.896 7.53505 23.828 7.55105C23.2265 7.63218 22.6208 7.67959 22.014 7.69305C21.4072 7.67956 20.8015 7.63216 20.2 7.55105C20.134 7.53505 20.1 7.52505 20.1 7.52505V7.53805C18.5153 7.30764 16.9523 6.94674 15.427 6.45905C9.553 4.63805 7.892 0.376055 0 0.0810547V12.0001H375V7.52505C375 7.52505 372.518 8.32505 366.505 6.45905C360.631 4.63805 358.97 0.376055 351.078 0.0810547C343.185 0.376055 341.523 4.63805 335.649 6.45905Z" fill="#947761"/>
</svg>
