<svg width="336" height="140" viewBox="0 0 336 140" fill="none" xmlns="http://www.w3.org/2000/svg">
<path d="M48.843 125.141C61.216 125.141 68.452 116.096 68.452 104.664C68.452 89.831 51.452 88.311 51.452 77.386C51.452 68.414 61.22 59.514 70.265 59.514C73.376 59.514 72.865 63.494 72.865 63.494C72.0501 63.2234 71.1879 63.125 70.333 63.205C64.544 63.205 57.019 69.536 57.019 77.605C57.019 87.554 73.95 90.991 73.95 104.666C73.95 115.881 63.531 127.024 48.842 127.024C28.365 127.024 36.976 102.133 53.364 102.133C54.0532 102.131 54.7172 102.392 55.2211 102.863C55.725 103.333 56.031 103.977 56.077 104.665C41.987 104.664 33.738 125.141 48.843 125.141ZM71.798 77.783C71.798 68.015 74.186 61.43 77.876 61.43C78.1103 61.4291 78.3424 61.4758 78.5581 61.5674C78.7738 61.6589 78.9686 61.7934 79.1307 61.9626C79.2928 62.1318 79.4188 62.3323 79.501 62.5517C79.5832 62.7711 79.62 63.005 79.609 63.239C79.609 63.239 74.327 68.232 74.327 78.506C74.33 79.122 71.798 78.905 71.798 77.783Z" fill="#9E765E"/>
<path d="M95.097 119.063C94.88 119.569 92.13 126.082 87.861 126.082C81.928 126.082 79.721 119.063 79.721 109.874C79.721 88.239 89.272 59.514 94.554 59.514C95.454 59.514 95.784 60.021 95.784 60.961C95.784 60.961 84.026 88.891 84.026 112.913C84.026 118.846 85.473 123.694 88.226 123.694C90.686 123.694 92.926 120.51 93.58 119.063C93.867 118.267 95.242 118.484 95.097 119.063Z" fill="#9E765E"/>
<path d="M111.017 82.233C100.091 82.233 91.408 115.3 103.637 115.3C108.774 115.3 111.886 109.367 111.886 109.367C111.886 109.367 112.175 108.788 113.261 108.788C114.347 108.788 114.161 109.367 114.161 109.367C114.161 109.367 110.109 117.833 103.018 117.833C83.699 117.833 94.118 80.425 111.556 80.425C122.12 80.425 116.404 101.336 103.416 101.336C101.028 101.336 100.522 99.8891 100.522 99.8891C110.074 99.8881 117.31 82.233 111.017 82.233Z" fill="#9E765E"/>
<path d="M135.544 82.233C124.618 82.233 115.935 115.3 128.164 115.3C133.301 115.3 136.413 109.367 136.413 109.367C136.413 109.367 136.702 108.788 137.788 108.788C138.874 108.788 138.688 109.367 138.688 109.367C138.688 109.367 134.636 117.833 127.545 117.833C108.226 117.833 118.645 80.425 136.083 80.425C146.647 80.425 140.931 101.336 127.943 101.336C125.555 101.336 125.049 99.8891 125.049 99.8891C134.603 99.8881 141.839 82.233 135.544 82.233Z" fill="#9E765E"/>
<path d="M143.205 109.223C143.784 104.954 144.435 100.613 145.448 96.3439C148.921 80.4259 152.982 71.924 156.012 71.924C156.812 71.924 157.17 72.286 157.17 73.299C157.17 73.299 153.706 82.4879 150.007 96.5989C149.862 97.1779 149.573 98.2629 149.573 98.2629H150.473C154.453 89.5799 160.105 80.3189 166.03 80.3189C179.136 80.3189 171.249 115.593 158.297 115.593C149.316 115.593 154.091 98.7339 160.251 94.3929C160.821 94.0309 161.689 94.8269 161.264 95.1929C155.394 99.8239 153.364 113.282 157.646 113.282C163.977 113.282 173.022 82.8199 165.388 82.8199C157.365 82.8199 147.154 110.75 146.394 115.815C144.802 126.234 142.776 139.991 135.83 139.991C125.984 139.911 140.238 114.577 143.205 109.223ZM142.771 113.275C138.502 121.675 131.149 137.475 135.897 137.475C140.383 137.475 141.251 126.441 142.771 113.275Z" fill="#9E765E"/>
<path d="M200.44 125.141C212.813 125.141 220.049 116.096 220.049 104.664C220.049 89.831 203.049 88.311 203.049 77.386C203.049 68.414 212.817 59.514 221.862 59.514C224.973 59.514 224.462 63.494 224.462 63.494C223.647 63.2234 222.785 63.125 221.93 63.205C216.141 63.205 208.616 69.536 208.616 77.605C208.616 87.554 225.547 90.991 225.547 104.666C225.547 115.881 215.128 127.024 200.439 127.024C179.962 127.024 188.572 102.133 204.961 102.133C205.65 102.131 206.314 102.392 206.818 102.863C207.322 103.333 207.628 103.977 207.674 104.665C193.557 104.664 185.317 125.141 200.44 125.141ZM223.404 77.783C223.404 68.015 225.792 61.43 229.482 61.43C229.717 61.4286 229.949 61.4749 230.165 61.5662C230.381 61.6575 230.577 61.7919 230.739 61.9612C230.902 62.1304 231.028 62.331 231.111 62.5507C231.193 62.7704 231.23 63.0046 231.219 63.239C231.219 63.239 225.937 68.232 225.937 78.506C225.909 79.122 223.404 78.905 223.404 77.783Z" fill="#9E765E"/>
<path d="M247.182 82.233C236.256 82.233 227.573 115.3 239.802 115.3C244.939 115.3 248.051 109.367 248.051 109.367C248.051 109.367 248.34 108.788 249.426 108.788C250.512 108.788 250.326 109.367 250.326 109.367C250.326 109.367 246.274 117.833 239.183 117.833C219.864 117.833 230.283 80.425 247.721 80.425C258.285 80.425 252.569 101.336 239.581 101.336C237.193 101.336 236.687 99.8891 236.687 99.8891C246.241 99.8881 253.477 82.233 247.182 82.233Z" fill="#9E765E"/>
<path d="M281.112 79.592C281.112 79.592 276.698 84.114 276.698 94.208C276.698 94.57 276.553 94.787 276.336 94.787C273.08 94.787 272.863 87.262 274.889 82.414C267.87 88.564 257.813 109.258 257.813 113.455C257.795 113.708 257.68 113.944 257.49 114.112C257.301 114.28 257.053 114.367 256.8 114.355C255.063 114.355 254.557 112.546 254.557 108.639C254.557 94.819 257.741 80.348 262.01 80.348C262.91 80.348 263.385 80.927 263.385 81.94C261.242 89.0189 259.645 96.2518 258.609 103.575H259.115C263.746 93.011 272.356 78.105 279.447 78.105C279.654 78.0915 279.862 78.1194 280.059 78.1871C280.255 78.2548 280.436 78.361 280.591 78.4994C280.746 78.6378 280.872 78.8057 280.962 78.9933C281.051 79.1809 281.102 79.3844 281.112 79.592Z" fill="#9E765E"/>
<path d="M287.123 81.872C288.281 81.872 288.787 82.596 288.787 83.681C288.787 83.681 282.347 100.181 282.347 114.433C282.349 114.573 282.322 114.712 282.268 114.84C282.213 114.969 282.132 115.085 282.03 115.181C281.927 115.276 281.806 115.349 281.674 115.395C281.542 115.44 281.401 115.458 281.262 115.446C279.962 115.446 279.308 113.492 279.308 109.368C279.308 95.873 282.347 81.872 287.123 81.872ZM292.55 68.305C292.55 70.186 289.004 75.105 289.004 75.105C286.472 75.105 287.34 66.639 291.104 66.639C292.144 66.603 292.551 67.182 292.551 68.267L292.55 68.305Z" fill="#9E765E"/>
<path d="M307.961 82.233C297.035 82.233 288.352 115.3 300.581 115.3C305.718 115.3 308.83 109.367 308.83 109.367C308.83 109.367 309.119 108.788 310.205 108.788C311.291 108.788 311.105 109.367 311.105 109.367C311.105 109.367 307.053 117.833 299.962 117.833C280.643 117.833 291.062 80.425 308.5 80.425C319.064 80.425 313.348 101.336 300.36 101.336C297.972 101.336 297.466 99.8891 297.466 99.8891C307.02 99.8881 314.256 82.233 307.961 82.233Z" fill="#9E765E"/>
<path d="M330.826 100.54C330.826 93.521 328.113 86.503 328.113 80.64C328.087 79.9614 328.135 79.282 328.258 78.614C324.712 84.403 320.805 93.737 314.872 102.275C314.365 102.926 312.629 101.841 312.991 101.375C322.542 87.41 327.824 70.623 334.481 70.623C335.639 70.623 336 71.274 336 71.923C336 74.383 330.863 76.445 330.863 83.283C330.863 88.999 335.063 98.478 335.063 105.283C335.063 113.966 329.347 120.55 323.486 120.55C311.113 120.55 319.145 98.698 327.249 93.633C328.049 93.127 328.407 95.008 327.828 95.37C321.099 99.205 315.528 118.162 322.474 118.162C326.195 118.122 330.826 111.321 330.826 100.54Z" fill="#9E765E"/>
<path d="M7.52703 83.029C7.52703 83.029 7.41803 83.535 6.69503 83.535C2.65203 83.535 2.43503 71.343 17.657 71.343C25.11 71.343 26.593 67.58 28.33 67.58C30.067 67.58 28.475 71.343 20.479 72.102C15.957 74.671 18.67 102.854 5.79103 102.854C-3.25397 102.854 -0.603972 87.37 6.22503 87.37C6.50149 87.3382 6.77958 87.4139 7.0018 87.5815C7.22403 87.749 7.37339 87.9954 7.41903 88.27C0.590027 88.27 -1.68897 101.62 5.28403 101.62C14.835 101.62 13.207 77.2 18.417 72.22H17.693C4.38803 72.212 4.88603 83.029 7.52703 83.029Z" fill="#9E765E"/>
<path d="M29.849 83.102C25.838 86.721 22.071 96.768 22.071 97.573C22.0756 97.6385 22.0655 97.7042 22.0416 97.7654C22.0176 97.8265 21.9804 97.8816 21.9325 97.9266C21.8847 97.9716 21.8274 98.0053 21.7649 98.0255C21.7024 98.0456 21.6361 98.0516 21.571 98.043C20.771 98.043 20.486 97.143 20.486 95.149C20.486 83.074 24.637 70.81 27.351 70.81C27.4295 70.7996 27.5093 70.8075 27.5843 70.8329C27.6592 70.8584 27.7273 70.9007 27.7833 70.9567C27.8393 71.0126 27.8816 71.0808 27.9071 71.1557C27.9325 71.2307 27.9404 71.3105 27.93 71.389C26.5168 74.7203 25.403 78.171 24.602 81.7C23.702 85.318 23.046 89.325 22.576 92.617H22.829C24.783 87.805 28.075 81.338 31.874 81.338C32.1193 81.3052 32.3689 81.3294 32.6033 81.4087C32.8377 81.4881 33.0507 81.6204 33.2256 81.7953C33.4006 81.9703 33.5329 82.1833 33.6122 82.4177C33.6916 82.6521 33.7158 82.9017 33.683 83.147C33.683 83.147 31.331 90.383 31.331 96.347C31.331 99.205 31.731 100.182 32.453 100.182C33.175 100.182 33.43 99.495 33.792 99.495C34.154 99.495 34.009 99.857 34.009 99.857C34.009 99.857 33.249 101.413 32.2 101.413C30.283 101.413 29.233 98.413 29.233 94.322C29.3061 90.619 29.8409 86.9395 30.825 83.369C30.938 82.777 30.428 82.596 29.849 83.102Z" fill="#9E765E"/>
<path d="M43.417 82.052C37.99 82.052 33.617 98.576 39.727 98.576C42.296 98.576 43.851 95.609 43.851 95.609C43.851 95.609 43.996 95.32 44.538 95.32C45.08 95.32 44.972 95.609 44.972 95.609C44.972 95.609 42.946 99.842 39.401 99.842C29.75 99.842 34.951 81.142 43.67 81.142C48.952 81.142 46.094 91.589 39.618 91.589C38.424 91.589 38.171 90.865 38.171 90.865C42.946 90.871 46.564 82.052 43.417 82.052Z" fill="#9E765E"/>
<path d="M139.352 58.988C155.641 58.988 168.846 45.7831 168.846 29.494C168.846 13.2049 155.641 0 139.352 0C123.063 0 109.858 13.2049 109.858 29.494C109.858 45.7831 123.063 58.988 139.352 58.988Z" fill="#B3DFD5"/>
<path d="M107.632 20.604L113.421 20.016C113.964 20.016 123.189 23.516 123.189 23.516L127.711 26.338C127.711 26.338 127.449 23.516 127.982 23.254L130.126 22.178L133.219 22.978L135.227 25.257L136.303 29.02L134.955 33.307L136.836 37.332C136.836 37.332 138.853 36.265 139.785 35.858C140.717 35.451 151.995 27.808 152.674 27.808C153.353 27.808 157.902 26.596 159.114 26.596C160.326 26.596 165.814 27.396 165.814 27.396L170.038 30.471L172.751 35.952L173.339 44.164L174.162 45.693L177.915 47.33L181.668 53.43L181.786 59.182C181.786 59.182 179.552 60.582 178.973 60.466C178.394 60.35 174.632 58.476 174.632 58.476L172.687 57.876L169.404 60.806L164.836 63.393C164.836 63.393 159.672 64.56 159.084 64.56C158.496 64.56 153.341 64.09 153.341 64.09C153.341 64.09 150.411 61.512 149.941 61.042C149.471 60.572 148.883 58.329 148.53 58.229C148.177 58.129 146.54 57.406 146.54 57.406L145.482 57.876L146.07 61.494L143.357 65.112L141.548 66.523L137.089 67.111L135.099 66.758L132.232 66.016L129.519 65.898C129.007 65.9015 128.495 65.8621 127.99 65.78C127.529 65.626 126.48 64.206 125.901 64.206H122.609C122.03 64.206 119.091 64.441 119.091 64.441L111.121 62.11L104.437 58.827L98.106 53.663L94.235 47.563L93.535 39.115L95.648 31.886L99.166 25.555L105.266 22.272L107.618 20.635" fill="white"/>
<path d="M126.536 24.484C126.898 21.264 129.674 20.351 132.288 21.843C134.073 22.8865 135.39 24.5753 135.967 26.5611C136.544 28.547 136.337 30.6785 135.388 32.516C135.017 33.158 136.998 35.998 136.998 35.998C140.618 34.2386 144.052 32.1174 147.245 29.667C151.767 26.375 156.845 24.503 162.576 25.624C165.574 26.1448 168.284 27.7277 170.21 30.083C171.727 32.0197 172.825 34.2509 173.434 36.6347C174.042 39.0186 174.148 41.503 173.745 43.93L175.445 44.699C179.545 46.571 182.807 52.568 182.418 57.217C182.373 59.225 181.713 60.835 179.895 61.477C177.724 62.237 175.617 61.215 174.106 59.759C172.595 58.303 172.806 58.493 171.13 60.13C166.695 63.9546 160.961 65.9297 155.112 65.647C153.831 65.5447 152.59 65.1518 151.484 64.4982C150.378 63.8446 149.435 62.9475 148.727 61.875C148.118 60.9547 147.643 59.9527 147.316 58.899C147.189 58.528 146.665 58.591 146.416 58.582C146.632 59.8923 146.526 61.2354 146.108 62.4959C145.69 63.7563 144.972 64.8964 144.016 65.818C141.71 67.998 137.685 68.613 134.338 67.318C133.11 66.7491 131.747 66.5361 130.404 66.703C129.39 66.919 128.339 66.8827 127.342 66.5973C126.345 66.3118 125.434 65.786 124.688 65.066C121.386 66.0132 117.853 65.7369 114.739 64.288C110.832 62.371 95.839 60.073 92.86 44.851C91.051 35.707 94.56 30.38 97.681 26.608C99.1171 24.6774 100.929 23.0573 103.008 21.8452C105.086 20.6331 107.388 19.8541 109.776 19.555C113.511 18.985 119.101 19.655 122.864 21.97C124.135 22.7366 125.361 23.576 126.536 24.484ZM103.481 24.005C100.286 26.2655 97.7811 29.3683 96.245 32.968C95.048 35.5378 94.4466 38.3447 94.4857 41.1794C94.5248 44.014 95.2035 46.8032 96.471 49.339C98.2552 53.3821 101.393 56.6766 105.345 58.655C108.738 60.2611 112.227 61.6567 115.791 62.834C118.328 63.7922 121.083 64.021 123.743 63.4945C126.404 62.9681 128.864 61.7073 130.845 59.855C133.761 57.2381 135.806 53.7914 136.706 49.978C138.225 43.936 137.306 37.858 132.518 32.956C129.937 30.2213 127.22 27.618 124.378 25.156C119.878 21.285 110.169 19.476 103.485 23.998L103.481 24.005ZM153.326 43.415C153.383 43.3704 153.455 43.349 153.528 43.3551C153.6 43.3613 153.668 43.3944 153.717 43.448C153.766 43.5016 153.793 43.5717 153.792 43.6443C153.792 43.717 153.764 43.7868 153.715 43.84C151.571 46.2289 149.983 49.0636 149.066 52.14C147.954 56.499 148.623 60.44 151.716 62.54C153.646 63.7603 155.963 64.2121 158.21 63.806C164.487 62.906 169.968 60.387 173.71 54.96C174.352 54.06 174.61 53.052 175.031 53.76C175.293 54.239 174.868 55.198 174.579 55.795C173.846 57.278 173.955 57.395 175.479 58.581C178.672 61.005 180.499 59.187 180.679 57.36C180.861 55.4468 180.549 53.5189 179.775 51.7599C179.001 50.0009 177.79 48.4693 176.256 47.311C174.619 46.072 173.497 46.411 171.978 47.799C170.178 49.6743 168.067 51.223 165.737 52.376C165.682 52.4078 165.617 52.417 165.555 52.4017C165.493 52.3864 165.44 52.3478 165.406 52.294C165.372 52.2402 165.36 52.1754 165.373 52.1131C165.386 52.0508 165.423 51.996 165.475 51.96C165.791 51.7041 166.092 51.4292 166.375 51.137C169.007 48.424 171.802 45.855 172.01 41.749C172.037 40.1821 171.891 38.6171 171.576 37.082C171.133 34.4519 169.825 32.0448 167.859 30.2425C165.893 28.4403 163.382 27.3459 160.723 27.133C155.938 26.825 151.678 28.643 147.645 31.438C143.466 34.368 140.554 36.431 137.696 37.67C138.124 38.566 138.405 39.5249 138.528 40.51C139.667 46.0252 138.641 51.7673 135.661 56.546C136.06 56.4991 136.462 56.4991 136.861 56.546C137.35 56.5898 137.82 56.7561 138.228 57.0296C138.636 57.3032 138.968 57.6751 139.194 58.111C139.646 59.278 138.461 58.355 137.439 58.111C136.732 57.8927 135.975 57.8915 135.267 58.1075C134.56 58.3236 133.933 58.747 133.468 59.323C132.032 60.8642 130.377 62.1866 128.557 63.248C127.87 63.5895 127.163 63.8901 126.441 64.148C126.531 64.754 127.653 65.143 128.675 65.242C129.351 65.3477 130.042 65.3075 130.701 65.124C130.81 64.545 129.661 64.473 130.267 63.84C130.873 63.207 133.387 65.07 134.12 65.558C136.454 67.114 140.587 66.806 142.486 65.187C145.362 62.718 145.498 59.387 143.286 56.35C142.303 55.1286 141.069 54.1325 139.668 53.429C139.216 53.176 138.103 52.57 138.809 52.036C139.098 51.828 139.831 52.117 140.309 52.298C142.305 53.0773 144.023 54.4337 145.245 56.194C145.449 56.5474 145.766 56.8216 146.145 56.972C146.896 57.261 146.724 56.339 146.745 55.932C146.826 53.4837 147.46 51.0855 148.6 48.9174C149.741 46.7493 151.357 44.8678 153.329 43.414L153.326 43.415ZM130.163 28.155C130.007 27.5642 129.922 26.9569 129.91 26.346C129.91 25.885 129.982 25.224 130.471 25.279C130.815 25.279 130.941 25.84 131.032 26.179C131.683 28.938 133.121 31.289 133.583 31.279C134.045 31.269 134.252 31.017 134.442 30.628C135.642 28.204 133.483 23.546 130.824 22.985C130.33 22.8693 129.812 22.9277 129.356 23.1501C128.901 23.3726 128.536 23.7456 128.324 24.206C127.845 25.425 128.489 27.134 130.163 28.155Z" fill="#9E765E"/>
<path d="M106.539 35.419C107.606 35.4271 108.648 35.7499 109.533 36.3468C110.417 36.9437 111.107 37.7884 111.514 38.775C111.965 39.806 112.095 40.949 111.887 42.055C111.678 43.1609 111.142 44.1785 110.347 44.975C109.669 45.6231 108.898 46.1659 108.059 46.585C107.979 46.6272 107.889 46.6478 107.798 46.6449C107.707 46.6419 107.619 46.6155 107.541 46.5681C107.464 46.5208 107.4 46.4541 107.356 46.3747C107.312 46.2953 107.289 46.2058 107.29 46.115C107.305 45.405 107.103 44.7073 106.711 44.115C106.471 43.8243 106.152 43.6103 105.791 43.4994C105.431 43.3885 105.047 43.3856 104.685 43.491C104.124 43.554 103.563 43.663 103.003 43.681C99.8279 43.735 97.2139 41.194 98.6529 37.549C98.6306 38.2838 98.7812 39.0136 99.0925 39.6795C99.4039 40.3455 99.8673 40.929 100.445 41.383C101.024 41.8371 101.7 42.1491 102.421 42.2937C103.142 42.4384 103.886 42.4118 104.595 42.216C105.014 42.0767 105.459 42.0352 105.896 42.0949C106.333 42.1545 106.751 42.3136 107.117 42.56C107.483 42.8064 107.788 43.1335 108.007 43.5161C108.227 43.8987 108.356 44.3267 108.385 44.767C111.884 42.582 110.881 37.759 106.539 35.419Z" fill="#9E765E"/>
<path d="M122.9 45.277C122.375 45.358 121.706 45.358 121.417 44.825C121.128 44.292 121.688 43.725 122.484 43.477C122.835 43.3975 123.167 43.2481 123.46 43.0378C123.753 42.8274 124 42.5603 124.187 42.2525C124.375 41.9446 124.498 41.6022 124.55 41.2457C124.603 40.8891 124.583 40.5257 124.492 40.177C124.429 39.643 124.32 38.838 124.908 38.639C125.668 38.386 126.008 39.299 126.174 39.824C126.393 40.3964 126.478 41.011 126.424 41.6214C126.371 42.2317 126.179 42.8219 125.863 43.3472C125.548 43.8726 125.117 44.3194 124.604 44.6539C124.091 44.9884 123.508 45.2008 122.9 45.277Z" fill="#9E765E"/>
<path d="M117.736 53.974C117.98 56.244 116.687 57.682 114.598 58.406C114.046 58.596 113.277 58.668 113.015 58.026C112.753 57.384 113.323 57.126 113.856 56.832C114.505 56.5848 115.06 56.1403 115.443 55.561C115.826 54.9817 116.018 54.2969 115.991 53.603C115.991 53.087 115.873 52.319 116.691 52.31C117.284 52.305 117.583 53.237 117.736 53.974Z" fill="#9E765E"/>
<path d="M131.149 51.798C131.277 52.3985 131.278 53.0191 131.152 53.62C131.026 54.221 130.776 54.7889 130.417 55.2872C130.059 55.7855 129.6 56.2033 129.07 56.5136C128.54 56.8239 127.951 57.0199 127.341 57.089C126.871 57.161 126.093 57.179 125.894 56.745C125.695 56.311 126.274 56.067 126.636 55.945C127.659 55.708 128.556 55.0965 129.15 54.231C129.744 53.3655 129.993 52.3087 129.847 51.269C129.847 50.916 129.974 50.5 130.363 50.564C130.752 50.628 130.986 51.292 131.149 51.798Z" fill="#9E765E"/>
<path d="M140.61 20.585C140.651 20.6631 140.672 20.7498 140.673 20.838C140.67 20.9135 140.651 20.9876 140.616 21.0548C140.582 21.122 140.533 21.1808 140.473 21.227L140.093 21.589C138.227 21.4239 136.382 21.0756 134.585 20.549C134.279 20.4623 133.978 20.3564 133.685 20.232C133.398 20.1137 133.159 19.9023 133.007 19.632C133.025 19.506 133.025 19.378 133.007 19.252C134.472 17.579 135.386 16.539 135.72 16.095C136.613 15.0236 137.406 13.8732 138.09 12.658C137.702 12.4554 137.271 12.3498 136.833 12.35C136.435 12.3642 136.039 12.4067 135.648 12.477C135.259 12.5463 134.866 12.5888 134.472 12.604C134.167 12.6075 133.863 12.5616 133.572 12.468C133.201 12.251 133.011 12.016 133.011 11.768C133.012 11.677 133.048 11.5899 133.111 11.524C133.584 11.1941 134.155 11.0347 134.73 11.072H135.43C135.732 11.0769 136.034 11.0467 136.33 10.982L137.886 11.118C138.398 11.1537 138.894 11.3118 139.333 11.579C139.489 11.6718 139.617 11.8037 139.706 11.9616C139.795 12.1195 139.841 12.2978 139.84 12.479C139.84 12.584 139.822 12.6883 139.786 12.787C139.273 13.9696 138.597 15.0746 137.778 16.07C136.928 17.07 136.078 18.078 135.227 19.064C136.853 19.5598 138.517 19.9226 140.202 20.149C140.329 20.16 140.474 20.305 140.61 20.585Z" fill="white"/>
<path d="M150.278 15.891C150.29 15.9507 150.29 16.0122 150.278 16.072C150.276 16.1255 150.263 16.178 150.239 16.2262C150.216 16.2743 150.183 16.3172 150.142 16.352L149.871 16.605C148.557 16.4851 147.257 16.2366 145.991 15.863C145.772 15.8054 145.558 15.7329 145.349 15.646C145.146 15.5627 144.977 15.4129 144.87 15.221C144.879 15.1309 144.879 15.0401 144.87 14.95C145.91 13.774 146.543 13.033 146.796 12.734C147.416 11.9779 147.97 11.17 148.451 10.319C148.175 10.1698 147.865 10.095 147.551 10.102C147.272 10.1093 146.993 10.1394 146.719 10.192C146.447 10.2371 146.172 10.2641 145.896 10.273C145.679 10.2781 145.462 10.2477 145.254 10.183C144.992 10.029 144.854 9.86597 144.854 9.69497C144.856 9.62812 144.882 9.56416 144.926 9.51397C145.26 9.2835 145.661 9.17186 146.066 9.19697H146.554C146.776 9.20303 146.997 9.18188 147.214 9.13397L148.314 9.22397C148.674 9.25183 149.022 9.3668 149.327 9.55897C149.435 9.61925 149.526 9.70701 149.589 9.8134C149.653 9.91979 149.687 10.0411 149.689 10.165C149.692 10.2399 149.676 10.3143 149.644 10.382C149.316 11.2132 148.875 11.9952 148.333 12.706L146.524 14.813C147.665 15.1659 148.832 15.4261 150.015 15.591C150.1 15.5923 150.187 15.6923 150.278 15.891Z" fill="white"/>
</svg>
