<svg width="85" height="70" viewBox="0 0 85 70" fill="none" xmlns="http://www.w3.org/2000/svg">
<path fill-rule="evenodd" clip-rule="evenodd" d="M16.2835 1.70783C0.783491 7.76483 -4.49851 25.6238 4.13549 42.7448C18.3805 70.9928 46.7755 78.4178 68.8105 59.6548C99.1305 33.8548 82.3935 -9.78217 47.5255 4.16483L43.1755 5.90483L39.6335 4.11683C32.3755 0.454834 22.1825 -0.598171 16.2835 1.70783Z" fill="#EFEBE7"/>
<path fill-rule="evenodd" clip-rule="evenodd" d="M52.6555 15.0692C52.5049 15.1446 52.3709 15.2492 52.2613 15.377C52.1517 15.5047 52.0687 15.6531 52.0171 15.8134C51.9655 15.9736 51.9464 16.1425 51.9609 16.3103C51.9754 16.478 52.0232 16.6412 52.1015 16.7902C52.3875 17.2602 52.5655 17.3182 53.8315 17.3622L54.9785 17.4012L53.6135 18.8872C51.8225 20.8352 51.7015 21.0762 52.1015 21.8212C52.4205 22.4152 52.5925 22.4482 55.4345 22.4482C58.5995 22.4482 58.9505 22.3222 58.9505 21.1822C58.9505 20.3332 58.5285 20.0722 57.0725 20.0222L55.9395 19.9832L57.2395 18.5752C57.9535 17.8002 58.6305 17.0312 58.7445 16.8662C58.8356 16.7304 58.8985 16.5778 58.9295 16.4173C58.9605 16.2568 58.959 16.0917 58.925 15.9317C58.8911 15.7718 58.8254 15.6204 58.7319 15.4863C58.6383 15.3522 58.5188 15.2383 58.3805 15.1512C56.4763 14.9917 54.5634 14.9643 52.6555 15.0692ZM43.8015 18.2432C42.7195 18.9662 43.2665 20.3752 44.6705 20.4822L45.3105 20.5302L44.3595 21.5742C43.1855 22.8622 43.0505 23.1872 43.4065 23.8572C43.7175 24.4412 43.8925 24.4792 46.2685 24.4802C48.7255 24.4802 48.9055 24.4412 49.2035 23.8262C49.6605 22.8812 49.1145 22.1362 47.9035 22.0582L47.2685 22.0172L48.2055 21.0002C49.5695 19.5202 49.7145 18.8582 48.8125 18.2422C47.1519 17.9663 45.4571 17.9663 43.7965 18.2422M35.6365 20.4822C28.3365 23.1132 23.4155 31.7032 24.6365 39.7012C27.1365 56.0702 48.4025 60.7552 57.5255 46.9452C58.8995 44.8652 59.2025 43.8452 58.7125 42.9452C58.1125 41.8452 57.3255 41.7132 55.3965 42.3912C52.1936 43.4795 48.7055 43.375 45.5734 42.0971C42.4413 40.8191 39.8758 38.4535 38.3485 35.4352C37.4045 33.618 36.8748 31.6142 36.7975 29.5678C36.7202 27.5215 37.0973 25.4835 37.9015 23.6002C38.7595 21.4312 37.5685 19.7882 35.6405 20.4822M51.4875 25.0892C50.2675 25.7112 50.8145 27.2792 52.2875 27.3752L52.9295 27.4172L52.0175 28.4072C50.6175 29.9292 50.4705 30.7462 51.5175 31.2422C53.1194 31.4409 54.7401 31.4349 56.3405 31.2242C57.5465 30.5822 56.9755 29.0162 55.5135 28.9552L54.8555 28.9282L55.8025 27.9042C57.1935 26.4042 57.3425 25.5702 56.3085 25.0802C54.7088 24.8859 53.0913 24.8893 51.4925 25.0902" fill="#947761"/>
</svg>
