<svg width="1920" height="31" viewBox="0 0 1920 31" fill="none" xmlns="http://www.w3.org/2000/svg">
<path d="M1861.81 0H320.913V30.02C340.113 29.278 344.15 18.543 358.439 13.954C363.494 12.1991 368.769 11.1558 374.112 10.854C379.455 11.1558 384.73 12.1991 389.785 13.954C404.073 18.543 408.114 29.277 427.311 30.02C446.511 29.278 450.549 18.543 464.837 13.954C469.892 12.199 475.167 11.1556 480.51 10.854C485.853 11.1557 491.128 12.199 496.183 13.954C510.471 18.543 514.513 29.277 533.709 30.02C552.909 29.278 556.947 18.543 571.235 13.954C576.29 12.1991 581.565 11.1558 586.908 10.854C592.251 11.1558 597.526 12.1991 602.581 13.954C616.87 18.543 620.911 29.277 640.108 30.02C659.308 29.278 663.345 18.543 677.635 13.954C681.451 12.6873 685.371 11.7623 689.351 11.19V11.271C689.608 11.1948 689.869 11.1353 690.133 11.093C692.583 10.762 695.066 10.762 697.516 11.093C697.78 11.1353 698.041 11.1948 698.297 11.271V11.19C702.277 11.7623 706.197 12.6873 710.013 13.954C724.302 18.543 728.343 29.277 747.54 30.02C766.74 29.278 770.778 18.543 785.066 13.954C795.106 9.82253 806.372 9.82253 816.412 13.954C830.7 18.543 834.741 29.277 853.938 30.02C873.138 29.278 877.176 18.543 891.464 13.954C901.504 9.82253 912.77 9.82253 922.81 13.954C937.099 18.543 941.14 29.277 960.336 30.02C979.536 29.278 983.574 18.543 997.863 13.954C1007.9 9.82253 1019.17 9.82253 1029.21 13.954C1043.5 18.543 1047.54 29.277 1066.73 30.02C1085.93 29.278 1089.97 18.543 1104.26 13.954C1108.08 12.6873 1112 11.7623 1115.98 11.19V11.271C1116.23 11.1948 1116.49 11.1353 1116.76 11.093C1119.21 10.7622 1121.69 10.7622 1124.14 11.093C1124.4 11.1356 1124.67 11.1954 1124.92 11.272V11.191C1128.9 11.7633 1132.82 12.6883 1136.64 13.955C1150.93 18.544 1154.97 29.278 1174.17 30.021C1193.37 29.279 1197.4 18.544 1211.69 13.955C1221.73 9.82353 1233 9.82353 1243.04 13.955C1257.33 18.544 1261.37 29.278 1280.56 30.021C1299.76 29.279 1303.8 18.544 1318.09 13.955C1328.13 9.82347 1339.4 9.82347 1349.44 13.955C1363.72 18.544 1367.77 29.278 1386.96 30.021C1406.16 29.279 1410.2 18.544 1424.49 13.955C1434.53 9.82353 1445.79 9.82353 1455.83 13.955C1470.12 18.544 1474.16 29.278 1493.36 30.021C1512.56 29.279 1516.6 18.544 1530.89 13.955C1540.93 9.82353 1552.19 9.82353 1562.23 13.955C1576.52 18.544 1580.56 29.278 1599.76 30.021C1618.96 29.279 1623 18.544 1637.29 13.955C1647.33 9.82359 1658.59 9.82359 1668.63 13.955C1682.92 18.544 1686.96 29.278 1706.16 30.021C1725.36 29.279 1729.4 18.544 1743.68 13.955C1747.5 12.6883 1751.42 11.7633 1755.4 11.191V11.272C1755.66 11.1958 1755.92 11.1363 1756.18 11.094C1758.63 10.7627 1761.12 10.7627 1763.57 11.094C1763.83 11.1364 1764.09 11.1958 1764.35 11.272V11.191C1768.33 11.7634 1772.25 12.6884 1776.06 13.955C1790.35 18.544 1794.39 29.278 1813.59 30.021C1832.79 29.279 1836.83 18.544 1851.11 13.955C1861.16 9.82353 1872.42 9.82353 1882.46 13.955C1896.76 18.543 1900.8 29.277 1920 30.02V0H1861.81ZM262.723 0H0V30.02C19.2 29.278 23.238 18.543 37.526 13.954C41.2303 12.7274 45.0324 11.8188 48.891 11.238V11.271C48.891 11.271 48.971 11.244 49.137 11.204C50.5956 11.0004 52.0647 10.8812 53.537 10.847C55.0093 10.8812 56.4784 11.0004 57.937 11.204C58.102 11.244 58.183 11.271 58.183 11.271V11.238C62.0416 11.8188 65.8437 12.7275 69.548 13.954C83.836 18.543 87.877 29.277 107.074 30.02C126.274 29.278 130.312 18.543 144.6 13.954C149.655 12.1991 154.93 11.1558 160.273 10.854C165.616 11.1558 170.891 12.1991 175.946 13.954C190.235 18.543 194.276 29.277 213.472 30.02C232.672 29.278 236.71 18.543 250.998 13.954C254.814 12.6873 258.735 11.7623 262.715 11.19V11.271C262.971 11.1944 263.233 11.1346 263.497 11.092C265.947 10.7611 268.429 10.7611 270.879 11.092C271.143 11.1343 271.404 11.1938 271.661 11.27V11.189C275.641 11.7613 279.561 12.6863 283.377 13.953C297.666 18.542 301.707 29.276 320.904 30.019V0H262.723Z" fill="white"/>
</svg>
