<svg width="110" height="90" viewBox="0 0 110 90" fill="none" xmlns="http://www.w3.org/2000/svg">
<path opacity="0.2" fill-rule="evenodd" clip-rule="evenodd" d="M20.99 1.57289C1.016 9.38189 -5.8 32.4029 5.33 54.4729C23.693 90.8869 60.297 100.459 88.704 76.2729C127.786 43.0029 106.211 -13.2421 61.263 4.73588L55.655 6.97889L51.089 4.67888C41.734 -0.0431156 28.596 -1.39811 20.989 1.57889" fill="#947761"/>
<path fill-rule="evenodd" clip-rule="evenodd" d="M69.77 20.082C69.5822 20.1765 69.4152 20.3074 69.2786 20.4672C69.142 20.6269 69.0386 20.8123 68.9744 21.0125C68.9103 21.2126 68.8867 21.4236 68.905 21.633C68.9233 21.8424 68.9831 22.046 69.081 22.232C69.439 22.819 69.66 22.892 71.242 22.946L72.675 22.995L70.967 24.852C68.728 27.285 68.573 27.587 69.067 28.517C69.467 29.259 69.681 29.3 73.231 29.3C77.186 29.3 77.624 29.142 77.624 27.719C77.624 26.658 77.097 26.332 75.278 26.27L73.863 26.221L75.485 24.461C76.377 23.493 77.223 22.532 77.366 22.326C77.4802 22.1571 77.5594 21.9671 77.5989 21.7671C77.6385 21.5671 77.6376 21.3612 77.5963 21.1616C77.555 20.9619 77.4742 20.7726 77.3585 20.6047C77.2429 20.4368 77.0948 20.2938 76.923 20.184C74.5438 19.9856 72.1538 19.9522 69.77 20.084M58.713 24.047C57.361 24.947 58.045 26.711 59.799 26.847L60.599 26.908L59.411 28.205C57.945 29.815 57.775 30.221 58.22 31.057C58.608 31.786 58.828 31.834 61.796 31.836C64.866 31.836 65.09 31.788 65.463 31.019C66.034 29.839 65.352 28.907 63.844 28.81L63.051 28.759L64.222 27.488C65.922 25.639 66.108 24.812 64.98 24.042C62.9052 23.6974 60.7878 23.6974 58.713 24.042M48.506 26.842C39.381 30.132 33.237 40.864 34.76 50.857C37.881 71.305 64.453 77.162 75.852 59.905C77.569 57.305 77.947 56.032 77.334 54.905C76.587 53.531 75.601 53.366 73.191 54.213C69.1892 55.5728 64.8311 55.4424 60.9178 53.8457C57.0045 52.2489 53.7992 49.2933 51.891 45.522C50.7112 43.2519 50.0491 40.7485 49.9521 38.1919C49.8551 35.6354 50.3257 33.0891 51.33 30.736C52.402 28.026 50.913 25.973 48.505 26.836M68.305 32.592C66.781 33.369 67.464 35.328 69.305 35.448L70.105 35.5L68.969 36.745C67.218 38.645 67.037 39.668 68.341 40.286C70.3425 40.5342 72.3675 40.5264 74.367 40.263C75.874 39.463 75.16 37.505 73.334 37.428L72.512 37.394L73.695 36.115C75.433 34.237 75.619 33.199 74.327 32.587C72.3284 32.3445 70.3075 32.3488 68.31 32.6" fill="#947761"/>
</svg>
