<svg width="110" height="90" viewBox="0 0 110 90" fill="none" xmlns="http://www.w3.org/2000/svg">
<path opacity="0.2" fill-rule="evenodd" clip-rule="evenodd" d="M21.16 1.57289C1.18598 9.38189 -5.63002 32.4029 5.49998 54.4729C23.863 90.8869 60.467 100.459 88.874 76.2729C127.956 43.0029 106.381 -13.2421 61.433 4.73588L55.825 6.97889L51.259 4.67888C41.904 -0.0431156 28.766 -1.39811 21.159 1.57889" fill="#947761"/>
<path fill-rule="evenodd" clip-rule="evenodd" d="M53.434 20.1849C49.399 21.2399 47.622 26.1159 49.878 29.9349C50.0126 30.1499 50.1332 30.3734 50.239 30.6039C49.8943 30.7864 49.5231 30.9136 49.139 30.9809C45.7359 31.8838 42.6312 33.6686 40.1385 36.1552C37.6458 38.6418 35.8533 41.742 34.942 45.1429L34.706 46.0549L34.232 46.0799C30.8587 46.2619 29.171 47.7166 29.169 50.4439C29.169 53.1189 31.014 54.7859 33.981 54.7929C34.545 54.7929 34.799 54.8319 34.821 54.9169C35.8767 59.2381 38.3522 63.0799 41.851 65.8268C45.3497 68.5737 49.6693 70.0668 54.1175 70.0668C58.5658 70.0668 62.8853 68.5737 66.384 65.8268C69.8828 63.0799 72.3583 59.2381 73.414 54.9169C73.436 54.8319 73.691 54.7939 74.254 54.7929C77.221 54.7869 79.066 53.1199 79.066 50.4439C79.066 47.7173 77.3783 46.2626 74.003 46.0799L73.529 46.0549L73.293 45.1429C72.258 41.2105 70.0401 37.6908 66.9393 35.0601C63.8385 32.4293 60.0046 30.8145 55.956 30.4339C53.405 30.1529 51.972 28.6529 51.941 26.2329C51.898 22.7689 56.678 21.7039 57.153 25.0709C57.465 27.2709 60.17 27.2609 60.171 25.0569C60.1425 24.2556 59.9315 23.4714 59.554 22.764C59.1766 22.0566 58.6427 21.4447 57.9929 20.9748C57.3432 20.5049 56.5949 20.1896 55.8048 20.0527C55.0148 19.9158 54.2039 19.961 53.434 20.1849ZM47.368 46.0919C49.668 46.8069 51.195 49.6769 50.003 51.0349C49.8132 51.2403 49.5663 51.3841 49.2941 51.4479C49.0218 51.5117 48.7367 51.4924 48.4755 51.3927C48.2142 51.293 47.9888 51.1173 47.8284 50.8883C47.6679 50.6593 47.5796 50.3875 47.575 50.1079C47.575 48.2239 44.754 48.1949 44.448 50.0749C44.138 51.9749 41.613 51.9199 41.622 50.0089C41.6566 49.3365 41.8463 48.6812 42.1761 48.0942C42.506 47.5072 42.9671 47.0045 43.5234 46.6252C44.0798 46.246 44.7163 46.0005 45.3832 45.908C46.0502 45.8155 46.7294 45.8784 47.368 46.0919ZM63.618 46.1039C64.4299 46.3335 65.151 46.8085 65.6823 47.464C66.2137 48.1194 66.5293 48.9231 66.586 49.7649C66.742 51.8939 64.086 52.1989 63.796 50.0849C63.544 48.2279 60.661 48.2299 60.66 50.0849C60.6613 50.4068 60.5516 50.7193 60.3494 50.9697C60.1472 51.2202 59.865 51.3933 59.5501 51.46C59.2352 51.5267 58.9069 51.4829 58.6206 51.3359C58.3343 51.1889 58.1073 50.9477 57.978 50.6529C57.812 50.3139 57.802 50.1899 57.891 49.5699C57.9861 48.9386 58.219 48.336 58.5732 47.8049C58.9274 47.2738 59.3942 46.8271 59.9405 46.4968C60.4868 46.1664 61.0991 45.9604 61.734 45.8934C62.3689 45.8263 63.0108 45.8999 63.614 46.1089M51.462 58.2529C51.7074 58.3792 51.9148 58.5685 52.0629 58.8013C52.2111 59.0341 52.2946 59.3022 52.305 59.5779C52.544 60.8309 53.377 61.4989 54.449 61.2979C54.8501 61.2127 55.2123 60.9984 55.4799 60.6878C55.7476 60.3771 55.9061 59.9873 55.931 59.5779C56.31 57.5919 58.578 57.5909 58.69 59.5779C58.959 64.3349 52.052 65.8259 49.954 61.4639C48.986 59.4519 49.924 57.4529 51.462 58.2529Z" fill="#947761"/>
</svg>
