<svg width="110" height="90" viewBox="0 0 110 90" fill="none" xmlns="http://www.w3.org/2000/svg">
<path opacity="0.2" fill-rule="evenodd" clip-rule="evenodd" d="M20.99 1.57289C1.016 9.38189 -5.8 32.4029 5.33 54.4729C23.693 90.8869 60.297 100.459 88.704 76.2729C127.786 43.0029 106.211 -13.2421 61.263 4.73588L55.655 6.97889L51.089 4.67888C41.734 -0.0431156 28.596 -1.39811 20.989 1.57889" fill="#947761"/>
<path fill-rule="evenodd" clip-rule="evenodd" d="M31.906 22.2899C31.6408 22.4295 31.4089 22.6246 31.226 22.8619L30.997 23.2059V41.9559C30.997 62.7179 30.944 61.2279 31.705 62.0109C32.33 62.6559 32.874 62.8109 34.563 62.8109H35.863V64.5779C35.863 66.9289 35.963 67.1189 37.241 67.1149C38.289 67.1149 38.418 66.9069 38.956 64.3799C39.098 63.7109 39.239 63.0799 39.269 62.9859C39.32 62.8179 40.202 62.8089 55.932 62.8089C71.662 62.8089 72.544 62.8179 72.595 62.9859C72.625 63.0859 72.765 63.7059 72.907 64.3689C73.45 66.9029 73.581 67.1119 74.623 67.1149C75.898 67.1149 76.001 66.9289 76.001 64.5779V62.8079H77.301C79.349 62.8079 80.395 62.2959 80.743 61.1239C80.99 60.2909 80.915 23.3069 80.665 22.8969C79.593 21.1389 77.43 22.1349 77.418 24.3969C77.418 25.2249 77.318 25.4409 76.874 25.6089C76.474 25.7619 35.404 25.7559 34.964 25.6019C34.524 25.4479 34.444 25.2479 34.444 24.4279C34.444 22.5279 33.315 21.5819 31.907 22.2929M42.725 29.3029L43.009 29.5479V50.5389L42.778 50.7699C42.549 50.9989 42.525 51.0009 39.278 51.0319C35.423 51.0689 35.23 51.0499 34.778 50.5959L34.442 50.2599V29.8829L34.713 29.5619C35.123 29.0739 35.157 29.0699 38.922 29.0619L42.439 29.0559L42.723 29.3009M54.04 29.1689C54.52 29.3879 54.512 29.2019 54.512 40.1039V50.4319L54.267 50.7159L54.022 50.9999L50.491 51.0299C46.651 51.0629 46.399 51.0459 46.098 50.7219C45.898 50.5079 45.898 50.3579 45.898 40.0769C45.898 29.2139 45.898 29.3349 46.335 29.1569C48.9021 29.024 51.4744 29.0277 54.041 29.1679M65.773 29.3449C65.961 29.5769 65.967 29.8979 65.967 40.0449V50.5079L65.705 50.7539L65.443 50.9999H57.843L57.598 50.7159L57.353 50.4319V40.1079C57.353 32.7329 57.385 29.7079 57.466 29.5319C57.666 29.0839 57.812 29.0699 61.797 29.0909L65.582 29.1109L65.776 29.3499M77.076 29.4889L77.423 29.8679V50.2679L77.087 50.6039C76.633 51.0579 76.44 51.0769 72.587 51.0399C69.343 51.0089 69.319 51.0069 69.087 50.7779L68.856 50.5469V29.5449L69.145 29.2969L69.434 29.0489L73.081 29.0779L76.728 29.1069L77.075 29.4859" fill="#947761"/>
</svg>
