<svg width="110" height="90" viewBox="0 0 110 90" fill="none" xmlns="http://www.w3.org/2000/svg">
<path opacity="0.2" fill-rule="evenodd" clip-rule="evenodd" d="M20.99 1.57289C1.016 9.38189 -5.8 32.4029 5.33 54.4729C23.693 90.8869 60.297 100.459 88.704 76.2729C127.786 43.0029 106.211 -13.2421 61.263 4.73588L55.655 6.97889L51.089 4.67888C41.734 -0.0431156 28.596 -1.39811 20.989 1.57889" fill="#947761"/>
<path fill-rule="evenodd" clip-rule="evenodd" d="M43.924 24.1061C34.537 25.0881 30.132 33.0781 33.08 43.7751C34.933 50.4991 39.223 56.2691 46.104 61.2971C48.4941 63.0573 50.985 64.6764 53.564 66.1461C54.1633 66.3224 54.8043 66.2943 55.3859 66.0664C55.9676 65.8385 56.457 65.4236 56.777 64.8871C57.371 63.9651 57.663 64.2921 52.249 59.8041C46.969 55.4271 47.18 55.6511 47.776 55.0561C48.261 54.5711 48.098 54.4561 54.204 59.5291C60.327 64.6151 60.083 64.4441 60.751 64.0991C61.5607 63.5425 62.1368 62.7069 62.369 61.7521C62.395 61.4731 62.2 61.3081 56.856 57.0691C50.271 51.8451 50.629 52.1971 51.263 51.5621C51.772 51.0531 50.993 50.5201 58.803 56.7271C63.433 60.4071 64.668 61.3451 64.881 61.3451C65.781 61.3451 67.19 59.7791 67.19 58.7791C67.19 58.2791 67.809 58.8531 61.028 53.1111C55.145 48.1291 55.095 48.0801 55.372 47.5851C55.829 46.7711 55.721 46.6991 61.804 51.8491C70.09 58.8641 69.476 58.3661 69.825 58.3661C71.389 58.3661 72.711 55.3331 71.854 53.7111C71.6 53.2311 62.904 40.7871 62.501 40.3281C62.022 39.7821 62.001 39.7901 57.77 42.2211C52.921 45.0061 52.783 45.0641 51.012 45.0591C49.8692 45.0517 48.7492 44.7388 47.7681 44.1527C46.787 43.5667 45.9805 42.729 45.4321 41.7263C44.8838 40.7236 44.6137 39.5925 44.6497 38.4503C44.6857 37.308 45.0266 36.1962 45.637 35.2301C46.156 34.3981 46.437 34.1351 50.524 30.5821C53.824 27.7191 54.246 27.3061 54.247 26.9721C54.247 25.4781 47.833 23.6971 43.918 24.1061M64.718 24.1131C61.576 24.4977 58.5987 25.7335 56.108 27.6871C54.751 28.7871 47.308 35.3411 47.108 35.6141C46.5423 36.3519 46.1963 37.2343 46.1097 38.1599C46.0232 39.0856 46.1995 40.0168 46.6186 40.8467C47.0377 41.6766 47.6824 42.3714 48.4787 42.8512C49.275 43.331 50.1905 43.5764 51.12 43.5591C52.368 43.5591 52.755 43.3851 56.92 41.0081C60.755 38.8181 60.791 38.7921 60.902 38.1241C61.021 37.4041 61.773 36.9901 62.229 37.3931C62.329 37.4831 62.949 38.3311 63.603 39.2781C64.987 41.2781 64.939 41.2331 65.553 41.2331C66.7061 41.1773 67.8118 40.7572 68.711 40.0331C69.444 39.4911 69.575 39.4661 69.971 39.8001C70.764 40.4671 69.498 41.7001 67.271 42.4351C66.025 42.8451 65.88 42.5201 69.761 48.0571C71.527 50.5761 73.08 52.8751 73.214 53.1661C73.682 54.1861 74.124 54.1261 74.951 52.9311C79.834 45.8771 81.27 36.6801 78.399 30.8541C76.055 26.0991 70.579 23.4001 64.721 24.1131" fill="#947761"/>
</svg>
