<svg width="120" height="120" viewBox="0 0 120 120" fill="none" xmlns="http://www.w3.org/2000/svg">
<path opacity="0.47" d="M60 1C48.3309 1 36.9239 4.46029 27.2214 10.9433C17.5189 17.4263 9.95671 26.6408 5.49113 37.4217C1.02556 48.2025 -0.142833 60.0655 2.1337 71.5103C4.41022 82.9552 10.0294 93.468 18.2807 101.719C26.532 109.971 37.0448 115.59 48.4897 117.866C59.9346 120.143 71.7975 118.974 82.5783 114.509C93.3592 110.043 102.574 102.481 109.057 92.7786C115.54 83.0761 119 71.6691 119 60C119 44.3522 112.784 29.3453 101.719 18.2807C90.6547 7.21605 75.6478 1 60 1Z" fill="#3F3D56"/>
<path d="M60 1C48.3309 1 36.9239 4.46029 27.2214 10.9433C17.5189 17.4263 9.9567 26.6408 5.49113 37.4217C1.02556 48.2025 -0.142833 60.0655 2.1337 71.5103C4.41022 82.9552 10.0294 93.468 18.2807 101.719C26.532 109.971 37.0448 115.59 48.4897 117.866C59.9346 120.143 71.7975 118.974 82.5783 114.509C93.3592 110.043 102.574 102.481 109.057 92.7786C115.54 83.0761 119 71.6691 119 60C119 44.3522 112.784 29.3453 101.719 18.2807C90.6547 7.21605 75.6478 1 60 1Z" stroke="white" stroke-width="2"/>
<path d="M82.661 59.1789L49.508 36.5739C49.2811 36.4205 49.0167 36.3316 48.7432 36.3169C48.4696 36.3022 48.1972 36.3621 47.9552 36.4903C47.7131 36.6186 47.5105 36.8102 47.369 37.0448C47.2275 37.2794 47.1525 37.548 47.152 37.8219V83.0279C47.1532 83.3015 47.2287 83.5697 47.3705 83.8037C47.5123 84.0377 47.715 84.2287 47.9569 84.3565C48.1989 84.4842 48.471 84.5439 48.7442 84.529C49.0173 84.5141 49.2814 84.4252 49.508 84.2719L82.661 61.6669C82.8631 61.5282 83.0284 61.3424 83.1426 61.1255C83.2568 60.9086 83.3165 60.6671 83.3165 60.4219C83.3165 60.1768 83.2568 59.9353 83.1426 59.7184C83.0284 59.5015 82.8631 59.3157 82.661 59.1769V59.1789Z" fill="white"/>
</svg>
