<svg width="30" height="31" viewBox="0 0 30 31" fill="none" xmlns="http://www.w3.org/2000/svg">
<path d="M14.671 30.273H14.663C10.7734 30.2719 7.04353 28.7259 4.29374 25.975C1.54396 23.2241 -0.000530249 19.4936 1.36558e-07 15.604C0.000530522 11.7144 1.54603 7.98432 4.29657 5.23415C7.04711 2.48399 10.7774 0.938995 14.667 0.938995C18.5566 0.938995 22.2869 2.48399 25.0374 5.23415C27.788 7.98432 29.3335 11.7144 29.334 15.604C29.3345 19.4936 27.79 23.2241 25.0403 25.975C22.2905 28.7259 18.5606 30.2719 14.671 30.273ZM17.003 19.249L20.342 22.588C20.4257 22.6723 20.5252 22.7392 20.6349 22.7849C20.7446 22.8305 20.8622 22.854 20.981 22.854H20.988C21.168 22.8544 21.344 22.8013 21.4937 22.7014C21.6435 22.6015 21.7602 22.4594 21.8289 22.2931C21.8977 22.1268 21.9156 21.9438 21.8801 21.7673C21.8447 21.5908 21.7577 21.4289 21.63 21.302L18.29 17.962C18.9545 17.0593 19.3556 15.99 19.4488 14.873C19.542 13.756 19.3237 12.635 18.818 11.6347C18.3123 10.6344 17.5392 9.79383 16.5845 9.20654C15.6298 8.61926 14.5309 8.30822 13.41 8.30799C12.6133 8.30572 11.8241 8.46152 11.0881 8.76638C10.352 9.07123 9.68376 9.51908 9.122 10.084C8.27436 10.9319 7.69726 12.0122 7.46368 13.1882C7.2301 14.3642 7.35055 15.583 7.80978 16.6905C8.26902 17.7981 9.04641 18.7445 10.0436 19.4101C11.0408 20.0758 12.213 20.4307 13.412 20.43C14.7048 20.4324 15.964 20.0183 17.003 19.249ZM13.437 18.615H13.419C12.443 18.6152 11.4969 18.2784 10.7406 17.6614C9.98431 17.0445 9.46425 16.1854 9.26835 15.2293C9.07244 14.2731 9.21271 13.2787 9.66544 12.4141C10.1182 11.5494 10.8556 10.8676 11.753 10.484C12.278 10.2571 12.844 10.1404 13.416 10.141C14.2453 10.1412 15.0564 10.3847 15.7487 10.8412C16.4411 11.2978 16.9843 11.9475 17.3111 12.7097C17.6378 13.472 17.7339 14.3133 17.5872 15.1296C17.4405 15.9459 17.0577 16.7012 16.486 17.302C16.459 17.3231 16.4333 17.3459 16.409 17.37C16.3848 17.3939 16.3621 17.4193 16.341 17.446C15.5609 18.1969 14.5198 18.616 13.437 18.615Z" fill="#374D59"/>
</svg>
