<svg width="26" height="23" viewBox="0 0 26 23" fill="none" xmlns="http://www.w3.org/2000/svg">
<path d="M22.935 1.001H2.32401C2.03594 0.957184 1.74181 0.976117 1.46174 1.0565C1.18166 1.13688 0.922259 1.27682 0.701274 1.46674C0.480288 1.65666 0.302937 1.89207 0.181354 2.15687C0.059771 2.42168 -0.00317383 2.70962 -0.00317383 3.001C-0.00317383 3.29238 0.059771 3.58033 0.181354 3.84513C0.302937 4.10993 0.480288 4.34534 0.701274 4.53526C0.922259 4.72518 1.18166 4.86511 1.46174 4.94549C1.74181 5.02588 2.03594 5.04481 2.32401 5.001H22.935C23.2231 5.04481 23.5172 5.02588 23.7973 4.94549C24.0774 4.86511 24.3368 4.72518 24.5577 4.53526C24.7787 4.34534 24.9561 4.10993 25.0777 3.84513C25.1993 3.58033 25.2622 3.29238 25.2622 3.001C25.2622 2.70962 25.1993 2.42168 25.0777 2.15687C24.9561 1.89207 24.7787 1.65666 24.5577 1.46674C24.3368 1.27682 24.0774 1.13688 23.7973 1.0565C23.5172 0.976117 23.2231 0.957184 22.935 1.001Z" fill="#374D59"/>
<path d="M22.935 9.95101H2.32401C2.03594 9.9072 1.74181 9.92612 1.46174 10.0065C1.18166 10.0869 0.922259 10.2268 0.701274 10.4168C0.480288 10.6067 0.302937 10.8421 0.181354 11.1069C0.059771 11.3717 -0.00317383 11.6596 -0.00317383 11.951C-0.00317383 12.2424 0.059771 12.5303 0.181354 12.7951C0.302937 13.0599 0.480288 13.2954 0.701274 13.4853C0.922259 13.6752 1.18166 13.8151 1.46174 13.8955C1.74181 13.9759 2.03594 13.9948 2.32401 13.951H22.935C23.2231 13.9948 23.5172 13.9759 23.7973 13.8955C24.0774 13.8151 24.3368 13.6752 24.5577 13.4853C24.7787 13.2954 24.9561 13.0599 25.0777 12.7951C25.1993 12.5303 25.2622 12.2424 25.2622 11.951C25.2622 11.6596 25.1993 11.3717 25.0777 11.1069C24.9561 10.8421 24.7787 10.6067 24.5577 10.4168C24.3368 10.2268 24.0774 10.0869 23.7973 10.0065C23.5172 9.92612 23.2231 9.9072 22.935 9.95101Z" fill="#374D59"/>
<path d="M22.935 18.901H2.32401C2.03594 18.8572 1.74181 18.8761 1.46174 18.9565C1.18166 19.0369 0.922259 19.1768 0.701274 19.3667C0.480288 19.5566 0.302937 19.792 0.181354 20.0569C0.059771 20.3217 -0.00317383 20.6096 -0.00317383 20.901C-0.00317383 21.1924 0.059771 21.4803 0.181354 21.7451C0.302937 22.0099 0.480288 22.2453 0.701274 22.4352C0.922259 22.6252 1.18166 22.7651 1.46174 22.8455C1.74181 22.9259 2.03594 22.9448 2.32401 22.901H22.935C23.2231 22.9448 23.5172 22.9259 23.7973 22.8455C24.0774 22.7651 24.3368 22.6252 24.5577 22.4352C24.7787 22.2453 24.9561 22.0099 25.0777 21.7451C25.1993 21.4803 25.2622 21.1924 25.2622 20.901C25.2622 20.6096 25.1993 20.3217 25.0777 20.0569C24.9561 19.792 24.7787 19.5566 24.5577 19.3667C24.3368 19.1768 24.0774 19.0369 23.7973 18.9565C23.5172 18.8761 23.2231 18.8572 22.935 18.901Z" fill="#374D59"/>
</svg>
