<svg width="13" height="8" viewBox="0 0 13 8" fill="none" xmlns="http://www.w3.org/2000/svg">
<path d="M5.69678 7.13184C5.64148 7.07483 5.5945 7.01028 5.55762 6.93994L0.514648 1.76196C0.364147 1.60579 0.280273 1.39731 0.280273 1.18042C0.280273 0.963532 0.364147 0.755049 0.514648 0.598877C0.587972 0.522781 0.676187 0.462242 0.773438 0.420898C0.870688 0.379555 0.974893 0.358398 1.08057 0.358398C1.18624 0.358398 1.29093 0.379555 1.38818 0.420898C1.48543 0.462242 1.57365 0.522781 1.64697 0.598877L3.77979 2.78906L6.2876 5.36401L9.87988 1.67505L10.9277 0.598877C11.0011 0.522753 11.0892 0.462254 11.1865 0.420898C11.2839 0.379543 11.3884 0.358154 11.4941 0.358154C11.5999 0.358154 11.7049 0.379543 11.8022 0.420898C11.8996 0.462254 11.9876 0.522753 12.061 0.598877C12.2113 0.755168 12.2949 0.963606 12.2949 1.18042C12.2949 1.39723 12.2113 1.60567 12.061 1.76196L7.0166 6.93994C6.97988 7.01038 6.93338 7.07496 6.87793 7.13184C6.80179 7.21088 6.71 7.2732 6.6084 7.3147C6.5068 7.3562 6.3973 7.37618 6.2876 7.37305H6.26367C6.15783 7.37296 6.05298 7.35146 5.95557 7.31006C5.85816 7.26866 5.77029 7.20798 5.69678 7.13184Z" fill="#374D59"/>
</svg>
