
<svg width="41" height="45" viewBox="0 0 41 45" fill="none" xmlns="http://www.w3.org/2000/svg">
    <path d="M11.657 29.602H35.907C37.2307 29.6001 38.4996 29.0735 39.4356 28.1375C40.3715 27.2016 40.8982 25.9327 40.9 24.609V14.297C40.9014 14.2785 40.8983 14.26 40.891 14.243C40.891 14.225 40.882 14.198 40.882 14.18C40.882 14.162 40.873 14.144 40.873 14.126C40.8658 14.1054 40.8598 14.0843 40.855 14.063C40.846 14.045 40.846 14.027 40.837 14.009C40.828 13.991 40.828 13.973 40.819 13.955C40.8084 13.9347 40.7994 13.9137 40.792 13.892C40.785 13.8759 40.776 13.8607 40.765 13.847L40.738 13.793C40.729 13.775 40.72 13.766 40.711 13.748C40.702 13.73 40.684 13.712 40.675 13.694C40.6659 13.6769 40.6537 13.6617 40.639 13.649C40.63 13.631 40.612 13.622 40.603 13.604C40.594 13.586 40.576 13.577 40.567 13.559C40.558 13.541 40.54 13.532 40.531 13.523L40.486 13.478C40.468 13.469 40.459 13.451 40.441 13.442C40.423 13.433 40.405 13.415 40.387 13.406C40.369 13.397 40.36 13.388 40.342 13.379C40.3221 13.3702 40.3038 13.358 40.288 13.343L40.234 13.316L40.18 13.289L40.126 13.262C40.108 13.253 40.09 13.253 40.072 13.244C40.0499 13.2317 40.0253 13.2245 40 13.223C39.9849 13.2209 39.9698 13.2179 39.955 13.214C39.9318 13.2066 39.9074 13.2036 39.883 13.205C39.874 13.205 39.865 13.196 39.847 13.196L9.11502 8.951V4.664C9.11689 4.62146 9.11387 4.57885 9.10602 4.537C9.10641 4.52439 9.1033 4.51193 9.09702 4.501C9.09702 4.474 9.08802 4.447 9.08802 4.42C9.08802 4.393 9.07902 4.375 9.07002 4.348C9.06102 4.321 9.06102 4.321 9.06102 4.303L9.03402 4.223C9.03402 4.214 9.02502 4.196 9.02502 4.187C9.01667 4.16134 9.00453 4.13707 8.98902 4.115C8.98002 4.106 8.98002 4.088 8.97102 4.079C8.96222 4.05906 8.95004 4.04079 8.93502 4.025C8.92602 4.007 8.91702 3.998 8.90802 3.98C8.89902 3.962 8.89002 3.953 8.88102 3.935C8.87202 3.917 8.85402 3.899 8.84502 3.881L8.81802 3.854L8.76402 3.8L8.73702 3.773C8.71798 3.75283 8.69686 3.73473 8.67402 3.719C8.66502 3.71 8.64702 3.701 8.63802 3.692C8.62902 3.683 8.60202 3.665 8.58402 3.647C8.5608 3.63078 8.53677 3.61576 8.51202 3.602C8.50302 3.593 8.49402 3.593 8.48502 3.584C8.44902 3.566 8.40402 3.548 8.36702 3.53L1.70002 0.722996C1.40138 0.597018 1.06494 0.594832 0.764692 0.716918C0.464446 0.839004 0.224996 1.07536 0.0990179 1.374C-0.0269599 1.67263 -0.0291451 2.00908 0.0929411 2.30932C0.215027 2.60957 0.451385 2.84902 0.750019 2.975L6.66602 5.475V32.223C6.66837 33.435 7.11088 34.6049 7.91122 35.515C8.71157 36.4252 9.81527 37.0137 11.017 37.171C10.6264 37.8223 10.3915 38.555 10.3308 39.312C10.2701 40.0691 10.3852 40.8299 10.667 41.5351C10.9489 42.2403 11.39 42.8708 11.9558 43.3774C12.5216 43.884 13.1968 44.253 13.9288 44.4555C14.6607 44.658 15.4296 44.6887 16.1753 44.545C16.9211 44.4013 17.6235 44.0872 18.2278 43.6272C18.8321 43.1672 19.3219 42.5738 19.659 41.8932C19.9961 41.2127 20.1713 40.4635 20.171 39.704C20.1742 38.8289 19.9399 37.9694 19.493 37.217H30.471C30.0253 37.9699 29.7911 38.8291 29.793 39.704C29.793 40.6791 30.0822 41.6322 30.6239 42.443C31.1656 43.2537 31.9355 43.8856 32.8364 44.2587C33.7372 44.6319 34.7285 44.7295 35.6848 44.5393C36.6411 44.349 37.5196 43.8795 38.2091 43.19C38.8985 42.5006 39.3681 41.6221 39.5583 40.6658C39.7485 39.7095 39.6509 38.7182 39.2777 37.8174C38.9046 36.9165 38.2727 36.1466 37.462 35.6049C36.6512 35.0631 35.6981 34.774 34.723 34.774H11.657C10.9807 34.7732 10.3323 34.5042 9.85406 34.026C9.37583 33.5477 9.10681 32.8993 9.10602 32.223V28.914C9.88023 29.3657 10.7607 29.6031 11.657 29.602Z" fill="#374D59" />
</svg>