
<svg width="42" height="47" viewBox="0 0 42 47" fill="none" xmlns="http://www.w3.org/2000/svg">
    <path d="M9.97205 19.342C8.87977 19.3433 7.8326 19.7778 7.06023 20.5502C6.28787 21.3225 5.85337 22.3697 5.85205 23.462V34.632C5.85205 35.7247 6.28612 36.7726 7.05877 37.5453C7.83142 38.3179 8.87936 38.752 9.97205 38.752C11.0647 38.752 12.1127 38.3179 12.8853 37.5453C13.658 36.7726 14.092 35.7247 14.092 34.632V23.462C14.0907 22.3697 13.6562 21.3225 12.8839 20.5502C12.1115 19.7778 11.0643 19.3433 9.97205 19.342Z" fill="#374D59" />
    <path d="M3.10503 23.463C3.11099 23.0747 3.15013 22.6876 3.22203 22.306C2.39302 22.5701 1.66914 23.0903 1.1545 23.7918C0.639866 24.4933 0.361005 25.34 0.358032 26.21V31.887C0.361849 32.7564 0.641101 33.6021 1.15568 34.3028C1.67025 35.0036 2.39367 35.5232 3.22203 35.787C3.15013 35.4054 3.11099 35.0183 3.10503 34.63V23.463Z" fill="#374D59" />
    <path d="M31.946 19.342C30.8537 19.3433 29.8065 19.7778 29.0341 20.5502C28.2618 21.3225 27.8273 22.3697 27.826 23.462V34.632C27.8273 35.7243 28.2618 36.7715 29.0341 37.5438C29.8065 38.3162 30.8537 38.7507 31.946 38.752C32.3467 38.7462 32.7443 38.6812 33.126 38.559C32.8741 39.4059 32.3562 40.1492 31.6489 40.6787C30.9416 41.2083 30.0825 41.4959 29.199 41.499H24.826C24.502 40.5827 23.8645 39.8105 23.0262 39.3188C22.1879 38.827 21.2027 38.6475 20.2449 38.8119C19.287 38.9762 18.4181 39.4739 17.7916 40.217C17.1652 40.96 16.8217 41.9006 16.8217 42.8725C16.8217 43.8444 17.1652 44.785 17.7916 45.528C18.4181 46.2711 19.287 46.7688 20.2449 46.9332C21.2027 47.0975 22.1879 46.918 23.0262 46.4263C23.8645 45.9345 24.502 45.1623 24.826 44.246H29.199C31.0196 44.2439 32.765 43.5197 34.0523 42.2324C35.3397 40.945 36.0639 39.1996 36.066 37.379V23.462C36.0647 22.3697 35.6302 21.3225 34.8578 20.5502C34.0854 19.7778 33.0383 19.3433 31.946 19.342Z" fill="#374D59" />
    <path d="M38.696 22.306C38.768 22.6876 38.8071 23.0747 38.813 23.463V34.633C38.8071 35.0213 38.768 35.4084 38.696 35.79C39.5244 35.5262 40.2478 35.0066 40.7624 34.3058C41.277 33.6051 41.5562 32.7594 41.5601 31.89V26.21C41.5571 25.34 41.2782 24.4933 40.7636 23.7918C40.2489 23.0903 39.5251 22.5701 38.696 22.306Z" fill="#374D59" />
    <path d="M20.958 0.115005C15.4964 0.121093 10.2603 2.2934 6.39836 6.15533C2.53643 10.0173 0.36412 15.2534 0.358032 20.715V20.75C1.18453 20.1149 2.14595 19.6784 3.16803 19.474C3.47792 14.9668 5.48699 10.7452 8.78934 7.66207C12.0917 4.57897 16.4412 2.8642 20.959 2.8642C25.4769 2.8642 29.8264 4.57897 33.1287 7.66207C36.4311 10.7452 38.4401 14.9668 38.75 19.474C39.7721 19.6784 40.7335 20.1149 41.56 20.75V20.715C41.5539 15.2531 39.3814 10.0166 35.519 6.15462C31.6566 2.29264 26.42 0.120564 20.958 0.115005Z" fill="#374D59" />
</svg>