
<svg width="44" height="44" viewBox="0 0 44 44" fill="none" xmlns="http://www.w3.org/2000/svg">
    <path fillRule="evenodd" clipRule="evenodd" d="M19.7121 0.0720026C14.4341 0.587272 9.52409 3.006 5.89895 6.87652C2.27382 10.747 0.1814 15.8047 0.0124359 21.1051C-0.156529 26.4055 1.60951 31.5862 4.98077 35.6797C8.35203 39.7733 13.098 42.4998 18.3324 43.3502C23.5669 44.2006 28.9319 43.1166 33.4257 40.3008C37.9194 37.485 41.2346 33.1298 42.7523 28.0486C44.2699 22.9673 43.8862 17.5073 41.6727 12.6883C39.4593 7.86925 35.5675 4.02059 30.7241 1.861C27.2493 0.392555 23.473 -0.220942 19.7121 0.0720026ZM23.5401 6.788C25.1059 7.16664 26.4981 8.06271 27.4913 9.33113C28.4845 10.5996 29.0205 12.1661 29.0125 13.777C29.0045 15.388 28.4531 16.9491 27.4474 18.2076C26.4417 19.4662 25.0406 20.3484 23.4711 20.7115C21.9015 21.0746 20.2554 20.8973 18.7992 20.2084C17.3429 19.5194 16.1618 18.3591 15.4471 16.9154C14.7324 15.4716 14.526 13.8288 14.8612 12.2531C15.1964 10.6774 16.0536 9.26088 17.2941 8.233C18.1499 7.52227 19.16 7.02147 20.2438 6.77058C21.3276 6.51969 22.455 6.52565 23.5361 6.788M27.2811 24.61C32.1691 25.403 35.1541 31.651 31.8901 34.255C29.0667 36.54 25.5488 37.7944 21.9167 37.8111C18.2846 37.8278 14.7553 36.6059 11.9111 34.347C11.2884 33.9236 10.8181 33.3115 10.5694 32.6008C10.3208 31.89 10.307 31.1182 10.5301 30.399C10.8205 28.9692 11.5268 27.6571 12.5603 26.6272C13.5937 25.5973 14.9083 24.8956 16.3391 24.61C16.9891 24.501 26.6171 24.498 27.2811 24.61Z" fill="#374D59" />
</svg>