<svg width="188" height="106" viewBox="0 0 188 106" fill="none" xmlns="http://www.w3.org/2000/svg">
<path d="M153.735 47.496C166.602 47.496 177.032 37.0656 177.032 24.199C177.032 11.3324 166.602 0.902008 153.735 0.902008C140.868 0.902008 130.438 11.3324 130.438 24.199C130.438 37.0656 140.868 47.496 153.735 47.496Z" fill="#BFE2D8"/>
<path d="M128.659 17.193L133.218 16.748C133.663 16.748 140.946 19.528 140.946 19.528L144.56 21.752C144.56 21.752 144.338 19.528 144.782 19.306L146.45 18.472L148.896 19.084L150.508 20.863L151.342 23.81L150.286 27.202L151.786 30.316C151.786 30.316 153.398 29.482 154.121 29.148C154.844 28.814 163.795 22.81 164.296 22.81C164.797 22.81 168.41 21.865 169.356 21.865C170.302 21.865 174.638 22.532 174.638 22.532L177.918 24.978L180.031 29.315L180.476 35.82L181.143 37.043L184.09 38.322L187.037 43.159L187.148 47.718C187.148 47.718 185.369 48.83 184.924 48.718C184.479 48.606 181.477 47.161 181.477 47.161L179.977 46.716L177.365 49.048L173.751 51.105C173.751 51.105 169.692 52.05 169.192 52.05C168.692 52.05 164.633 51.661 164.633 51.661C164.633 51.661 162.298 49.604 161.964 49.27C161.63 48.936 161.128 47.161 160.852 47.048C160.576 46.935 159.295 46.381 159.295 46.381L158.461 46.77L158.906 49.661L156.793 52.552L155.403 53.664L151.903 54.109L150.346 53.831L148.011 53.164L145.898 53.053C145.488 53.0436 145.08 53.0065 144.675 52.942C144.286 52.831 143.452 51.719 143.007 51.719H140.394C139.949 51.719 137.614 51.886 137.614 51.886L131.328 50.048L126.046 47.435L121.046 43.376L117.984 38.548L117.428 31.876L119.096 26.149L121.876 21.149L126.713 18.536L128.659 17.202" fill="white"/>
<path d="M23.408 41.043C21.4039 46.0645 19.7869 51.2319 18.571 56.5C17.626 60.17 16.847 64.228 16.18 68.009H16.625C20.85 54.834 28.023 38.043 37.085 38.043C47.204 38.043 44.257 51.443 34.472 57.114C48.038 61.395 41.922 92.42 16.179 92.42C-2.114 92.42 2.001 75.351 9.34 75.351C10.007 75.351 9.896 76.741 9.284 76.741C4.558 76.741 0.384 90.029 15.122 90.029C35.361 90.029 45.091 59.504 32.303 58.281C30.0556 59.2421 27.6299 59.7158 25.186 59.671C24.63 59.671 24.63 58.003 25.186 58.003C37.029 58.003 43.923 39.822 36.806 39.822C26.02 39.822 14.288 81.077 14.288 83.301C14.2921 83.3997 14.2767 83.4982 14.2425 83.5909C14.2083 83.6836 14.1561 83.7685 14.0889 83.8409C14.0216 83.9132 13.9407 83.9715 13.8508 84.0124C13.7609 84.0533 13.6637 84.0759 13.565 84.079H13.4C12.066 84.079 11.565 82.522 11.565 79.186C11.565 62.728 16.013 46.104 20.127 41.378C13.789 42.378 2.835 46.66 2.835 53.666C2.835 54.666 3.335 55.278 4.058 55.278C3.95832 55.5562 3.76539 55.7913 3.51199 55.9433C3.2586 56.0954 2.96037 56.155 2.668 56.112C1.39 56.113 0 55.001 0 52.888C0 45.104 16.013 40.1 22.463 40.1C22.6978 40.0761 22.9327 40.1436 23.119 40.2885C23.3052 40.4334 23.4284 40.6446 23.463 40.878C23.442 40.8996 23.4261 40.9257 23.4166 40.9542C23.4071 40.9828 23.4042 41.0131 23.408 41.043Z" fill="#9E765D"/>
<path d="M65.1631 90.14C66.8871 90.14 67.6091 87.582 67.6091 87.582C67.6566 87.3953 67.7638 87.2291 67.9143 87.1087C68.0648 86.9884 68.2504 86.9204 68.4431 86.915C69.0551 86.915 68.8881 87.582 68.8881 87.582C68.8881 87.582 67.4421 92.252 64.9961 92.252C61.3821 92.252 59.6581 86.859 59.6581 80.242C59.6591 77.5041 59.8822 74.7708 60.3251 72.069H59.7131C55.9881 78.407 51.0951 85.357 48.0371 85.357C37.3621 85.357 45.0371 55.11 58.4901 55.11C59.4893 55.1229 60.4586 55.453 61.2581 56.0526C62.0576 56.6522 62.6459 57.4903 62.9381 58.446C62.9381 58.446 62.7711 59.502 61.8821 59.502C60.8261 59.502 60.6591 58.835 60.6591 58.835C60.4773 58.2713 60.1316 57.7745 59.6662 57.4081C59.2008 57.0417 58.6367 56.8224 58.0461 56.778C49.8171 56.778 44.3131 83.188 48.5941 83.188C51.8741 83.188 60.9371 66.119 62.8281 62.393C64.0511 59.835 65.4411 58.001 67.1091 58.001C67.8321 58.001 68.2771 58.557 68.2771 59.391C64.9426 67.0586 63.2203 75.3298 63.2171 83.691C63.2171 88.528 63.9401 90.14 65.1631 90.14Z" fill="#9E765D"/>
<path d="M81.566 38.159C81.8008 38.1351 82.0357 38.2026 82.222 38.3475C82.4082 38.4924 82.5315 38.7036 82.566 38.937V39.159C80.1626 44.7941 78.2826 50.6384 76.95 56.618C75.504 62.845 74.226 69.851 73.45 75.411H73.895C77.175 67.182 82.958 55.617 89.074 55.617C100.138 55.617 93.466 85.417 82.458 85.417C74.952 85.417 78.958 71.183 84.182 67.517C84.682 67.183 85.405 67.906 85.016 68.184C80.068 72.076 78.344 83.474 81.958 83.474C87.351 83.474 94.913 57.731 88.519 57.731C81.736 57.731 72.728 82.696 72.728 83.363C72.7419 83.4738 72.7321 83.5862 72.6994 83.6929C72.6667 83.7996 72.6119 83.8983 72.5384 83.9823C72.465 84.0663 72.3746 84.1339 72.2732 84.1805C72.1718 84.2272 72.0616 84.2519 71.95 84.253H71.839C70.505 84.253 70.004 82.696 70.004 79.36C69.945 58.893 77.006 38.159 81.566 38.159Z" fill="#9E765D"/>
<path d="M103.249 83.747C107.919 83.747 113.649 71.682 113.649 59.894V59.171C110.869 57.392 109.312 54.445 109.312 53.222C109.422 52.6542 109.706 52.1347 110.125 51.736C110.543 51.3373 111.076 51.0793 111.649 50.998C113.317 50.998 114.874 54.498 115.43 57.781C116.499 58.5634 117.777 59.0088 119.1 59.06C119.78 59.0591 120.449 58.8872 121.046 58.56C121.052 58.8538 120.999 59.1458 120.889 59.4185C120.78 59.6911 120.616 59.9388 120.409 60.1466C120.201 60.3544 119.953 60.5179 119.68 60.6275C119.408 60.737 119.116 60.7903 118.822 60.784C117.718 60.7798 116.625 60.5723 115.597 60.172C115.486 71.848 109.703 85.915 102.587 85.915C88.9649 85.915 96.1369 56.615 106.868 56.615C107.305 56.5869 107.737 56.7179 108.084 56.9837C108.431 57.2496 108.671 57.6323 108.758 58.061C100.636 58.059 95.3539 83.747 103.249 83.747Z" fill="#9E765D"/>
<path d="M113.481 102.039C114.037 103.318 115.371 104.539 118.596 104.539C126.269 104.539 129.549 96.31 131.384 87.914C122.71 88.081 117.762 91.75 114.37 96.365C111.81 99.759 113.481 102.039 113.481 102.039ZM112.925 95.812C116.15 91.312 122.043 86.471 131.774 86.138C132.386 83.138 132.83 80.078 133.331 77.409C133.665 75.409 134.054 73.461 134.387 71.515H133.72C129.939 78.076 124.935 85.415 121.71 85.415C111.09 85.415 118.71 55.168 132.163 55.168C133.162 55.1809 134.132 55.511 134.931 56.1106C135.731 56.7102 136.319 57.5483 136.611 58.504C136.611 58.504 136.444 59.56 135.555 59.56C134.499 59.56 134.332 58.893 134.332 58.893C134.15 58.3293 133.805 57.8325 133.339 57.4661C132.874 57.0997 132.31 56.8804 131.719 56.836C123.49 56.836 118.041 83.191 122.319 83.191C125.319 83.191 133.161 69.402 136.942 61.674C138.054 59.394 139.166 57.949 140.778 57.949C141.668 57.949 142.057 58.505 142.057 59.395C142.057 59.395 139.611 63.009 137.164 77.465C136.664 80.301 136.108 83.359 135.44 86.365C142.946 87.644 141.334 94.265 138.94 94.265C139.094 93.6069 139.112 92.924 138.992 92.2588C138.871 91.5936 138.616 90.9602 138.241 90.3977C137.866 89.8352 137.38 89.3557 136.812 88.9889C136.244 88.6221 135.607 88.3757 134.94 88.265C132.494 97.495 128.157 106.002 118.594 106.002C114.48 106.002 112.867 104.39 111.922 102.444C111.567 101.339 111.473 100.166 111.646 99.0188C111.82 97.871 112.256 96.779 112.922 95.828L112.925 95.812Z" fill="#9E765D"/>
<path d="M165.022 87.305C165.05 87.1381 165.14 86.9879 165.274 86.8847C165.408 86.7815 165.577 86.733 165.745 86.749C166.468 86.749 166.301 87.305 166.301 87.305C166.301 87.305 164.633 92.087 162.187 92.087C157.072 92.087 156.187 81.801 157.687 72.187H157.131C153.406 78.692 148.847 85.087 145.731 85.087C135.331 85.087 144.563 55.674 150.012 55.674C150.846 55.674 151.124 56.23 151.124 57.008C151.124 57.008 144.897 72.743 144.897 79.808C144.897 81.587 145.286 82.922 146.343 82.922C149.343 82.922 157.908 67.187 160.577 61.293C162.134 57.793 163.691 55.677 165.577 55.677C166.467 55.677 166.8 56.233 166.8 57.011C162.871 65.4492 160.75 74.6157 160.573 83.922C160.573 88.87 161.351 89.922 162.408 89.922C164.133 89.973 165.022 87.305 165.022 87.305Z" fill="#9E765D"/>
<path d="M181.813 57.224C172.583 57.224 165.244 85.191 175.586 85.191C179.923 85.191 182.536 80.191 182.536 80.191C182.536 80.191 182.758 79.691 183.704 79.691C184.65 79.691 184.427 80.191 184.427 80.191C184.427 80.191 180.98 87.363 174.975 87.363C158.629 87.363 167.469 55.726 182.203 55.726C191.155 55.726 186.317 73.407 175.364 73.407C173.364 73.407 172.918 72.184 172.918 72.184C180.979 72.124 187.095 57.224 181.813 57.224Z" fill="#9E765D"/>
<path d="M143.616 20.251C143.894 17.693 146.116 16.971 148.175 18.138C149.595 18.9586 150.642 20.2964 151.098 21.8715C151.554 23.4466 151.383 25.137 150.621 26.589C150.343 27.089 151.9 29.369 151.9 29.369C154.762 27.9698 157.481 26.2952 160.018 24.369C163.576 21.756 167.58 20.31 172.139 21.144C174.512 21.5512 176.661 22.7924 178.199 24.644C179.394 26.1787 180.257 27.9443 180.736 29.8294C181.214 31.7145 181.297 33.6783 180.979 35.597L182.313 36.209C185.538 37.709 188.151 42.436 187.813 46.109C187.757 47.666 187.257 48.945 185.813 49.445C185.004 49.6707 184.149 49.6654 183.343 49.4296C182.537 49.1938 181.813 48.737 181.254 48.111C180.086 46.999 180.254 47.111 178.919 48.389C175.41 51.4194 170.874 52.9911 166.242 52.781C165.227 52.6936 164.245 52.3785 163.369 51.8591C162.493 51.3397 161.746 50.6294 161.182 49.781C160.701 49.0602 160.327 48.2737 160.07 47.446C159.959 47.168 159.57 47.224 159.347 47.224C159.52 48.2603 159.439 49.3232 159.11 50.321C158.78 51.3188 158.213 52.2214 157.457 52.951C156.405 53.8254 155.135 54.3962 153.783 54.6021C152.431 54.8079 151.048 54.6409 149.784 54.119C148.81 53.6756 147.734 53.5029 146.67 53.619C145.873 53.7925 145.045 53.7665 144.26 53.5434C143.475 53.3203 142.757 52.9069 142.17 52.34C139.566 53.0607 136.791 52.8441 134.33 51.728C131.216 50.228 119.373 48.392 117.038 36.382C115.648 29.154 118.372 24.982 120.819 21.982C121.954 20.4567 123.387 19.1775 125.031 18.2218C126.674 17.2661 128.495 16.6538 130.382 16.422C133.943 15.9364 137.565 16.5985 140.724 18.312C141.726 18.9004 142.691 19.5479 143.616 20.251ZM125.379 19.862C122.863 21.6361 120.897 24.0833 119.708 26.923C118.773 28.9595 118.303 31.1786 118.331 33.4193C118.36 35.6601 118.888 37.8663 119.875 39.878C121.286 43.0647 123.763 45.66 126.881 47.217C129.546 48.4961 132.296 49.592 135.11 50.497C137.114 51.2561 139.29 51.4397 141.393 51.0271C143.496 50.6145 145.442 49.6221 147.01 48.162C149.297 46.0909 150.905 43.378 151.625 40.378C152.848 35.596 152.125 30.815 148.289 26.923C146.232 24.81 144.119 22.697 141.895 20.751C138.337 17.751 130.664 16.303 125.382 19.861L125.379 19.862ZM164.8 35.207C164.911 35.151 165.078 35.151 165.134 35.263C165.161 35.3043 165.176 35.3526 165.176 35.402C165.176 35.4514 165.161 35.4997 165.134 35.541C163.42 37.4146 162.163 39.6605 161.464 42.102C160.574 45.549 161.13 48.663 163.577 50.331C165.096 51.2945 166.922 51.6515 168.692 51.331C173.64 50.608 177.977 48.607 180.924 44.325C181.424 43.602 181.647 42.825 181.98 43.38C182.202 43.769 181.869 44.492 181.646 44.992C181.09 46.16 181.146 46.271 182.369 47.216C184.869 49.106 186.317 47.716 186.483 46.271C186.614 44.7585 186.362 43.2373 185.75 41.8478C185.138 40.4583 184.187 39.2451 182.983 38.32C181.704 37.32 180.815 37.542 179.591 38.709C178.168 40.1963 176.493 41.4199 174.643 42.323C174.618 42.3357 174.59 42.3429 174.562 42.3441C174.534 42.3453 174.505 42.3405 174.479 42.33C174.453 42.3196 174.429 42.3036 174.409 42.2833C174.39 42.2629 174.375 42.2386 174.365 42.212C174.357 42.1337 174.377 42.0551 174.421 41.99C174.688 41.7974 174.931 41.5734 175.144 41.323C177.201 39.21 179.481 37.153 179.592 33.928C179.591 32.6971 179.479 31.4688 179.258 30.258C178.907 28.1849 177.874 26.2883 176.323 24.8682C174.772 23.4482 172.792 22.586 170.696 22.418C166.915 22.196 163.524 23.641 160.354 25.81C157.9 27.6986 155.275 29.355 152.514 30.758C152.845 31.4624 153.07 32.2118 153.181 32.982C154.059 37.3258 153.243 41.8409 150.901 45.603C151.214 45.5475 151.534 45.5475 151.846 45.603C152.23 45.6357 152.6 45.7649 152.921 45.9787C153.242 46.1926 153.503 46.484 153.681 46.826C154.015 47.771 153.125 46.993 152.291 46.77C151.736 46.606 151.146 46.608 150.592 46.776C150.039 46.9439 149.547 47.2704 149.177 47.715C148.047 48.9469 146.735 49.9972 145.285 50.829C144.749 51.0989 144.191 51.322 143.617 51.496C143.673 51.996 144.562 52.274 145.396 52.386C145.935 52.46 146.484 52.4222 147.008 52.275C147.119 51.83 146.174 51.775 146.674 51.275C147.174 50.775 149.12 52.275 149.732 52.609C150.751 53.1832 151.911 53.4615 153.08 53.4123C154.249 53.3632 155.381 52.9887 156.348 52.331C158.628 50.385 158.739 47.772 156.96 45.325C156.168 44.3557 155.183 43.5607 154.069 42.99C153.735 42.823 152.846 42.323 153.402 41.878C153.624 41.711 154.236 41.934 154.57 42.1C156.144 42.7072 157.5 43.7724 158.462 45.158C158.633 45.433 158.886 45.6472 159.185 45.77C159.797 45.992 159.63 45.27 159.63 44.936C159.703 43.0294 160.206 41.164 161.102 39.4791C161.997 37.7943 163.262 36.3335 164.801 35.206L164.8 35.207ZM146.452 23.142C146.351 22.6646 146.277 22.1818 146.23 21.696C146.23 21.307 146.286 20.806 146.675 20.862C146.953 20.862 147.064 21.307 147.12 21.585C147.62 23.753 148.788 25.644 149.12 25.585C149.266 25.571 149.406 25.517 149.524 25.4287C149.641 25.3405 149.733 25.2216 149.787 25.085C150.732 23.139 149.009 19.469 146.951 19.025C146.56 18.9485 146.156 18.999 145.796 19.169C145.436 19.339 145.14 19.6197 144.951 19.97C144.827 20.5898 144.906 21.2331 145.176 21.8045C145.447 22.3759 145.894 22.8449 146.452 23.142Z" fill="#9E765D"/>
<path d="M127.825 28.869C128.666 28.8746 129.486 29.1317 130.18 29.6074C130.873 30.0831 131.409 30.7555 131.717 31.538C132.076 32.3489 132.183 33.2489 132.024 34.1214C131.866 34.9938 131.449 35.7985 130.827 36.431C130.284 36.9239 129.686 37.3528 129.045 37.709C128.998 37.7383 128.946 37.7573 128.892 37.7648C128.837 37.7722 128.782 37.7678 128.729 37.752C128.676 37.7362 128.628 37.7092 128.586 37.673C128.545 37.6368 128.512 37.5921 128.489 37.542C128.433 37.486 128.433 37.431 128.433 37.32C128.431 36.7699 128.277 36.2312 127.988 35.763C127.794 35.5361 127.539 35.3687 127.254 35.2803C126.969 35.1918 126.664 35.1858 126.376 35.263L125.045 35.43C122.545 35.486 120.486 33.484 121.598 30.593C121.566 31.5722 121.922 32.5244 122.588 33.2428C123.254 33.9611 124.177 34.3874 125.156 34.429C125.529 34.4224 125.901 34.3853 126.268 34.318C126.598 34.2095 126.948 34.1774 127.292 34.2242C127.637 34.271 127.966 34.3954 128.255 34.5881C128.544 34.7808 128.785 35.0366 128.961 35.3363C129.136 35.636 129.241 35.9717 129.268 36.318C132.051 34.54 131.217 30.759 127.825 28.869Z" fill="#9E765D"/>
<path d="M140.724 36.653C140.279 36.709 139.779 36.709 139.556 36.264C139.333 35.819 139.778 35.374 140.39 35.208C140.668 35.1425 140.93 35.0229 141.161 34.856C141.393 34.6892 141.589 34.4783 141.739 34.2355C141.888 33.9927 141.989 33.7227 142.034 33.4411C142.08 33.1594 142.069 32.8716 142.003 32.594C141.947 32.149 141.892 31.538 142.337 31.371C142.949 31.149 143.227 31.871 143.337 32.316C143.518 32.7715 143.592 33.2628 143.552 33.7514C143.512 34.2401 143.36 34.7129 143.107 35.1328C142.854 35.5528 142.507 35.9085 142.093 36.1723C141.68 36.436 141.211 36.6005 140.724 36.653Z" fill="#9E765D"/>
<path d="M136.666 43.548C136.888 45.327 135.832 46.495 134.166 47.048C133.721 47.215 133.11 47.27 132.943 46.77C132.776 46.27 133.165 46.047 133.61 45.825C134.121 45.6293 134.557 45.2768 134.856 44.818C135.154 44.3592 135.3 43.8177 135.272 43.271C135.272 42.882 135.161 42.271 135.828 42.271C136.272 42.213 136.555 42.992 136.666 43.548Z" fill="#9E765D"/>
<path d="M147.231 41.828C147.328 42.2735 147.337 42.734 147.255 43.1827C147.173 43.6314 147.003 44.0594 146.755 44.442C146.507 44.8246 146.185 45.1542 145.809 45.4117C145.432 45.6691 145.009 45.8494 144.562 45.942C144.451 45.942 144.34 45.998 144.228 45.998C143.839 46.054 143.228 46.054 143.116 45.72C143.004 45.386 143.394 45.164 143.672 45.108C144.492 44.929 145.213 44.4441 145.689 43.752C146.164 43.06 146.357 42.2128 146.23 41.383C146.23 41.105 146.341 40.771 146.619 40.827C147.007 40.934 147.119 41.435 147.231 41.828Z" fill="#9E765D"/>
<path d="M154.731 17.137C154.787 17.193 154.787 17.248 154.787 17.359C154.783 17.423 154.766 17.4855 154.737 17.5429C154.709 17.6002 154.669 17.6513 154.62 17.693L154.342 17.971C152.869 17.8599 151.414 17.5801 150.005 17.137C149.783 17.081 149.505 16.97 149.282 16.915C149.049 16.8108 148.854 16.6359 148.726 16.415V16.137C149.893 14.8037 150.616 13.9703 150.894 13.637C151.605 12.788 152.238 11.8762 152.784 10.913C152.485 10.7294 152.133 10.6513 151.784 10.691C151.466 10.7005 151.15 10.7377 150.839 10.802C150.505 10.858 150.227 10.858 149.894 10.913C149.65 10.9033 149.407 10.8661 149.171 10.802C148.893 10.635 148.726 10.468 148.726 10.246C148.726 10.19 148.782 10.079 148.782 10.024C149.15 9.75365 149.608 9.63417 150.061 9.69H150.617C150.859 9.69905 151.102 9.68026 151.34 9.634C151.75 9.64339 152.158 9.68048 152.563 9.745C152.958 9.79009 153.338 9.92301 153.675 10.134C153.788 10.2065 153.882 10.3047 153.95 10.4207C154.017 10.5366 154.057 10.667 154.064 10.801C154.064 10.912 154.064 10.968 154.008 11.023C153.613 11.9715 153.071 12.8517 152.401 13.631C151.734 14.409 151.067 15.243 150.401 15.966C151.677 16.3476 152.978 16.645 154.293 16.856C154.513 16.803 154.625 16.97 154.731 17.137Z" fill="white"/>
<path d="M162.353 13.468V13.579C162.352 13.6219 162.342 13.6641 162.323 13.7025C162.303 13.7409 162.276 13.7746 162.242 13.801L162.02 14.023C160.983 13.9508 159.958 13.7643 158.962 13.467L158.462 13.3C158.297 13.238 158.159 13.1197 158.073 12.966V12.744C158.606 12.1797 159.107 11.5858 159.573 10.965C160.067 10.3714 160.513 9.73943 160.907 9.075C160.683 8.9612 160.435 8.90387 160.184 8.908C159.962 8.908 159.739 8.964 159.517 8.964C159.298 9.01019 159.074 9.029 158.85 9.02C158.681 9.02889 158.512 9.00997 158.35 8.964C158.128 8.853 158.016 8.742 158.016 8.575C158.016 8.519 158.016 8.464 158.072 8.464C158.333 8.28737 158.648 8.20874 158.962 8.242H159.351C159.52 8.25089 159.689 8.23197 159.851 8.186C160.129 8.186 160.407 8.242 160.741 8.242C161.039 8.25779 161.327 8.35385 161.575 8.52C161.66 8.5725 161.731 8.64607 161.779 8.73363C161.828 8.8212 161.853 8.91982 161.853 9.02C161.857 9.05027 161.854 9.08105 161.844 9.11C161.835 9.13895 161.818 9.16529 161.797 9.187C161.514 9.84757 161.139 10.4652 160.685 11.022C160.185 11.578 159.74 12.134 159.239 12.69C160.145 12.979 161.076 13.1838 162.019 13.302C162.051 13.2857 162.087 13.2772 162.123 13.2771C162.159 13.277 162.195 13.2853 162.228 13.3014C162.26 13.3175 162.288 13.341 162.31 13.3699C162.332 13.3988 162.346 13.4324 162.353 13.468Z" fill="white"/>
</svg>
