<svg width="164" height="43" viewBox="0 0 164 43" fill="none" xmlns="http://www.w3.org/2000/svg">
<path d="M13.9683 4.17305C12.7734 7.16703 11.8093 10.248 11.0843 13.3891C10.5203 15.5771 10.0563 17.9971 9.65835 20.2521H9.92335C12.4433 12.3951 16.7233 2.38306 22.1233 2.38306C28.1573 2.38306 26.4003 10.3731 20.5653 13.7541C28.6553 16.3071 25.0113 34.8061 9.65835 34.8061C-1.24865 34.8061 1.20435 24.6281 5.58035 24.6281C5.98035 24.6281 5.91235 25.4571 5.54735 25.4571C2.72935 25.4571 0.247347 33.3801 9.02835 33.3801C21.0953 33.3801 26.8973 15.18 19.2723 14.4501C17.9322 15.0232 16.4857 15.3058 15.0283 15.2791C14.6963 15.2791 14.6963 14.284 15.0283 14.284C22.0893 14.284 26.2003 3.44305 21.9573 3.44305C15.5253 3.44305 8.53035 28.0431 8.53035 29.3681C8.53276 29.4269 8.52349 29.4856 8.50309 29.5408C8.48269 29.5961 8.45156 29.6467 8.4115 29.6898C8.37143 29.733 8.32322 29.7677 8.26964 29.7922C8.21607 29.8166 8.15819 29.8301 8.09935 29.8321H7.99935C7.19935 29.8321 6.90535 28.9041 6.90535 26.9151C6.91135 17.1031 9.55935 7.19005 12.0113 4.37206C8.23235 4.97205 1.70135 7.52205 1.70135 11.6991C1.70135 12.2991 2.00135 12.6601 2.43035 12.6601C2.37134 12.8264 2.25647 12.9672 2.1053 13.0584C1.95414 13.1495 1.77604 13.1855 1.60135 13.1601C1.36887 13.1425 1.14234 13.0781 0.935332 12.9709C0.72832 12.8637 0.54509 12.7157 0.39662 12.536C0.248151 12.3562 0.1375 12.1484 0.0712971 11.9248C0.00509468 11.7013 -0.0152959 11.4667 0.0113474 11.2351C0.0113474 6.59405 9.55935 3.61005 13.4053 3.61005C13.5459 3.59484 13.687 3.63466 13.7988 3.72117C13.9107 3.80768 13.9847 3.93415 14.0053 4.07405C13.9922 4.08672 13.982 4.1022 13.9756 4.11934C13.9692 4.13648 13.9667 4.15483 13.9683 4.17305Z" fill="#9E765D"/>
<path d="M38.8653 33.447C39.8933 33.447 40.3243 31.922 40.3243 31.922C40.3523 31.8098 40.4164 31.7099 40.5067 31.6376C40.597 31.5653 40.7086 31.5247 40.8243 31.522C41.1893 31.522 41.0893 31.922 41.0893 31.922C41.0893 31.922 40.2273 34.707 38.7683 34.707C36.6133 34.707 35.5853 31.491 35.5853 27.546C35.5867 25.9136 35.7204 24.2839 35.9853 22.673H35.6202C33.3992 26.452 30.4813 30.596 28.6583 30.596C22.2933 30.596 26.8683 12.561 34.8913 12.561C35.487 12.5687 36.065 12.7655 36.5417 13.123C37.0183 13.4805 37.3691 13.9802 37.5433 14.55C37.5433 14.55 37.4433 15.18 36.9133 15.18C36.2833 15.18 36.1843 14.78 36.1843 14.78C36.0759 14.4438 35.8698 14.1475 35.5923 13.929C35.3148 13.7104 34.9785 13.5795 34.6263 13.553C29.7193 13.553 26.4373 29.3 28.9903 29.3C30.9463 29.3 36.3503 19.122 37.4773 16.9C38.2063 15.375 39.0353 14.281 40.0303 14.281C40.4613 14.281 40.7302 14.613 40.7302 15.11C38.7422 19.6815 37.7153 24.613 37.7133 29.598C37.7053 32.486 38.1363 33.447 38.8653 33.447Z" fill="#9E765D"/>
<path d="M48.6502 2.44898C48.7908 2.43376 48.9318 2.47359 49.0437 2.5601C49.1555 2.64661 49.2295 2.77308 49.2502 2.91298V3.04598C47.8145 6.40569 46.6911 9.89038 45.8942 13.456C45.0322 17.169 44.2702 21.346 43.8052 24.662H44.0702C46.0262 19.755 49.4702 12.862 53.1212 12.862C59.7212 12.862 55.7402 30.632 49.1762 30.632C44.7002 30.632 47.0872 22.145 50.2042 19.957C50.5042 19.757 50.9332 20.189 50.7042 20.357C47.7532 22.678 46.7262 29.474 48.8812 29.474C52.0972 29.474 56.6062 14.124 52.7932 14.124C48.7482 14.124 43.3782 29.009 43.3782 29.407C43.3863 29.473 43.3805 29.54 43.361 29.6036C43.3414 29.6671 43.3087 29.7259 43.2649 29.7759C43.2211 29.826 43.1672 29.8662 43.1067 29.8939C43.0463 29.9217 42.9807 29.9364 42.9142 29.937H42.8482C42.0482 29.937 41.7542 29.009 41.7542 27.02C41.7162 14.815 45.9272 2.44898 48.6502 2.44898Z" fill="#9E765D"/>
<path d="M61.5752 29.634C64.3602 29.634 67.7752 22.44 67.7752 15.412V14.981C67.1273 14.5947 66.5642 14.0813 66.1198 13.4718C65.6754 12.8622 65.3589 12.1691 65.1892 11.434C65.2546 11.0957 65.4238 10.7862 65.6733 10.5485C65.9228 10.3109 66.2401 10.1569 66.5812 10.108C67.5762 10.108 68.5042 12.197 68.8352 14.153C69.4723 14.6196 70.2342 14.8853 71.0232 14.916C71.4289 14.9149 71.8279 14.8117 72.1832 14.616C72.1868 14.7911 72.1549 14.9652 72.0895 15.1276C72.0241 15.2901 71.9266 15.4377 71.8028 15.5615C71.6789 15.6854 71.5313 15.7829 71.3688 15.8483C71.2064 15.9137 71.0323 15.9456 70.8572 15.942C70.1993 15.9395 69.5474 15.8158 68.9342 15.577C68.8682 22.539 65.4202 30.927 61.1762 30.927C53.0542 30.927 57.3303 13.456 63.7293 13.456C63.9896 13.4392 64.2471 13.5173 64.4543 13.6757C64.6615 13.8342 64.8043 14.0624 64.8562 14.318C60.0162 14.317 56.8672 29.634 61.5752 29.634Z" fill="#9E765D"/>
<path d="M67.6783 40.542C68.0103 41.305 68.8053 42.034 70.7283 42.034C75.3033 42.034 77.2593 37.127 78.3533 32.121C73.1813 32.221 70.2313 34.409 68.2083 37.16C66.6783 39.182 67.6783 40.542 67.6783 40.542ZM67.3463 36.829C68.6294 35.0466 70.3173 33.5942 72.2712 32.5913C74.225 31.5884 76.3891 31.0636 78.5853 31.06C78.9503 29.27 79.2153 27.446 79.5133 25.86C79.7133 24.667 79.9443 23.506 80.1433 22.346H79.7433C77.4893 26.258 74.5053 30.634 72.5823 30.634C66.2503 30.634 70.7923 12.599 78.8153 12.599C79.4111 12.6067 79.989 12.8035 80.4657 13.161C80.9423 13.5185 81.2931 14.0182 81.4673 14.588C81.4673 14.588 81.3673 15.218 80.8373 15.218C80.2073 15.218 80.1083 14.818 80.1083 14.818C79.9999 14.4818 79.7939 14.1855 79.5164 13.9669C79.2389 13.7484 78.9025 13.6175 78.5503 13.591C73.6433 13.591 70.3943 29.305 72.9503 29.305C74.7403 29.305 79.4153 21.083 81.6693 16.475C82.3323 15.116 82.9953 14.254 83.9573 14.254C84.4873 14.254 84.7193 14.586 84.7193 15.116C84.7193 15.116 83.2603 17.271 81.8023 25.891C81.5023 27.582 81.1723 29.405 80.7743 31.191C85.2503 31.954 84.2883 35.899 82.8633 35.899C82.9557 35.5063 82.9664 35.0987 82.8947 34.7017C82.8231 34.3047 82.6706 33.9266 82.4468 33.5909C82.223 33.2552 81.9326 32.9691 81.5936 32.7503C81.2546 32.5315 80.8743 32.3847 80.4763 32.319C79.0173 37.819 76.4313 42.895 70.7293 42.895C68.2763 42.895 67.3143 41.934 66.7513 40.773C66.5402 40.1137 66.4845 39.4145 66.5886 38.7301C66.6927 38.0457 66.9537 37.3947 67.3513 36.828L67.3463 36.829Z" fill="#9E765D"/>
<path d="M98.4073 31.756C98.4241 31.6565 98.4778 31.567 98.5577 31.5054C98.6376 31.4439 98.7379 31.4148 98.8383 31.424C99.2693 31.424 99.1693 31.756 99.1693 31.756C99.1693 31.756 98.1743 34.607 96.7163 34.607C93.6663 34.607 93.1363 28.474 94.0313 22.738H93.6993C91.4783 26.617 88.7593 30.429 86.8993 30.429C80.6993 30.429 86.1994 12.891 89.4524 12.891C89.9524 12.891 90.1153 13.223 90.1153 13.691C90.1153 13.691 86.4023 23.073 86.4023 27.283C86.4023 28.344 86.6343 29.14 87.2643 29.14C89.0543 29.14 94.1643 19.758 95.7513 16.24C96.6793 14.151 97.6083 12.892 98.7353 12.892C99.2653 12.892 99.4643 13.224 99.4643 13.692C97.1217 18.7234 95.857 24.189 95.7513 29.738C95.7513 32.689 96.2153 33.318 96.8453 33.318C97.8813 33.347 98.4073 31.756 98.4073 31.756Z" fill="#9E765D"/>
<path d="M108.419 13.8251C102.919 13.8251 98.5404 30.5011 104.706 30.5011C107.292 30.5011 108.85 27.5171 108.85 27.5171C108.85 27.5171 108.983 27.217 109.55 27.217C110.117 27.217 109.981 27.5171 109.981 27.5171C109.981 27.5171 107.926 31.7941 104.345 31.7941C94.5984 31.7941 99.8694 12.9301 108.655 12.9301C113.993 12.9301 111.108 23.4721 104.577 23.4721C103.384 23.4721 103.118 22.743 103.118 22.743C107.922 22.705 111.569 13.8251 108.419 13.8251Z" fill="#9E765D"/>
<path d="M140.937 30.9079C149.384 30.9079 156.231 24.0606 156.231 15.6139C156.231 7.1673 149.384 0.319946 140.937 0.319946C132.49 0.319946 125.643 7.1673 125.643 15.6139C125.643 24.0606 132.49 30.9079 140.937 30.9079Z" fill="#BFE2D8"/>
<path d="M124.475 11.0149L127.468 10.7229C127.76 10.7229 132.542 12.5479 132.542 12.5479L134.915 14.0079C134.915 14.0079 134.769 12.5479 135.061 12.4019L136.161 11.8539L137.767 12.2539L138.826 13.4219L139.374 15.3569L138.68 17.5839L139.666 19.6279C139.666 19.6279 140.725 19.0799 141.199 18.8609C141.673 18.6419 147.55 14.6999 147.879 14.6999C148.208 14.6999 150.579 14.0789 151.201 14.0789C151.823 14.0789 154.669 14.5169 154.669 14.5169L156.823 16.1229L158.21 18.9699L158.502 23.2409L158.94 24.0409L160.875 24.8809L162.802 28.0609L162.875 31.0539C162.875 31.0539 161.707 31.7839 161.415 31.7109C161.123 31.6379 159.152 30.6889 159.152 30.6889L158.166 30.3969L156.45 31.9299L154.077 33.2809C154.077 33.2809 151.412 33.9019 151.084 33.9019C150.756 33.9019 148.091 33.6459 148.091 33.6459C148.091 33.6459 146.558 32.2949 146.339 32.0759C146.12 31.8569 145.791 30.6889 145.609 30.6159C145.427 30.5429 144.587 30.1779 144.587 30.1779L144.039 30.4339L144.331 32.3339L142.944 34.2339L142.031 34.9639L139.731 35.2559L138.709 35.0729L137.176 34.6349L135.789 34.5619C135.521 34.5556 135.254 34.5312 134.989 34.4889C134.733 34.4159 134.189 33.6889 133.889 33.6889H132.173C131.881 33.6889 130.348 33.7989 130.348 33.7989L126.223 32.5989L122.755 30.8829L119.47 28.2179L117.462 25.0419L117.097 20.6619L118.197 16.9019L120.022 13.6169L123.198 11.9009L124.476 11.0249" fill="white"/>
<path d="M134.294 13.023C134.476 11.344 135.937 10.869 137.287 11.636C138.219 12.1746 138.907 13.0528 139.206 14.0869C139.506 15.121 139.393 16.2307 138.893 17.184C138.711 17.513 139.733 19.009 139.733 19.009C141.612 18.0896 143.397 16.9894 145.062 15.724C146.163 14.8284 147.442 14.1766 148.814 13.8117C150.185 13.4468 151.619 13.377 153.019 13.607C154.577 13.8747 155.989 14.6904 156.998 15.907C157.783 16.9145 158.35 18.0737 158.664 19.3113C158.978 20.549 159.032 21.8383 158.823 23.098L159.699 23.498C160.832 24.1542 161.767 25.105 162.403 26.2494C163.039 27.3938 163.354 28.6892 163.313 29.998C163.362 30.4562 163.26 30.9179 163.023 31.313C162.786 31.7082 162.427 32.0153 161.999 32.188C161.468 32.336 160.907 32.3324 160.378 32.1776C159.849 32.0228 159.374 31.7229 159.006 31.312C158.239 30.582 158.349 30.655 157.473 31.495C155.17 33.4845 152.192 34.5165 149.151 34.379C148.485 34.3214 147.84 34.1143 147.265 33.7731C146.69 33.4318 146.199 32.9652 145.829 32.408C145.513 31.9347 145.268 31.4184 145.099 30.875C145.026 30.692 144.77 30.729 144.624 30.729C144.738 31.4093 144.685 32.1072 144.468 32.7623C144.252 33.4174 143.88 34.01 143.383 34.489C142.693 35.063 141.859 35.4378 140.971 35.5729C140.084 35.7081 139.176 35.5985 138.346 35.256C137.707 34.9647 137.001 34.851 136.302 34.927C135.778 35.0413 135.234 35.0244 134.718 34.8779C134.202 34.7313 133.731 34.4596 133.345 34.087C131.636 34.5607 129.814 34.4191 128.198 33.687C126.154 32.701 118.379 31.497 116.846 23.613C116.463 21.9539 116.489 20.2267 116.921 18.5798C117.353 16.9329 118.18 15.4158 119.328 14.159C120.073 13.1576 121.014 12.3178 122.093 11.6904C123.172 11.0631 124.367 10.6611 125.606 10.509C127.944 10.1907 130.322 10.6254 132.395 11.75C133.053 12.1362 133.687 12.5613 134.294 13.023ZM122.322 12.767C120.67 13.9318 119.38 15.5385 118.599 17.403C117.555 19.8077 117.461 22.5186 118.334 24.9903C119.208 27.462 120.985 29.5113 123.308 30.726C125.057 31.5658 126.861 32.2855 128.708 32.88C130.024 33.378 131.452 33.4984 132.832 33.2275C134.213 32.9566 135.49 32.3052 136.519 31.347C138.02 29.9873 139.076 28.2064 139.549 26.237C140.02 24.7045 140.065 23.0728 139.679 21.5168C139.293 19.9607 138.491 18.539 137.359 17.404C136.008 16.017 134.621 14.63 133.159 13.352C130.823 11.381 125.786 10.432 122.318 12.768L122.322 12.767ZM148.201 22.841C148.274 22.805 148.384 22.805 148.42 22.877C148.438 22.9041 148.448 22.9359 148.448 22.9685C148.448 23.001 148.438 23.0328 148.42 23.06C147.295 24.2899 146.47 25.7643 146.011 27.367C145.427 29.63 145.792 31.674 147.398 32.767C148.395 33.4001 149.594 33.6346 150.756 33.424C152.346 33.2766 153.886 32.7897 155.271 31.9961C156.656 31.2025 157.855 30.1208 158.786 28.824C159.115 28.349 159.261 27.838 159.48 28.203C159.626 28.459 159.407 28.933 159.261 29.262C158.896 30.029 158.932 30.102 159.736 30.722C161.379 31.963 162.328 31.051 162.436 30.101C162.522 29.1077 162.356 28.109 161.954 27.1967C161.552 26.2844 160.927 25.488 160.136 24.881C159.296 24.224 158.712 24.37 157.909 25.137C156.975 26.1136 155.875 26.917 154.66 27.51C154.644 27.5179 154.625 27.5224 154.607 27.523C154.589 27.5236 154.57 27.5204 154.553 27.5135C154.536 27.5066 154.521 27.4963 154.508 27.4831C154.495 27.4699 154.485 27.4542 154.478 27.437C154.473 27.3856 154.485 27.3338 154.514 27.291C154.69 27.1645 154.849 27.0174 154.989 26.853C156.34 25.466 157.836 24.115 157.909 21.998C157.909 21.19 157.835 20.3837 157.69 19.589C157.46 18.2277 156.782 16.9821 155.764 16.0498C154.746 15.1174 153.445 14.5516 152.069 14.442C149.619 14.3948 147.226 15.1799 145.28 16.669C143.669 17.909 141.946 18.9967 140.133 19.918C140.35 20.3804 140.498 20.8723 140.571 21.378C141.147 24.2302 140.61 27.1946 139.071 29.664C139.277 29.6274 139.487 29.6274 139.692 29.664C139.943 29.6857 140.185 29.7704 140.395 29.9103C140.604 30.0501 140.776 30.2405 140.892 30.464C141.111 31.085 140.527 30.574 139.979 30.428C139.615 30.3203 139.227 30.3218 138.864 30.4321C138.501 30.5425 138.178 30.757 137.935 31.049C137.194 31.8575 136.332 32.547 135.38 33.093C135.027 33.2704 134.659 33.417 134.28 33.531C134.316 33.86 134.901 34.042 135.448 34.115C135.802 34.1637 136.163 34.1389 136.507 34.042C136.58 33.75 135.959 33.7129 136.288 33.385C136.617 33.057 137.894 34.042 138.296 34.261C138.966 34.638 139.727 34.8206 140.494 34.7882C141.262 34.7559 142.005 34.5099 142.64 34.078C142.982 33.8116 143.265 33.4777 143.472 33.0969C143.679 32.7162 143.805 32.2969 143.843 31.8651C143.881 31.4334 143.829 30.9986 143.69 30.5879C143.552 30.1771 143.331 29.7993 143.04 29.478C142.519 28.8414 141.873 28.3194 141.14 27.945C140.921 27.835 140.34 27.507 140.702 27.215C140.848 27.105 141.25 27.252 141.469 27.361C142.503 27.7597 143.393 28.4592 144.024 29.369C144.137 29.5489 144.303 29.6889 144.499 29.769C144.899 29.915 144.791 29.44 144.791 29.221C144.839 27.9692 145.17 26.7445 145.758 25.6383C146.345 24.5322 147.176 23.5732 148.186 22.833L148.201 22.841ZM136.156 14.92C136.09 14.6066 136.041 14.2898 136.01 13.971C136.01 13.715 136.046 13.387 136.302 13.423C136.485 13.423 136.558 13.715 136.594 13.898C136.923 15.322 137.694 16.563 137.908 16.526C138.004 16.5165 138.096 16.4809 138.173 16.4228C138.251 16.3648 138.31 16.2867 138.346 16.197C138.967 14.919 137.835 12.51 136.484 12.218C136.228 12.1675 135.962 12.2006 135.725 12.3123C135.489 12.4241 135.294 12.6086 135.17 12.839C135.089 13.2459 135.141 13.6682 135.319 14.0432C135.496 14.4182 135.79 14.726 136.156 14.921V14.92Z" fill="#9E765D"/>
<path d="M123.927 18.6799C124.479 18.6836 125.018 18.8524 125.473 19.1647C125.928 19.4769 126.28 19.9183 126.482 20.4319C126.718 20.9642 126.788 21.555 126.684 22.1277C126.58 22.7005 126.306 23.2287 125.898 23.6439C125.542 23.9678 125.15 24.2496 124.73 24.4839C124.7 24.5031 124.665 24.5156 124.629 24.5204C124.594 24.5252 124.557 24.5223 124.523 24.5119C124.488 24.5015 124.456 24.4838 124.429 24.46C124.402 24.4362 124.38 24.4068 124.365 24.3739C124.329 24.3379 124.329 24.3009 124.329 24.2279C124.328 23.8669 124.227 23.5132 124.037 23.2059C123.91 23.0567 123.743 22.9466 123.555 22.8883C123.368 22.8301 123.168 22.8262 122.978 22.8769L122.102 22.9869C121.707 23.0312 121.307 22.9691 120.944 22.8069C120.581 22.6447 120.267 22.3884 120.037 22.0645C119.806 21.7405 119.666 21.3608 119.631 20.9646C119.596 20.5684 119.668 20.1701 119.839 19.8109C119.818 20.4539 120.052 21.0792 120.489 21.5509C120.926 22.0227 121.532 22.3026 122.175 22.3299C122.42 22.3255 122.664 22.3011 122.905 22.2569C123.122 22.1846 123.352 22.1627 123.579 22.193C123.805 22.2233 124.022 22.3049 124.212 22.4317C124.402 22.5584 124.561 22.727 124.676 22.9244C124.791 23.1219 124.86 23.343 124.876 23.5709C126.701 22.4029 126.153 19.9209 123.927 18.6799Z" fill="#9E765D"/>
<path d="M132.395 23.79C132.103 23.826 131.774 23.826 131.628 23.534C131.482 23.242 131.774 22.95 132.176 22.84C132.358 22.7969 132.53 22.7184 132.682 22.6088C132.834 22.4993 132.963 22.3609 133.061 22.2015C133.16 22.0421 133.226 21.8649 133.255 21.68C133.285 21.4951 133.278 21.3062 133.235 21.124C133.199 20.832 133.162 20.43 133.454 20.324C133.854 20.178 134.038 20.653 134.111 20.945C134.23 21.2439 134.278 21.5663 134.251 21.8868C134.225 22.2074 134.124 22.5175 133.958 22.7929C133.792 23.0683 133.565 23.3016 133.294 23.4746C133.022 23.6476 132.715 23.7555 132.395 23.79Z" fill="#9E765D"/>
<path d="M129.731 28.3159C129.798 28.8358 129.666 29.3616 129.361 29.7881C129.056 30.2146 128.602 30.5102 128.088 30.6159C127.796 30.7259 127.394 30.7619 127.288 30.4329C127.182 30.1039 127.434 29.9579 127.726 29.8119C128.064 29.685 128.353 29.4539 128.551 29.1521C128.748 28.8502 128.845 28.4933 128.826 28.1329C128.826 27.8769 128.753 27.4759 129.191 27.4759C129.476 27.4399 129.659 27.9509 129.731 28.3159Z" fill="#9E765D"/>
<path d="M136.667 27.1849C136.731 27.4773 136.737 27.7795 136.683 28.074C136.629 28.3685 136.518 28.6494 136.355 28.9005C136.192 29.1516 135.981 29.3679 135.734 29.5368C135.487 29.7058 135.209 29.8241 134.915 29.8849C134.842 29.8849 134.769 29.9219 134.696 29.9219C134.44 29.9589 134.039 29.9589 133.966 29.7389C133.893 29.5189 134.148 29.3739 134.331 29.3389C134.87 29.2216 135.344 28.9032 135.656 28.4487C135.968 27.9942 136.095 27.4378 136.01 26.8929C136.01 26.7099 136.083 26.4929 136.265 26.5279C136.521 26.6009 136.594 26.9299 136.667 27.1849Z" fill="#9E765D"/>
<path d="M141.594 10.9789C141.63 11.0159 141.63 11.0519 141.63 11.1249C141.628 11.1669 141.617 11.2078 141.598 11.2454C141.579 11.283 141.553 11.3165 141.521 11.3439L141.338 11.5269C140.372 11.4538 139.416 11.27 138.491 10.9789C138.345 10.9429 138.162 10.8689 138.017 10.8329C137.864 10.7643 137.737 10.6492 137.652 10.5039V10.3209C138.419 9.44493 138.894 8.89726 139.076 8.67793C139.543 8.12034 139.959 7.52155 140.317 6.88893C140.121 6.76821 139.89 6.71681 139.66 6.74293C139.452 6.7492 139.244 6.77363 139.039 6.81593C138.82 6.85193 138.639 6.85193 138.418 6.88893C138.258 6.88254 138.098 6.85805 137.943 6.81593C137.761 6.70593 137.651 6.59693 137.651 6.45093C137.651 6.41393 137.687 6.34093 137.687 6.30493C137.929 6.12747 138.23 6.04913 138.527 6.08593H138.892C139.052 6.09215 139.211 6.08007 139.367 6.04993C139.635 6.05626 139.903 6.08065 140.167 6.12293C140.427 6.1527 140.676 6.24017 140.897 6.37893C140.971 6.42656 141.033 6.4911 141.078 6.56724C141.122 6.64338 141.148 6.72895 141.152 6.81693C141.152 6.88993 141.152 6.92693 141.116 6.96293C140.856 7.58729 140.499 8.16648 140.057 8.67893C139.619 9.18993 139.181 9.73793 138.743 10.2119C139.581 10.4624 140.435 10.6575 141.298 10.7959C141.452 10.7599 141.521 10.8689 141.594 10.9789Z" fill="white"/>
<path d="M146.595 8.56993V8.64293C146.595 8.67116 146.588 8.69891 146.575 8.72417C146.562 8.74942 146.544 8.77155 146.522 8.78893L146.376 8.93493C145.695 8.88754 145.022 8.76513 144.368 8.56993L144.04 8.45993C143.932 8.4194 143.841 8.34184 143.784 8.24093V8.09493C144.134 7.72449 144.464 7.33453 144.77 6.92693C145.095 6.53718 145.387 6.1222 145.646 5.68593C145.499 5.61102 145.336 5.57325 145.171 5.57593C145.025 5.57593 144.879 5.61293 144.733 5.61293C144.589 5.64334 144.442 5.65577 144.295 5.64993C144.184 5.65576 144.073 5.64326 143.966 5.61293C143.82 5.53993 143.747 5.46693 143.747 5.35693C143.747 5.31993 143.747 5.28393 143.783 5.28393C143.954 5.16796 144.161 5.11626 144.367 5.13793H144.623C144.734 5.14399 144.844 5.13183 144.951 5.10193C145.133 5.10193 145.316 5.13793 145.535 5.13793C145.731 5.14833 145.92 5.21157 146.083 5.32093C146.139 5.35549 146.185 5.40393 146.217 5.46156C146.249 5.51919 146.266 5.58407 146.265 5.64993C146.268 5.66986 146.265 5.6901 146.259 5.70914C146.253 5.72818 146.242 5.74554 146.228 5.75993C146.042 6.19196 145.796 6.59586 145.498 6.95993C145.169 7.32493 144.877 7.68993 144.549 8.05993C145.144 8.24902 145.755 8.38292 146.374 8.45993C146.395 8.44889 146.419 8.44305 146.443 8.44287C146.467 8.44269 146.491 8.44818 146.512 8.45889C146.534 8.46961 146.553 8.48525 146.567 8.50454C146.581 8.52383 146.591 8.54623 146.595 8.56993Z" fill="white"/>
</svg>
