<svg width="1441" height="32" viewBox="0 0 1441 32" fill="none" xmlns="http://www.w3.org/2000/svg">
<g filter="url(#filter0_d_2005_6714)">
<path d="M1396.72 0.703857H240.747V23.2247C255.151 22.668 258.179 14.6147 268.899 11.1721C272.691 9.85554 276.648 9.07284 280.656 8.84646C284.665 9.07288 288.622 9.85558 292.414 11.1721C303.133 14.6147 306.165 22.6673 320.566 23.2247C334.97 22.668 337.999 14.6147 348.718 11.1721C352.51 9.85545 356.467 9.07275 360.476 8.84646C364.484 9.07276 368.441 9.85546 372.233 11.1721C382.952 14.6147 385.984 22.6673 400.385 23.2247C414.789 22.668 417.818 14.6147 428.537 11.1721C432.329 9.85554 436.287 9.07284 440.295 8.84646C444.303 9.07283 448.26 9.85553 452.053 11.1721C462.772 14.6147 465.804 22.6673 480.205 23.2247C494.609 22.668 497.637 14.6147 508.358 11.1721C511.22 10.2218 514.161 9.52784 517.147 9.09853V9.15929C517.339 9.10211 517.535 9.05751 517.733 9.02576C519.571 8.77742 521.434 8.77742 523.272 9.02576C523.47 9.05753 523.666 9.10213 523.858 9.15929V9.09853C526.843 9.52786 529.785 10.2218 532.647 11.1721C543.367 14.6147 546.398 22.6673 560.8 23.2247C575.204 22.668 578.233 14.6147 588.952 11.1721C596.484 8.07266 604.935 8.07266 612.467 11.1721C623.186 14.6147 626.217 22.6673 640.619 23.2247C655.023 22.668 658.052 14.6147 668.771 11.1721C676.303 8.07266 684.754 8.07266 692.286 11.1721C703.006 14.6147 706.037 22.6673 720.438 23.2247C734.842 22.668 737.871 14.6147 748.591 11.1721C756.123 8.07266 764.574 8.07266 772.106 11.1721C782.825 14.6147 785.856 22.6673 800.258 23.2247C814.662 22.668 817.691 14.6147 828.41 11.1721C831.272 10.2218 834.214 9.52786 837.199 9.09853V9.15929C837.391 9.10211 837.587 9.05751 837.786 9.02576C839.623 8.77758 841.485 8.77758 843.323 9.02576C843.521 9.05772 843.718 9.10258 843.91 9.16004V9.09928C846.896 9.52859 849.837 10.2225 852.7 11.1728C863.419 14.6155 866.451 22.668 880.852 23.2254C895.256 22.6688 898.285 14.6155 909.004 11.1728C916.536 8.07341 924.987 8.07341 932.519 11.1728C943.238 14.6155 946.27 22.668 960.671 23.2254C975.075 22.6688 978.104 14.6155 988.823 11.1728C996.355 8.07337 1004.81 8.07337 1012.34 11.1728C1023.06 14.6155 1026.09 22.668 1040.49 23.2254C1054.89 22.6688 1057.92 14.6155 1068.64 11.1728C1076.17 8.07341 1084.63 8.07341 1092.16 11.1728C1102.88 14.6155 1105.91 22.668 1120.31 23.2254C1134.71 22.6688 1137.74 14.6155 1148.46 11.1728C1155.99 8.07341 1164.45 8.07341 1171.98 11.1728C1182.7 14.6155 1185.73 22.668 1200.13 23.2254C1214.53 22.6688 1217.56 14.6155 1228.28 11.1728C1235.81 8.07345 1244.26 8.07345 1251.8 11.1728C1262.52 14.6155 1265.55 22.668 1279.95 23.2254C1294.35 22.6688 1297.38 14.6155 1308.1 11.1728C1310.96 10.2225 1313.9 9.52861 1316.89 9.09928V9.16004C1317.08 9.10287 1317.28 9.05826 1317.48 9.02651C1319.31 8.77798 1321.18 8.77798 1323.02 9.02651C1323.21 9.0583 1323.41 9.10291 1323.6 9.16004V9.09928C1326.59 9.52871 1329.53 10.2226 1332.39 11.1728C1343.11 14.6155 1346.14 22.668 1360.54 23.2254C1374.95 22.6688 1377.98 14.6155 1388.69 11.1728C1396.23 8.07341 1404.68 8.07341 1412.21 11.1728C1422.94 14.6147 1425.97 22.6673 1440.37 23.2247V0.703857H1396.72ZM197.093 0.703857H0V23.2247C14.4037 22.668 17.433 14.6147 28.1518 11.1721C30.9307 10.2519 33.783 9.57026 36.6777 9.13453V9.15929C36.6777 9.15929 36.7377 9.13904 36.8623 9.10903C37.9565 8.95629 39.0586 8.86686 40.1631 8.84121C41.2676 8.86689 42.3698 8.95631 43.464 9.10903C43.5878 9.13904 43.6485 9.15929 43.6485 9.15929V9.13453C46.5432 9.57028 49.3955 10.2519 52.1745 11.1721C62.8932 14.6147 65.9248 22.6673 80.3262 23.2247C94.73 22.668 97.7593 14.6147 108.478 11.1721C112.271 9.85553 116.228 9.07283 120.236 8.84646C124.244 9.07284 128.201 9.85554 131.994 11.1721C142.713 14.6147 145.745 22.6673 160.145 23.2247C174.549 22.668 177.578 14.6147 188.297 11.1721C191.16 10.2218 194.101 9.52786 197.087 9.09853V9.15929C197.28 9.10186 197.476 9.057 197.674 9.02501C199.511 8.77675 201.374 8.77675 203.212 9.02501C203.41 9.05676 203.606 9.10136 203.798 9.15854V9.09778C206.784 9.5271 209.725 10.221 212.588 11.1713C223.307 14.614 226.339 22.6665 240.74 23.2239V0.703857H197.093Z" fill="white"/>
</g>
<defs>
<filter id="filter0_d_2005_6714" x="-4" y="0.703857" width="1448.37" height="30.5215" filterUnits="userSpaceOnUse" color-interpolation-filters="sRGB">
<feFlood flood-opacity="0" result="BackgroundImageFix"/>
<feColorMatrix in="SourceAlpha" type="matrix" values="0 0 0 0 0 0 0 0 0 0 0 0 0 0 0 0 0 0 127 0" result="hardAlpha"/>
<feOffset dy="4"/>
<feGaussianBlur stdDeviation="2"/>
<feComposite in2="hardAlpha" operator="out"/>
<feColorMatrix type="matrix" values="0 0 0 0 0 0 0 0 0 0 0 0 0 0 0 0 0 0 0.05 0"/>
<feBlend mode="normal" in2="BackgroundImageFix" result="effect1_dropShadow_2005_6714"/>
<feBlend mode="normal" in="SourceGraphic" in2="effect1_dropShadow_2005_6714" result="shape"/>
</filter>
</defs>
</svg>
