<svg width="45" height="45" viewBox="0 0 45 45" fill="none" xmlns="http://www.w3.org/2000/svg">
<path d="M22.407 44.4722C18.0976 44.4719 13.8851 43.1937 10.302 40.7994C6.719 38.405 3.92638 35.002 2.27729 31.0206C0.6282 27.0392 0.196688 22.6583 1.03732 18.4316C1.87795 14.205 3.95297 10.3226 7.00001 7.27519C11.0867 3.18847 16.6295 0.892578 22.409 0.892578C28.1885 0.892578 33.7313 3.18847 37.818 7.27519C41.9047 11.3619 44.2006 16.9047 44.2006 22.6842C44.2006 28.4637 41.9047 34.0065 37.818 38.0932C35.7987 40.1228 33.3969 41.7316 30.7516 42.8266C28.1062 43.9215 25.27 44.4809 22.407 44.4722ZM23.363 22.3802L21.643 24.4452C21.453 24.7032 21.138 25.1252 20.943 25.3852C20.7413 25.6386 20.5242 25.8794 20.293 26.1062C19.881 26.5282 19.525 26.8932 19.634 27.1062C19.801 27.4312 23.862 34.2902 23.934 34.3732C24.0008 34.442 24.0806 34.4967 24.1689 34.5341C24.2572 34.5715 24.3521 34.5907 24.448 34.5907C24.5439 34.5907 24.6388 34.5715 24.7271 34.5341C24.8154 34.4967 24.8953 34.442 24.962 34.3732C25.05 34.2782 26.739 29.1732 28.27 24.4632C29.801 19.7532 31.444 14.6262 31.434 14.4822C31.404 14.0612 31.252 13.8972 30.891 13.8972C30.4207 13.9392 29.9589 14.049 29.52 14.2232C28.972 14.4072 24.693 15.8082 19.778 17.4132C13.494 19.4662 11.018 20.2912 10.947 20.3582C10.8783 20.4249 10.8237 20.5048 10.7865 20.593C10.7492 20.6812 10.73 20.7759 10.73 20.8717C10.73 20.9674 10.7492 21.0622 10.7865 21.1504C10.8237 21.2386 10.8783 21.3185 10.947 21.3852C11.021 21.4552 17.636 25.1852 18.028 25.3922C18.0539 25.4043 18.0824 25.4102 18.111 25.4092C18.8195 25.1368 19.4745 24.7418 20.046 24.2422L20.075 24.2202C20.249 24.0882 20.689 23.7612 21.015 23.5202L23.363 22.3802Z" fill="white"/>
</svg>
