<svg width="276" height="119" viewBox="0 0 276 119" fill="none" xmlns="http://www.w3.org/2000/svg">
<path d="M102.754 44.129C103.501 43.7929 104.323 43.6621 105.138 43.7502C105.748 43.8828 106.382 43.8639 106.983 43.695C107.585 43.5262 108.136 43.2126 108.588 42.7817C110.582 43.3276 112.704 43.164 114.59 42.3188C116.968 41.1815 126.035 39.7914 127.822 30.6938C128.886 25.2174 126.801 22.0598 124.928 19.7852C124.054 18.6268 122.955 17.6566 121.697 16.9329C120.44 16.2093 119.049 15.7469 117.608 15.5737C114.884 15.2059 112.113 15.707 109.69 17.0058C108.924 17.453 108.185 17.9452 107.477 18.4799C107.264 16.5422 105.561 15.9953 103.986 16.8797C102.902 17.4927 102.099 18.5044 101.749 19.6997C101.399 20.8951 101.528 22.1799 102.11 23.2811C102.324 23.66 101.131 25.3869 101.131 25.3869C98.9427 24.3269 96.8617 23.0574 94.9176 21.5962C92.1929 19.6164 89.1284 18.5204 85.6377 19.1536C83.8255 19.4601 82.1812 20.4008 80.9985 21.8078C80.0852 22.9661 79.424 24.3025 79.0575 25.7314C78.691 27.1603 78.6272 28.65 78.8702 30.1049L77.8477 30.567C75.3788 31.7043 73.3781 35.285 73.6339 38.0645C73.6759 39.2438 74.0592 40.2123 75.1665 40.5919C75.7851 40.7635 76.4393 40.7598 77.0559 40.5813C77.6726 40.4027 78.2275 40.0562 78.6587 39.5806C79.5529 38.7381 79.4246 38.8222 80.4464 39.7914C83.1422 42.0913 86.6109 43.2816 90.1509 43.1215C90.9256 43.0565 91.6758 42.8184 92.3462 42.4247C93.0165 42.031 93.59 41.4918 94.0241 40.8469C94.3928 40.3007 94.6801 39.7038 94.8771 39.075C94.9626 38.8642 95.2605 38.9062 95.4308 38.9062C95.299 39.6926 95.3621 40.4993 95.6145 41.2556C95.8669 42.012 96.301 42.6949 96.8786 43.2446C97.8851 44.1137 99.1786 44.5778 100.508 44.5469C101.276 44.5487 102.038 44.407 102.754 44.129ZM102.797 42.9917C102.015 43.4268 101.128 43.6374 100.235 43.6002C99.3407 43.563 98.4745 43.2795 97.7316 42.7809C95.9866 41.3068 95.9019 39.33 97.2635 37.4741C97.8715 36.7383 98.625 36.1361 99.4766 35.7051C99.7324 35.5791 100.413 35.2002 99.9874 34.8634C99.8171 34.7366 99.3498 34.9054 99.0939 35.0314C97.8909 35.4874 96.852 36.2932 96.1112 37.345C95.9798 37.5536 95.7861 37.7156 95.5575 37.8079C95.0894 37.9759 95.2169 37.429 95.2169 37.1762C95.1584 35.7281 94.7717 34.3123 94.0861 33.0355C93.4004 31.7586 92.4337 30.6542 91.2589 29.8056C91.1734 29.7643 91.0459 29.7643 91.0031 29.8476C90.9822 29.8788 90.971 29.9154 90.971 29.953C90.971 29.9905 90.9822 30.0272 91.0031 30.0584C92.3129 31.4742 93.2746 33.176 93.8118 35.0284C94.493 37.6399 94.0677 39.9985 92.1944 41.2618C91.0283 41.9943 89.631 42.2658 88.2754 42.0232C84.4869 41.4756 81.1666 39.9595 78.9107 36.7164C78.5274 36.1687 78.3571 35.5791 78.102 36.0007C77.9317 36.2955 78.1876 36.8424 78.3578 37.222C78.784 38.1072 78.7412 38.1905 77.8042 38.9069C75.889 40.3391 74.7824 39.2865 74.6534 38.1912C74.5553 37.0422 74.7503 35.887 75.22 34.8338C75.6896 33.7806 76.4187 32.8636 77.3391 32.1687C78.3181 31.4102 78.9993 31.579 79.9363 32.4635C81.028 33.5922 82.3105 34.5192 83.7247 35.2017C83.7442 35.211 83.7653 35.2162 83.7868 35.2169C83.8084 35.2177 83.8298 35.2139 83.8498 35.206C83.8698 35.198 83.888 35.186 83.9031 35.1707C83.9183 35.1553 83.9301 35.1371 83.9378 35.117C83.9439 35.0576 83.9288 34.9981 83.895 34.9489C83.6909 34.8034 83.505 34.6339 83.3414 34.444C81.766 32.8431 80.021 31.2857 79.9363 28.8431C79.9367 27.9105 80.0221 26.9799 80.1913 26.0629C80.4686 24.4853 81.2635 23.045 82.4506 21.9696C83.6377 20.8942 85.1493 20.2449 86.7465 20.1243C89.6408 19.9563 92.2379 21.0516 94.6641 22.6937C96.5446 24.1265 98.5537 25.3821 100.666 26.4447C100.412 26.9778 100.24 27.5457 100.155 28.1296C99.4845 31.4208 100.11 34.8437 101.9 37.6856C101.66 37.6434 101.416 37.6434 101.176 37.6856C100.883 37.7097 100.601 37.8072 100.355 37.9691C100.11 38.131 99.909 38.3522 99.7714 38.6121C99.5163 39.3278 100.197 38.7381 100.836 38.5701C101.26 38.4457 101.711 38.4472 102.134 38.5742C102.557 38.7013 102.934 38.9485 103.219 39.2858C104.086 40.2201 105.091 41.0156 106.199 41.6444C106.609 41.8489 107.036 42.0178 107.474 42.1493C107.432 42.5281 106.751 42.7389 106.112 42.8244C105.699 42.8806 105.279 42.8518 104.878 42.7397C104.792 42.4028 105.516 42.3608 105.133 41.9812C105.103 41.9541 105.067 41.9334 105.028 41.9205C104.99 41.9076 104.949 41.9028 104.908 41.9062C104.352 41.904 103.196 42.7749 102.794 42.9917H102.797ZM121.434 18.1851C123.357 19.5231 124.864 21.3773 125.779 23.534C126.495 25.0748 126.855 26.7568 126.833 28.4555C126.811 30.1542 126.407 31.8263 125.652 33.348C124.565 35.7686 122.668 37.7345 120.288 38.9069C118.246 39.8766 116.14 40.7067 113.986 41.3916C112.453 41.9664 110.79 42.1053 109.183 41.7931C107.576 41.4809 106.086 40.7296 104.879 39.6226C103.132 38.0597 101.9 36.0037 101.346 33.7261C100.41 30.1042 100.963 26.4822 103.897 23.5332C105.472 21.933 107.089 20.3321 108.792 18.8588C110.818 17.351 113.287 16.5569 115.812 16.6007C117.801 16.5635 119.757 17.1147 121.434 18.1851ZM105.131 18.9435C104.918 18.9435 104.831 19.2804 104.79 19.4912C104.407 21.1333 103.515 22.567 103.258 22.5234C103.146 22.5131 103.039 22.4723 102.949 22.4055C102.859 22.3387 102.789 22.2484 102.747 22.1446C102.023 20.6705 103.342 17.8903 104.918 17.5534C105.216 17.4948 105.525 17.5325 105.801 17.6611C106.076 17.7898 106.304 18.0027 106.45 18.2691C106.544 18.7397 106.482 19.2279 106.275 19.6607C106.068 20.0934 105.726 20.4474 105.301 20.6697C105.378 20.3081 105.435 19.9424 105.471 19.5744C105.471 19.2954 105.433 18.9398 105.171 18.9398C105.159 18.9403 105.147 18.9416 105.135 18.9435H105.131ZM115.648 38.5693C115.776 38.1905 115.478 38.0217 115.138 37.8537C114.746 37.7091 114.411 37.4437 114.181 37.096C113.951 36.7483 113.837 36.3362 113.857 35.9197C113.857 35.6248 113.943 35.1612 113.431 35.1612C113.09 35.1192 112.877 35.7089 112.793 36.1297C112.622 37.4801 113.431 38.3615 114.708 38.7831C114.852 38.8388 115.005 38.8693 115.159 38.8732C115.263 38.8858 115.368 38.8626 115.457 38.8074C115.546 38.7521 115.614 38.6682 115.648 38.5693ZM107.855 37.7696C107.941 37.5168 107.642 37.348 107.429 37.306C106.805 37.1745 106.254 36.809 105.89 36.2844C105.526 35.7598 105.376 35.1158 105.472 34.4845C105.472 34.2737 105.387 34.0209 105.172 34.0629C104.872 34.1477 104.789 34.5265 104.704 34.8214C104.63 35.1604 104.625 35.5107 104.688 35.8518C104.751 36.1929 104.882 36.518 105.072 36.8081C105.262 37.0983 105.508 37.3476 105.796 37.5417C106.083 37.7358 106.406 37.8706 106.747 37.9384C106.832 37.9384 106.917 37.9804 107.002 37.9804C107.098 37.9937 107.194 38.0005 107.29 38.0007C107.544 38.0007 107.798 37.9489 107.855 37.7696ZM119.054 31.5783C119.096 31.537 119.096 31.4943 119.096 31.4102C119.098 30.9932 119.216 30.5849 119.437 30.2309C119.587 30.0588 119.782 29.932 120 29.8651C120.218 29.7981 120.451 29.7936 120.672 29.8521L121.693 29.9781C123.61 30.0201 125.185 28.504 124.332 26.3172C124.352 27.0623 124.077 27.7852 123.567 28.3288C123.057 28.8724 122.353 29.1928 121.608 29.2204C121.322 29.2153 121.038 29.1869 120.757 29.1357C120.505 29.0523 120.238 29.027 119.975 29.0617C119.712 29.0965 119.461 29.1904 119.24 29.3363C119.018 29.4822 118.833 29.6764 118.698 29.9043C118.562 30.1321 118.48 30.3877 118.458 30.6518C116.33 29.3015 116.968 26.4402 119.564 25.0081C118.923 25.0108 118.297 25.2044 117.767 25.5644C117.236 25.9244 116.825 26.4343 116.585 27.0291C116.311 27.6433 116.229 28.3263 116.35 28.9881C116.472 29.6499 116.791 30.2593 117.266 30.7358C117.682 31.1094 118.139 31.4344 118.628 31.7043C118.68 31.731 118.737 31.7454 118.795 31.7463C118.85 31.7462 118.903 31.7303 118.949 31.7005C118.995 31.6707 119.031 31.6282 119.054 31.5783ZM110.583 30.6098C110.753 30.273 110.413 29.9346 109.945 29.8101C109.733 29.7618 109.534 29.6722 109.357 29.5464C109.18 29.4206 109.03 29.2611 108.916 29.0771C108.801 28.8931 108.724 28.6882 108.689 28.4742C108.653 28.2602 108.661 28.0414 108.711 27.8303C108.753 27.4935 108.795 27.0299 108.455 26.9038C107.987 26.7358 107.774 27.2827 107.689 27.6195C107.551 27.9661 107.496 28.34 107.527 28.7116C107.559 29.0833 107.676 29.4425 107.87 29.7611C108.064 30.0796 108.329 30.3488 108.645 30.5472C108.961 30.7456 109.319 30.868 109.69 30.9046C109.779 30.9166 109.87 30.9232 109.961 30.9241C110.084 30.9388 110.209 30.9169 110.319 30.861C110.43 30.805 110.522 30.7177 110.583 30.6098Z" fill="#374D59" fill-opacity="0.15"/>
<path d="M18.3206 38.6542C18.0304 37.8886 17.5411 37.2144 16.9032 36.701C16.3777 36.3631 15.943 35.9016 15.637 35.3568C15.331 34.8121 15.1631 34.2007 15.1479 33.5761C13.3521 32.5523 11.9678 30.9365 11.2315 29.005C10.3546 26.5187 4.92634 19.1245 10.0952 11.4285C13.2138 6.80445 16.9223 6.04535 19.8553 5.76155C21.2923 5.56029 22.7552 5.6512 24.1563 6.02884C25.5574 6.40648 26.8678 7.06307 28.0091 7.95928C30.1957 9.62551 31.8007 11.9393 32.5955 14.571C32.8212 15.4292 32.9958 16.3 33.1185 17.1788C34.6394 15.9593 36.2308 16.7762 36.7183 18.5156C37.0516 19.7158 36.9037 20.9986 36.3061 22.0915C35.7085 23.1844 34.7083 24.0012 33.518 24.3682C33.0994 24.4854 32.7212 26.5495 32.7212 26.5495C35.0185 27.3477 37.3876 27.9215 39.7955 28.2629C43.1221 28.7897 46.0641 30.1816 48.0846 33.0976C49.1491 34.5955 49.6465 36.4229 49.4882 38.2537C49.315 39.7185 48.8375 41.1309 48.0865 42.4003C47.3354 43.6697 46.3272 44.7681 45.1267 45.6251L45.5219 46.6759C46.4635 49.2259 45.3463 53.1726 43.2001 54.9571C42.3365 55.7613 41.3806 56.175 40.3292 55.6605C39.7709 55.3443 39.3115 54.8793 39.002 54.3173C38.6925 53.7554 38.5452 53.1185 38.5765 52.4777C38.5399 51.2496 38.5712 51.3998 37.1634 51.3626C33.6306 51.0813 30.3365 49.4687 27.9475 46.851C27.4457 46.2572 27.0836 45.5584 26.888 44.806C26.6923 44.0536 26.6681 43.2668 26.8171 42.5038C26.9421 41.858 27.1601 41.2337 27.4643 40.6504C27.5529 40.4408 27.3126 40.2599 27.1922 40.1395C26.7293 40.7888 26.1142 41.3146 25.4009 41.6709C24.6876 42.0272 23.8978 42.2032 23.1007 42.1834C21.7739 42.0863 20.5306 41.4994 19.6123 40.5369C19.0683 39.9952 18.6303 39.3567 18.3206 38.6542ZM19.0978 37.8209C19.3429 38.6813 19.821 39.4572 20.4794 40.063C21.1377 40.6687 21.9507 41.0808 22.8285 41.2535C25.1048 41.445 26.5625 40.1072 26.9121 37.832C27.0023 36.8818 26.8954 35.9232 26.598 35.0163C26.5063 34.7463 26.293 33.9973 26.832 34.0598C27.042 34.0906 27.2532 34.5405 27.3449 34.8105C27.8715 35.9839 28.0346 37.2881 27.8133 38.555C27.7587 38.7954 27.7811 39.0469 27.8775 39.2738C28.0897 39.7236 28.3862 39.2468 28.565 39.068C29.6304 38.0854 30.905 37.3577 32.2926 36.9397C33.6803 36.5216 35.1448 36.4243 36.5756 36.6549C36.6652 36.6862 36.7554 36.7764 36.7268 36.8655C36.7195 36.9023 36.7015 36.9362 36.6749 36.9627C36.6484 36.9893 36.6146 37.0073 36.5777 37.0146C34.6504 37.0895 32.7671 37.6128 31.0773 38.5428C28.7491 39.9077 27.3821 41.8763 27.8133 44.0942C28.1207 45.4366 28.9176 46.6163 30.0482 47.4027C33.1143 49.6943 36.5342 50.9701 40.4225 50.272C41.0808 50.1558 41.6182 49.8593 41.5004 50.3378C41.4124 50.6667 40.8448 50.8725 40.456 51.0205C39.5287 51.3451 39.5001 51.4342 39.656 52.6034C39.9976 54.9703 41.5243 55.0085 42.39 54.3253C43.2719 53.5826 43.9512 52.6286 44.3643 51.5522C44.7774 50.4758 44.9108 49.3122 44.7522 48.1703C44.5963 46.9417 43.9952 46.5794 42.7073 46.5423C41.1372 46.5684 39.5748 46.317 38.0922 45.7996C38.0719 45.7925 38.0533 45.7812 38.0375 45.7665C38.0218 45.7518 38.0093 45.734 38.0007 45.7142C37.9922 45.6944 37.9879 45.6731 37.988 45.6515C37.9881 45.63 37.9927 45.6087 38.0015 45.589C38.0391 45.5427 38.0919 45.5113 38.1505 45.5004C38.3978 45.5419 38.6491 45.5534 38.899 45.5349C41.145 45.5169 43.4802 45.6495 45.2673 43.9822C45.9264 43.3225 46.5241 42.6041 47.0528 41.836C47.9723 40.5244 48.4286 38.9438 48.3497 37.344C48.2707 35.7442 47.661 34.2162 46.6168 33.0016C44.6891 30.8362 42.0781 29.7742 39.2014 29.2199C36.8586 28.9032 34.55 28.3704 32.3053 27.6285C32.1074 28.1844 31.8276 28.7078 31.4752 29.1811C29.6217 31.9842 26.7581 33.9638 23.481 34.7075C23.68 34.8468 23.8531 35.0199 23.9924 35.2189C24.1826 35.4432 24.3133 35.7119 24.3725 36C24.4316 36.2881 24.4173 36.5865 24.3308 36.8676C24.0051 37.554 23.9404 36.6554 23.6078 36.0852C23.396 35.6975 23.0761 35.3797 22.6871 35.1703C22.2981 34.961 21.8567 34.8691 21.4164 34.9059C20.1431 34.9539 18.8699 34.8058 17.6416 34.4667C17.2072 34.3215 16.7861 34.1392 16.3828 33.9219C16.1447 34.2195 16.4773 34.8502 16.8687 35.3627C17.1209 35.6943 17.4383 35.9709 17.8013 36.1754C18.1 35.9976 17.6178 35.456 18.1572 35.4587C18.198 35.461 18.2378 35.4716 18.2743 35.4899C18.3108 35.5081 18.3431 35.5336 18.3694 35.5648C18.7641 35.951 18.9662 37.3838 19.0978 37.8209ZM23.4571 7.10045C21.1518 6.68783 18.7769 6.9346 16.6056 7.81234C15.0103 8.39588 13.5665 9.33056 12.381 10.5473C11.1955 11.764 10.2987 13.2316 9.75677 14.8416C8.81359 17.3216 8.76481 20.053 9.61885 22.5652C10.3771 24.6947 11.2788 26.7704 12.3179 28.778C12.9954 30.2691 14.0727 31.5435 15.4303 32.4597C16.7879 33.3759 18.3728 33.8982 20.0091 33.9686C22.3496 34.0989 24.6746 33.5162 26.6771 32.2976C29.9002 30.3986 32.0703 27.4465 32.0809 23.2866C32.0984 21.0411 32.0873 18.766 31.925 16.52C31.5583 14.021 30.3742 11.7139 28.5576 9.95914C27.1765 8.52413 25.402 7.52954 23.4571 7.10045ZM34.4463 19.1622C34.5964 19.3123 34.4203 19.6126 34.2999 19.7903C33.4098 21.2225 33.0268 22.867 33.2395 23.0182C33.3258 23.0898 33.4301 23.1364 33.541 23.1529C33.6519 23.1693 33.7652 23.155 33.8686 23.1115C35.4224 22.5805 36.4557 19.6821 35.5799 18.3299C35.4104 18.0775 35.1651 17.8855 34.8793 17.7816C34.5935 17.6778 34.2821 17.6675 33.9901 17.7522C33.5912 18.0189 33.2894 18.4076 33.1299 18.8601C32.9704 19.3126 32.9618 19.8046 33.1053 20.2624C33.3064 19.9521 33.5247 19.6533 33.7593 19.3675C33.9567 19.1702 34.2352 18.9458 34.4203 19.1309C34.4296 19.1408 34.4383 19.1512 34.4463 19.1622ZM13.1343 25.6053C13.312 25.2472 13.6419 25.3384 14.0016 25.4604C14.381 25.6352 14.8062 25.6843 15.2155 25.6007C15.6248 25.5172 15.9967 25.3052 16.2773 24.9958C16.4857 24.7873 16.7531 24.399 17.1149 24.7608C17.3854 24.9719 17.1191 25.5395 16.8809 25.8965C16.047 26.9723 14.8519 27.0237 13.6504 26.4185C13.5094 26.3562 13.3802 26.27 13.2685 26.1638C13.1861 26.0997 13.128 26.0095 13.1036 25.908C13.0792 25.8066 13.09 25.6998 13.1343 25.6053ZM19.2102 30.5503C19.3285 30.311 19.659 30.4028 19.8394 30.5238C20.3741 30.8726 21.0221 31.0036 21.6504 30.89C22.2787 30.7764 22.8397 30.4267 23.2184 29.9127C23.3675 29.7636 23.6067 29.6453 23.7287 29.8267C23.881 30.0989 23.672 30.4256 23.5234 30.694C23.3358 30.9858 23.0919 31.2373 22.806 31.4338C22.5202 31.6303 22.198 31.768 21.8584 31.8387C21.5188 31.9094 21.1685 31.9118 20.8279 31.8457C20.4874 31.7796 20.1634 31.6463 19.8749 31.4537C19.8144 31.3932 19.7248 31.363 19.6643 31.3025C19.5876 31.2445 19.5149 31.1814 19.4468 31.1136C19.267 30.9338 19.1238 30.7174 19.2102 30.5503ZM15.6704 18.2535C15.6694 18.1941 15.6996 18.1639 15.759 18.1045C16.0525 17.8081 16.2578 17.436 16.3521 17.0297C16.3678 16.802 16.3195 16.5744 16.2125 16.3727C16.1055 16.1711 15.9442 16.0034 15.7468 15.8887L14.9352 15.2564C13.5501 13.9307 13.5082 11.7447 15.6603 10.7989C15.1184 11.3116 14.8008 12.0176 14.7768 12.7633C14.7527 13.509 15.0241 14.234 15.532 14.7806C15.737 14.9781 15.9577 15.1587 16.1919 15.3206C16.4287 15.4395 16.6355 15.6106 16.7968 15.8209C16.958 16.0313 17.0694 16.2755 17.1227 16.5351C17.1759 16.7947 17.1696 17.0631 17.1042 17.3199C17.0388 17.5768 16.9161 17.8154 16.7451 18.018C19.2049 18.5681 20.7767 16.0935 19.9534 13.2449C20.4049 13.7001 20.7105 14.2796 20.8312 14.9094C20.9518 15.5391 20.8821 16.1905 20.6308 16.7804C20.3908 17.409 19.9659 17.95 19.412 18.3321C18.8582 18.7141 18.2015 18.9192 17.5286 18.9203C16.9704 18.8905 16.4175 18.7971 15.8805 18.6418C15.8252 18.6243 15.7747 18.5941 15.733 18.5538C15.695 18.5149 15.6689 18.466 15.6578 18.4128C15.6467 18.3596 15.6511 18.3043 15.6704 18.2535ZM22.3426 23.5603C22.4604 23.2017 22.9405 23.2033 23.3595 23.4463C23.5431 23.5616 23.7478 23.6395 23.9616 23.6755C24.1755 23.7114 24.3943 23.7047 24.6056 23.6557C24.8168 23.6067 25.0162 23.5163 25.1924 23.3899C25.3686 23.2635 25.518 23.1034 25.6321 22.919C25.84 22.6506 26.1381 22.293 26.4681 22.4447C26.9179 22.6569 26.6813 23.1938 26.5036 23.4924C26.356 23.8349 26.1308 24.1384 25.8457 24.379C25.5607 24.6196 25.2237 24.7907 24.8613 24.8787C24.4989 24.9668 24.1209 24.9694 23.7573 24.8865C23.3937 24.8035 23.0543 24.6371 22.7659 24.4006C22.6939 24.3456 22.6254 24.2862 22.5607 24.2229C22.4631 24.1462 22.3904 24.0424 22.3516 23.9245C22.3128 23.8066 22.3097 23.6799 22.3426 23.5603Z" fill="#374D59" fill-opacity="0.15"/>
<path d="M183.51 38.6528C183.801 37.8872 184.29 37.2129 184.928 36.6996C185.453 36.3616 185.888 35.9001 186.194 35.3553C186.5 34.8106 186.668 34.1992 186.683 33.5746C188.479 32.5508 189.863 30.9351 190.599 29.0036C191.477 26.5178 196.905 19.1236 191.736 11.4271C188.616 6.80192 184.909 6.04388 181.976 5.76008C180.539 5.55882 179.076 5.64973 177.675 6.02737C176.273 6.405 174.963 7.0616 173.822 7.95781C171.635 9.62398 170.031 11.9376 169.236 14.569C169.01 15.4272 168.836 16.298 168.713 17.1768C167.192 15.9572 165.602 16.7742 165.113 18.5136C164.78 19.7138 164.928 20.9966 165.525 22.0895C166.123 23.1824 167.123 23.9992 168.313 24.3662C168.732 24.4834 169.11 26.5475 169.11 26.5475C166.813 27.3457 164.444 27.9195 162.036 28.2609C158.709 28.7877 155.767 30.1796 153.747 33.0956C152.682 34.5938 152.185 36.4216 152.343 38.2528C152.516 39.7176 152.994 41.13 153.745 42.3994C154.496 43.6688 155.504 44.7672 156.705 45.6241L156.309 46.6745C155.367 49.2244 156.485 53.1711 158.631 54.9556C159.494 55.7598 160.45 56.1735 161.502 55.659C162.06 55.3429 162.52 54.8778 162.83 54.3155C163.14 53.7532 163.287 53.1158 163.256 52.4746C163.293 51.2466 163.261 51.3967 164.669 51.3596C168.202 51.0796 171.496 49.4685 173.886 46.8522C174.388 46.2584 174.75 45.5595 174.946 44.8071C175.141 44.0547 175.165 43.268 175.016 42.505C174.891 41.8581 174.672 41.2329 174.367 40.6489C174.278 40.4394 174.518 40.2585 174.639 40.1381C175.102 40.7873 175.717 41.3131 176.43 41.6694C177.143 42.0258 177.933 42.2017 178.73 42.1819C180.056 42.0848 181.299 41.4984 182.217 40.5364C182.762 39.9945 183.2 39.3557 183.51 38.6528ZM182.736 37.8183C182.491 38.6787 182.013 39.4547 181.355 40.0604C180.696 40.6662 179.883 41.0782 179.006 41.251C176.729 41.4425 175.272 40.1046 174.922 37.8295C174.832 36.8793 174.939 35.9207 175.236 35.0137C175.328 34.7437 175.541 33.9947 175.002 34.0573C174.792 34.0881 174.581 34.5379 174.489 34.8079C173.961 35.981 173.796 37.2854 174.016 38.553C174.071 38.7934 174.048 39.0449 173.952 39.2718C173.74 39.7216 173.443 39.2448 173.264 39.066C172.199 38.0834 170.924 37.3557 169.537 36.9377C168.149 36.5196 166.684 36.4223 165.254 36.6529C165.164 36.6842 165.074 36.7744 165.102 36.8635C165.11 36.9003 165.128 36.9342 165.154 36.9607C165.181 36.9873 165.215 37.0053 165.252 37.0125C167.179 37.0875 169.062 37.6108 170.752 38.5408C173.08 39.9057 174.447 41.8743 174.016 44.0922C173.709 45.4347 172.913 46.6147 171.783 47.4017C168.717 49.6934 165.297 50.9691 161.409 50.271C160.751 50.1549 160.214 49.8578 160.331 50.3368C160.419 50.6657 160.987 50.8715 161.375 51.0195C162.303 51.3442 162.331 51.4333 162.175 52.6024C161.834 54.9694 160.307 55.0076 159.441 54.3243C158.56 53.5812 157.881 52.6265 157.468 51.5496C157.055 50.4728 156.922 49.3088 157.082 48.1667C157.238 46.9381 157.839 46.5758 159.127 46.5387C160.697 46.5649 162.259 46.3134 163.742 45.796C163.762 45.7889 163.781 45.7776 163.797 45.7629C163.812 45.7482 163.825 45.7304 163.833 45.7106C163.842 45.6908 163.846 45.6695 163.846 45.6479C163.846 45.6264 163.841 45.6051 163.833 45.5854C163.795 45.5391 163.742 45.5077 163.683 45.4968C163.436 45.5383 163.185 45.5499 162.935 45.5313C160.689 45.5133 158.354 45.6459 156.567 43.9786C155.908 43.3189 155.31 42.6005 154.781 41.8324C153.862 40.5208 153.405 38.9402 153.484 37.3404C153.563 35.7406 154.173 34.2126 155.217 32.998C157.145 30.8326 159.756 29.7706 162.633 29.2163C164.975 28.8996 167.284 28.3668 169.529 27.6249C169.727 28.1808 170.006 28.7042 170.359 29.1775C172.212 31.9787 175.074 33.9571 178.35 34.7008C178.151 34.8401 177.978 35.0131 177.838 35.2121C177.648 35.4365 177.518 35.7051 177.458 35.9932C177.399 36.2813 177.414 36.5797 177.5 36.8608C177.826 37.5473 177.89 36.6486 178.223 36.0784C178.435 35.6907 178.755 35.3729 179.144 35.1636C179.533 34.9542 179.974 34.8624 180.414 34.8992C181.688 34.9471 182.961 34.799 184.189 34.4599C184.624 34.3147 185.045 34.1324 185.448 33.9152C185.686 34.2127 185.354 34.8435 184.962 35.3559C184.71 35.6875 184.393 35.9641 184.03 36.1686C183.731 35.9909 184.213 35.4493 183.674 35.4519C183.633 35.4542 183.593 35.4649 183.557 35.4831C183.52 35.5013 183.488 35.5268 183.461 35.558C183.067 35.9495 182.865 37.3828 182.734 37.8204L182.736 37.8183ZM178.374 7.09951C180.68 6.68554 183.056 6.93139 185.228 7.80874C186.824 8.39229 188.268 9.32697 189.453 10.5437C190.639 11.7604 191.535 13.228 192.077 14.838C193.02 17.318 193.069 20.0494 192.215 22.5616C191.457 24.6911 190.555 26.7668 189.516 28.7744C188.839 30.265 187.761 31.5389 186.404 32.4548C185.047 33.3707 183.462 33.8929 181.827 33.9634C179.486 34.0937 177.161 33.511 175.159 32.2925C171.935 30.3934 169.765 27.4413 169.755 23.2814C169.737 21.0359 169.748 18.7608 169.911 16.5148C170.277 14.0158 171.461 11.7087 173.278 9.95395C174.659 8.52122 176.431 7.52819 178.374 7.09951ZM167.382 19.1639C167.232 19.314 167.408 19.6143 167.529 19.792C168.419 21.2243 168.802 22.8687 168.589 23.0199C168.503 23.0915 168.399 23.1381 168.288 23.1546C168.177 23.171 168.063 23.1567 167.96 23.1132C166.406 22.5823 165.373 19.6838 166.249 18.3316C166.418 18.0792 166.664 17.8872 166.949 17.7833C167.235 17.6795 167.547 17.6692 167.839 17.7539C168.238 18.0206 168.539 18.4093 168.699 18.8618C168.858 19.3143 168.867 19.8063 168.723 20.2641C168.522 19.9538 168.304 19.655 168.069 19.3692C167.872 19.1719 167.594 18.9475 167.408 19.1326C167.4 19.1415 167.392 19.1509 167.385 19.1607L167.382 19.1639ZM188.697 25.6038C188.519 25.2457 188.189 25.337 187.829 25.459C187.45 25.6334 187.026 25.6826 186.617 25.5995C186.209 25.5165 185.837 25.3054 185.556 24.9969C185.348 24.7885 185.08 24.4002 184.719 24.7619C184.448 24.9731 184.714 25.5407 184.953 25.8977C185.786 26.9735 186.982 27.0249 188.183 26.4197C188.324 26.3574 188.453 26.2712 188.565 26.165C188.648 26.1004 188.706 26.0096 188.729 25.9075C188.753 25.8055 188.742 25.6984 188.697 25.6038ZM182.621 30.5488C182.502 30.3096 182.172 30.4013 181.992 30.5223C181.457 30.8711 180.809 31.0021 180.18 30.8885C179.552 30.7749 178.991 30.4252 178.612 29.9112C178.463 29.7621 178.224 29.6438 178.102 29.8252C177.95 30.0974 178.159 30.4241 178.307 30.6926C178.495 30.9843 178.739 31.2358 179.025 31.4323C179.311 31.6289 179.633 31.7665 179.972 31.8372C180.312 31.9079 180.662 31.9103 181.003 31.8442C181.343 31.7781 181.667 31.6448 181.956 31.4522C182.016 31.3917 182.106 31.3615 182.167 31.301C182.243 31.2431 182.316 31.18 182.384 31.1122C182.564 30.9323 182.707 30.7159 182.621 30.5488ZM186.161 18.2526C186.162 18.1932 186.132 18.1629 186.072 18.1035C185.779 17.8071 185.574 17.4351 185.479 17.0288C185.464 16.801 185.512 16.5734 185.619 16.3718C185.726 16.1701 185.887 16.0024 186.085 15.8878L186.896 15.2549C188.281 13.9293 188.323 11.7432 186.173 10.8C186.714 11.3129 187.031 12.0185 187.055 12.7635C187.078 13.5085 186.807 14.2328 186.3 14.7791C186.094 14.9774 185.873 15.1587 185.638 15.3212C185.401 15.4401 185.194 15.6112 185.033 15.8216C184.872 16.0319 184.76 16.2761 184.707 16.5358C184.654 16.7954 184.66 17.0637 184.726 17.3206C184.791 17.5774 184.914 17.8161 185.085 18.0186C182.625 18.5687 181.053 16.0941 181.876 13.2455C181.425 13.7008 181.119 14.2803 180.999 14.91C180.878 15.5397 180.948 16.1911 181.199 16.7811C181.439 17.4096 181.864 17.9507 182.418 18.3327C182.972 18.7148 183.628 18.9199 184.301 18.921C184.859 18.8911 185.412 18.7977 185.949 18.6425C186.005 18.6249 186.055 18.5948 186.097 18.5544C186.135 18.5156 186.162 18.4665 186.173 18.413C186.185 18.3594 186.18 18.3037 186.161 18.2526ZM179.487 23.5573C179.369 23.1987 178.889 23.2002 178.47 23.4432C178.286 23.5586 178.082 23.6365 177.868 23.6724C177.654 23.7084 177.435 23.7016 177.224 23.6526C177.012 23.6036 176.813 23.5133 176.637 23.3868C176.461 23.2604 176.311 23.1004 176.197 22.9159C175.989 22.6475 175.691 22.29 175.361 22.4417C174.911 22.6539 175.148 23.1907 175.326 23.4894C175.473 23.8319 175.699 24.1354 175.984 24.376C176.269 24.6165 176.606 24.7876 176.968 24.8757C177.33 24.9637 177.708 24.9664 178.072 24.8834C178.436 24.8004 178.775 24.6341 179.063 24.3975C179.135 24.3425 179.204 24.2832 179.269 24.2198C179.366 24.1431 179.439 24.0393 179.478 23.9214C179.516 23.8036 179.52 23.6769 179.487 23.5573Z" fill="#374D59" fill-opacity="0.15"/>
<path d="M241.508 44.1275C240.761 43.7914 239.938 43.6606 239.124 43.7486C238.514 43.8812 237.88 43.8623 237.278 43.6935C236.677 43.5247 236.126 43.2111 235.673 42.7801C233.68 43.326 231.558 43.1624 229.672 42.3173C227.294 41.1792 218.227 39.7891 216.44 30.6923C215.375 25.2174 217.461 22.0583 219.334 19.7837C220.208 18.6252 221.307 17.6551 222.565 16.9314C223.822 16.2077 225.213 15.7454 226.654 15.5721C229.378 15.2042 232.149 15.7053 234.572 17.0042C235.339 17.4515 236.078 17.9437 236.786 18.4784C236.999 16.5406 238.702 15.993 240.277 16.8782C241.361 17.4912 242.164 18.5028 242.514 19.6982C242.864 20.8936 242.734 22.1784 242.152 23.2796C241.939 23.6585 243.131 25.3854 243.131 25.3854C245.32 24.3254 247.401 23.0559 249.345 21.5947C252.07 19.6149 255.134 18.5189 258.625 19.152C260.437 19.4585 262.081 20.399 263.263 21.8055C264.177 22.9637 264.838 24.3 265.204 25.7288C265.571 27.1575 265.635 28.647 265.392 30.1019L266.414 30.5655C268.883 31.7028 270.884 35.2835 270.628 38.0629C270.586 39.2422 270.203 40.2107 269.095 40.5903C268.477 40.7615 267.823 40.7576 267.207 40.579C266.591 40.4005 266.036 40.0543 265.605 39.5791C264.711 38.7366 264.839 38.8206 263.818 39.7899C261.121 42.089 257.651 43.2779 254.111 43.1162C253.336 43.0512 252.586 42.8131 251.916 42.4194C251.245 42.0257 250.672 41.4865 250.238 40.8416C249.869 40.2966 249.582 39.701 249.385 39.0734C249.299 38.8626 249.001 38.9046 248.831 38.9046C248.963 39.691 248.9 40.4977 248.647 41.2541C248.395 42.0105 247.961 42.6934 247.383 43.243C246.376 44.1125 245.082 44.5767 243.752 44.5453C242.985 44.547 242.223 44.4052 241.508 44.1275ZM241.468 42.9887C242.25 43.4238 243.136 43.6344 244.03 43.5972C244.924 43.56 245.79 43.2764 246.533 42.7779C248.278 41.3038 248.363 39.327 247.001 37.471C246.393 36.7353 245.64 36.1331 244.788 35.7021C244.532 35.576 243.852 35.1972 244.277 34.8603C244.448 34.7336 244.915 34.9024 245.171 35.0284C246.373 35.4858 247.41 36.2927 248.15 37.345C248.281 37.5536 248.475 37.7156 248.704 37.8079C249.172 37.9759 249.044 37.429 249.044 37.1762C249.103 35.7281 249.489 34.3122 250.175 33.0354C250.861 31.7586 251.827 30.6542 253.002 29.8055C253.088 29.7643 253.215 29.7643 253.258 29.8475C253.279 29.8787 253.29 29.9154 253.29 29.953C253.29 29.9905 253.279 30.0272 253.258 30.0584C251.948 31.4742 250.986 33.1759 250.449 35.0284C249.768 37.6398 250.193 39.9984 252.067 41.2617C253.233 41.9937 254.631 42.2644 255.986 42.0209C259.775 41.4733 263.095 39.9572 265.351 36.7141C265.734 36.1664 265.905 35.5768 266.16 35.9984C266.33 36.2932 266.074 36.8401 265.904 37.2197C265.478 38.1049 265.521 38.1882 266.458 38.9046C268.373 40.3368 269.479 39.2842 269.608 38.189C269.707 37.0402 269.513 35.8853 269.044 34.8321C268.575 33.7789 267.846 32.8617 266.927 32.1664C265.948 31.408 265.266 31.5767 264.329 32.4612C263.238 33.59 261.955 34.5169 260.541 35.1994C260.521 35.2087 260.5 35.2139 260.479 35.2146C260.457 35.2154 260.436 35.2116 260.416 35.2037C260.396 35.1957 260.378 35.1837 260.362 35.1684C260.347 35.1531 260.336 35.1348 260.328 35.1147C260.322 35.0553 260.337 34.9958 260.371 34.9466C260.575 34.8011 260.761 34.6316 260.924 34.4417C262.5 32.8408 264.245 31.2834 264.329 28.8408C264.329 27.9082 264.244 26.9776 264.074 26.0606C263.797 24.483 263.002 23.0427 261.815 21.9673C260.628 20.8919 259.116 20.2426 257.519 20.122C254.625 19.954 252.028 21.0493 249.602 22.6915C247.721 24.1242 245.712 25.3798 243.6 26.4424C243.853 26.9755 244.025 27.5434 244.111 28.1274C244.782 31.42 244.157 34.8447 242.366 37.6878C242.605 37.6456 242.85 37.6456 243.089 37.6878C243.382 37.7119 243.665 37.8094 243.91 37.9713C244.156 38.1333 244.357 38.3544 244.494 38.6143C244.749 39.33 244.068 38.7403 243.43 38.5723C243.006 38.4479 242.555 38.4494 242.132 38.5764C241.709 38.7035 241.332 38.9507 241.046 39.288C240.18 40.2223 239.175 41.0178 238.067 41.6466C237.657 41.8511 237.23 42.02 236.791 42.1515C236.833 42.5303 237.514 42.7411 238.154 42.8267C238.566 42.8828 238.986 42.854 239.388 42.7419C239.473 42.405 238.749 42.363 239.133 41.9834C239.163 41.9563 239.199 41.9356 239.237 41.9227C239.276 41.9098 239.317 41.905 239.358 41.9084C239.91 41.9024 241.066 42.7726 241.468 42.9887ZM222.828 18.1835C220.906 19.5219 219.401 21.3757 218.487 23.5317C217.771 25.0724 217.411 26.7542 217.433 28.4528C217.455 30.1514 217.859 31.8233 218.614 33.345C219.701 35.7656 221.598 37.7314 223.978 38.9039C226.02 39.8735 228.125 40.7037 230.28 41.3885C231.813 41.9639 233.476 42.1032 235.084 41.7911C236.692 41.479 238.182 40.7276 239.388 39.6203C241.135 38.0574 242.368 36.0014 242.922 33.7238C243.858 30.1019 243.305 26.4799 240.371 23.5309C238.796 21.9308 237.179 20.3298 235.476 18.8565C233.45 17.3487 230.981 16.5546 228.456 16.5984C226.465 16.5602 224.506 17.1117 222.828 18.1835ZM239.127 18.942C239.34 18.942 239.427 19.2788 239.468 19.4896C239.851 21.1318 240.743 22.5654 241.001 22.5219C241.112 22.5115 241.219 22.4707 241.309 22.4039C241.399 22.3371 241.469 22.2469 241.511 22.1431C242.235 20.6689 240.916 17.8887 239.34 17.5519C239.042 17.4932 238.733 17.5309 238.457 17.6596C238.182 17.7882 237.954 18.0012 237.808 18.2676C237.714 18.7382 237.776 19.2264 237.983 19.6591C238.19 20.0919 238.532 20.4459 238.957 20.6682C238.88 20.3066 238.823 19.9409 238.787 19.5729C238.787 19.2938 238.825 18.9382 239.087 18.9382C239.1 18.9386 239.114 18.9399 239.127 18.942ZM228.613 38.5678C228.486 38.189 228.784 38.0202 229.124 37.8521C229.516 37.7074 229.852 37.4414 230.082 37.0929C230.312 36.7444 230.425 36.3316 230.405 35.9144C230.405 35.6195 230.319 35.1559 230.831 35.1559C231.172 35.1139 231.385 35.7036 231.469 36.1244C231.64 37.4748 230.831 38.3562 229.553 38.7779C229.41 38.8335 229.257 38.864 229.103 38.8679C229 38.8808 228.895 38.8581 228.806 38.8036C228.717 38.749 228.649 38.6659 228.613 38.5678ZM236.406 37.7681C236.321 37.5153 236.619 37.3465 236.832 37.3045C237.457 37.173 238.008 36.8075 238.372 36.2829C238.736 35.7582 238.885 35.1143 238.79 34.483C238.79 34.2722 238.875 34.0194 239.09 34.0614C239.39 34.1462 239.473 34.525 239.558 34.8198C239.632 35.1588 239.637 35.5091 239.574 35.8502C239.511 36.1913 239.38 36.5164 239.19 36.8066C239 37.0967 238.754 37.3461 238.466 37.5402C238.179 37.7342 237.855 37.8691 237.515 37.9369C237.43 37.9369 237.345 37.9789 237.259 37.9789C237.164 37.9922 237.068 37.9989 236.972 37.9992C236.718 37.9992 236.463 37.9474 236.406 37.7681ZM225.208 31.576C225.165 31.5347 225.165 31.492 225.165 31.408C225.163 30.9909 225.045 30.5826 224.825 30.2286C224.675 30.0565 224.48 29.9297 224.262 29.8628C224.043 29.7958 223.811 29.7913 223.59 29.8498L222.569 29.9766C220.652 30.0186 219.077 28.5025 219.93 26.3119C219.909 27.0577 220.184 27.7814 220.694 28.3257C221.204 28.87 221.909 29.1907 222.655 29.2181C222.939 29.2128 223.223 29.1845 223.503 29.1334C223.755 29.05 224.022 29.0247 224.285 29.0595C224.547 29.0942 224.799 29.1881 225.02 29.334C225.241 29.4799 225.427 29.6741 225.562 29.902C225.697 30.1298 225.779 30.3854 225.802 30.6495C227.93 29.2992 227.292 26.4379 224.695 25.0058C225.336 25.0085 225.962 25.2021 226.493 25.5621C227.023 25.9221 227.435 26.432 227.674 27.0268C227.949 27.641 228.031 28.3241 227.909 28.9858C227.788 29.6476 227.469 30.257 226.994 30.7335C226.578 31.1071 226.121 31.4321 225.631 31.702C225.58 31.7287 225.523 31.7431 225.465 31.744C225.41 31.7435 225.357 31.7274 225.312 31.6976C225.266 31.6678 225.23 31.6256 225.208 31.576ZM233.679 30.6105C233.508 30.2737 233.849 29.9353 234.317 29.8108C234.529 29.7625 234.728 29.6729 234.905 29.5471C235.082 29.4213 235.232 29.2618 235.346 29.0778C235.461 28.8938 235.538 28.6889 235.573 28.4749C235.608 28.2609 235.601 28.0421 235.551 27.831C235.508 27.4942 235.466 27.0306 235.807 26.9045C236.275 26.7365 236.487 27.2834 236.573 27.6202C236.711 27.9668 236.766 28.3407 236.735 28.7123C236.703 29.084 236.586 29.4433 236.392 29.7618C236.198 30.0803 235.933 30.3495 235.617 30.5479C235.301 30.7464 234.943 30.8687 234.572 30.9053C234.482 30.9173 234.392 30.9239 234.301 30.9248C234.178 30.9396 234.053 30.9176 233.943 30.8617C233.832 30.8057 233.74 30.7184 233.679 30.6105Z" fill="#374D59" fill-opacity="0.15"/>
<path d="M234.376 97.7577C234.086 96.9922 233.597 96.3179 232.959 95.8046C232.434 95.4666 231.999 95.0051 231.693 94.4603C231.387 93.9156 231.219 93.3042 231.204 92.6796C229.408 91.6558 228.024 90.0401 227.287 88.1085C226.41 85.6222 220.982 78.2281 226.151 70.532C229.27 65.908 232.978 65.1489 235.911 64.8651C237.348 64.6638 238.811 64.7547 240.212 65.1324C241.613 65.51 242.924 66.1666 244.065 67.0628C246.252 68.729 247.857 71.0428 248.651 73.6745C248.877 74.5327 249.052 75.4035 249.174 76.2823C250.695 75.0628 252.287 75.8797 252.774 77.6191C253.107 78.8193 252.96 80.1021 252.362 81.195C251.764 82.2879 250.764 83.1047 249.574 83.4717C249.155 83.589 248.777 85.653 248.777 85.653C251.074 86.4512 253.443 87.025 255.851 87.3664C259.178 87.8932 262.12 89.2851 264.14 92.2011C265.205 93.699 265.702 95.5265 265.544 97.3572C265.371 98.822 264.893 100.234 264.142 101.504C263.391 102.773 262.383 103.872 261.183 104.729L261.578 105.779C262.519 108.329 261.402 112.276 259.256 114.06C258.393 114.864 257.437 115.278 256.386 114.763C255.827 114.447 255.368 113.982 255.058 113.42C254.749 112.858 254.602 112.221 254.633 111.581C254.596 110.353 254.628 110.503 253.22 110.466C249.687 110.185 246.393 108.572 244.003 105.955C243.502 105.361 243.139 104.662 242.944 103.909C242.748 103.157 242.724 102.37 242.873 101.607C242.998 100.961 243.216 100.337 243.52 99.7539C243.609 99.5444 243.368 99.3635 243.248 99.243C242.785 99.8923 242.17 100.418 241.457 100.774C240.743 101.131 239.954 101.307 239.157 101.287C237.83 101.19 236.586 100.603 235.668 99.6404C235.124 99.0987 234.686 98.4602 234.376 97.7577ZM235.154 96.9244C235.399 97.7848 235.877 98.5607 236.535 99.1665C237.194 99.7723 238.007 100.184 238.884 100.357C241.161 100.549 242.618 99.2107 242.968 96.9355C243.058 95.9853 242.951 95.0267 242.654 94.1198C242.562 93.8498 242.349 93.1008 242.888 93.1634C243.098 93.1941 243.309 93.644 243.401 93.914C243.927 95.0874 244.09 96.3916 243.869 97.6585C243.815 97.8989 243.837 98.1504 243.933 98.3773C244.146 98.8272 244.442 98.3503 244.62 98.172C245.686 97.1895 246.96 96.4617 248.348 96.0437C249.736 95.6257 251.2 95.5283 252.631 95.7589C252.721 95.7902 252.811 95.8804 252.782 95.9695C252.775 96.0064 252.757 96.0402 252.73 96.0668C252.704 96.0933 252.67 96.1114 252.633 96.1186C250.706 96.1936 248.822 96.7168 247.133 97.6469C244.804 99.0118 243.437 100.98 243.869 103.198C244.176 104.541 244.973 105.72 246.104 106.506C249.17 108.798 252.59 110.074 256.478 109.375C257.137 109.259 257.674 108.962 257.556 109.441C257.468 109.77 256.901 109.976 256.512 110.124C255.585 110.449 255.556 110.538 255.712 111.707C256.053 114.074 257.58 114.112 258.446 113.429C259.328 112.686 260.007 111.732 260.42 110.656C260.833 109.579 260.967 108.416 260.808 107.274C260.652 106.045 260.051 105.683 258.763 105.646C257.193 105.672 255.631 105.421 254.148 104.903C254.128 104.896 254.109 104.885 254.093 104.87C254.078 104.855 254.065 104.837 254.057 104.818C254.048 104.798 254.044 104.777 254.044 104.755C254.044 104.733 254.049 104.712 254.057 104.693C254.095 104.646 254.148 104.615 254.206 104.604C254.454 104.645 254.705 104.657 254.955 104.638C257.201 104.62 259.536 104.753 261.323 103.086C261.982 102.426 262.58 101.708 263.109 100.939C264.028 99.6279 264.484 98.0473 264.406 96.4475C264.327 94.8477 263.717 93.3197 262.673 92.1051C260.745 89.9397 258.134 88.8777 255.257 88.3234C252.914 88.0067 250.606 87.474 248.361 86.732C248.163 87.288 247.883 87.8113 247.531 88.2847C245.678 91.0877 242.814 93.0673 239.537 93.8111C239.736 93.9503 239.909 94.1234 240.048 94.3224C240.238 94.5468 240.369 94.8154 240.428 95.1035C240.487 95.3916 240.473 95.69 240.387 95.9711C240.061 96.6575 239.996 95.7589 239.664 95.1887C239.452 94.801 239.132 94.4832 238.743 94.2738C238.354 94.0645 237.913 93.9727 237.472 94.0095C236.199 94.0574 234.926 93.9093 233.697 93.5702C233.263 93.425 232.842 93.2427 232.439 93.0254C232.201 93.323 232.533 93.9538 232.925 94.4662C233.177 94.7978 233.494 95.0744 233.857 95.2789C234.156 95.1012 233.674 94.5596 234.213 94.5622C234.254 94.5645 234.294 94.5752 234.33 94.5934C234.367 94.6116 234.399 94.6371 234.425 94.6683C234.82 95.0545 235.022 96.4873 235.154 96.9244ZM239.513 66.204C237.208 65.7914 234.833 66.0381 232.661 66.9159C231.066 67.4994 229.622 68.4341 228.437 69.6508C227.251 70.8675 226.355 72.3351 225.813 73.9451C224.869 76.4251 224.821 79.1565 225.675 81.6687C226.433 83.7982 227.335 85.8739 228.374 87.8815C229.051 89.3727 230.129 90.647 231.486 91.5632C232.844 92.4794 234.429 93.0017 236.065 93.0721C238.405 93.2024 240.73 92.6197 242.733 91.4012C245.956 89.5021 248.126 86.55 248.137 82.3901C248.154 80.1446 248.143 77.8695 247.981 75.6235C247.614 73.1245 246.43 70.8174 244.613 69.0627C243.232 67.6276 241.458 66.6331 239.513 66.204ZM250.502 78.2657C250.652 78.4159 250.476 78.7161 250.356 78.8938C249.466 80.3261 249.083 81.9705 249.295 82.1217C249.382 82.1933 249.486 82.2399 249.597 82.2564C249.708 82.2728 249.821 82.2585 249.924 82.2151C251.478 81.6841 252.512 78.7856 251.636 77.4334C251.466 77.181 251.221 76.989 250.935 76.8851C250.649 76.7813 250.338 76.771 250.046 76.8557C249.647 77.1224 249.345 77.5111 249.186 77.9636C249.026 78.4161 249.018 78.9081 249.161 79.3659C249.362 79.0556 249.581 78.7568 249.815 78.471C250.013 78.2737 250.291 78.0493 250.476 78.2344C250.485 78.2443 250.494 78.2547 250.502 78.2657ZM229.19 84.7088C229.368 84.3507 229.698 84.442 230.057 84.564C230.437 84.7387 230.862 84.7878 231.271 84.7042C231.681 84.6207 232.053 84.4088 232.333 84.0993C232.542 83.8908 232.809 83.5025 233.171 83.8643C233.441 84.0754 233.175 84.643 232.937 85C232.103 86.0758 230.908 86.1272 229.706 85.522C229.565 85.4597 229.436 85.3736 229.324 85.2674C229.242 85.2032 229.184 85.113 229.159 85.0116C229.135 84.9101 229.146 84.8033 229.19 84.7088ZM235.266 89.6538C235.384 89.4146 235.715 89.5063 235.895 89.6273C236.43 89.9761 237.078 90.1071 237.706 89.9935C238.335 89.8799 238.896 89.5302 239.274 89.0162C239.423 88.8671 239.663 88.7488 239.785 88.9302C239.937 89.2024 239.728 89.5291 239.579 89.7976C239.392 90.0893 239.148 90.3408 238.862 90.5373C238.576 90.7338 238.254 90.8715 237.914 90.9422C237.575 91.0129 237.224 91.0153 236.884 90.9492C236.543 90.8831 236.219 90.7498 235.931 90.5572C235.87 90.4967 235.781 90.4665 235.72 90.406C235.643 90.3481 235.571 90.285 235.503 90.2172C235.323 90.0373 235.18 89.8209 235.266 89.6538ZM231.726 77.357C231.725 77.2976 231.755 77.2674 231.815 77.208C232.108 76.9116 232.314 76.5395 232.408 76.1332C232.424 75.9055 232.375 75.6779 232.268 75.4762C232.161 75.2746 232 75.1069 231.803 74.9922L230.991 74.3599C229.606 73.0343 229.564 70.8482 231.716 69.9024C231.174 70.4151 230.857 71.1211 230.833 71.8668C230.809 72.6125 231.08 73.3375 231.588 73.8841C231.793 74.0816 232.014 74.2622 232.248 74.4241C232.485 74.543 232.691 74.7141 232.853 74.9244C233.014 75.1348 233.125 75.379 233.179 75.6386C233.232 75.8983 233.225 76.1666 233.16 76.4234C233.095 76.6803 232.972 76.9189 232.801 77.1215C235.261 77.6716 236.833 75.197 236.009 72.3484C236.461 72.8036 236.766 73.3831 236.887 74.0129C237.008 74.6426 236.938 75.294 236.687 75.8839C236.447 76.5125 236.022 77.0535 235.468 77.4356C234.914 77.8176 234.257 78.0227 233.584 78.0238C233.026 77.994 232.473 77.9006 231.936 77.7453C231.881 77.7278 231.831 77.6976 231.789 77.6573C231.751 77.6185 231.725 77.5695 231.714 77.5163C231.703 77.4631 231.707 77.4078 231.726 77.357ZM238.398 82.6638C238.516 82.3052 238.996 82.3068 239.415 82.5498C239.599 82.6652 239.804 82.7431 240.017 82.779C240.231 82.8149 240.45 82.8082 240.661 82.7592C240.873 82.7102 241.072 82.6199 241.248 82.4934C241.424 82.367 241.574 82.2069 241.688 82.0225C241.896 81.7541 242.194 81.3965 242.524 81.5483C242.974 81.7604 242.737 82.2973 242.559 82.5959C242.412 82.9384 242.187 83.242 241.902 83.4825C241.617 83.7231 241.28 83.8942 240.917 83.9823C240.555 84.0703 240.177 84.073 239.813 83.99C239.45 83.907 239.11 83.7407 238.822 83.5041C238.75 83.4491 238.681 83.3898 238.616 83.3264C238.519 83.2497 238.446 83.1459 238.407 83.028C238.369 82.9102 238.366 82.7835 238.398 82.6638Z" fill="#374D59" fill-opacity="0.15"/>
<path d="M176.379 103.232C177.126 102.896 177.948 102.765 178.762 102.853C179.373 102.986 180.007 102.967 180.608 102.798C181.21 102.629 181.761 102.316 182.213 101.885C184.207 102.431 186.328 102.267 188.215 101.422C190.593 100.285 199.66 98.8944 201.447 89.7968C202.511 84.3204 200.426 81.1628 198.552 78.8883C197.679 77.7298 196.58 76.7596 195.322 76.036C194.064 75.3123 192.674 74.8499 191.233 74.6767C188.509 74.3089 185.738 74.81 183.315 76.1088C182.549 76.556 181.81 77.0483 181.101 77.5829C180.888 75.6452 179.186 75.0983 177.611 75.9828C176.526 76.5957 175.724 77.6074 175.374 78.8028C175.023 79.9981 175.153 81.2829 175.735 82.3842C175.948 82.763 174.756 84.4899 174.756 84.4899C172.568 83.4299 170.487 82.1604 168.543 80.6992C165.818 78.7195 162.753 77.6234 159.263 78.2566C157.45 78.5631 155.806 79.5038 154.623 80.9108C153.71 82.069 153.049 83.4053 152.683 84.8341C152.316 86.2628 152.252 87.7523 152.495 89.2072L151.473 89.67C149.004 90.8073 147.003 94.388 147.259 97.1667C147.301 98.346 147.684 99.3145 148.791 99.6941C149.41 99.8658 150.064 99.8623 150.681 99.6839C151.297 99.5054 151.852 99.1591 152.284 98.6836C153.178 97.8411 153.049 97.9252 154.071 98.8944C156.767 101.194 160.236 102.385 163.776 102.225C164.55 102.16 165.301 101.921 165.971 101.528C166.641 101.134 167.215 100.595 167.649 99.9499C168.018 99.4039 168.305 98.8073 168.502 98.1787C168.588 97.9679 168.885 98.0099 169.056 98.0099C168.924 98.7963 168.987 99.6031 169.239 100.359C169.492 101.116 169.926 101.799 170.504 102.348C171.51 103.217 172.804 103.681 174.133 103.65C174.901 103.652 175.663 103.51 176.379 103.232ZM176.422 102.095C175.64 102.53 174.753 102.74 173.859 102.703C172.966 102.666 172.099 102.382 171.356 101.884C169.612 100.41 169.527 98.433 170.888 96.5771C171.496 95.8414 172.25 95.2391 173.101 94.8081C173.357 94.6821 174.038 94.3032 173.612 93.9664C173.442 93.8396 172.975 94.0084 172.719 94.1344C171.516 94.5904 170.477 95.3962 169.736 96.448C169.605 96.6567 169.411 96.8186 169.182 96.9109C168.714 97.0789 168.842 96.5321 168.842 96.28C168.783 94.8319 168.397 93.416 167.711 92.1392C167.025 90.8624 166.059 89.758 164.884 88.9093C164.798 88.8681 164.671 88.8681 164.628 88.9513C164.607 88.9825 164.596 89.0192 164.596 89.0568C164.596 89.0943 164.607 89.131 164.628 89.1622C165.938 90.578 166.9 92.2797 167.437 94.1322C168.118 96.7436 167.693 99.1022 165.819 100.366C164.653 101.098 163.256 101.369 161.9 101.126C158.112 100.579 154.791 99.0625 152.536 95.8194C152.152 95.2717 151.982 94.6821 151.727 95.1037C151.557 95.3985 151.812 95.9454 151.983 96.325C152.409 97.2102 152.366 97.2935 151.429 98.0099C149.514 99.4421 148.407 98.3895 148.278 97.2943C148.18 96.1452 148.375 94.9901 148.845 93.9368C149.315 92.8836 150.044 91.9666 150.964 91.2717C151.943 90.5133 152.624 90.682 153.561 91.5665C154.653 92.6953 155.935 93.6222 157.35 94.3047C157.369 94.314 157.39 94.3192 157.412 94.3199C157.433 94.3207 157.455 94.3169 157.475 94.309C157.495 94.301 157.513 94.289 157.528 94.2737C157.543 94.2584 157.555 94.2401 157.563 94.22C157.569 94.1606 157.554 94.1011 157.52 94.0519C157.316 93.9064 157.13 93.7369 156.966 93.547C155.391 91.9461 153.646 90.3887 153.561 87.9461C153.562 87.0135 153.647 86.0829 153.816 85.1659C154.093 83.5883 154.888 82.148 156.076 81.0726C157.263 79.9972 158.774 79.3479 160.371 79.2273C163.266 79.0593 165.863 80.1546 168.289 81.7968C170.17 83.2295 172.179 84.4851 174.29 85.5477C174.037 86.0808 173.865 86.6487 173.78 87.2327C173.109 90.5238 173.734 93.9467 175.525 96.7886C175.285 96.7464 175.041 96.7464 174.801 96.7886C174.508 96.8127 174.226 96.9102 173.98 97.0721C173.735 97.2341 173.534 97.4552 173.396 97.7151C173.141 98.4308 173.822 97.8411 174.461 97.6731C174.885 97.5487 175.336 97.5502 175.759 97.6772C176.182 97.8043 176.559 98.0515 176.844 98.3888C177.711 99.3231 178.716 100.119 179.824 100.747C180.234 100.952 180.66 101.121 181.099 101.252C181.057 101.631 180.376 101.842 179.737 101.927C179.324 101.984 178.904 101.955 178.503 101.843C178.417 101.506 179.141 101.464 178.758 101.084C178.727 101.057 178.692 101.036 178.653 101.024C178.614 101.011 178.573 101.006 178.533 101.009C177.977 101.007 176.821 101.878 176.419 102.095H176.422ZM195.059 77.2888C196.982 78.6266 198.488 80.4805 199.404 82.637C200.119 84.1777 200.479 85.8595 200.457 87.5581C200.435 89.2567 200.032 90.9286 199.276 92.4503C198.19 94.8709 196.293 96.8367 193.913 98.0092C191.871 98.9788 189.765 99.809 187.611 100.494C186.078 101.069 184.415 101.208 182.808 100.896C181.201 100.584 179.711 99.8325 178.504 98.7256C176.757 97.1627 175.525 95.1067 174.971 92.8291C174.035 89.2072 174.588 85.5852 177.522 82.6362C179.097 81.0361 180.714 79.4351 182.417 77.9618C184.443 76.454 186.912 75.6599 189.437 75.7037C191.426 75.6667 193.382 76.2182 195.059 77.2888ZM178.756 78.0473C178.543 78.0473 178.456 78.3841 178.415 78.5949C178.032 80.2371 177.14 81.6707 176.882 81.6272C176.771 81.6168 176.664 81.576 176.574 81.5092C176.484 81.4424 176.414 81.3522 176.372 81.2484C175.648 79.7742 176.967 76.994 178.543 76.6572C178.841 76.5985 179.15 76.6362 179.426 76.7649C179.701 76.8935 179.929 77.1065 180.075 77.3729C180.169 77.8435 180.107 78.3317 179.9 78.7644C179.693 79.1972 179.351 79.5512 178.926 79.7735C179.003 79.4119 179.06 79.0462 179.096 78.6782C179.096 78.3991 179.058 78.0435 178.796 78.0435C178.784 78.0438 178.772 78.0448 178.759 78.0465L178.756 78.0473ZM189.273 97.6724C189.401 97.2935 189.103 97.1247 188.762 96.9567C188.371 96.8121 188.036 96.5467 187.806 96.199C187.576 95.8513 187.462 95.4393 187.482 95.0227C187.482 94.7278 187.567 94.2642 187.056 94.2642C186.715 94.2222 186.502 94.8119 186.418 95.2327C186.247 96.5831 187.056 97.4645 188.333 97.8862C188.477 97.9418 188.629 97.9723 188.783 97.9762C188.888 97.9888 188.993 97.9656 189.082 97.9104C189.171 97.8551 189.238 97.7712 189.273 97.6724ZM181.48 96.8726C181.566 96.6198 181.267 96.451 181.054 96.409C180.429 96.2775 179.879 95.912 179.515 95.3874C179.151 94.8628 179.001 94.2188 179.097 93.5875C179.097 93.3767 179.011 93.1239 178.797 93.1659C178.497 93.2507 178.414 93.6296 178.329 93.9244C178.255 94.2634 178.25 94.6137 178.313 94.9548C178.376 95.2959 178.507 95.621 178.697 95.9111C178.887 96.2013 179.133 96.4507 179.42 96.6447C179.708 96.8388 180.031 96.9736 180.372 97.0414C180.457 97.0414 180.542 97.0834 180.627 97.0834C180.723 97.0967 180.819 97.1035 180.915 97.1037C181.169 97.1037 181.423 97.0519 181.48 96.8726ZM192.678 90.6813C192.721 90.64 192.721 90.5973 192.721 90.5133C192.723 90.0962 192.841 89.6879 193.062 89.3339C193.212 89.1618 193.407 89.035 193.625 88.9681C193.843 88.9011 194.076 88.8966 194.297 88.9551L195.318 89.0811C197.234 89.1239 198.81 87.607 197.957 85.4202C197.977 86.1653 197.702 86.8882 197.192 87.4318C196.682 87.9754 195.978 88.2958 195.233 88.3234C194.947 88.3183 194.662 88.2899 194.381 88.2387C194.13 88.1553 193.863 88.13 193.6 88.1648C193.337 88.1995 193.086 88.2934 192.864 88.4393C192.643 88.5852 192.458 88.7794 192.323 89.0073C192.187 89.2351 192.105 89.4907 192.083 89.7548C189.955 88.4045 190.593 85.5432 193.189 84.1111C192.548 84.1138 191.922 84.3074 191.392 84.6674C190.861 85.0274 190.45 85.5373 190.21 86.1321C189.936 86.7463 189.854 87.4294 189.975 88.0911C190.096 88.7529 190.416 89.3623 190.891 89.8388C191.307 90.2124 191.764 90.5374 192.253 90.8073C192.305 90.834 192.362 90.8484 192.42 90.8493C192.474 90.8492 192.528 90.8333 192.574 90.8035C192.62 90.7737 192.656 90.7312 192.678 90.6813ZM184.208 89.7128C184.378 89.376 184.038 89.0376 183.57 88.9131C183.358 88.8648 183.158 88.7752 182.982 88.6494C182.805 88.5236 182.655 88.3641 182.54 88.1801C182.426 87.9961 182.349 87.7912 182.313 87.5772C182.278 87.3632 182.286 87.1444 182.336 86.9333C182.378 86.5965 182.42 86.1329 182.08 86.0068C181.612 85.8388 181.399 86.3857 181.314 86.7225C181.176 87.0691 181.121 87.443 181.152 87.8146C181.183 88.1863 181.301 88.5456 181.495 88.8641C181.689 89.1826 181.954 89.4518 182.27 89.6502C182.586 89.8487 182.943 89.971 183.315 90.0076C183.404 90.0196 183.495 90.0262 183.585 90.0271C183.709 90.0419 183.833 90.0199 183.944 89.964C184.055 89.908 184.147 89.8207 184.208 89.7128Z" fill="#374D59" fill-opacity="0.15"/>
<path d="M30.0588 103.232C29.3122 102.896 28.4894 102.766 27.6754 102.854C27.0649 102.986 26.4311 102.967 25.8295 102.798C25.228 102.63 24.6769 102.316 24.2245 101.885C22.2308 102.431 20.1094 102.267 18.223 101.422C15.8449 100.284 6.77802 98.8941 4.99106 89.7972C3.92653 84.3223 6.01207 81.1633 7.88531 78.8887C8.75914 77.7302 9.85785 76.7601 11.1156 76.0364C12.3733 75.3127 13.7642 74.8504 15.2049 74.6771C17.9293 74.3091 20.7003 74.8103 23.1232 76.1092C23.8896 76.5564 24.6289 77.0487 25.3371 77.5833C25.5501 75.6456 27.2531 75.098 28.8277 75.9832C29.9121 76.5962 30.7146 77.6078 31.0649 78.8032C31.4151 79.9985 31.2853 81.2834 30.7032 82.3846C30.4901 82.7634 31.6822 84.4904 31.6822 84.4904C33.871 83.4304 35.952 82.1609 37.8961 80.6996C40.6208 78.7199 43.6853 77.6239 47.176 78.257C48.9878 78.5635 50.6318 79.504 51.8144 80.9105C52.7278 82.0688 53.3889 83.4052 53.7554 84.8341C54.122 86.2629 54.1857 87.7526 53.9427 89.2076L54.9652 89.6705C57.4341 90.8078 59.4349 94.3884 59.179 97.1679C59.137 98.3472 58.7537 99.3157 57.6464 99.6953C57.0281 99.8665 56.3744 99.8626 55.7582 99.684C55.142 99.5055 54.5875 99.1593 54.1565 98.684C53.2623 97.8416 53.3906 97.9256 52.3688 98.8948C49.6718 101.194 46.2023 102.383 42.662 102.221C41.8873 102.156 41.1371 101.918 40.4668 101.524C39.7964 101.131 39.223 100.592 38.7888 99.9466C38.4205 99.4015 38.1332 98.8059 37.9358 98.1784C37.8503 97.9676 37.5525 98.0096 37.3822 98.0096C37.5139 98.796 37.4508 99.6027 37.1984 100.359C36.946 101.115 36.5119 101.798 35.9343 102.348C34.9274 103.217 33.6333 103.682 32.3034 103.65C31.5357 103.652 30.7745 103.51 30.0588 103.232ZM30.019 102.094C30.8007 102.529 31.6875 102.739 32.5814 102.702C33.4753 102.665 34.3415 102.381 35.0843 101.883C36.8293 100.409 36.9141 98.432 35.5525 96.576C34.9444 95.8403 34.191 95.2381 33.3394 94.807C33.0836 94.681 32.4031 94.3022 32.8285 93.9653C32.9988 93.8385 33.4662 94.0073 33.722 94.1334C34.924 94.5908 35.9616 95.3976 36.701 96.45C36.8323 96.6586 37.026 96.8205 37.2546 96.9128C37.7228 97.0809 37.5952 96.534 37.5952 96.2812C37.6538 94.8331 38.0405 93.4172 38.7261 92.1404C39.4117 90.8636 40.3784 89.7592 41.5533 88.9105C41.6388 88.8693 41.7663 88.8693 41.8091 88.9525C41.83 88.9837 41.8412 89.0204 41.8412 89.0579C41.8412 89.0955 41.83 89.1322 41.8091 89.1633C40.4992 90.5792 39.5376 92.2809 39.0003 94.1334C38.3192 96.7448 38.7445 99.1034 40.6178 100.367C41.7844 101.099 43.182 101.369 44.5375 101.126C48.326 100.578 51.6464 99.0621 53.9022 95.8191C54.2855 95.2714 54.4558 94.6818 54.7109 95.1034C54.8812 95.3982 54.6254 95.9451 54.4551 96.3247C54.029 97.2099 54.0717 97.2932 55.0087 98.0096C56.924 99.4417 58.0305 98.3892 58.1595 97.2939C58.258 96.1452 58.0637 94.9903 57.5946 93.9371C57.1256 92.8838 56.3972 91.9667 55.4776 91.2714C54.4986 90.5129 53.8174 90.6817 52.8804 91.5662C51.7887 92.6949 50.5062 93.6219 49.0919 94.3044C49.0725 94.3137 49.0514 94.3189 49.0299 94.3196C49.0083 94.3204 48.9869 94.3166 48.9669 94.3087C48.9468 94.3007 48.9287 94.2887 48.9136 94.2734C48.8984 94.258 48.8866 94.2397 48.8789 94.2196C48.8728 94.1603 48.8879 94.1008 48.9217 94.0516C49.1258 93.9061 49.3116 93.7366 49.4753 93.5467C51.0507 91.9458 52.7957 90.3884 52.8804 87.9458C52.88 87.0132 52.7946 86.0826 52.6254 85.1656C52.3481 83.5879 51.5531 82.1477 50.366 81.0723C49.179 79.9968 47.6674 79.3476 46.0702 79.227C43.1759 79.059 40.5787 80.1543 38.1526 81.7964C36.272 83.2291 34.263 84.4848 32.1511 85.5474C32.4042 86.0805 32.5764 86.6484 32.662 87.2323C33.3334 90.525 32.7083 93.9497 30.917 96.7928C31.1562 96.7506 31.401 96.7506 31.6402 96.7928C31.9333 96.8169 32.2157 96.9144 32.4613 97.0763C32.7068 97.2382 32.9077 97.4594 33.0453 97.7193C33.3004 98.435 32.6192 97.8453 31.9808 97.6773C31.5569 97.5529 31.106 97.5544 30.6829 97.6814C30.2598 97.8085 29.8827 98.0557 29.5974 98.393C28.7309 99.3273 27.7259 100.123 26.6176 100.752C26.2078 100.956 25.7811 101.125 25.3423 101.256C25.3843 101.635 26.0655 101.846 26.7047 101.932C27.1175 101.988 27.5375 101.959 27.9387 101.847C28.0243 101.51 27.3003 101.468 27.6837 101.088C27.7141 101.061 27.7498 101.041 27.7885 101.028C27.8272 101.015 27.8681 101.01 27.9087 101.013C28.4609 101.007 29.6169 101.878 30.019 102.094ZM11.379 77.2885C9.45709 78.6269 7.95223 80.4807 7.03759 82.6366C6.32212 84.1774 5.96212 85.8592 5.98419 87.5578C6.00627 89.2564 6.40986 90.9283 7.16512 92.4499C8.25187 94.8705 10.1487 96.8364 12.529 98.0089C14.571 98.9785 16.6764 99.8086 18.8306 100.494C20.3641 101.069 22.027 101.208 23.6348 100.896C25.2427 100.584 26.7326 99.8326 27.9395 98.7253C29.6866 97.1624 30.9186 95.1064 31.4729 92.8288C32.4091 89.2068 31.8562 85.5849 28.9222 82.6359C27.3468 81.0357 25.7302 79.4348 24.0272 77.9614C22.0009 76.4537 19.5322 75.6596 17.0069 75.7034C15.0157 75.6652 13.0576 76.2167 11.379 77.2885ZM27.6784 78.047C27.8907 78.047 27.9785 78.3838 28.019 78.5946C28.4024 80.2368 29.2943 81.6704 29.5517 81.6269C29.6633 81.6165 29.77 81.5757 29.8601 81.5089C29.9502 81.4421 30.0202 81.3519 30.0625 81.248C30.7857 79.7739 29.4669 76.9937 27.8915 76.6569C27.5931 76.5982 27.2839 76.6359 27.0084 76.7646C26.7328 76.8932 26.5054 77.1061 26.3588 77.3725C26.2653 77.8431 26.3268 78.3314 26.534 78.7641C26.7411 79.1969 27.0829 79.5509 27.5081 79.7732C27.4309 79.4115 27.374 79.0459 27.3378 78.6779C27.3378 78.3988 27.3761 78.0432 27.6379 78.0432C27.6515 78.0436 27.665 78.0448 27.6784 78.047ZM17.1645 97.6728C17.0369 97.2939 17.3347 97.1251 17.6753 96.9571C18.0672 96.8123 18.4026 96.5464 18.6329 96.1979C18.8632 95.8494 18.9764 95.4366 18.9559 95.0193C18.9559 94.7245 18.8704 94.2609 19.382 94.2609C19.7226 94.2189 19.9357 94.8085 20.0197 95.2294C20.1907 96.5797 19.382 97.4612 18.1044 97.8828C17.9607 97.9385 17.8084 97.969 17.6543 97.9729C17.5508 97.9857 17.4459 97.9631 17.3569 97.9085C17.2679 97.854 17.2 97.7709 17.1645 97.6728ZM24.9575 96.8731C24.8719 96.6203 25.1705 96.4515 25.3836 96.4095C26.0084 96.278 26.5592 95.9124 26.9231 95.3878C27.2871 94.8632 27.4365 94.2193 27.3408 93.588C27.3408 93.3772 27.4264 93.1244 27.6409 93.1664C27.941 93.2511 28.0243 93.63 28.109 93.9248C28.1826 94.2638 28.188 94.6141 28.1248 94.9552C28.0617 95.2963 27.9312 95.6214 27.741 95.9116C27.5509 96.2017 27.3049 96.4511 27.0173 96.6451C26.7298 96.8392 26.4065 96.9741 26.0663 97.0419C25.9807 97.0419 25.896 97.0839 25.8104 97.0839C25.7152 97.0971 25.6192 97.1039 25.5231 97.1041C25.2688 97.1041 25.0145 97.0524 24.9575 96.8731ZM13.7593 90.681C13.7166 90.6397 13.7166 90.597 13.7166 90.5129C13.7145 90.0959 13.5966 89.6876 13.376 89.3336C13.2261 89.1614 13.0309 89.0347 12.8127 88.9677C12.5945 88.9008 12.3618 88.8963 12.1412 88.9548L11.1201 89.0816C9.2034 89.1236 7.62799 87.6074 8.48096 85.4169C8.46028 86.1627 8.73497 86.8864 9.24524 87.4307C9.75552 87.975 10.4601 88.2957 11.2057 88.3231C11.4903 88.3178 11.7741 88.2894 12.0541 88.2383C12.3057 88.155 12.5729 88.1297 12.8357 88.1644C13.0984 88.1992 13.3499 88.2931 13.5711 88.439C13.7924 88.5849 13.9776 88.7791 14.113 89.007C14.2484 89.2348 14.3304 89.4904 14.3527 89.7545C16.481 88.4041 15.8426 85.5429 13.2462 84.1108C13.8874 84.1134 14.5132 84.3071 15.0438 84.6671C15.5744 85.0271 15.9857 85.537 16.2252 86.1318C16.5 86.746 16.5821 87.429 16.4606 88.0908C16.3391 88.7526 16.0198 89.362 15.5448 89.8385C15.129 90.2121 14.6719 90.5371 14.1824 90.807C14.1309 90.8337 14.0739 90.8481 14.0159 90.849C13.9615 90.8485 13.9085 90.8323 13.863 90.8026C13.8175 90.7728 13.7816 90.7306 13.7593 90.681ZM22.2298 89.7155C22.0595 89.3786 22.4001 89.0403 22.8682 88.9158C23.0796 88.8675 23.2794 88.7779 23.456 88.6521C23.6326 88.5263 23.7826 88.3668 23.8973 88.1828C24.012 87.9988 24.0892 87.7939 24.1244 87.5799C24.1595 87.3659 24.152 87.1471 24.1022 86.936C24.0595 86.5992 24.0175 86.1356 24.3581 86.0095C24.8262 85.8415 25.0385 86.3884 25.124 86.7252C25.2618 87.0718 25.3172 87.4457 25.2858 87.8173C25.2543 88.189 25.137 88.5482 24.943 88.8668C24.749 89.1853 24.4836 89.4544 24.1678 89.6529C23.852 89.8513 23.4944 89.9737 23.1232 90.0103C23.0335 90.0223 22.943 90.0288 22.8524 90.0298C22.7292 90.0445 22.6044 90.0226 22.4936 89.9666C22.3829 89.9107 22.2911 89.8234 22.2298 89.7155Z" fill="#374D59" fill-opacity="0.15"/>
<path d="M114.492 97.7568C114.783 96.9912 115.272 96.3169 115.91 95.8036C116.435 95.4656 116.87 95.0041 117.176 94.4594C117.482 93.9146 117.65 93.3032 117.665 92.6786C119.461 91.6548 120.845 90.0391 121.581 88.1076C122.458 85.6213 127.887 78.2276 122.718 70.5311C119.598 65.9059 115.891 65.1479 112.958 64.8641C111.521 64.6628 110.058 64.7537 108.657 65.1314C107.256 65.509 105.945 66.1656 104.804 67.0618C102.618 68.728 101.013 71.0416 100.218 73.673C99.9923 74.5312 99.8176 75.402 99.6949 76.2808C98.1741 75.0613 96.5837 75.8782 96.0952 77.6176C95.7619 78.8178 95.9097 80.1006 96.5073 81.1935C97.1049 82.2864 98.1052 83.1032 99.2955 83.4702C99.714 83.5875 100.092 85.6515 100.092 85.6515C97.795 86.4497 95.4258 87.0235 93.0179 87.3649C89.6914 87.8917 86.7494 89.2836 84.7289 92.1996C83.6641 93.6978 83.1667 95.5257 83.3252 97.3568C83.4984 98.8216 83.9759 100.234 84.727 101.503C85.4781 102.773 86.4862 103.871 87.6867 104.728L87.291 105.778C86.3494 108.328 87.4666 112.275 89.6123 114.059C90.4759 114.863 91.4318 115.277 92.4832 114.762C93.042 114.447 93.502 113.981 93.8119 113.419C94.1218 112.857 94.2693 112.22 94.238 111.579C94.2741 110.35 94.2422 110.502 95.6506 110.463C99.1833 110.183 102.478 108.572 104.868 105.956C105.37 105.362 105.732 104.664 105.928 103.911C106.123 103.159 106.147 102.372 105.998 101.609C105.873 100.962 105.654 100.337 105.349 99.7529C105.26 99.5434 105.5 99.3625 105.621 99.2421C106.084 99.8913 106.699 100.417 107.412 100.773C108.125 101.13 108.915 101.306 109.712 101.286C111.038 101.189 112.281 100.602 113.2 99.6404C113.744 99.0985 114.182 98.4597 114.492 97.7568ZM113.718 96.9223C113.473 97.7828 112.995 98.5587 112.337 99.1645C111.678 99.7702 110.865 100.182 109.988 100.355C107.711 100.546 106.254 99.2086 105.904 96.9335C105.814 95.9833 105.921 95.0247 106.218 94.1178C106.31 93.8477 106.523 93.0987 105.984 93.1613C105.774 93.1921 105.563 93.6419 105.471 93.9119C104.943 95.085 104.778 96.3894 104.998 97.657C105.053 97.8974 105.03 98.1489 104.934 98.3758C104.722 98.8257 104.425 98.3488 104.246 98.17C103.181 97.1874 101.906 96.4597 100.519 96.0417C99.131 95.6237 97.6665 95.5263 96.2357 95.7569C96.1461 95.7882 96.0559 95.8784 96.0846 95.9675C96.0918 96.0043 96.1098 96.0382 96.1364 96.0647C96.1629 96.0913 96.1968 96.1093 96.2336 96.1166C98.161 96.1915 100.044 96.7148 101.734 97.6448C104.062 99.0097 105.429 100.978 104.998 103.196C104.691 104.539 103.895 105.719 102.765 106.506C99.6992 108.797 96.2792 110.073 92.3909 109.375C91.7326 109.259 91.1958 108.962 91.313 109.441C91.4011 109.77 91.9687 109.976 92.3575 110.124C93.2848 110.448 93.3134 110.537 93.1574 111.706C92.8158 114.073 91.2891 114.112 90.4234 113.428C89.5416 112.685 88.8626 111.731 88.45 110.654C88.0373 109.577 87.9045 108.413 88.0639 107.271C88.2199 106.042 88.8209 105.68 90.1088 105.643C91.6789 105.669 93.2413 105.417 94.7239 104.9C94.7442 104.893 94.7628 104.882 94.7786 104.867C94.7943 104.852 94.8068 104.834 94.8154 104.815C94.8239 104.795 94.8282 104.773 94.8281 104.752C94.828 104.73 94.8234 104.709 94.8146 104.689C94.777 104.643 94.7242 104.612 94.6656 104.601C94.4183 104.642 94.167 104.654 93.9171 104.635C91.6711 104.617 89.336 104.75 87.5488 103.083C86.8897 102.423 86.292 101.705 85.7633 100.936C84.8438 99.6248 84.3875 98.0442 84.4664 96.4444C84.5454 94.8446 85.1551 93.3166 86.1993 92.102C88.127 89.9366 90.738 88.8746 93.6147 88.3203C95.9575 88.0036 98.2661 87.4709 100.511 86.7289C100.709 87.2849 100.989 87.8082 101.341 88.2816C103.194 91.0824 106.056 93.0606 109.331 93.8042C109.132 93.9435 108.959 94.1166 108.82 94.3156C108.63 94.5399 108.499 94.8086 108.44 95.0967C108.381 95.3848 108.395 95.6832 108.482 95.9643C108.807 96.6507 108.872 95.7521 109.205 95.1819C109.416 94.7942 109.736 94.4764 110.125 94.267C110.514 94.0577 110.956 93.9658 111.396 94.0026C112.669 94.0506 113.942 93.9025 115.171 93.5634C115.605 93.4182 116.026 93.2359 116.43 93.0186C116.668 93.3162 116.335 93.9469 115.944 94.4594C115.691 94.791 115.374 95.0676 115.011 95.2721C114.712 95.0943 115.195 94.5527 114.655 94.5554C114.614 94.5577 114.575 94.5683 114.538 94.5866C114.502 94.6048 114.469 94.6303 114.443 94.6615C114.049 95.053 113.847 96.4863 113.716 96.9245L113.718 96.9223ZM109.356 66.2035C111.662 65.7896 114.038 66.0354 116.21 66.9128C117.806 67.4963 119.25 68.431 120.435 69.6477C121.621 70.8644 122.517 72.332 123.059 73.942C124.003 76.422 124.051 79.1534 123.197 81.6656C122.439 83.7951 121.537 85.8708 120.498 87.8784C119.821 89.369 118.743 90.6429 117.386 91.5588C116.029 92.4747 114.444 92.9969 112.809 93.0674C110.468 93.1977 108.143 92.615 106.141 91.3965C102.918 89.4974 100.747 86.5453 100.737 82.3854C100.719 80.14 100.73 77.8648 100.893 75.6188C101.259 73.1198 102.444 70.8127 104.26 69.058C105.641 67.6252 107.413 66.6322 109.356 66.2035ZM98.364 78.2674C98.2139 78.4175 98.39 78.7178 98.5104 78.8955C99.4005 80.3277 99.7835 81.9722 99.5708 82.1234C99.4845 82.195 99.3802 82.2416 99.2693 82.258C99.1583 82.2745 99.045 82.2602 98.9417 82.2167C97.3879 81.6857 96.3546 78.7873 97.2304 77.4351C97.3999 77.1827 97.6452 76.9906 97.931 76.8868C98.2168 76.783 98.5282 76.7727 98.8202 76.8574C99.2191 77.1241 99.5208 77.5127 99.6803 77.9653C99.8398 78.4178 99.8485 78.9098 99.705 79.3676C99.5039 79.0573 99.2855 78.7585 99.0509 78.4727C98.8536 78.2754 98.5751 78.051 98.39 78.2361C98.3816 78.2452 98.3738 78.2548 98.3666 78.2647L98.364 78.2674ZM119.679 84.7078C119.501 84.3497 119.171 84.441 118.811 84.563C118.433 84.7374 118.008 84.7866 117.599 84.7035C117.191 84.6205 116.819 84.4094 116.538 84.1009C116.33 83.8925 116.062 83.5042 115.701 83.866C115.43 84.0771 115.696 84.6447 115.935 85.0017C116.769 86.0775 117.964 86.1289 119.165 85.5237C119.306 85.4614 119.435 85.3752 119.547 85.269C119.63 85.2044 119.688 85.1136 119.712 85.0115C119.735 84.9095 119.724 84.8024 119.679 84.7078ZM113.603 89.6528C113.484 89.4136 113.154 89.5053 112.974 89.6263C112.439 89.9751 111.791 90.1062 111.163 89.9925C110.534 89.8789 109.973 89.5292 109.594 89.0152C109.445 88.8661 109.206 88.7478 109.084 88.9293C108.932 89.2014 109.141 89.5282 109.289 89.7966C109.477 90.0883 109.721 90.3398 110.007 90.5363C110.293 90.7329 110.615 90.8705 110.955 90.9412C111.294 91.0119 111.644 91.0143 111.985 90.9482C112.326 90.8821 112.65 90.7488 112.938 90.5562C112.999 90.4957 113.088 90.4655 113.149 90.405C113.225 90.3471 113.298 90.284 113.366 90.2162C113.546 90.0363 113.689 89.8199 113.603 89.6528ZM117.143 77.3566C117.144 77.2972 117.114 77.2669 117.054 77.2075C116.761 76.9112 116.556 76.5391 116.461 76.1328C116.446 75.9051 116.494 75.6775 116.601 75.4758C116.708 75.2741 116.869 75.1064 117.067 74.9918L117.878 74.3589C119.263 73.0333 119.305 70.8472 117.155 69.9041C117.696 70.4169 118.013 71.1225 118.037 71.8675C118.06 72.6125 117.789 73.3369 117.282 73.8831C117.076 74.0814 116.855 74.2627 116.62 74.4252C116.383 74.5441 116.176 74.7152 116.015 74.9256C115.854 75.136 115.742 75.3801 115.689 75.6398C115.636 75.8994 115.642 76.1677 115.708 76.4246C115.773 76.6814 115.896 76.9201 116.067 77.1227C113.607 77.6727 112.035 75.1981 112.858 72.3495C112.407 72.8048 112.101 73.3843 111.981 74.014C111.86 74.6437 111.93 75.2952 112.181 75.8851C112.421 76.5137 112.846 77.0547 113.4 77.4367C113.954 77.8188 114.61 78.0239 115.283 78.025C115.841 77.9951 116.394 77.9017 116.931 77.7465C116.987 77.7289 117.037 77.6988 117.079 77.6584C117.117 77.6196 117.144 77.5705 117.155 77.517C117.167 77.4634 117.163 77.4077 117.143 77.3566ZM110.469 82.6613C110.351 82.3027 109.871 82.3043 109.452 82.5472C109.268 82.6626 109.064 82.7405 108.85 82.7764C108.636 82.8124 108.417 82.8056 108.206 82.7566C107.995 82.7076 107.795 82.6173 107.619 82.4909C107.443 82.3644 107.293 82.2044 107.179 82.0199C106.971 81.7515 106.673 81.394 106.343 81.5457C105.893 81.7579 106.13 82.2947 106.308 82.5934C106.455 82.9359 106.681 83.2394 106.966 83.48C107.251 83.7206 107.588 83.8916 107.95 83.9797C108.312 84.0677 108.69 84.0704 109.054 83.9874C109.418 83.9044 109.757 83.7381 110.045 83.5015C110.117 83.4465 110.186 83.3872 110.251 83.3238C110.348 83.2471 110.421 83.1433 110.46 83.0255C110.499 82.9076 110.502 82.7809 110.469 82.6613Z" fill="#374D59" fill-opacity="0.15"/>
</svg>
