<svg width="135" height="102" viewBox="0 0 135 102" fill="none" xmlns="http://www.w3.org/2000/svg">
<path opacity="0.38" d="M69.97 88.292C94.2534 88.292 113.939 68.6064 113.939 44.323C113.939 20.0396 94.2534 0.354004 69.97 0.354004C45.6866 0.354004 26.001 20.0396 26.001 44.323C26.001 68.6064 45.6866 88.292 69.97 88.292Z" fill="white"/>
<path d="M22.646 31.101L31.246 30.262C32.086 30.262 45.832 35.509 45.832 35.509L52.653 39.709C52.653 39.709 52.233 35.509 53.073 35.092L56.221 33.518L60.838 34.672L63.881 38.03L65.455 43.592L63.461 49.992L66.294 55.868C66.294 55.868 69.337 54.294 70.701 53.668C72.065 53.042 88.96 41.705 89.901 41.705C90.842 41.705 97.666 39.921 99.45 39.921C101.234 39.921 109.419 41.18 109.419 41.18L115.61 45.797L119.598 53.982L120.438 66.26L121.697 68.569L127.259 70.983L132.821 80.113L133.031 88.713C133.031 88.713 129.673 90.813 128.831 90.602C127.989 90.391 122.325 87.664 122.325 87.664L119.492 86.825L114.56 91.232L107.746 95.113C107.746 95.113 100.086 96.897 99.146 96.897C98.206 96.897 90.546 96.162 90.546 96.162C90.546 96.162 86.139 92.279 85.509 91.65C84.879 91.021 83.935 87.662 83.409 87.45C82.883 87.238 80.471 86.191 80.471 86.191L78.897 86.926L79.736 92.383L75.746 97.842L73.123 99.942L66.512 100.781L63.574 100.256L59.167 98.997L55.179 98.787C54.4054 98.7691 53.634 98.699 52.87 98.577C52.135 98.367 50.561 96.268 49.722 96.268H44.79C43.95 96.268 39.543 96.583 39.543 96.583L27.685 93.12L17.716 88.188L8.27199 80.528L2.49998 71.398L1.44598 58.805L4.59398 47.996L9.84099 38.552L18.971 33.62L22.644 31.102" fill="white"/>
<path d="M50.872 36.8729C51.397 32.0459 55.594 30.6819 59.472 32.8849C64.929 36.0329 67.237 43.3789 64.089 48.8349C63.564 49.7789 66.503 54.0819 66.503 54.0819C71.9058 51.4394 77.0384 48.2768 81.828 44.6389C88.544 39.7069 96.1 36.9789 104.704 38.5529C109.183 39.3226 113.239 41.6672 116.142 45.1639C118.397 48.0606 120.027 51.393 120.93 54.951C121.833 58.509 121.99 62.2155 121.389 65.8369L123.907 66.9909C129.993 69.8239 134.925 78.7439 134.296 85.6699C134.196 88.6079 133.247 91.0219 130.518 91.9699C127.265 93.1239 124.118 91.5499 121.918 89.4519C119.718 87.3539 120.029 87.5629 117.511 89.9769C110.888 95.6966 102.327 98.6631 93.585 98.2669C91.6696 98.1013 89.8162 97.5058 88.1629 96.5246C86.5096 95.5434 85.0989 94.2019 84.036 92.5999C83.1278 91.2395 82.4205 89.7552 81.936 88.1929C81.726 87.6679 80.992 87.7729 80.572 87.7729C80.8989 89.7289 80.745 91.7351 80.1234 93.6182C79.5017 95.5014 78.4311 97.205 77.004 98.5819C73.541 101.835 67.56 102.782 62.523 100.782C60.6844 99.945 58.6542 99.6189 56.646 99.8379C55.1399 100.167 53.5761 100.118 52.0932 99.697C50.6104 99.2758 49.2545 98.495 48.146 97.4239C43.2298 98.7853 37.9917 98.3768 33.346 96.2699C27.47 93.4369 5.11798 89.9699 0.709984 67.3069C-1.91302 53.6649 3.22799 45.7949 7.84599 40.1279C12.146 34.8809 16.976 30.9979 25.895 29.6339C31.457 28.7949 39.747 29.7339 45.413 33.2019C47.304 34.316 49.1269 35.5419 50.872 36.8729ZM16.453 36.1379C11.7051 39.4868 7.99683 44.1056 5.75298 49.4649C3.98853 53.3085 3.10138 57.4965 3.15586 61.7254C3.21034 65.9543 4.2051 70.1181 6.06799 73.9149C8.73009 79.9295 13.4057 84.8279 19.29 87.7669C24.3202 90.1812 29.5093 92.2497 34.821 93.9579C43.216 96.8959 50.771 95.1119 57.278 89.5509C61.5935 85.642 64.6291 80.5218 65.988 74.8599C68.297 65.8349 66.932 56.8109 59.688 49.4649C55.805 45.4769 51.818 41.4899 47.62 37.8169C40.904 32.1499 26.42 29.4219 16.454 36.1379H16.453ZM90.853 65.1009C91.063 65.0009 91.378 65.0009 91.483 65.2009C91.5343 65.2788 91.5617 65.3701 91.5617 65.4634C91.5617 65.5567 91.5343 65.648 91.483 65.7259C89.283 68.3489 85.921 72.5469 84.557 78.1089C82.878 84.6149 83.927 90.4919 88.545 93.6399C91.4118 95.459 94.8579 96.1333 98.199 95.5289C107.538 94.1649 115.724 90.3869 121.285 82.3069C122.229 80.9429 122.649 79.4739 123.279 80.5229C123.699 81.2579 123.069 82.6229 122.649 83.5659C121.6 85.7659 121.705 85.9799 124.013 87.7659C128.735 91.3339 131.464 88.7099 131.778 85.9819C132.024 83.1268 131.547 80.2557 130.392 77.6332C129.237 75.0108 127.44 72.7213 125.167 70.9759C122.753 69.0869 121.074 69.5069 118.767 71.7109C116.081 74.518 112.919 76.8274 109.428 78.5319C109.38 78.5551 109.328 78.568 109.275 78.5698C109.222 78.5716 109.169 78.5624 109.119 78.5426C109.07 78.5229 109.025 78.4931 108.988 78.4551C108.951 78.417 108.922 78.3717 108.903 78.3219C108.886 78.1745 108.921 78.0258 109.003 77.9019C109.506 77.5382 109.964 77.1156 110.367 76.6429C114.25 72.6549 118.552 68.7729 118.767 62.6859C118.766 60.363 118.555 58.045 118.137 55.7599C117.474 51.8466 115.525 48.2661 112.598 45.5854C109.671 42.9047 105.933 41.277 101.977 40.9599C94.841 40.5399 88.44 43.2689 82.459 47.3599C76.268 51.7669 71.859 54.8109 67.659 56.6989C68.2836 58.0291 68.7078 59.4445 68.918 60.8989C70.576 69.0971 69.0377 77.6189 64.618 84.7199C65.208 84.615 65.812 84.615 66.402 84.7199C67.1271 84.7817 67.8248 85.0257 68.4302 85.4294C69.0357 85.8331 69.5292 86.3833 69.865 87.0289C70.495 88.8129 68.816 87.3439 67.242 86.9289C66.1952 86.6193 65.0807 86.6233 64.0362 86.9404C62.9917 87.2574 62.063 87.8737 61.365 88.7129C59.2328 91.0375 56.7551 93.0194 54.019 94.5889C53.0078 95.0983 51.9545 95.5195 50.871 95.8479C50.971 96.7919 52.655 97.3169 54.229 97.5269C55.247 97.6665 56.2828 97.5951 57.272 97.3169C57.482 96.4779 55.698 96.3729 56.642 95.4279C57.586 94.4829 61.259 97.3169 62.414 97.9469C65.877 100.256 72.068 99.8359 74.902 97.4219C79.202 93.7489 79.414 88.8219 76.056 84.1999C74.5602 82.3705 72.7023 80.8701 70.599 79.7929C69.969 79.4779 68.29 78.5339 69.34 77.6929C69.76 77.3779 70.914 77.7929 71.54 78.1129C74.5108 79.259 77.0697 81.2696 78.886 83.8849C79.2079 84.4036 79.6852 84.8074 80.25 85.0389C81.404 85.4589 81.089 84.0949 81.089 83.4649C81.2271 79.8665 82.1765 76.3458 83.8664 73.1659C85.5563 69.9859 87.9429 67.2289 90.848 65.1009H90.853ZM56.223 42.3299C56.0318 41.4292 55.8916 40.5184 55.803 39.6019C55.803 38.8669 55.903 37.9229 56.642 38.0279C57.167 38.0279 57.377 38.8669 57.482 39.3919C58.426 43.4849 60.63 47.0519 61.26 46.9469C61.5362 46.9201 61.7997 46.8178 62.0218 46.6513C62.2438 46.4849 62.4158 46.2606 62.519 46.0029C64.303 42.3299 61.05 35.4029 57.167 34.5649C56.4293 34.4197 55.6644 34.5145 54.9846 34.8356C54.3047 35.1566 53.7455 35.687 53.389 36.3489C52.76 38.2369 53.81 40.7559 56.223 42.3299Z" fill="#9E765D"/>
<path d="M21.069 53.137C22.6563 53.1474 24.2042 53.6328 25.5134 54.5304C26.8226 55.4281 27.8331 56.6971 28.415 58.174C29.0924 59.7042 29.2946 61.4026 28.9952 63.0491C28.6958 64.6956 27.9087 66.2142 26.736 67.408C25.7129 68.3387 24.5862 69.1486 23.378 69.822C23.2902 69.8772 23.1915 69.913 23.0887 69.9269C22.9859 69.9409 22.8813 69.9326 22.7819 69.9028C22.6825 69.873 22.5907 69.8222 22.5126 69.7539C22.4345 69.6856 22.3719 69.6014 22.329 69.507C22.229 69.407 22.229 69.297 22.229 69.087C22.2246 68.049 21.934 67.0324 21.389 66.149C20.654 65.1 19.5 65.1 18.346 65.205L15.828 65.52C11.106 65.62 7.22799 61.847 9.32199 56.39C9.26155 58.2383 9.93314 60.0358 11.1907 61.3917C12.4484 62.7477 14.1903 63.5524 16.038 63.631C16.7425 63.6184 17.4449 63.5481 18.138 63.421C20.866 62.791 23.385 64.051 23.805 67.199C29.045 63.837 27.471 56.705 21.069 53.137Z" fill="#9E765D"/>
<path d="M45.415 67.829C44.575 67.929 43.631 67.929 43.215 67.094C42.799 66.259 43.635 65.4149 44.789 65.0999C47.307 64.3649 48.042 62.5809 47.832 60.1679C47.732 59.3289 47.622 58.174 48.462 57.859C49.616 57.439 50.141 58.803 50.351 59.643C51.506 63.316 49.927 66.989 45.415 67.829Z" fill="#9E765D"/>
<path d="M37.754 80.841C38.174 84.199 36.18 86.403 33.032 87.452C32.192 87.767 31.038 87.872 30.723 86.927C30.408 85.982 31.143 85.563 31.982 85.143C32.9501 84.7752 33.7765 84.1096 34.3422 83.2422C34.9079 82.3748 35.1838 81.3502 35.13 80.316C35.13 79.581 34.92 78.427 36.179 78.427C37.02 78.327 37.544 79.791 37.754 80.841Z" fill="#9E765D"/>
<path d="M57.692 77.587C57.876 78.4279 57.8914 79.2969 57.7373 80.1438C57.5832 80.9907 57.2626 81.7986 56.7942 82.5208C56.3257 83.243 55.7187 83.8651 55.0082 84.351C54.2977 84.837 53.4979 85.1772 52.655 85.352C52.445 85.352 52.235 85.452 52.025 85.452C51.29 85.552 50.136 85.552 49.925 84.927C49.714 84.302 50.45 83.878 50.974 83.773C53.807 82.933 56.011 81.045 55.801 76.742C55.801 76.217 56.011 75.588 56.536 75.693C57.272 75.908 57.482 76.853 57.692 77.587Z" fill="#9E765D"/>
<path d="M71.859 30.9961C71.959 31.0961 71.959 31.2061 71.959 31.4161C71.9512 31.5368 71.9193 31.6547 71.8652 31.7629C71.8111 31.8711 71.7359 31.9674 71.644 32.0461L71.119 32.5711C68.3394 32.3614 65.5931 31.8333 62.934 30.9971C62.514 30.8971 61.99 30.6821 61.57 30.5771C61.1314 30.3782 60.7662 30.0466 60.526 29.6291V29.1041C62.73 26.5854 64.094 25.0114 64.618 24.3821C65.9603 22.7794 67.1546 21.0584 68.186 19.2401C67.621 18.8928 66.9559 18.7449 66.297 18.8201C65.6974 18.8382 65.1005 18.9084 64.513 19.0301C63.883 19.1301 63.359 19.1301 62.729 19.2401C62.2679 19.2215 61.8104 19.1511 61.365 19.0301C60.84 18.7151 60.525 18.4001 60.525 17.9811C60.525 17.8811 60.625 17.6661 60.625 17.5611C61.32 17.051 62.1835 16.8256 63.039 16.9311H64.088C64.545 16.95 65.0027 16.9164 65.452 16.8311C66.2255 16.8489 66.997 16.9191 67.761 17.0411C68.5071 17.1262 69.2247 17.3773 69.861 17.7761C70.0745 17.9127 70.2525 18.0981 70.3802 18.317C70.508 18.5359 70.582 18.782 70.596 19.0351C70.596 19.2451 70.596 19.3501 70.496 19.4551C69.7484 21.2494 68.7213 22.914 67.453 24.3871C66.194 25.8561 64.935 27.4301 63.675 28.7941C66.0842 29.5141 68.5382 30.075 71.021 30.4731C71.439 30.3661 71.649 30.6811 71.859 30.9961Z" fill="white"/>
<path d="M86.2349 24.07V24.28C86.2334 24.3612 86.2138 24.4411 86.1775 24.5137C86.1412 24.5864 86.089 24.65 86.0249 24.7L85.6049 25.12C83.6482 24.9838 81.7125 24.632 79.8329 24.071L78.8889 23.756C78.5773 23.6392 78.317 23.4161 78.1539 23.126V22.701C79.1608 21.6359 80.1066 20.5148 80.9869 19.343C81.9201 18.2224 82.7624 17.0293 83.506 15.775C83.0838 15.5602 82.6155 15.452 82.1419 15.46C81.7219 15.46 81.3019 15.56 80.8829 15.56C80.469 15.6452 80.0461 15.6788 79.6239 15.66C79.3059 15.6786 78.987 15.6448 78.6799 15.56C78.2599 15.35 78.0499 15.14 78.0499 14.825C78.0499 14.725 78.0499 14.615 78.1499 14.615C78.6426 14.2815 79.2373 14.1327 79.8289 14.195H80.5639C80.882 14.2136 81.2009 14.1798 81.5079 14.095C82.0329 14.095 82.557 14.195 83.187 14.195C83.7494 14.2248 84.2932 14.4062 84.7609 14.72C84.9222 14.8189 85.0553 14.9577 85.1473 15.1231C85.2392 15.2885 85.287 15.4748 85.2859 15.664C85.2937 15.7206 85.2888 15.7783 85.2715 15.8327C85.2542 15.8872 85.225 15.9372 85.1859 15.979C84.6511 17.2257 83.9442 18.3913 83.0859 19.442C82.1419 20.491 81.3019 21.542 80.3579 22.59C82.0678 23.135 83.8242 23.5213 85.6049 23.744C85.6668 23.7133 85.7351 23.6976 85.8041 23.6983C85.8732 23.6989 85.9411 23.7157 86.0025 23.7475C86.0638 23.7792 86.1168 23.8249 86.1572 23.881C86.1976 23.937 86.2242 24.0017 86.2349 24.07Z" fill="white"/>
</svg>
