<svg width="51" height="52" viewBox="0 0 51 52" fill="none" xmlns="http://www.w3.org/2000/svg">
<path d="M25.4999 0.775803C28.9095 0.767517 32.2854 1.44778 35.4257 2.7758C38.456 4.05562 41.2094 5.91147 43.5322 8.24065C45.8613 10.5634 47.7172 13.3168 48.997 16.3471C50.325 19.4874 51.0053 22.8633 50.997 26.2729C51.0054 29.6818 50.3251 33.0571 48.997 36.1967C47.7173 39.2267 45.8614 41.9798 43.5322 44.3022C41.2094 46.6313 38.456 48.4872 35.4257 49.767C32.2854 51.095 28.9095 51.7753 25.4999 51.767C22.091 51.7754 18.7157 51.0951 15.5761 49.767C12.5459 48.4871 9.79254 46.6312 7.46965 44.3022C5.14094 41.9794 3.28514 39.2264 2.00481 36.1967C0.676888 33.0571 -0.00337601 29.6818 0.00480652 26.2729C-0.003479 22.8633 0.676781 19.4874 2.00481 16.3471C3.28462 13.3168 5.14048 10.5634 7.46965 8.24065C9.79254 5.91159 12.5459 4.05575 15.5761 2.7758C18.7157 1.4477 22.091 0.767429 25.4999 0.775803ZM28.4999 34.7758C28.6226 34.7762 28.7439 34.7522 28.8573 34.7055C28.9708 34.6588 29.0742 34.5899 29.1611 34.5033L29.7206 33.9438C29.8955 33.768 29.9941 33.5305 29.9941 33.2826C29.9941 33.0347 29.8955 32.7963 29.7206 32.6205L23.3349 26.2397L29.7275 19.8461C29.9015 19.6701 29.9999 19.4325 29.9999 19.185C29.9999 18.9375 29.9015 18.6998 29.7275 18.5238L29.1679 17.9623C29.081 17.8757 28.9776 17.8078 28.8642 17.7612C28.7508 17.7145 28.6294 17.6905 28.5068 17.6908C28.3841 17.6905 28.2628 17.7145 28.1493 17.7612C28.0359 17.8078 27.9325 17.8757 27.8456 17.9623L20.2333 25.5737C20.0587 25.7504 19.9609 25.9893 19.9609 26.2377C19.9609 26.4861 20.0587 26.7241 20.2333 26.9008L27.8388 34.5004C27.9253 34.5877 28.0281 34.6573 28.1415 34.7045C28.255 34.7517 28.377 34.776 28.4999 34.7758Z" fill="#374D59"/>
</svg>
