<svg width="28" height="28" viewBox="0 0 28 28" fill="none" xmlns="http://www.w3.org/2000/svg">
<path d="M26.67 14.3008C26.6708 13.3955 26.5904 12.4919 26.43 11.6008H14V16.7118H21.1C20.9485 17.5183 20.6355 18.2859 20.1797 18.9683C19.724 19.6507 19.1349 20.2339 18.448 20.6828V24.0058H22.731C24.03 22.7538 25.0518 21.243 25.7303 19.5713C26.4088 17.8996 26.729 16.104 26.67 14.3008Z" fill="#4285F4"/>
<path d="M14 27.1978C17.2131 27.2876 20.339 26.1461 22.738 24.0068L18.455 20.6838C17.4374 21.3429 16.2823 21.7601 15.0783 21.9033C13.8744 22.0464 12.6536 21.9118 11.5098 21.5098C10.366 21.1077 9.32953 20.4489 8.47998 19.5839C7.63043 18.7188 6.99039 17.6707 6.60902 16.5198H2.21802V19.9268C3.31465 22.1119 4.99727 23.9492 7.07787 25.2332C9.15848 26.5171 11.5551 27.1974 14 27.1978Z" fill="#34A853"/>
<path d="M6.60897 16.5089C6.04934 14.8841 6.04934 13.1188 6.60897 11.4939V8.08594H2.21797C1.28726 9.91876 0.802185 11.9453 0.802185 14.0009C0.802185 16.0565 1.28726 18.0831 2.21797 19.9159L5.63697 17.2519L6.60897 16.5079V16.5089Z" fill="#FBBC05"/>
<path d="M14 6.05787C15.8758 6.03081 17.688 6.73691 19.051 8.02587L22.83 4.24687C20.4435 1.99904 17.2782 0.764457 14 0.802872C11.5536 0.803147 9.15556 1.48463 7.0746 2.77096C4.99365 4.05729 3.31198 5.89766 2.21802 8.08587L6.60902 11.4929C7.11925 9.92866 8.10637 8.56343 9.43189 7.5887C10.7574 6.61397 12.3548 6.07866 14 6.05787Z" fill="#EA4335"/>
</svg>
