<svg width="51" height="52" viewBox="0 0 51 52" fill="none" xmlns="http://www.w3.org/2000/svg">
<path d="M25.5001 51.776C22.0905 51.784 18.7147 51.1038 15.5743 49.776C12.544 48.4961 9.79064 46.6403 7.46785 44.3111C5.13879 41.9882 3.28295 39.2349 2.003 36.2047C0.674979 33.0644 -0.00528106 29.6884 0.00300447 26.2789C-0.00525628 22.8696 0.675006 19.494 2.003 16.3541C3.28334 13.3244 5.13914 10.5714 7.46785 8.24861C9.79086 5.91995 12.5442 4.06444 15.5743 2.78474C18.7147 1.4569 22.0905 0.776649 25.5001 0.784742C28.9093 0.776482 32.2849 1.45674 35.4249 2.78474C38.455 4.06444 41.2083 5.91995 43.5313 8.24861C45.86 10.5714 47.7158 13.3244 48.9962 16.3541C50.3242 19.494 51.0044 22.8696 50.9962 26.2789C51.0045 29.6884 50.3242 33.0644 48.9962 36.2047C47.7162 39.2349 45.8604 41.9882 43.5313 44.3111C41.2085 46.6403 38.4551 48.4961 35.4249 49.776C32.2849 51.104 28.9093 51.7842 25.5001 51.776ZM22.4932 17.6871C22.3706 17.6867 22.2491 17.7105 22.1358 17.7574C22.0225 17.8043 21.9196 17.8727 21.8331 17.9595L21.2735 18.5201C21.0995 18.6959 21.0011 18.9329 21.0011 19.1803C21.0011 19.4276 21.0995 19.6656 21.2735 19.8414L27.6651 26.2359L21.2794 32.6168C21.1049 32.7923 21.0069 33.0304 21.0069 33.2779C21.0069 33.5254 21.1049 33.7625 21.2794 33.9381L21.8389 34.4986C21.926 34.5853 22.0291 34.6541 22.1427 34.7008C22.2563 34.7474 22.3782 34.7715 22.5011 34.7711C22.6234 34.7715 22.7444 34.7474 22.8575 34.7008C22.9706 34.6541 23.0738 34.5852 23.1602 34.4986L30.7647 26.899C30.9393 26.7223 31.0372 26.4843 31.0372 26.2359C31.0372 25.9875 30.9393 25.7486 30.7647 25.5719L23.1544 17.9615C23.0681 17.8742 22.9649 17.8056 22.8516 17.7584C22.7383 17.7112 22.616 17.6869 22.4932 17.6871Z" fill="#374D59"/>
</svg>
