<svg width="1920" height="31" viewBox="0 0 1920 31" fill="none" xmlns="http://www.w3.org/2000/svg">
<path d="M1861.81 30.7768H320.913V0.756836C340.113 1.49884 344.15 12.2338 358.439 16.8228C363.494 18.5777 368.769 19.6211 374.112 19.9228C379.455 19.621 384.73 18.5777 389.785 16.8228C404.074 12.2338 408.115 1.49884 427.312 0.756836C446.512 1.49884 450.55 12.2338 464.838 16.8228C469.893 18.5779 475.168 19.6212 480.511 19.9228C485.854 19.6212 491.129 18.5779 496.184 16.8228C510.473 12.2338 514.515 1.49884 533.711 0.756836C552.911 1.49884 556.949 12.2338 571.237 16.8228C576.292 18.5777 581.567 19.6211 586.91 19.9228C592.253 19.6211 597.528 18.5778 602.583 16.8228C616.873 12.2338 620.913 1.49884 640.11 0.756836C659.31 1.49884 663.347 12.2338 677.637 16.8228C681.453 18.0896 685.373 19.0146 689.353 19.5868V19.5058C689.61 19.5821 689.871 19.6415 690.135 19.6838C691.36 19.8291 692.592 19.9119 693.826 19.9318C695.06 19.9119 696.292 19.8291 697.517 19.6838C697.781 19.6415 698.042 19.582 698.298 19.5058V19.5868C702.278 19.0145 706.198 18.0896 710.014 16.8228C724.3 12.2338 728.346 1.49884 747.543 0.756836C766.743 1.49884 770.781 12.2338 785.069 16.8228C790.124 18.5779 795.399 19.6212 800.742 19.9228C806.085 19.6212 811.36 18.5779 816.415 16.8228C830.7 12.2338 834.745 1.49884 853.942 0.756836C873.142 1.49884 877.18 12.2338 891.468 16.8228C896.523 18.5777 901.798 19.6211 907.141 19.9228C912.484 19.6211 917.759 18.5778 922.814 16.8228C937.1 12.2338 941.144 1.49884 960.341 0.756836C979.541 1.49884 983.579 12.2338 997.868 16.8228C1002.92 18.5778 1008.2 19.6211 1013.54 19.9228C1018.88 19.6211 1024.16 18.5777 1029.21 16.8228C1043.5 12.2338 1047.54 1.49884 1066.74 0.756836C1085.94 1.49884 1089.98 12.2338 1104.27 16.8228C1108.08 18.0896 1112 19.0145 1115.98 19.5868V19.5058C1116.24 19.5821 1116.5 19.6415 1116.76 19.6838C1117.99 19.8292 1119.22 19.912 1120.45 19.9318C1121.69 19.9119 1122.92 19.8291 1124.15 19.6838C1124.41 19.6412 1124.67 19.5814 1124.93 19.5048V19.5858C1128.91 19.0136 1132.83 18.0886 1136.65 16.8218C1150.93 12.2338 1154.97 1.49884 1174.17 0.756836C1193.37 1.49884 1197.41 12.2338 1211.7 16.8228C1216.75 18.5777 1222.03 19.6211 1227.37 19.9228C1232.71 19.6211 1237.99 18.5778 1243.04 16.8228C1257.33 12.2338 1261.38 1.49884 1280.57 0.756836C1299.77 1.49884 1303.81 12.2338 1318.1 16.8228C1323.15 18.5777 1328.43 19.621 1333.77 19.9228C1339.11 19.621 1344.39 18.5777 1349.44 16.8228C1363.73 12.2338 1367.77 1.49884 1386.97 0.756836C1406.17 1.49884 1410.21 12.2338 1424.5 16.8228C1429.55 18.5777 1434.83 19.6211 1440.17 19.9228C1445.51 19.6211 1450.79 18.5778 1455.84 16.8228C1470.13 12.2338 1474.17 1.49884 1493.37 0.756836C1512.57 1.49884 1516.61 12.2338 1530.9 16.8228C1535.95 18.5778 1541.23 19.6211 1546.57 19.9228C1551.91 19.6211 1557.19 18.5778 1562.24 16.8228C1576.53 12.2338 1580.57 1.49884 1599.77 0.756836C1618.97 1.49884 1623.01 12.2338 1637.3 16.8228C1642.35 18.5778 1647.63 19.6211 1652.97 19.9228C1658.31 19.6211 1663.59 18.5778 1668.64 16.8228C1682.93 12.2338 1686.97 1.49884 1706.17 0.756836C1725.37 1.49884 1729.41 12.2338 1743.69 16.8228C1747.51 18.0896 1751.43 19.0145 1755.41 19.5868V19.5058C1755.67 19.582 1755.93 19.6415 1756.19 19.6838C1757.42 19.8292 1758.65 19.912 1759.88 19.9318C1761.12 19.9117 1762.35 19.8286 1763.58 19.6828C1763.84 19.6405 1764.1 19.581 1764.36 19.5048V19.5858C1768.34 19.0134 1772.26 18.0884 1776.07 16.8218C1790.36 12.2338 1794.4 1.49884 1813.6 0.756836C1832.8 1.49884 1836.84 12.2338 1851.13 16.8228C1856.18 18.5777 1861.46 19.6211 1866.8 19.9228C1872.14 19.6211 1877.42 18.5778 1882.47 16.8228C1896.76 12.2338 1900.8 1.49884 1920 0.756836V30.7768H1861.81ZM262.723 30.7768H0V0.756836C19.2 1.49884 23.238 12.2338 37.526 16.8228C41.2303 18.0494 45.0324 18.958 48.891 19.5388V19.5058C48.891 19.5058 48.971 19.5328 49.137 19.5728C50.5956 19.7764 52.0647 19.8956 53.537 19.9298C55.0093 19.8956 56.4784 19.7764 57.937 19.5728C58.102 19.5328 58.183 19.5058 58.183 19.5058V19.5388C62.0416 18.958 65.8437 18.0494 69.548 16.8228C83.843 12.2338 87.884 1.49884 107.081 0.756836C126.281 1.49884 130.319 12.2338 144.607 16.8228C149.662 18.5778 154.937 19.6211 160.28 19.9228C165.623 19.6211 170.898 18.5777 175.953 16.8228C190.243 12.2338 194.284 1.49884 213.48 0.756836C232.68 1.49884 236.718 12.2338 251.006 16.8228C254.822 18.0896 258.743 19.0145 262.723 19.5868V19.5058C262.979 19.5824 263.241 19.6422 263.505 19.6848C264.73 19.8302 265.962 19.9129 267.196 19.9328C268.43 19.913 269.662 19.8302 270.887 19.6848C271.151 19.6425 271.412 19.5831 271.669 19.5068V19.5878C275.649 19.0155 279.569 18.0906 283.385 16.8238C297.675 12.2338 301.716 1.49884 320.912 0.756836V30.7768H262.723Z" fill="white"/>
</svg>
