<svg width="375" height="12" viewBox="0 0 375 12" fill="none" xmlns="http://www.w3.org/2000/svg">
<path d="M335.648 6.41999C333.565 7.11712 331.398 7.53083 329.205 7.64999C327.012 7.53083 324.845 7.11712 322.762 6.41999C316.887 4.59899 315.225 0.336992 307.333 0.0419922C299.441 0.336992 297.78 4.59899 291.904 6.41999C290.333 6.92427 288.721 7.29229 287.087 7.51999V7.48599C286.983 7.51588 286.878 7.53926 286.771 7.55599C286.181 7.62199 285.671 7.64999 285.248 7.65599C284.825 7.66199 284.315 7.62299 283.725 7.55599C283.618 7.53926 283.513 7.51588 283.409 7.48599V7.51799C281.775 7.29029 280.163 6.92227 278.592 6.41799C272.718 4.59899 271.057 0.336992 263.165 0.0419922C255.273 0.336992 253.611 4.59899 247.736 6.41999C245.653 7.11712 243.486 7.53083 241.293 7.64999C239.1 7.53083 236.933 7.11712 234.85 6.41999C228.975 4.59899 227.314 0.336992 219.421 0.0419922C211.529 0.336992 209.868 4.59899 203.992 6.41999C201.909 7.11712 199.742 7.53083 197.549 7.64999C195.356 7.53083 193.189 7.11712 191.106 6.41999C185.232 4.59899 183.57 0.336992 175.677 0.0419922C167.785 0.336992 166.124 4.59899 160.249 6.41999C158.166 7.1172 155.998 7.53091 153.805 7.64999C151.612 7.5309 149.444 7.11719 147.361 6.41999C141.488 4.59899 139.827 0.336992 131.935 0.0419922C124.043 0.336992 122.381 4.59899 116.506 6.41999C114.935 6.92427 113.323 7.29229 111.689 7.51999V7.48599C111.585 7.51589 111.48 7.53926 111.373 7.55599C110.784 7.62199 110.273 7.64999 109.85 7.65599C109.427 7.66199 108.917 7.62299 108.327 7.55599C108.22 7.53927 108.115 7.51589 108.011 7.48599V7.51799C106.377 7.29029 104.765 6.92227 103.194 6.41799C97.32 4.59899 95.658 0.336992 87.766 0.0419922C79.874 0.336992 78.213 4.59899 72.338 6.41999C70.2566 7.11709 68.0908 7.53113 65.899 7.65099C63.7056 7.5319 61.5381 7.11819 59.455 6.42099C53.576 4.59899 51.915 0.336992 44.023 0.0419922C36.131 0.336992 34.469 4.59899 28.599 6.41999C27.074 6.90728 25.5114 7.26783 23.927 7.49799V7.48599C23.927 7.48599 23.895 7.49599 23.827 7.51199C23.2255 7.59312 22.6199 7.64053 22.013 7.65399C21.4062 7.6405 20.8006 7.59309 20.199 7.51199C20.133 7.49599 20.099 7.48599 20.099 7.48599V7.49899C18.5143 7.26857 16.9513 6.90768 15.426 6.41999C9.55202 4.59899 7.89102 0.336992 -0.000976562 0.0419922V11.961H374.999V7.48599C374.999 7.48599 372.517 8.28599 366.504 6.41999C360.63 4.59899 358.969 0.336992 351.077 0.0419922C343.184 0.336992 341.522 4.59899 335.648 6.41999Z" fill="white"/>
</svg>
