<svg width="27" height="23" viewBox="0 0 27 23" fill="none" xmlns="http://www.w3.org/2000/svg">
<path d="M1.1 10.472H23.087L14.668 2.45399C14.5629 2.35418 14.4786 2.23466 14.4197 2.10225C14.3608 1.96984 14.3286 1.82713 14.3249 1.68227C14.3212 1.53741 14.3461 1.39324 14.3981 1.25799C14.4501 1.12273 14.5282 0.999044 14.628 0.893987C14.7278 0.788929 14.8473 0.704558 14.9797 0.645691C15.1121 0.586824 15.2549 0.554614 15.3997 0.5509C15.5446 0.547185 15.6887 0.57204 15.824 0.624044C15.9593 0.676047 16.0829 0.754182 16.188 0.853987L25.8 10.016C26.0071 10.222 26.1711 10.4672 26.2824 10.7373C26.3937 11.0073 26.4501 11.2969 26.4484 11.589C26.4466 11.8811 26.3867 12.1699 26.2721 12.4386C26.1575 12.7073 25.9906 12.9505 25.781 13.154L16.181 22.293C16.0759 22.3928 15.9523 22.4709 15.817 22.5229C15.6817 22.5749 15.5376 22.5998 15.3927 22.5961C15.2479 22.5924 15.1051 22.5602 14.9727 22.5013C14.8403 22.4424 14.7208 22.358 14.621 22.253C14.5212 22.1479 14.4431 22.0242 14.3911 21.889C14.3391 21.7537 14.3142 21.6096 14.3179 21.4647C14.3216 21.3198 14.3538 21.1771 14.4127 21.0447C14.4716 20.9123 14.5559 20.7928 14.661 20.693L23.115 12.674H1.1C0.808262 12.674 0.528473 12.5581 0.322183 12.3518C0.115893 12.1455 0 11.8657 0 11.574C0 11.2822 0.115893 11.0025 0.322183 10.7962C0.528473 10.5899 0.808262 10.474 1.1 10.474V10.472Z" fill="#947761"/>
</svg>
