<svg width="51" height="51" viewBox="0 0 51 51" fill="none" xmlns="http://www.w3.org/2000/svg">
<path d="M25.4999 -7.62939e-05C28.9095 -0.00836182 32.2854 0.671898 35.4257 1.99992C38.456 3.27974 41.2094 5.13559 43.5322 7.46477C45.8613 9.78756 47.7172 12.5409 48.997 15.5712C50.325 18.7115 51.0053 22.0874 50.997 25.497C51.0054 28.9059 50.3251 32.2812 48.997 35.4208C47.7173 38.4509 45.8614 41.204 43.5322 43.5263C41.2094 45.8555 38.456 47.7113 35.4257 48.9911C32.2854 50.3192 28.9095 50.9994 25.4999 50.9911C22.091 50.9995 18.7157 50.3192 15.5761 48.9911C12.5459 47.7112 9.79254 45.8553 7.46965 43.5263C5.14094 41.2035 3.28514 38.4505 2.00481 35.4208C0.676888 32.2812 -0.00337601 28.9059 0.00480652 25.497C-0.003479 22.0874 0.676781 18.7115 2.00481 15.5712C3.28462 12.5409 5.14048 9.78756 7.46965 7.46477C9.79254 5.13571 12.5459 3.27987 15.5761 1.99992C18.7157 0.671818 22.091 -0.00844955 25.4999 -7.62939e-05ZM28.4999 33.9999C28.6226 34.0003 28.7439 33.9763 28.8573 33.9296C28.9708 33.8829 29.0742 33.8141 29.1611 33.7275L29.7206 33.1679C29.8955 32.9921 29.9941 32.7547 29.9941 32.5068C29.9941 32.2589 29.8955 32.0204 29.7206 31.8447L23.3349 25.4638L29.7275 19.0702C29.9015 18.8943 29.9999 18.6566 29.9999 18.4091C29.9999 18.1616 29.9015 17.9239 29.7275 17.748L29.1679 17.1864C29.081 17.0998 28.9776 17.032 28.8642 16.9853C28.7508 16.9386 28.6294 16.9146 28.5068 16.915C28.3841 16.9146 28.2628 16.9386 28.1493 16.9853C28.0359 17.032 27.9325 17.0998 27.8456 17.1864L20.2333 24.7978C20.0587 24.9745 19.9609 25.2134 19.9609 25.4618C19.9609 25.7102 20.0587 25.9482 20.2333 26.1249L27.8388 33.7245C27.9253 33.8118 28.0281 33.8814 28.1415 33.9286C28.255 33.9758 28.377 34.0001 28.4999 33.9999Z" fill="white"/>
</svg>
