<svg width="51" height="51" viewBox="0 0 51 51" fill="none" xmlns="http://www.w3.org/2000/svg">
<path d="M25.5001 50.9981C22.0905 51.0062 18.7147 50.326 15.5743 48.9981C12.544 47.7183 9.79064 45.8624 7.46785 43.5333C5.13879 41.2104 3.28295 38.457 2.003 35.4268C0.674979 32.2865 -0.00528106 28.9106 0.00300447 25.5011C-0.00525628 22.0918 0.675006 18.7162 2.003 15.5762C3.28334 12.5466 5.13914 9.79357 7.46785 7.47078C9.79086 5.14212 12.5442 3.28661 15.5743 2.00691C18.7147 0.679069 22.0905 -0.00118299 25.5001 0.00691028C28.9093 -0.00135047 32.2849 0.678911 35.4249 2.00691C38.455 3.28661 41.2083 5.14212 43.5313 7.47078C45.86 9.79357 47.7158 12.5466 48.9962 15.5762C50.3242 18.7162 51.0044 22.0918 50.9962 25.5011C51.0045 28.9106 50.3242 32.2865 48.9962 35.4268C47.7162 38.457 45.8604 41.2104 43.5313 43.5333C41.2085 45.8624 38.4551 47.7183 35.4249 48.9981C32.2849 50.3261 28.9093 51.0064 25.5001 50.9981ZM22.4932 16.9093C22.3706 16.9089 22.2491 16.9327 22.1358 16.9796C22.0225 17.0264 21.9196 17.0948 21.8331 17.1817L21.2735 17.7423C21.0995 17.9181 21.0011 18.1551 21.0011 18.4024C21.0011 18.6498 21.0995 18.8877 21.2735 19.0636L27.6651 25.4581L21.2794 31.8389C21.1049 32.0145 21.0069 32.2526 21.0069 32.5001C21.0069 32.7476 21.1049 32.9847 21.2794 33.1602L21.8389 33.7208C21.926 33.8075 22.0291 33.8762 22.1427 33.9229C22.2563 33.9696 22.3782 33.9937 22.5011 33.9932C22.6234 33.9937 22.7444 33.9696 22.8575 33.9229C22.9706 33.8762 23.0738 33.8074 23.1602 33.7208L30.7647 26.1212C30.9393 25.9445 31.0372 25.7065 31.0372 25.4581C31.0372 25.2097 30.9393 24.9707 30.7647 24.794L23.1544 17.1837C23.0681 17.0964 22.9649 17.0278 22.8516 16.9805C22.7383 16.9333 22.616 16.9091 22.4932 16.9093Z" fill="white"/>
</svg>
